<svg xmlns="http://www.w3.org/2000/svg" xmlns:rdkit="http://www.rdkit.org/xml" xmlns:xlink="http://www.w3.org/1999/xlink" version="1.1" baseProfile="full" xml:space="preserve" width="600px" height="200px" viewBox="0 0 600 200">
<!-- END OF HEADER -->
<rect style="opacity:1.0;fill:#FFFFFF;stroke:none" width="600.0" height="200.0" x="0.0" y="0.0"> </rect>
<path class="bond-0 atom-0 atom-1" d="M 38.3,125.2 L 39.5,116.9" style="fill:none;fill-rule:evenodd;stroke:#0000FF;stroke-width:2.0px;stroke-linecap:butt;stroke-linejoin:miter;stroke-opacity:1"/>
<path class="bond-0 atom-0 atom-1" d="M 39.5,116.9 L 40.7,108.6" style="fill:none;fill-rule:evenodd;stroke:#000000;stroke-width:2.0px;stroke-linecap:butt;stroke-linejoin:miter;stroke-opacity:1"/>
<path class="bond-0 atom-0 atom-1" d="M 35.3,124.7 L 36.5,116.5" style="fill:none;fill-rule:evenodd;stroke:#0000FF;stroke-width:2.0px;stroke-linecap:butt;stroke-linejoin:miter;stroke-opacity:1"/>
<path class="bond-0 atom-0 atom-1" d="M 36.5,116.5 L 37.7,108.2" style="fill:none;fill-rule:evenodd;stroke:#000000;stroke-width:2.0px;stroke-linecap:butt;stroke-linejoin:miter;stroke-opacity:1"/>
<path class="bond-0 atom-0 atom-1" d="M 41.3,125.6 L 42.5,117.4" style="fill:none;fill-rule:evenodd;stroke:#0000FF;stroke-width:2.0px;stroke-linecap:butt;stroke-linejoin:miter;stroke-opacity:1"/>
<path class="bond-0 atom-0 atom-1" d="M 42.5,117.4 L 43.8,109.1" style="fill:none;fill-rule:evenodd;stroke:#000000;stroke-width:2.0px;stroke-linecap:butt;stroke-linejoin:miter;stroke-opacity:1"/>
<path class="bond-1 atom-1 atom-2" d="M 40.7,108.6 L 43.7,88.6" style="fill:none;fill-rule:evenodd;stroke:#000000;stroke-width:2.0px;stroke-linecap:butt;stroke-linejoin:miter;stroke-opacity:1"/>
<path class="bond-2 atom-2 atom-3" d="M 43.7,88.6 L 27.8,75.9" style="fill:none;fill-rule:evenodd;stroke:#000000;stroke-width:2.0px;stroke-linecap:butt;stroke-linejoin:miter;stroke-opacity:1"/>
<path class="bond-2 atom-2 atom-3" d="M 44.3,85.1 L 31.1,74.6" style="fill:none;fill-rule:evenodd;stroke:#000000;stroke-width:2.0px;stroke-linecap:butt;stroke-linejoin:miter;stroke-opacity:1"/>
<path class="bond-3 atom-3 atom-4" d="M 27.8,75.9 L 30.8,55.8" style="fill:none;fill-rule:evenodd;stroke:#000000;stroke-width:2.0px;stroke-linecap:butt;stroke-linejoin:miter;stroke-opacity:1"/>
<path class="bond-4 atom-4 atom-5" d="M 30.8,55.8 L 49.7,48.4" style="fill:none;fill-rule:evenodd;stroke:#000000;stroke-width:2.0px;stroke-linecap:butt;stroke-linejoin:miter;stroke-opacity:1"/>
<path class="bond-4 atom-4 atom-5" d="M 33.6,58.0 L 49.2,51.9" style="fill:none;fill-rule:evenodd;stroke:#000000;stroke-width:2.0px;stroke-linecap:butt;stroke-linejoin:miter;stroke-opacity:1"/>
<path class="bond-5 atom-5 atom-6" d="M 49.7,48.4 L 65.6,61.0" style="fill:none;fill-rule:evenodd;stroke:#000000;stroke-width:2.0px;stroke-linecap:butt;stroke-linejoin:miter;stroke-opacity:1"/>
<path class="bond-6 atom-6 atom-7" d="M 65.6,61.0 L 84.5,53.6" style="fill:none;fill-rule:evenodd;stroke:#000000;stroke-width:2.0px;stroke-linecap:butt;stroke-linejoin:miter;stroke-opacity:1"/>
<path class="bond-7 atom-7 atom-8" d="M 84.5,53.6 L 100.4,66.2" style="fill:none;fill-rule:evenodd;stroke:#000000;stroke-width:2.0px;stroke-linecap:butt;stroke-linejoin:miter;stroke-opacity:1"/>
<path class="bond-8 atom-8 atom-9" d="M 99.0,65.1 L 97.7,73.8" style="fill:none;fill-rule:evenodd;stroke:#000000;stroke-width:2.0px;stroke-linecap:butt;stroke-linejoin:miter;stroke-opacity:1"/>
<path class="bond-8 atom-8 atom-9" d="M 97.7,73.8 L 96.4,82.5" style="fill:none;fill-rule:evenodd;stroke:#FF0000;stroke-width:2.0px;stroke-linecap:butt;stroke-linejoin:miter;stroke-opacity:1"/>
<path class="bond-8 atom-8 atom-9" d="M 102.0,65.6 L 100.7,74.3" style="fill:none;fill-rule:evenodd;stroke:#000000;stroke-width:2.0px;stroke-linecap:butt;stroke-linejoin:miter;stroke-opacity:1"/>
<path class="bond-8 atom-8 atom-9" d="M 100.7,74.3 L 99.5,82.9" style="fill:none;fill-rule:evenodd;stroke:#FF0000;stroke-width:2.0px;stroke-linecap:butt;stroke-linejoin:miter;stroke-opacity:1"/>
<path class="bond-9 atom-8 atom-10" d="M 100.4,66.2 L 108.4,63.1" style="fill:none;fill-rule:evenodd;stroke:#000000;stroke-width:2.0px;stroke-linecap:butt;stroke-linejoin:miter;stroke-opacity:1"/>
<path class="bond-9 atom-8 atom-10" d="M 108.4,63.1 L 116.4,59.9" style="fill:none;fill-rule:evenodd;stroke:#0000FF;stroke-width:2.0px;stroke-linecap:butt;stroke-linejoin:miter;stroke-opacity:1"/>
<path class="bond-10 atom-10 atom-11" d="M 122.1,61.0 L 128.7,66.2" style="fill:none;fill-rule:evenodd;stroke:#0000FF;stroke-width:2.0px;stroke-linecap:butt;stroke-linejoin:miter;stroke-opacity:1"/>
<path class="bond-10 atom-10 atom-11" d="M 128.7,66.2 L 135.2,71.4" style="fill:none;fill-rule:evenodd;stroke:#000000;stroke-width:2.0px;stroke-linecap:butt;stroke-linejoin:miter;stroke-opacity:1"/>
<path class="bond-11 atom-11 atom-12" d="M 135.2,71.4 L 132.2,91.5" style="fill:none;fill-rule:evenodd;stroke:#000000;stroke-width:2.0px;stroke-linecap:butt;stroke-linejoin:miter;stroke-opacity:1"/>
<path class="bond-11 atom-11 atom-12" d="M 137.9,73.6 L 135.5,90.2" style="fill:none;fill-rule:evenodd;stroke:#000000;stroke-width:2.0px;stroke-linecap:butt;stroke-linejoin:miter;stroke-opacity:1"/>
<path class="bond-12 atom-12 atom-13" d="M 132.2,91.5 L 148.1,104.1" style="fill:none;fill-rule:evenodd;stroke:#000000;stroke-width:2.0px;stroke-linecap:butt;stroke-linejoin:miter;stroke-opacity:1"/>
<path class="bond-13 atom-13 atom-14" d="M 148.1,104.1 L 167.0,96.7" style="fill:none;fill-rule:evenodd;stroke:#000000;stroke-width:2.0px;stroke-linecap:butt;stroke-linejoin:miter;stroke-opacity:1"/>
<path class="bond-13 atom-13 atom-14" d="M 148.6,100.6 L 164.2,94.5" style="fill:none;fill-rule:evenodd;stroke:#000000;stroke-width:2.0px;stroke-linecap:butt;stroke-linejoin:miter;stroke-opacity:1"/>
<path class="bond-14 atom-14 atom-15" d="M 167.0,96.7 L 168.2,88.4" style="fill:none;fill-rule:evenodd;stroke:#000000;stroke-width:2.0px;stroke-linecap:butt;stroke-linejoin:miter;stroke-opacity:1"/>
<path class="bond-14 atom-14 atom-15" d="M 168.2,88.4 L 169.4,80.1" style="fill:none;fill-rule:evenodd;stroke:#0000FF;stroke-width:2.0px;stroke-linecap:butt;stroke-linejoin:miter;stroke-opacity:1"/>
<path class="bond-15 atom-15 atom-16" d="M 167.1,74.3 L 160.6,69.1" style="fill:none;fill-rule:evenodd;stroke:#0000FF;stroke-width:2.0px;stroke-linecap:butt;stroke-linejoin:miter;stroke-opacity:1"/>
<path class="bond-15 atom-15 atom-16" d="M 160.6,69.1 L 154.1,64.0" style="fill:none;fill-rule:evenodd;stroke:#000000;stroke-width:2.0px;stroke-linecap:butt;stroke-linejoin:miter;stroke-opacity:1"/>
<path class="bond-15 atom-15 atom-16" d="M 165.2,76.7 L 159.4,72.1" style="fill:none;fill-rule:evenodd;stroke:#0000FF;stroke-width:2.0px;stroke-linecap:butt;stroke-linejoin:miter;stroke-opacity:1"/>
<path class="bond-15 atom-15 atom-16" d="M 159.4,72.1 L 153.6,67.4" style="fill:none;fill-rule:evenodd;stroke:#000000;stroke-width:2.0px;stroke-linecap:butt;stroke-linejoin:miter;stroke-opacity:1"/>
<path class="bond-16 atom-6 atom-17" d="M 65.6,61.0 L 62.6,81.1" style="fill:none;fill-rule:evenodd;stroke:#000000;stroke-width:2.0px;stroke-linecap:butt;stroke-linejoin:miter;stroke-opacity:1"/>
<path class="bond-16 atom-6 atom-17" d="M 62.4,62.3 L 59.9,78.9" style="fill:none;fill-rule:evenodd;stroke:#000000;stroke-width:2.0px;stroke-linecap:butt;stroke-linejoin:miter;stroke-opacity:1"/>
<path class="bond-17 atom-17 atom-2" d="M 62.6,81.1 L 43.7,88.6" style="fill:none;fill-rule:evenodd;stroke:#000000;stroke-width:2.0px;stroke-linecap:butt;stroke-linejoin:miter;stroke-opacity:1"/>
<path class="bond-18 atom-16 atom-11" d="M 154.1,64.0 L 135.2,71.4" style="fill:none;fill-rule:evenodd;stroke:#000000;stroke-width:2.0px;stroke-linecap:butt;stroke-linejoin:miter;stroke-opacity:1"/>
<path d="M 40.7,109.1 L 40.7,108.6 L 40.9,107.6" style="fill:none;stroke:#000000;stroke-width:2.0px;stroke-linecap:butt;stroke-linejoin:miter;stroke-opacity:1;"/>
<path d="M 28.6,76.6 L 27.8,75.9 L 28.0,74.9" style="fill:none;stroke:#000000;stroke-width:2.0px;stroke-linecap:butt;stroke-linejoin:miter;stroke-opacity:1;"/>
<path d="M 30.7,56.8 L 30.8,55.8 L 31.8,55.5" style="fill:none;stroke:#000000;stroke-width:2.0px;stroke-linecap:butt;stroke-linejoin:miter;stroke-opacity:1;"/>
<path d="M 48.8,48.8 L 49.7,48.4 L 50.5,49.0" style="fill:none;stroke:#000000;stroke-width:2.0px;stroke-linecap:butt;stroke-linejoin:miter;stroke-opacity:1;"/>
<path d="M 83.6,54.0 L 84.5,53.6 L 85.3,54.2" style="fill:none;stroke:#000000;stroke-width:2.0px;stroke-linecap:butt;stroke-linejoin:miter;stroke-opacity:1;"/>
<path d="M 99.6,65.6 L 100.4,66.2 L 100.8,66.1" style="fill:none;stroke:#000000;stroke-width:2.0px;stroke-linecap:butt;stroke-linejoin:miter;stroke-opacity:1;"/>
<path d="M 132.3,90.5 L 132.2,91.5 L 133.0,92.1" style="fill:none;stroke:#000000;stroke-width:2.0px;stroke-linecap:butt;stroke-linejoin:miter;stroke-opacity:1;"/>
<path d="M 147.3,103.5 L 148.1,104.1 L 149.0,103.8" style="fill:none;stroke:#000000;stroke-width:2.0px;stroke-linecap:butt;stroke-linejoin:miter;stroke-opacity:1;"/>
<path d="M 166.0,97.0 L 167.0,96.7 L 167.0,96.3" style="fill:none;stroke:#000000;stroke-width:2.0px;stroke-linecap:butt;stroke-linejoin:miter;stroke-opacity:1;"/>
<path d="M 154.4,64.2 L 154.1,64.0 L 153.1,64.3" style="fill:none;stroke:#000000;stroke-width:2.0px;stroke-linecap:butt;stroke-linejoin:miter;stroke-opacity:1;"/>
<path d="M 62.8,80.1 L 62.6,81.1 L 61.7,81.5" style="fill:none;stroke:#000000;stroke-width:2.0px;stroke-linecap:butt;stroke-linejoin:miter;stroke-opacity:1;"/>
<path class="atom-0" d="M 36.5 125.9 L 38.4 128.9 Q 38.6 129.2, 38.9 129.7 Q 39.2 130.3, 39.2 130.3 L 39.2 125.9 L 39.9 125.9 L 39.9 131.6 L 39.1 131.6 L 37.1 128.3 Q 36.9 127.9, 36.6 127.4 Q 36.4 127.0, 36.3 126.9 L 36.3 131.6 L 35.6 131.6 L 35.6 125.9 L 36.5 125.9 " fill="#0000FF"/>
<path class="atom-9" d="M 94.8 86.3 Q 94.8 84.9, 95.5 84.2 Q 96.1 83.4, 97.4 83.4 Q 98.7 83.4, 99.4 84.2 Q 100.1 84.9, 100.1 86.3 Q 100.1 87.7, 99.4 88.5 Q 98.7 89.3, 97.4 89.3 Q 96.1 89.3, 95.5 88.5 Q 94.8 87.7, 94.8 86.3 M 97.4 88.6 Q 98.3 88.6, 98.8 88.1 Q 99.2 87.5, 99.2 86.3 Q 99.2 85.2, 98.8 84.6 Q 98.3 84.0, 97.4 84.0 Q 96.5 84.0, 96.1 84.6 Q 95.6 85.2, 95.6 86.3 Q 95.6 87.5, 96.1 88.1 Q 96.5 88.6, 97.4 88.6 " fill="#FF0000"/>
<path class="atom-10" d="M 118.0 55.9 L 119.9 58.9 Q 120.1 59.2, 120.4 59.8 Q 120.7 60.3, 120.7 60.4 L 120.7 55.9 L 121.5 55.9 L 121.5 61.6 L 120.7 61.6 L 118.7 58.3 Q 118.4 57.9, 118.2 57.5 Q 117.9 57.0, 117.9 56.9 L 117.9 61.6 L 117.1 61.6 L 117.1 55.9 L 118.0 55.9 " fill="#0000FF"/>
<path class="atom-10" d="M 117.0 49.6 L 117.8 49.6 L 117.8 52.0 L 120.8 52.0 L 120.8 49.6 L 121.5 49.6 L 121.5 55.3 L 120.8 55.3 L 120.8 52.7 L 117.8 52.7 L 117.8 55.3 L 117.0 55.3 L 117.0 49.6 " fill="#0000FF"/>
<path class="atom-15" d="M 168.7 73.7 L 170.6 76.8 Q 170.8 77.1, 171.1 77.6 Q 171.4 78.2, 171.4 78.2 L 171.4 73.7 L 172.2 73.7 L 172.2 79.5 L 171.4 79.5 L 169.3 76.1 Q 169.1 75.7, 168.9 75.3 Q 168.6 74.9, 168.5 74.7 L 168.5 79.5 L 167.8 79.5 L 167.8 73.7 L 168.7 73.7 " fill="#0000FF"/>
<path class="legend" d="M 80.0 190.6 L 77.2 186.6 L 78.9 186.6 L 80.9 189.4 L 82.9 186.6 L 84.5 186.6 L 81.7 190.6 L 84.7 194.9 L 83.0 194.9 L 80.8 191.8 L 78.6 194.9 L 77.0 194.9 L 80.0 190.6 " fill="#000000"/>
<path class="legend" d="M 85.7 185.7 Q 86.1 184.6, 87.1 184.0 Q 88.1 183.4, 89.5 183.4 Q 91.2 183.4, 92.2 184.3 Q 93.1 185.3, 93.1 186.9 Q 93.1 188.6, 91.9 190.2 Q 90.6 191.7, 88.1 193.6 L 93.3 193.6 L 93.3 194.9 L 85.7 194.9 L 85.7 193.8 Q 87.8 192.3, 89.0 191.2 Q 90.3 190.1, 90.9 189.0 Q 91.5 188.0, 91.5 187.0 Q 91.5 185.9, 91.0 185.3 Q 90.4 184.7, 89.5 184.7 Q 88.6 184.7, 88.0 185.1 Q 87.4 185.4, 86.9 186.2 L 85.7 185.7 " fill="#000000"/>
<path class="legend" d="M 99.5 187.8 Q 100.5 187.8, 101.3 188.2 Q 102.1 188.7, 102.5 189.4 Q 102.9 190.2, 102.9 191.2 Q 102.9 192.3, 102.4 193.2 Q 102.0 194.0, 101.1 194.5 Q 100.2 195.0, 99.1 195.0 Q 97.1 195.0, 96.1 193.6 Q 95.1 192.3, 95.1 189.5 Q 95.1 186.5, 96.3 185.0 Q 97.6 183.4, 100.0 183.4 Q 100.7 183.4, 101.3 183.6 Q 101.9 183.7, 102.5 184.1 L 101.9 185.1 Q 101.0 184.7, 100.0 184.7 Q 98.4 184.7, 97.6 185.7 Q 96.8 186.8, 96.7 188.9 Q 97.3 188.4, 98.0 188.1 Q 98.7 187.8, 99.5 187.8 M 99.1 193.7 Q 99.7 193.7, 100.2 193.4 Q 100.8 193.0, 101.0 192.5 Q 101.3 191.9, 101.3 191.2 Q 101.3 190.2, 100.8 189.7 Q 100.2 189.1, 99.2 189.1 Q 98.5 189.1, 97.8 189.4 Q 97.2 189.6, 96.7 190.1 Q 96.8 192.0, 97.3 192.8 Q 97.9 193.7, 99.1 193.7 " fill="#000000"/>
<path class="legend" d="M 108.7 195.0 Q 106.7 195.0, 105.6 193.5 Q 104.6 191.9, 104.6 189.2 Q 104.6 186.5, 105.6 184.9 Q 106.7 183.4, 108.7 183.4 Q 110.8 183.4, 111.9 184.9 Q 112.9 186.5, 112.9 189.2 Q 112.9 191.9, 111.9 193.5 Q 110.8 195.0, 108.7 195.0 M 108.7 193.7 Q 110.0 193.7, 110.6 192.6 Q 111.3 191.4, 111.3 189.2 Q 111.3 187.0, 110.6 185.8 Q 110.0 184.7, 108.7 184.7 Q 107.5 184.7, 106.9 185.8 Q 106.2 187.0, 106.2 189.2 Q 106.2 191.4, 106.9 192.6 Q 107.5 193.7, 108.7 193.7 " fill="#000000"/>
<path class="legend" d="M 118.9 195.0 Q 116.8 195.0, 115.8 193.5 Q 114.7 191.9, 114.7 189.2 Q 114.7 186.5, 115.8 184.9 Q 116.8 183.4, 118.9 183.4 Q 121.0 183.4, 122.0 184.9 Q 123.0 186.5, 123.0 189.2 Q 123.0 191.9, 122.0 193.5 Q 121.0 195.0, 118.9 195.0 M 118.9 193.7 Q 120.1 193.7, 120.8 192.6 Q 121.4 191.4, 121.4 189.2 Q 121.4 187.0, 120.8 185.8 Q 120.1 184.7, 118.9 184.7 Q 117.7 184.7, 117.0 185.8 Q 116.3 187.0, 116.3 189.2 Q 116.3 191.4, 117.0 192.6 Q 117.7 193.7, 118.9 193.7 " fill="#000000"/>
<path class="bond-0 atom-0 atom-1" d="M 302.6,78.9 L 302.6,87.7" style="fill:none;fill-rule:evenodd;stroke:#FF0000;stroke-width:2.0px;stroke-linecap:butt;stroke-linejoin:miter;stroke-opacity:1"/>
<path class="bond-0 atom-0 atom-1" d="M 302.6,87.7 L 302.6,96.4" style="fill:none;fill-rule:evenodd;stroke:#000000;stroke-width:2.0px;stroke-linecap:butt;stroke-linejoin:miter;stroke-opacity:1"/>
<path class="bond-0 atom-0 atom-1" d="M 299.6,78.9 L 299.6,87.7" style="fill:none;fill-rule:evenodd;stroke:#FF0000;stroke-width:2.0px;stroke-linecap:butt;stroke-linejoin:miter;stroke-opacity:1"/>
<path class="bond-0 atom-0 atom-1" d="M 299.6,87.7 L 299.6,96.4" style="fill:none;fill-rule:evenodd;stroke:#000000;stroke-width:2.0px;stroke-linecap:butt;stroke-linejoin:miter;stroke-opacity:1"/>
<path class="bond-1 atom-1 atom-2" d="M 301.1,95.6 L 308.5,99.8" style="fill:none;fill-rule:evenodd;stroke:#000000;stroke-width:2.0px;stroke-linecap:butt;stroke-linejoin:miter;stroke-opacity:1"/>
<path class="bond-1 atom-1 atom-2" d="M 308.5,99.8 L 315.8,104.1" style="fill:none;fill-rule:evenodd;stroke:#0000FF;stroke-width:2.0px;stroke-linecap:butt;stroke-linejoin:miter;stroke-opacity:1"/>
<path class="bond-2 atom-2 atom-3" d="M 321.5,104.1 L 328.9,99.8" style="fill:none;fill-rule:evenodd;stroke:#0000FF;stroke-width:2.0px;stroke-linecap:butt;stroke-linejoin:miter;stroke-opacity:1"/>
<path class="bond-2 atom-2 atom-3" d="M 328.9,99.8 L 336.3,95.6" style="fill:none;fill-rule:evenodd;stroke:#000000;stroke-width:2.0px;stroke-linecap:butt;stroke-linejoin:miter;stroke-opacity:1"/>
<path class="bond-3 atom-3 atom-4" d="M 336.3,95.6 L 353.8,105.7" style="fill:none;fill-rule:evenodd;stroke:#000000;stroke-width:2.0px;stroke-linecap:butt;stroke-linejoin:miter;stroke-opacity:1"/>
<path class="bond-3 atom-3 atom-4" d="M 339.3,93.8 L 353.8,102.2" style="fill:none;fill-rule:evenodd;stroke:#000000;stroke-width:2.0px;stroke-linecap:butt;stroke-linejoin:miter;stroke-opacity:1"/>
<path class="bond-4 atom-4 atom-5" d="M 353.8,105.7 L 371.4,95.6" style="fill:none;fill-rule:evenodd;stroke:#000000;stroke-width:2.0px;stroke-linecap:butt;stroke-linejoin:miter;stroke-opacity:1"/>
<path class="bond-5 atom-5 atom-6" d="M 371.4,95.6 L 371.4,75.2" style="fill:none;fill-rule:evenodd;stroke:#000000;stroke-width:2.0px;stroke-linecap:butt;stroke-linejoin:miter;stroke-opacity:1"/>
<path class="bond-5 atom-5 atom-6" d="M 368.4,93.8 L 368.4,77.0" style="fill:none;fill-rule:evenodd;stroke:#000000;stroke-width:2.0px;stroke-linecap:butt;stroke-linejoin:miter;stroke-opacity:1"/>
<path class="bond-6 atom-6 atom-7" d="M 371.4,75.2 L 353.8,65.1" style="fill:none;fill-rule:evenodd;stroke:#000000;stroke-width:2.0px;stroke-linecap:butt;stroke-linejoin:miter;stroke-opacity:1"/>
<path class="bond-7 atom-7 atom-8" d="M 353.8,65.1 L 336.3,75.2" style="fill:none;fill-rule:evenodd;stroke:#000000;stroke-width:2.0px;stroke-linecap:butt;stroke-linejoin:miter;stroke-opacity:1"/>
<path class="bond-7 atom-7 atom-8" d="M 353.8,68.6 L 339.3,77.0" style="fill:none;fill-rule:evenodd;stroke:#000000;stroke-width:2.0px;stroke-linecap:butt;stroke-linejoin:miter;stroke-opacity:1"/>
<path class="bond-8 atom-1 atom-9" d="M 301.1,95.6 L 293.7,99.8" style="fill:none;fill-rule:evenodd;stroke:#000000;stroke-width:2.0px;stroke-linecap:butt;stroke-linejoin:miter;stroke-opacity:1"/>
<path class="bond-8 atom-1 atom-9" d="M 293.7,99.8 L 286.4,104.1" style="fill:none;fill-rule:evenodd;stroke:#0000FF;stroke-width:2.0px;stroke-linecap:butt;stroke-linejoin:miter;stroke-opacity:1"/>
<path class="bond-9 atom-9 atom-10" d="M 280.7,104.1 L 273.3,99.8" style="fill:none;fill-rule:evenodd;stroke:#0000FF;stroke-width:2.0px;stroke-linecap:butt;stroke-linejoin:miter;stroke-opacity:1"/>
<path class="bond-9 atom-9 atom-10" d="M 273.3,99.8 L 265.9,95.6" style="fill:none;fill-rule:evenodd;stroke:#000000;stroke-width:2.0px;stroke-linecap:butt;stroke-linejoin:miter;stroke-opacity:1"/>
<path class="bond-10 atom-10 atom-11" d="M 265.9,95.6 L 265.9,75.2" style="fill:none;fill-rule:evenodd;stroke:#000000;stroke-width:2.0px;stroke-linecap:butt;stroke-linejoin:miter;stroke-opacity:1"/>
<path class="bond-10 atom-10 atom-11" d="M 262.9,93.8 L 262.9,77.0" style="fill:none;fill-rule:evenodd;stroke:#000000;stroke-width:2.0px;stroke-linecap:butt;stroke-linejoin:miter;stroke-opacity:1"/>
<path class="bond-11 atom-11 atom-12" d="M 265.9,75.2 L 248.3,65.1" style="fill:none;fill-rule:evenodd;stroke:#000000;stroke-width:2.0px;stroke-linecap:butt;stroke-linejoin:miter;stroke-opacity:1"/>
<path class="bond-12 atom-12 atom-13" d="M 248.3,65.1 L 230.8,75.2" style="fill:none;fill-rule:evenodd;stroke:#000000;stroke-width:2.0px;stroke-linecap:butt;stroke-linejoin:miter;stroke-opacity:1"/>
<path class="bond-12 atom-12 atom-13" d="M 248.3,68.6 L 233.8,77.0" style="fill:none;fill-rule:evenodd;stroke:#000000;stroke-width:2.0px;stroke-linecap:butt;stroke-linejoin:miter;stroke-opacity:1"/>
<path class="bond-13 atom-13 atom-14" d="M 230.8,75.2 L 230.8,83.6" style="fill:none;fill-rule:evenodd;stroke:#000000;stroke-width:2.0px;stroke-linecap:butt;stroke-linejoin:miter;stroke-opacity:1"/>
<path class="bond-13 atom-13 atom-14" d="M 230.8,83.6 L 230.8,92.0" style="fill:none;fill-rule:evenodd;stroke:#0000FF;stroke-width:2.0px;stroke-linecap:butt;stroke-linejoin:miter;stroke-opacity:1"/>
<path class="bond-14 atom-14 atom-15" d="M 233.6,97.2 L 241.0,101.5" style="fill:none;fill-rule:evenodd;stroke:#0000FF;stroke-width:2.0px;stroke-linecap:butt;stroke-linejoin:miter;stroke-opacity:1"/>
<path class="bond-14 atom-14 atom-15" d="M 241.0,101.5 L 248.3,105.7" style="fill:none;fill-rule:evenodd;stroke:#000000;stroke-width:2.0px;stroke-linecap:butt;stroke-linejoin:miter;stroke-opacity:1"/>
<path class="bond-14 atom-14 atom-15" d="M 235.1,94.6 L 241.7,98.4" style="fill:none;fill-rule:evenodd;stroke:#0000FF;stroke-width:2.0px;stroke-linecap:butt;stroke-linejoin:miter;stroke-opacity:1"/>
<path class="bond-14 atom-14 atom-15" d="M 241.7,98.4 L 248.3,102.2" style="fill:none;fill-rule:evenodd;stroke:#000000;stroke-width:2.0px;stroke-linecap:butt;stroke-linejoin:miter;stroke-opacity:1"/>
<path class="bond-15 atom-8 atom-3" d="M 336.3,75.2 L 336.3,95.6" style="fill:none;fill-rule:evenodd;stroke:#000000;stroke-width:2.0px;stroke-linecap:butt;stroke-linejoin:miter;stroke-opacity:1"/>
<path class="bond-16 atom-15 atom-10" d="M 248.3,105.7 L 265.9,95.6" style="fill:none;fill-rule:evenodd;stroke:#000000;stroke-width:2.0px;stroke-linecap:butt;stroke-linejoin:miter;stroke-opacity:1"/>
<path d="M 301.5,95.8 L 301.1,95.6 L 300.7,95.8" style="fill:none;stroke:#000000;stroke-width:2.0px;stroke-linecap:butt;stroke-linejoin:miter;stroke-opacity:1;"/>
<path d="M 353.0,105.2 L 353.8,105.7 L 354.7,105.2" style="fill:none;stroke:#000000;stroke-width:2.0px;stroke-linecap:butt;stroke-linejoin:miter;stroke-opacity:1;"/>
<path d="M 370.5,96.1 L 371.4,95.6 L 371.4,94.5" style="fill:none;stroke:#000000;stroke-width:2.0px;stroke-linecap:butt;stroke-linejoin:miter;stroke-opacity:1;"/>
<path d="M 371.4,76.3 L 371.4,75.2 L 370.5,74.7" style="fill:none;stroke:#000000;stroke-width:2.0px;stroke-linecap:butt;stroke-linejoin:miter;stroke-opacity:1;"/>
<path d="M 354.7,65.6 L 353.8,65.1 L 353.0,65.6" style="fill:none;stroke:#000000;stroke-width:2.0px;stroke-linecap:butt;stroke-linejoin:miter;stroke-opacity:1;"/>
<path d="M 337.1,74.7 L 336.3,75.2 L 336.3,76.3" style="fill:none;stroke:#000000;stroke-width:2.0px;stroke-linecap:butt;stroke-linejoin:miter;stroke-opacity:1;"/>
<path d="M 265.9,76.3 L 265.9,75.2 L 265.0,74.7" style="fill:none;stroke:#000000;stroke-width:2.0px;stroke-linecap:butt;stroke-linejoin:miter;stroke-opacity:1;"/>
<path d="M 249.2,65.6 L 248.3,65.1 L 247.5,65.6" style="fill:none;stroke:#000000;stroke-width:2.0px;stroke-linecap:butt;stroke-linejoin:miter;stroke-opacity:1;"/>
<path d="M 231.6,74.7 L 230.8,75.2 L 230.8,75.7" style="fill:none;stroke:#000000;stroke-width:2.0px;stroke-linecap:butt;stroke-linejoin:miter;stroke-opacity:1;"/>
<path d="M 248.0,105.5 L 248.3,105.7 L 249.2,105.2" style="fill:none;stroke:#000000;stroke-width:2.0px;stroke-linecap:butt;stroke-linejoin:miter;stroke-opacity:1;"/>
<path class="atom-0" d="M 298.5 75.3 Q 298.5 73.9, 299.1 73.1 Q 299.8 72.3, 301.1 72.3 Q 302.4 72.3, 303.0 73.1 Q 303.7 73.9, 303.7 75.3 Q 303.7 76.7, 303.0 77.5 Q 302.3 78.2, 301.1 78.2 Q 299.8 78.2, 299.1 77.5 Q 298.5 76.7, 298.5 75.3 M 301.1 77.6 Q 302.0 77.6, 302.4 77.0 Q 302.9 76.4, 302.9 75.3 Q 302.9 74.1, 302.4 73.6 Q 302.0 73.0, 301.1 73.0 Q 300.2 73.0, 299.7 73.6 Q 299.3 74.1, 299.3 75.3 Q 299.3 76.4, 299.7 77.0 Q 300.2 77.6, 301.1 77.6 " fill="#FF0000"/>
<path class="atom-2" d="M 317.4 102.8 L 319.3 105.9 Q 319.5 106.2, 319.8 106.7 Q 320.1 107.3, 320.1 107.3 L 320.1 102.8 L 320.9 102.8 L 320.9 108.6 L 320.1 108.6 L 318.0 105.2 Q 317.8 104.9, 317.6 104.4 Q 317.3 104.0, 317.2 103.8 L 317.2 108.6 L 316.5 108.6 L 316.5 102.8 L 317.4 102.8 " fill="#0000FF"/>
<path class="atom-2" d="M 316.4 109.2 L 317.2 109.2 L 317.2 111.6 L 320.1 111.6 L 320.1 109.2 L 320.9 109.2 L 320.9 114.9 L 320.1 114.9 L 320.1 112.2 L 317.2 112.2 L 317.2 114.9 L 316.4 114.9 L 316.4 109.2 " fill="#0000FF"/>
<path class="atom-9" d="M 282.2 102.8 L 284.1 105.9 Q 284.3 106.2, 284.6 106.7 Q 284.9 107.3, 284.9 107.3 L 284.9 102.8 L 285.7 102.8 L 285.7 108.6 L 284.9 108.6 L 282.9 105.2 Q 282.6 104.9, 282.4 104.4 Q 282.1 104.0, 282.1 103.8 L 282.1 108.6 L 281.3 108.6 L 281.3 102.8 L 282.2 102.8 " fill="#0000FF"/>
<path class="atom-9" d="M 281.3 109.2 L 282.0 109.2 L 282.0 111.6 L 285.0 111.6 L 285.0 109.2 L 285.8 109.2 L 285.8 114.9 L 285.0 114.9 L 285.0 112.2 L 282.0 112.2 L 282.0 114.9 L 281.3 114.9 L 281.3 109.2 " fill="#0000FF"/>
<path class="atom-14" d="M 229.5 92.7 L 231.4 95.7 Q 231.6 96.0, 231.9 96.6 Q 232.2 97.1, 232.2 97.1 L 232.2 92.7 L 232.9 92.7 L 232.9 98.4 L 232.1 98.4 L 230.1 95.1 Q 229.9 94.7, 229.6 94.3 Q 229.4 93.8, 229.3 93.7 L 229.3 98.4 L 228.6 98.4 L 228.6 92.7 L 229.5 92.7 " fill="#0000FF"/>
<path class="legend" d="M 279.3 190.6 L 276.6 186.6 L 278.3 186.6 L 280.3 189.4 L 282.3 186.6 L 283.9 186.6 L 281.1 190.6 L 284.1 194.8 L 282.3 194.8 L 280.2 191.7 L 278.0 194.8 L 276.3 194.8 L 279.3 190.6 " fill="#000000"/>
<path class="legend" d="M 289.2 195.0 Q 287.1 195.0, 286.1 193.4 Q 285.1 191.9, 285.1 189.2 Q 285.1 186.4, 286.1 184.9 Q 287.1 183.4, 289.2 183.4 Q 291.3 183.4, 292.3 184.9 Q 293.4 186.4, 293.4 189.2 Q 293.4 191.9, 292.3 193.4 Q 291.3 195.0, 289.2 195.0 M 289.2 193.7 Q 290.4 193.7, 291.1 192.6 Q 291.8 191.4, 291.8 189.2 Q 291.8 186.9, 291.1 185.8 Q 290.4 184.7, 289.2 184.7 Q 288.0 184.7, 287.3 185.8 Q 286.7 186.9, 286.7 189.2 Q 286.7 191.4, 287.3 192.6 Q 288.0 193.7, 289.2 193.7 " fill="#000000"/>
<path class="legend" d="M 302.6 191.0 L 303.9 191.0 L 303.9 192.2 L 302.6 192.2 L 302.6 194.8 L 301.1 194.8 L 301.1 192.2 L 295.2 192.2 L 295.2 191.2 L 300.2 183.5 L 302.6 183.5 L 302.6 191.0 M 297.1 191.0 L 301.1 191.0 L 301.1 184.5 L 297.1 191.0 " fill="#000000"/>
<path class="legend" d="M 311.0 188.9 Q 312.1 189.2, 312.6 189.9 Q 313.2 190.6, 313.2 191.7 Q 313.2 192.7, 312.7 193.4 Q 312.2 194.2, 311.3 194.6 Q 310.4 195.0, 309.3 195.0 Q 308.1 195.0, 307.2 194.6 Q 306.3 194.2, 305.6 193.3 L 306.5 192.4 Q 307.2 193.1, 307.8 193.4 Q 308.4 193.7, 309.3 193.7 Q 310.3 193.7, 310.9 193.2 Q 311.6 192.6, 311.6 191.7 Q 311.6 190.6, 310.9 190.1 Q 310.3 189.5, 308.9 189.5 L 308.1 189.5 L 308.1 188.4 L 308.8 188.4 Q 310.0 188.4, 310.7 187.8 Q 311.3 187.3, 311.3 186.3 Q 311.3 185.5, 310.8 185.1 Q 310.2 184.7, 309.3 184.7 Q 308.4 184.7, 307.8 185.0 Q 307.2 185.3, 306.8 186.2 L 305.6 185.6 Q 306.0 184.6, 307.0 184.0 Q 308.0 183.4, 309.3 183.4 Q 311.0 183.4, 312.0 184.2 Q 312.9 185.0, 312.9 186.3 Q 312.9 187.2, 312.4 187.8 Q 311.9 188.5, 311.0 188.9 " fill="#000000"/>
<path class="legend" d="M 322.3 191.0 L 323.7 191.0 L 323.7 192.2 L 322.3 192.2 L 322.3 194.8 L 320.8 194.8 L 320.8 192.2 L 314.9 192.2 L 314.9 191.2 L 319.9 183.5 L 322.3 183.5 L 322.3 191.0 M 316.8 191.0 L 320.8 191.0 L 320.8 184.5 L 316.8 191.0 " fill="#000000"/>
<path class="bond-0 atom-0 atom-1" d="M 414.1,112.9 L 422.1,109.6" style="fill:none;fill-rule:evenodd;stroke:#0000FF;stroke-width:2.0px;stroke-linecap:butt;stroke-linejoin:miter;stroke-opacity:1"/>
<path class="bond-0 atom-0 atom-1" d="M 422.1,109.6 L 430.0,106.3" style="fill:none;fill-rule:evenodd;stroke:#000000;stroke-width:2.0px;stroke-linecap:butt;stroke-linejoin:miter;stroke-opacity:1"/>
<path class="bond-0 atom-0 atom-1" d="M 412.9,110.1 L 420.9,106.8" style="fill:none;fill-rule:evenodd;stroke:#0000FF;stroke-width:2.0px;stroke-linecap:butt;stroke-linejoin:miter;stroke-opacity:1"/>
<path class="bond-0 atom-0 atom-1" d="M 420.9,106.8 L 428.8,103.5" style="fill:none;fill-rule:evenodd;stroke:#000000;stroke-width:2.0px;stroke-linecap:butt;stroke-linejoin:miter;stroke-opacity:1"/>
<path class="bond-0 atom-0 atom-1" d="M 415.3,115.7 L 423.2,112.4" style="fill:none;fill-rule:evenodd;stroke:#0000FF;stroke-width:2.0px;stroke-linecap:butt;stroke-linejoin:miter;stroke-opacity:1"/>
<path class="bond-0 atom-0 atom-1" d="M 423.2,112.4 L 431.2,109.1" style="fill:none;fill-rule:evenodd;stroke:#000000;stroke-width:2.0px;stroke-linecap:butt;stroke-linejoin:miter;stroke-opacity:1"/>
<path class="bond-1 atom-1 atom-2" d="M 430.0,106.3 L 448.7,98.4" style="fill:none;fill-rule:evenodd;stroke:#000000;stroke-width:2.0px;stroke-linecap:butt;stroke-linejoin:miter;stroke-opacity:1"/>
<path class="bond-2 atom-2 atom-3" d="M 448.7,98.4 L 451.2,78.2" style="fill:none;fill-rule:evenodd;stroke:#000000;stroke-width:2.0px;stroke-linecap:butt;stroke-linejoin:miter;stroke-opacity:1"/>
<path class="bond-2 atom-2 atom-3" d="M 451.9,97.0 L 454.0,80.4" style="fill:none;fill-rule:evenodd;stroke:#000000;stroke-width:2.0px;stroke-linecap:butt;stroke-linejoin:miter;stroke-opacity:1"/>
<path class="bond-3 atom-3 atom-4" d="M 451.2,78.2 L 470.0,70.4" style="fill:none;fill-rule:evenodd;stroke:#000000;stroke-width:2.0px;stroke-linecap:butt;stroke-linejoin:miter;stroke-opacity:1"/>
<path class="bond-4 atom-4 atom-5" d="M 470.0,70.4 L 486.1,82.6" style="fill:none;fill-rule:evenodd;stroke:#000000;stroke-width:2.0px;stroke-linecap:butt;stroke-linejoin:miter;stroke-opacity:1"/>
<path class="bond-4 atom-4 atom-5" d="M 469.5,73.9 L 482.9,84.0" style="fill:none;fill-rule:evenodd;stroke:#000000;stroke-width:2.0px;stroke-linecap:butt;stroke-linejoin:miter;stroke-opacity:1"/>
<path class="bond-5 atom-5 atom-6" d="M 486.1,82.6 L 504.9,74.8" style="fill:none;fill-rule:evenodd;stroke:#000000;stroke-width:2.0px;stroke-linecap:butt;stroke-linejoin:miter;stroke-opacity:1"/>
<path class="bond-6 atom-6 atom-7" d="M 504.9,74.8 L 511.5,79.8" style="fill:none;fill-rule:evenodd;stroke:#000000;stroke-width:2.0px;stroke-linecap:butt;stroke-linejoin:miter;stroke-opacity:1"/>
<path class="bond-6 atom-6 atom-7" d="M 511.5,79.8 L 518.2,84.9" style="fill:none;fill-rule:evenodd;stroke:#0000FF;stroke-width:2.0px;stroke-linecap:butt;stroke-linejoin:miter;stroke-opacity:1"/>
<path class="bond-7 atom-7 atom-8" d="M 523.9,85.9 L 531.8,82.5" style="fill:none;fill-rule:evenodd;stroke:#0000FF;stroke-width:2.0px;stroke-linecap:butt;stroke-linejoin:miter;stroke-opacity:1"/>
<path class="bond-7 atom-7 atom-8" d="M 531.8,82.5 L 539.7,79.2" style="fill:none;fill-rule:evenodd;stroke:#000000;stroke-width:2.0px;stroke-linecap:butt;stroke-linejoin:miter;stroke-opacity:1"/>
<path class="bond-8 atom-8 atom-9" d="M 541.1,80.2 L 542.2,71.6" style="fill:none;fill-rule:evenodd;stroke:#000000;stroke-width:2.0px;stroke-linecap:butt;stroke-linejoin:miter;stroke-opacity:1"/>
<path class="bond-8 atom-8 atom-9" d="M 542.2,71.6 L 543.3,62.9" style="fill:none;fill-rule:evenodd;stroke:#FF0000;stroke-width:2.0px;stroke-linecap:butt;stroke-linejoin:miter;stroke-opacity:1"/>
<path class="bond-8 atom-8 atom-9" d="M 538.1,79.9 L 539.2,71.2" style="fill:none;fill-rule:evenodd;stroke:#000000;stroke-width:2.0px;stroke-linecap:butt;stroke-linejoin:miter;stroke-opacity:1"/>
<path class="bond-8 atom-8 atom-9" d="M 539.2,71.2 L 540.3,62.5" style="fill:none;fill-rule:evenodd;stroke:#FF0000;stroke-width:2.0px;stroke-linecap:butt;stroke-linejoin:miter;stroke-opacity:1"/>
<path class="bond-9 atom-8 atom-10" d="M 539.7,79.2 L 546.4,84.2" style="fill:none;fill-rule:evenodd;stroke:#000000;stroke-width:2.0px;stroke-linecap:butt;stroke-linejoin:miter;stroke-opacity:1"/>
<path class="bond-9 atom-8 atom-10" d="M 546.4,84.2 L 553.1,89.3" style="fill:none;fill-rule:evenodd;stroke:#0000FF;stroke-width:2.0px;stroke-linecap:butt;stroke-linejoin:miter;stroke-opacity:1"/>
<path class="bond-10 atom-10 atom-11" d="M 555.5,95.0 L 554.4,103.3" style="fill:none;fill-rule:evenodd;stroke:#0000FF;stroke-width:2.0px;stroke-linecap:butt;stroke-linejoin:miter;stroke-opacity:1"/>
<path class="bond-10 atom-10 atom-11" d="M 554.4,103.3 L 553.4,111.6" style="fill:none;fill-rule:evenodd;stroke:#000000;stroke-width:2.0px;stroke-linecap:butt;stroke-linejoin:miter;stroke-opacity:1"/>
<path class="bond-11 atom-11 atom-12" d="M 553.4,111.6 L 569.6,123.9" style="fill:none;fill-rule:evenodd;stroke:#000000;stroke-width:2.0px;stroke-linecap:butt;stroke-linejoin:miter;stroke-opacity:1"/>
<path class="bond-12 atom-12 atom-13" d="M 569.6,123.9 L 577.3,120.6" style="fill:none;fill-rule:evenodd;stroke:#000000;stroke-width:2.0px;stroke-linecap:butt;stroke-linejoin:miter;stroke-opacity:1"/>
<path class="bond-12 atom-12 atom-13" d="M 577.3,120.6 L 585.0,117.4" style="fill:none;fill-rule:evenodd;stroke:#FF0000;stroke-width:2.0px;stroke-linecap:butt;stroke-linejoin:miter;stroke-opacity:1"/>
<path class="bond-13 atom-13 atom-14" d="M 588.7,112.4 L 589.8,104.1" style="fill:none;fill-rule:evenodd;stroke:#FF0000;stroke-width:2.0px;stroke-linecap:butt;stroke-linejoin:miter;stroke-opacity:1"/>
<path class="bond-13 atom-13 atom-14" d="M 589.8,104.1 L 590.8,95.9" style="fill:none;fill-rule:evenodd;stroke:#000000;stroke-width:2.0px;stroke-linecap:butt;stroke-linejoin:miter;stroke-opacity:1"/>
<path class="bond-14 atom-14 atom-15" d="M 590.8,95.9 L 574.6,83.6" style="fill:none;fill-rule:evenodd;stroke:#000000;stroke-width:2.0px;stroke-linecap:butt;stroke-linejoin:miter;stroke-opacity:1"/>
<path class="bond-15 atom-5 atom-16" d="M 486.1,82.6 L 483.6,102.8" style="fill:none;fill-rule:evenodd;stroke:#000000;stroke-width:2.0px;stroke-linecap:butt;stroke-linejoin:miter;stroke-opacity:1"/>
<path class="bond-16 atom-16 atom-17" d="M 483.6,102.8 L 464.9,110.7" style="fill:none;fill-rule:evenodd;stroke:#000000;stroke-width:2.0px;stroke-linecap:butt;stroke-linejoin:miter;stroke-opacity:1"/>
<path class="bond-16 atom-16 atom-17" d="M 480.8,100.7 L 465.3,107.2" style="fill:none;fill-rule:evenodd;stroke:#000000;stroke-width:2.0px;stroke-linecap:butt;stroke-linejoin:miter;stroke-opacity:1"/>
<path class="bond-17 atom-17 atom-2" d="M 464.9,110.7 L 448.7,98.4" style="fill:none;fill-rule:evenodd;stroke:#000000;stroke-width:2.0px;stroke-linecap:butt;stroke-linejoin:miter;stroke-opacity:1"/>
<path class="bond-18 atom-15 atom-10" d="M 574.6,83.6 L 566.7,86.9" style="fill:none;fill-rule:evenodd;stroke:#000000;stroke-width:2.0px;stroke-linecap:butt;stroke-linejoin:miter;stroke-opacity:1"/>
<path class="bond-18 atom-15 atom-10" d="M 566.7,86.9 L 558.8,90.3" style="fill:none;fill-rule:evenodd;stroke:#0000FF;stroke-width:2.0px;stroke-linecap:butt;stroke-linejoin:miter;stroke-opacity:1"/>
<path d="M 429.6,106.4 L 430.0,106.3 L 430.9,105.9" style="fill:none;stroke:#000000;stroke-width:2.0px;stroke-linecap:butt;stroke-linejoin:miter;stroke-opacity:1;"/>
<path d="M 451.1,79.3 L 451.2,78.2 L 452.2,77.9" style="fill:none;stroke:#000000;stroke-width:2.0px;stroke-linecap:butt;stroke-linejoin:miter;stroke-opacity:1;"/>
<path d="M 469.0,70.8 L 470.0,70.4 L 470.8,71.0" style="fill:none;stroke:#000000;stroke-width:2.0px;stroke-linecap:butt;stroke-linejoin:miter;stroke-opacity:1;"/>
<path d="M 503.9,75.2 L 504.9,74.8 L 505.2,75.0" style="fill:none;stroke:#000000;stroke-width:2.0px;stroke-linecap:butt;stroke-linejoin:miter;stroke-opacity:1;"/>
<path d="M 539.3,79.3 L 539.7,79.2 L 540.1,79.4" style="fill:none;stroke:#000000;stroke-width:2.0px;stroke-linecap:butt;stroke-linejoin:miter;stroke-opacity:1;"/>
<path d="M 553.4,111.2 L 553.4,111.6 L 554.2,112.2" style="fill:none;stroke:#000000;stroke-width:2.0px;stroke-linecap:butt;stroke-linejoin:miter;stroke-opacity:1;"/>
<path d="M 568.7,123.3 L 569.6,123.9 L 569.9,123.7" style="fill:none;stroke:#000000;stroke-width:2.0px;stroke-linecap:butt;stroke-linejoin:miter;stroke-opacity:1;"/>
<path d="M 590.8,96.3 L 590.8,95.9 L 590.0,95.2" style="fill:none;stroke:#000000;stroke-width:2.0px;stroke-linecap:butt;stroke-linejoin:miter;stroke-opacity:1;"/>
<path d="M 575.4,84.2 L 574.6,83.6 L 574.2,83.7" style="fill:none;stroke:#000000;stroke-width:2.0px;stroke-linecap:butt;stroke-linejoin:miter;stroke-opacity:1;"/>
<path d="M 483.7,101.8 L 483.6,102.8 L 482.7,103.2" style="fill:none;stroke:#000000;stroke-width:2.0px;stroke-linecap:butt;stroke-linejoin:miter;stroke-opacity:1;"/>
<path d="M 465.8,110.3 L 464.9,110.7 L 464.1,110.0" style="fill:none;stroke:#000000;stroke-width:2.0px;stroke-linecap:butt;stroke-linejoin:miter;stroke-opacity:1;"/>
<path class="atom-0" d="M 410.0 111.3 L 411.9 114.3 Q 412.1 114.6, 412.4 115.1 Q 412.7 115.7, 412.7 115.7 L 412.7 111.3 L 413.5 111.3 L 413.5 117.0 L 412.7 117.0 L 410.6 113.7 Q 410.4 113.3, 410.2 112.8 Q 409.9 112.4, 409.8 112.3 L 409.8 117.0 L 409.1 117.0 L 409.1 111.3 L 410.0 111.3 " fill="#0000FF"/>
<path class="atom-7" d="M 519.8 84.2 L 521.6 87.2 Q 521.8 87.5, 522.1 88.1 Q 522.4 88.6, 522.4 88.6 L 522.4 84.2 L 523.2 84.2 L 523.2 89.9 L 522.4 89.9 L 520.4 86.6 Q 520.2 86.2, 519.9 85.8 Q 519.7 85.3, 519.6 85.2 L 519.6 89.9 L 518.8 89.9 L 518.8 84.2 L 519.8 84.2 " fill="#0000FF"/>
<path class="atom-7" d="M 518.8 90.5 L 519.6 90.5 L 519.6 92.9 L 522.5 92.9 L 522.5 90.5 L 523.3 90.5 L 523.3 96.3 L 522.5 96.3 L 522.5 93.6 L 519.6 93.6 L 519.6 96.3 L 518.8 96.3 L 518.8 90.5 " fill="#0000FF"/>
<path class="atom-9" d="M 539.6 59.1 Q 539.6 57.7, 540.3 56.9 Q 541.0 56.1, 542.3 56.1 Q 543.6 56.1, 544.2 56.9 Q 544.9 57.7, 544.9 59.1 Q 544.9 60.4, 544.2 61.2 Q 543.5 62.0, 542.3 62.0 Q 541.0 62.0, 540.3 61.2 Q 539.6 60.5, 539.6 59.1 M 542.3 61.4 Q 543.2 61.4, 543.6 60.8 Q 544.1 60.2, 544.1 59.1 Q 544.1 57.9, 543.6 57.4 Q 543.2 56.8, 542.3 56.8 Q 541.4 56.8, 540.9 57.3 Q 540.5 57.9, 540.5 59.1 Q 540.5 60.2, 540.9 60.8 Q 541.4 61.4, 542.3 61.4 " fill="#FF0000"/>
<path class="atom-10" d="M 554.6 88.6 L 556.5 91.6 Q 556.7 91.9, 557.0 92.5 Q 557.3 93.0, 557.3 93.0 L 557.3 88.6 L 558.1 88.6 L 558.1 94.3 L 557.3 94.3 L 555.3 91.0 Q 555.1 90.6, 554.8 90.2 Q 554.6 89.7, 554.5 89.6 L 554.5 94.3 L 553.7 94.3 L 553.7 88.6 L 554.6 88.6 " fill="#0000FF"/>
<path class="atom-13" d="M 585.6 116.0 Q 585.6 114.6, 586.3 113.9 Q 587.0 113.1, 588.3 113.1 Q 589.5 113.1, 590.2 113.9 Q 590.9 114.6, 590.9 116.0 Q 590.9 117.4, 590.2 118.2 Q 589.5 119.0, 588.3 119.0 Q 587.0 119.0, 586.3 118.2 Q 585.6 117.4, 585.6 116.0 M 588.3 118.3 Q 589.1 118.3, 589.6 117.8 Q 590.1 117.2, 590.1 116.0 Q 590.1 114.9, 589.6 114.3 Q 589.1 113.7, 588.3 113.7 Q 587.4 113.7, 586.9 114.3 Q 586.4 114.9, 586.4 116.0 Q 586.4 117.2, 586.9 117.8 Q 587.4 118.3, 588.3 118.3 " fill="#FF0000"/>
<path class="legend" d="M 480.8 190.6 L 478.0 186.6 L 479.7 186.6 L 481.7 189.4 L 483.7 186.6 L 485.3 186.6 L 482.5 190.6 L 485.5 194.9 L 483.8 194.9 L 481.6 191.8 L 479.4 194.9 L 477.8 194.9 L 480.8 190.6 " fill="#000000"/>
<path class="legend" d="M 487.1 193.6 L 489.6 193.6 L 489.6 185.1 L 486.8 186.0 L 486.4 185.0 L 489.9 183.5 L 491.1 183.7 L 491.1 193.6 L 493.3 193.6 L 493.3 194.9 L 487.1 194.9 L 487.1 193.6 " fill="#000000"/>
<path class="legend" d="M 494.8 185.7 Q 495.2 184.6, 496.2 184.0 Q 497.2 183.4, 498.5 183.4 Q 500.2 183.4, 501.2 184.3 Q 502.2 185.3, 502.2 186.9 Q 502.2 188.6, 500.9 190.2 Q 499.7 191.7, 497.1 193.6 L 502.4 193.6 L 502.4 194.9 L 494.7 194.9 L 494.7 193.8 Q 496.8 192.3, 498.1 191.2 Q 499.4 190.1, 500.0 189.0 Q 500.6 188.0, 500.6 187.0 Q 500.6 185.9, 500.0 185.3 Q 499.5 184.7, 498.5 184.7 Q 497.6 184.7, 497.0 185.1 Q 496.4 185.4, 496.0 186.2 L 494.8 185.7 " fill="#000000"/>
<path class="legend" d="M 511.5 191.0 L 512.8 191.0 L 512.8 192.3 L 511.5 192.3 L 511.5 194.9 L 510.0 194.9 L 510.0 192.3 L 504.1 192.3 L 504.1 191.3 L 509.1 183.5 L 511.5 183.5 L 511.5 191.0 M 506.0 191.0 L 510.0 191.0 L 510.0 184.6 L 506.0 191.0 " fill="#000000"/>
<path class="legend" d="M 518.2 183.4 Q 520.2 183.4, 521.2 184.8 Q 522.2 186.2, 522.2 188.9 Q 522.2 191.9, 521.0 193.4 Q 519.7 195.0, 517.3 195.0 Q 516.6 195.0, 516.0 194.8 Q 515.4 194.7, 514.8 194.3 L 515.4 193.3 Q 516.3 193.7, 517.3 193.7 Q 518.9 193.7, 519.7 192.7 Q 520.5 191.7, 520.6 189.5 Q 520.0 190.1, 519.3 190.3 Q 518.6 190.6, 517.8 190.6 Q 516.8 190.6, 516.0 190.2 Q 515.2 189.8, 514.8 189.0 Q 514.4 188.2, 514.4 187.2 Q 514.4 186.1, 514.9 185.2 Q 515.4 184.4, 516.2 183.9 Q 517.1 183.4, 518.2 183.4 M 516.0 187.2 Q 516.0 188.2, 516.5 188.8 Q 517.1 189.3, 518.1 189.3 Q 518.8 189.3, 519.4 189.1 Q 520.1 188.8, 520.6 188.3 Q 520.6 186.4, 520.0 185.6 Q 519.4 184.7, 518.2 184.7 Q 517.6 184.7, 517.0 185.0 Q 516.6 185.4, 516.3 185.9 Q 516.0 186.5, 516.0 187.2 " fill="#000000"/>
</svg>