<svg xmlns="http://www.w3.org/2000/svg" xmlns:rdkit="http://www.rdkit.org/xml" xmlns:xlink="http://www.w3.org/1999/xlink" version="1.1" baseProfile="full" xml:space="preserve" width="600px" height="200px" viewBox="0 0 600 200">
<!-- END OF HEADER -->
<rect style="opacity:1.0;fill:#FFFFFF;stroke:none" width="600.0" height="200.0" x="0.0" y="0.0"> </rect>
<path class="bond-0 atom-0 atom-1" d="M 9.1,130.8 L 15.4,126.5" style="fill:none;fill-rule:evenodd;stroke:#000000;stroke-width:2.0px;stroke-linecap:butt;stroke-linejoin:miter;stroke-opacity:1"/>
<path class="bond-0 atom-0 atom-1" d="M 15.4,126.5 L 21.8,122.3" style="fill:none;fill-rule:evenodd;stroke:#0000FF;stroke-width:2.0px;stroke-linecap:butt;stroke-linejoin:miter;stroke-opacity:1"/>
<path class="bond-1 atom-1 atom-2" d="M 26.9,121.6 L 34.2,124.3" style="fill:none;fill-rule:evenodd;stroke:#0000FF;stroke-width:2.0px;stroke-linecap:butt;stroke-linejoin:miter;stroke-opacity:1"/>
<path class="bond-1 atom-1 atom-2" d="M 34.2,124.3 L 41.5,127.0" style="fill:none;fill-rule:evenodd;stroke:#000000;stroke-width:2.0px;stroke-linecap:butt;stroke-linejoin:miter;stroke-opacity:1"/>
<path class="bond-2 atom-2 atom-3" d="M 41.5,127.0 L 52.9,112.7" style="fill:none;fill-rule:evenodd;stroke:#000000;stroke-width:2.0px;stroke-linecap:butt;stroke-linejoin:miter;stroke-opacity:1"/>
<path class="bond-2 atom-2 atom-3" d="M 40.6,123.7 L 49.5,112.5" style="fill:none;fill-rule:evenodd;stroke:#000000;stroke-width:2.0px;stroke-linecap:butt;stroke-linejoin:miter;stroke-opacity:1"/>
<path class="bond-3 atom-3 atom-4" d="M 52.9,112.7 L 71.2,113.4" style="fill:none;fill-rule:evenodd;stroke:#000000;stroke-width:2.0px;stroke-linecap:butt;stroke-linejoin:miter;stroke-opacity:1"/>
<path class="bond-4 atom-4 atom-5" d="M 71.2,113.4 L 75.1,107.3" style="fill:none;fill-rule:evenodd;stroke:#000000;stroke-width:2.0px;stroke-linecap:butt;stroke-linejoin:miter;stroke-opacity:1"/>
<path class="bond-4 atom-4 atom-5" d="M 75.1,107.3 L 79.0,101.2" style="fill:none;fill-rule:evenodd;stroke:#0000FF;stroke-width:2.0px;stroke-linecap:butt;stroke-linejoin:miter;stroke-opacity:1"/>
<path class="bond-5 atom-5 atom-6" d="M 83.6,98.1 L 91.5,98.4" style="fill:none;fill-rule:evenodd;stroke:#0000FF;stroke-width:2.0px;stroke-linecap:butt;stroke-linejoin:miter;stroke-opacity:1"/>
<path class="bond-5 atom-5 atom-6" d="M 91.5,98.4 L 99.4,98.7" style="fill:none;fill-rule:evenodd;stroke:#000000;stroke-width:2.0px;stroke-linecap:butt;stroke-linejoin:miter;stroke-opacity:1"/>
<path class="bond-6 atom-6 atom-7" d="M 97.8,98.7 L 101.4,105.5" style="fill:none;fill-rule:evenodd;stroke:#000000;stroke-width:2.0px;stroke-linecap:butt;stroke-linejoin:miter;stroke-opacity:1"/>
<path class="bond-6 atom-6 atom-7" d="M 101.4,105.5 L 104.9,112.4" style="fill:none;fill-rule:evenodd;stroke:#FF0000;stroke-width:2.0px;stroke-linecap:butt;stroke-linejoin:miter;stroke-opacity:1"/>
<path class="bond-6 atom-6 atom-7" d="M 100.2,97.4 L 103.8,104.3" style="fill:none;fill-rule:evenodd;stroke:#000000;stroke-width:2.0px;stroke-linecap:butt;stroke-linejoin:miter;stroke-opacity:1"/>
<path class="bond-6 atom-6 atom-7" d="M 103.8,104.3 L 107.4,111.1" style="fill:none;fill-rule:evenodd;stroke:#FF0000;stroke-width:2.0px;stroke-linecap:butt;stroke-linejoin:miter;stroke-opacity:1"/>
<path class="bond-7 atom-6 atom-8" d="M 99.4,98.7 L 103.3,92.6" style="fill:none;fill-rule:evenodd;stroke:#000000;stroke-width:2.0px;stroke-linecap:butt;stroke-linejoin:miter;stroke-opacity:1"/>
<path class="bond-7 atom-6 atom-8" d="M 103.3,92.6 L 107.2,86.5" style="fill:none;fill-rule:evenodd;stroke:#0000FF;stroke-width:2.0px;stroke-linecap:butt;stroke-linejoin:miter;stroke-opacity:1"/>
<path class="bond-8 atom-8 atom-9" d="M 111.8,83.4 L 119.6,83.7" style="fill:none;fill-rule:evenodd;stroke:#0000FF;stroke-width:2.0px;stroke-linecap:butt;stroke-linejoin:miter;stroke-opacity:1"/>
<path class="bond-8 atom-8 atom-9" d="M 119.6,83.7 L 127.5,84.0" style="fill:none;fill-rule:evenodd;stroke:#000000;stroke-width:2.0px;stroke-linecap:butt;stroke-linejoin:miter;stroke-opacity:1"/>
<path class="bond-9 atom-9 atom-10" d="M 127.5,84.0 L 136.0,100.3" style="fill:none;fill-rule:evenodd;stroke:#000000;stroke-width:2.0px;stroke-linecap:butt;stroke-linejoin:miter;stroke-opacity:1"/>
<path class="bond-10 atom-10 atom-11" d="M 136.0,100.3 L 154.3,101.1" style="fill:none;fill-rule:evenodd;stroke:#000000;stroke-width:2.0px;stroke-linecap:butt;stroke-linejoin:miter;stroke-opacity:1"/>
<path class="bond-11 atom-11 atom-12" d="M 154.3,101.1 L 162.8,117.3" style="fill:none;fill-rule:evenodd;stroke:#000000;stroke-width:2.0px;stroke-linecap:butt;stroke-linejoin:miter;stroke-opacity:1"/>
<path class="bond-11 atom-11 atom-12" d="M 157.5,101.2 L 164.5,114.6" style="fill:none;fill-rule:evenodd;stroke:#000000;stroke-width:2.0px;stroke-linecap:butt;stroke-linejoin:miter;stroke-opacity:1"/>
<path class="bond-12 atom-12 atom-13" d="M 162.8,117.3 L 181.1,118.1" style="fill:none;fill-rule:evenodd;stroke:#000000;stroke-width:2.0px;stroke-linecap:butt;stroke-linejoin:miter;stroke-opacity:1"/>
<path class="bond-13 atom-13 atom-14" d="M 181.1,118.1 L 190.9,102.6" style="fill:none;fill-rule:evenodd;stroke:#000000;stroke-width:2.0px;stroke-linecap:butt;stroke-linejoin:miter;stroke-opacity:1"/>
<path class="bond-13 atom-13 atom-14" d="M 179.6,115.3 L 187.7,102.5" style="fill:none;fill-rule:evenodd;stroke:#000000;stroke-width:2.0px;stroke-linecap:butt;stroke-linejoin:miter;stroke-opacity:1"/>
<path class="bond-14 atom-14 atom-15" d="M 190.9,102.6 L 182.4,86.4" style="fill:none;fill-rule:evenodd;stroke:#000000;stroke-width:2.0px;stroke-linecap:butt;stroke-linejoin:miter;stroke-opacity:1"/>
<path class="bond-15 atom-15 atom-16" d="M 182.4,86.4 L 164.1,85.6" style="fill:none;fill-rule:evenodd;stroke:#000000;stroke-width:2.0px;stroke-linecap:butt;stroke-linejoin:miter;stroke-opacity:1"/>
<path class="bond-15 atom-15 atom-16" d="M 180.7,89.0 L 165.6,88.4" style="fill:none;fill-rule:evenodd;stroke:#000000;stroke-width:2.0px;stroke-linecap:butt;stroke-linejoin:miter;stroke-opacity:1"/>
<path class="bond-16 atom-8 atom-17" d="M 107.5,80.1 L 104.1,73.6" style="fill:none;fill-rule:evenodd;stroke:#0000FF;stroke-width:2.0px;stroke-linecap:butt;stroke-linejoin:miter;stroke-opacity:1"/>
<path class="bond-16 atom-8 atom-17" d="M 104.1,73.6 L 100.7,67.0" style="fill:none;fill-rule:evenodd;stroke:#000000;stroke-width:2.0px;stroke-linecap:butt;stroke-linejoin:miter;stroke-opacity:1"/>
<path class="bond-17 atom-17 atom-18" d="M 100.7,67.0 L 82.4,66.3" style="fill:none;fill-rule:evenodd;stroke:#000000;stroke-width:2.0px;stroke-linecap:butt;stroke-linejoin:miter;stroke-opacity:1"/>
<path class="bond-18 atom-18 atom-19" d="M 82.4,66.3 L 73.9,50.0" style="fill:none;fill-rule:evenodd;stroke:#000000;stroke-width:2.0px;stroke-linecap:butt;stroke-linejoin:miter;stroke-opacity:1"/>
<path class="bond-18 atom-18 atom-19" d="M 79.2,66.1 L 72.2,52.7" style="fill:none;fill-rule:evenodd;stroke:#000000;stroke-width:2.0px;stroke-linecap:butt;stroke-linejoin:miter;stroke-opacity:1"/>
<path class="bond-19 atom-19 atom-20" d="M 73.9,50.0 L 55.6,49.2" style="fill:none;fill-rule:evenodd;stroke:#000000;stroke-width:2.0px;stroke-linecap:butt;stroke-linejoin:miter;stroke-opacity:1"/>
<path class="bond-20 atom-20 atom-21" d="M 55.6,49.2 L 45.8,64.7" style="fill:none;fill-rule:evenodd;stroke:#000000;stroke-width:2.0px;stroke-linecap:butt;stroke-linejoin:miter;stroke-opacity:1"/>
<path class="bond-20 atom-20 atom-21" d="M 57.1,52.1 L 48.9,64.8" style="fill:none;fill-rule:evenodd;stroke:#000000;stroke-width:2.0px;stroke-linecap:butt;stroke-linejoin:miter;stroke-opacity:1"/>
<path class="bond-21 atom-21 atom-22" d="M 45.8,64.7 L 49.2,71.2" style="fill:none;fill-rule:evenodd;stroke:#000000;stroke-width:2.0px;stroke-linecap:butt;stroke-linejoin:miter;stroke-opacity:1"/>
<path class="bond-21 atom-21 atom-22" d="M 49.2,71.2 L 52.6,77.8" style="fill:none;fill-rule:evenodd;stroke:#0000FF;stroke-width:2.0px;stroke-linecap:butt;stroke-linejoin:miter;stroke-opacity:1"/>
<path class="bond-22 atom-22 atom-23" d="M 56.8,81.1 L 64.7,81.4" style="fill:none;fill-rule:evenodd;stroke:#0000FF;stroke-width:2.0px;stroke-linecap:butt;stroke-linejoin:miter;stroke-opacity:1"/>
<path class="bond-22 atom-22 atom-23" d="M 64.7,81.4 L 72.6,81.7" style="fill:none;fill-rule:evenodd;stroke:#000000;stroke-width:2.0px;stroke-linecap:butt;stroke-linejoin:miter;stroke-opacity:1"/>
<path class="bond-22 atom-22 atom-23" d="M 56.9,78.3 L 64.0,78.6" style="fill:none;fill-rule:evenodd;stroke:#0000FF;stroke-width:2.0px;stroke-linecap:butt;stroke-linejoin:miter;stroke-opacity:1"/>
<path class="bond-22 atom-22 atom-23" d="M 64.0,78.6 L 71.1,78.9" style="fill:none;fill-rule:evenodd;stroke:#000000;stroke-width:2.0px;stroke-linecap:butt;stroke-linejoin:miter;stroke-opacity:1"/>
<path class="bond-23 atom-3 atom-24" d="M 52.9,112.7 L 48.9,106.6" style="fill:none;fill-rule:evenodd;stroke:#000000;stroke-width:2.0px;stroke-linecap:butt;stroke-linejoin:miter;stroke-opacity:1"/>
<path class="bond-23 atom-3 atom-24" d="M 48.9,106.6 L 44.9,100.6" style="fill:none;fill-rule:evenodd;stroke:#0000FF;stroke-width:2.0px;stroke-linecap:butt;stroke-linejoin:miter;stroke-opacity:1"/>
<path class="bond-24 atom-24 atom-25" d="M 40.2,98.1 L 27.7,101.6" style="fill:none;fill-rule:evenodd;stroke:#0000FF;stroke-width:2.0px;stroke-linecap:butt;stroke-linejoin:miter;stroke-opacity:1"/>
<path class="bond-24 atom-24 atom-25" d="M 40.9,100.8 L 28.4,104.2" style="fill:none;fill-rule:evenodd;stroke:#0000FF;stroke-width:2.0px;stroke-linecap:butt;stroke-linejoin:miter;stroke-opacity:1"/>
<path class="bond-25 atom-25 atom-1" d="M 25.0,105.5 L 24.5,117.4" style="fill:none;fill-rule:evenodd;stroke:#0000FF;stroke-width:2.0px;stroke-linecap:butt;stroke-linejoin:miter;stroke-opacity:1"/>
<path class="bond-26 atom-16 atom-11" d="M 164.1,85.6 L 154.3,101.1" style="fill:none;fill-rule:evenodd;stroke:#000000;stroke-width:2.0px;stroke-linecap:butt;stroke-linejoin:miter;stroke-opacity:1"/>
<path class="bond-27 atom-23 atom-18" d="M 72.6,81.7 L 82.4,66.3" style="fill:none;fill-rule:evenodd;stroke:#000000;stroke-width:2.0px;stroke-linecap:butt;stroke-linejoin:miter;stroke-opacity:1"/>
<path d="M 41.2,126.9 L 41.5,127.0 L 42.1,126.3" style="fill:none;stroke:#000000;stroke-width:2.0px;stroke-linecap:butt;stroke-linejoin:miter;stroke-opacity:1;"/>
<path d="M 70.3,113.4 L 71.2,113.4 L 71.4,113.1" style="fill:none;stroke:#000000;stroke-width:2.0px;stroke-linecap:butt;stroke-linejoin:miter;stroke-opacity:1;"/>
<path d="M 99.0,98.7 L 99.4,98.7 L 99.6,98.4" style="fill:none;stroke:#000000;stroke-width:2.0px;stroke-linecap:butt;stroke-linejoin:miter;stroke-opacity:1;"/>
<path d="M 127.1,84.0 L 127.5,84.0 L 127.9,84.9" style="fill:none;stroke:#000000;stroke-width:2.0px;stroke-linecap:butt;stroke-linejoin:miter;stroke-opacity:1;"/>
<path d="M 135.6,99.5 L 136.0,100.3 L 136.9,100.3" style="fill:none;stroke:#000000;stroke-width:2.0px;stroke-linecap:butt;stroke-linejoin:miter;stroke-opacity:1;"/>
<path d="M 162.4,116.5 L 162.8,117.3 L 163.7,117.3" style="fill:none;stroke:#000000;stroke-width:2.0px;stroke-linecap:butt;stroke-linejoin:miter;stroke-opacity:1;"/>
<path d="M 180.2,118.0 L 181.1,118.1 L 181.6,117.3" style="fill:none;stroke:#000000;stroke-width:2.0px;stroke-linecap:butt;stroke-linejoin:miter;stroke-opacity:1;"/>
<path d="M 190.4,103.4 L 190.9,102.6 L 190.5,101.8" style="fill:none;stroke:#000000;stroke-width:2.0px;stroke-linecap:butt;stroke-linejoin:miter;stroke-opacity:1;"/>
<path d="M 182.8,87.2 L 182.4,86.4 L 181.5,86.3" style="fill:none;stroke:#000000;stroke-width:2.0px;stroke-linecap:butt;stroke-linejoin:miter;stroke-opacity:1;"/>
<path d="M 165.0,85.6 L 164.1,85.6 L 163.6,86.4" style="fill:none;stroke:#000000;stroke-width:2.0px;stroke-linecap:butt;stroke-linejoin:miter;stroke-opacity:1;"/>
<path d="M 100.9,67.4 L 100.7,67.0 L 99.8,67.0" style="fill:none;stroke:#000000;stroke-width:2.0px;stroke-linecap:butt;stroke-linejoin:miter;stroke-opacity:1;"/>
<path d="M 74.3,50.8 L 73.9,50.0 L 73.0,50.0" style="fill:none;stroke:#000000;stroke-width:2.0px;stroke-linecap:butt;stroke-linejoin:miter;stroke-opacity:1;"/>
<path d="M 56.5,49.3 L 55.6,49.2 L 55.1,50.0" style="fill:none;stroke:#000000;stroke-width:2.0px;stroke-linecap:butt;stroke-linejoin:miter;stroke-opacity:1;"/>
<path d="M 46.3,63.9 L 45.8,64.7 L 45.9,65.0" style="fill:none;stroke:#000000;stroke-width:2.0px;stroke-linecap:butt;stroke-linejoin:miter;stroke-opacity:1;"/>
<path d="M 72.2,81.7 L 72.6,81.7 L 73.1,81.0" style="fill:none;stroke:#000000;stroke-width:2.0px;stroke-linecap:butt;stroke-linejoin:miter;stroke-opacity:1;"/>
<path class="atom-1" d="M 23.2 118.0 L 24.9 120.8 Q 25.1 121.1, 25.4 121.5 Q 25.6 122.0, 25.6 122.1 L 25.6 118.0 L 26.3 118.0 L 26.3 123.2 L 25.6 123.2 L 23.8 120.2 Q 23.6 119.9, 23.4 119.5 Q 23.1 119.1, 23.1 118.9 L 23.1 123.2 L 22.4 123.2 L 22.4 118.0 L 23.2 118.0 " fill="#0000FF"/>
<path class="atom-5" d="M 74.0 95.4 L 74.7 95.4 L 74.7 97.6 L 77.4 97.6 L 77.4 95.4 L 78.1 95.4 L 78.1 100.6 L 77.4 100.6 L 77.4 98.2 L 74.7 98.2 L 74.7 100.6 L 74.0 100.6 L 74.0 95.4 " fill="#0000FF"/>
<path class="atom-5" d="M 79.9 95.4 L 81.6 98.1 Q 81.8 98.4, 82.0 98.9 Q 82.3 99.4, 82.3 99.4 L 82.3 95.4 L 83.0 95.4 L 83.0 100.6 L 82.3 100.6 L 80.5 97.6 Q 80.3 97.2, 80.0 96.8 Q 79.8 96.4, 79.8 96.3 L 79.8 100.6 L 79.1 100.6 L 79.1 95.4 L 79.9 95.4 " fill="#0000FF"/>
<path class="atom-7" d="M 105.5 115.0 Q 105.5 113.8, 106.1 113.1 Q 106.7 112.4, 107.8 112.4 Q 109.0 112.4, 109.6 113.1 Q 110.2 113.8, 110.2 115.0 Q 110.2 116.3, 109.6 117.0 Q 109.0 117.7, 107.8 117.7 Q 106.7 117.7, 106.1 117.0 Q 105.5 116.3, 105.5 115.0 M 107.8 117.1 Q 108.6 117.1, 109.1 116.6 Q 109.5 116.0, 109.5 115.0 Q 109.5 114.0, 109.1 113.5 Q 108.6 112.9, 107.8 112.9 Q 107.1 112.9, 106.6 113.5 Q 106.2 114.0, 106.2 115.0 Q 106.2 116.0, 106.6 116.6 Q 107.1 117.1, 107.8 117.1 " fill="#FF0000"/>
<path class="atom-8" d="M 108.0 80.7 L 109.7 83.4 Q 109.9 83.7, 110.2 84.2 Q 110.5 84.7, 110.5 84.7 L 110.5 80.7 L 111.2 80.7 L 111.2 85.9 L 110.4 85.9 L 108.6 82.9 Q 108.4 82.5, 108.2 82.1 Q 108.0 81.7, 107.9 81.6 L 107.9 85.9 L 107.2 85.9 L 107.2 80.7 L 108.0 80.7 " fill="#0000FF"/>
<path class="atom-22" d="M 53.1 78.4 L 54.8 81.1 Q 55.0 81.4, 55.3 81.9 Q 55.5 82.4, 55.5 82.4 L 55.5 78.4 L 56.2 78.4 L 56.2 83.5 L 55.5 83.5 L 53.7 80.5 Q 53.5 80.2, 53.3 79.8 Q 53.0 79.4, 53.0 79.3 L 53.0 83.5 L 52.3 83.5 L 52.3 78.4 L 53.1 78.4 " fill="#0000FF"/>
<path class="atom-24" d="M 41.6 94.8 L 43.3 97.5 Q 43.5 97.8, 43.8 98.3 Q 44.0 98.8, 44.1 98.8 L 44.1 94.8 L 44.8 94.8 L 44.8 100.0 L 44.0 100.0 L 42.2 97.0 Q 42.0 96.6, 41.8 96.2 Q 41.6 95.8, 41.5 95.7 L 41.5 100.0 L 40.8 100.0 L 40.8 94.8 L 41.6 94.8 " fill="#0000FF"/>
<path class="atom-25" d="M 24.0 99.7 L 25.7 102.5 Q 25.9 102.7, 26.1 103.2 Q 26.4 103.7, 26.4 103.8 L 26.4 99.7 L 27.1 99.7 L 27.1 104.9 L 26.4 104.9 L 24.6 101.9 Q 24.4 101.6, 24.1 101.2 Q 23.9 100.7, 23.8 100.6 L 23.8 104.9 L 23.2 104.9 L 23.2 99.7 L 24.0 99.7 " fill="#0000FF"/>
<path class="legend" d="M 80.4 190.6 L 77.6 186.6 L 79.4 186.6 L 81.4 189.4 L 83.3 186.6 L 85.0 186.6 L 82.2 190.6 L 85.2 194.8 L 83.4 194.8 L 81.2 191.7 L 79.1 194.8 L 77.4 194.8 L 80.4 190.6 " fill="#000000"/>
<path class="legend" d="M 91.6 188.9 Q 92.7 189.2, 93.2 189.9 Q 93.7 190.6, 93.7 191.7 Q 93.7 192.7, 93.3 193.4 Q 92.8 194.2, 91.9 194.6 Q 91.0 195.0, 89.9 195.0 Q 88.6 195.0, 87.7 194.6 Q 86.8 194.2, 86.1 193.3 L 87.0 192.4 Q 87.7 193.1, 88.3 193.4 Q 88.9 193.7, 89.9 193.7 Q 90.9 193.7, 91.5 193.2 Q 92.1 192.6, 92.1 191.7 Q 92.1 190.6, 91.5 190.1 Q 90.8 189.5, 89.4 189.5 L 88.6 189.5 L 88.6 188.4 L 89.3 188.4 Q 90.6 188.4, 91.2 187.8 Q 91.9 187.3, 91.9 186.3 Q 91.9 185.5, 91.3 185.1 Q 90.8 184.7, 89.9 184.7 Q 88.9 184.7, 88.3 185.0 Q 87.8 185.3, 87.3 186.2 L 86.2 185.6 Q 86.6 184.6, 87.6 184.0 Q 88.5 183.4, 89.9 183.4 Q 91.5 183.4, 92.5 184.2 Q 93.5 185.0, 93.5 186.3 Q 93.5 187.2, 93.0 187.8 Q 92.5 188.5, 91.6 188.9 " fill="#000000"/>
<path class="legend" d="M 100.9 188.9 Q 102.0 189.2, 102.5 189.9 Q 103.1 190.6, 103.1 191.7 Q 103.1 192.7, 102.6 193.4 Q 102.1 194.2, 101.2 194.6 Q 100.4 195.0, 99.2 195.0 Q 98.0 195.0, 97.1 194.6 Q 96.2 194.2, 95.5 193.3 L 96.4 192.4 Q 97.1 193.1, 97.7 193.4 Q 98.3 193.7, 99.2 193.7 Q 100.2 193.7, 100.8 193.2 Q 101.5 192.6, 101.5 191.7 Q 101.5 190.6, 100.8 190.1 Q 100.2 189.5, 98.8 189.5 L 98.0 189.5 L 98.0 188.4 L 98.7 188.4 Q 99.9 188.4, 100.6 187.8 Q 101.2 187.3, 101.2 186.3 Q 101.2 185.5, 100.7 185.1 Q 100.1 184.7, 99.2 184.7 Q 98.3 184.7, 97.7 185.0 Q 97.1 185.3, 96.7 186.2 L 95.6 185.6 Q 96.0 184.6, 96.9 184.0 Q 97.9 183.4, 99.2 183.4 Q 100.9 183.4, 101.9 184.2 Q 102.8 185.0, 102.8 186.3 Q 102.8 187.2, 102.3 187.8 Q 101.8 188.5, 100.9 188.9 " fill="#000000"/>
<path class="legend" d="M 108.9 195.0 Q 106.9 195.0, 105.8 193.4 Q 104.8 191.9, 104.8 189.2 Q 104.8 186.4, 105.8 184.9 Q 106.8 183.4, 108.9 183.4 Q 111.0 183.4, 112.1 184.9 Q 113.1 186.4, 113.1 189.2 Q 113.1 191.9, 112.0 193.4 Q 111.0 195.0, 108.9 195.0 M 108.9 193.7 Q 110.2 193.7, 110.8 192.6 Q 111.5 191.4, 111.5 189.2 Q 111.5 186.9, 110.8 185.8 Q 110.2 184.7, 108.9 184.7 Q 107.7 184.7, 107.1 185.8 Q 106.4 186.9, 106.4 189.2 Q 106.4 191.4, 107.1 192.6 Q 107.7 193.7, 108.9 193.7 " fill="#000000"/>
<path class="legend" d="M 119.0 187.8 Q 120.0 187.8, 120.8 188.2 Q 121.6 188.6, 122.1 189.4 Q 122.6 190.2, 122.6 191.3 Q 122.6 192.4, 122.0 193.3 Q 121.4 194.1, 120.5 194.5 Q 119.6 195.0, 118.5 195.0 Q 117.5 195.0, 116.5 194.6 Q 115.6 194.2, 114.9 193.5 L 115.9 192.5 Q 116.4 193.0, 117.1 193.4 Q 117.8 193.7, 118.6 193.7 Q 119.6 193.7, 120.3 193.0 Q 121.0 192.4, 121.0 191.3 Q 121.0 190.1, 120.3 189.5 Q 119.6 189.0, 118.5 189.0 Q 117.5 189.0, 116.4 189.4 L 115.5 189.0 L 116.0 183.5 L 121.9 183.5 L 121.7 184.8 L 117.3 184.8 L 117.0 188.2 Q 118.0 187.8, 119.0 187.8 " fill="#000000"/>
<path class="bond-0 atom-0 atom-1" d="M 302.4,80.0 L 302.4,87.9" style="fill:none;fill-rule:evenodd;stroke:#FF0000;stroke-width:2.0px;stroke-linecap:butt;stroke-linejoin:miter;stroke-opacity:1"/>
<path class="bond-0 atom-0 atom-1" d="M 302.4,87.9 L 302.4,95.8" style="fill:none;fill-rule:evenodd;stroke:#000000;stroke-width:2.0px;stroke-linecap:butt;stroke-linejoin:miter;stroke-opacity:1"/>
<path class="bond-0 atom-0 atom-1" d="M 299.6,80.0 L 299.6,87.9" style="fill:none;fill-rule:evenodd;stroke:#FF0000;stroke-width:2.0px;stroke-linecap:butt;stroke-linejoin:miter;stroke-opacity:1"/>
<path class="bond-0 atom-0 atom-1" d="M 299.6,87.9 L 299.6,95.8" style="fill:none;fill-rule:evenodd;stroke:#000000;stroke-width:2.0px;stroke-linecap:butt;stroke-linejoin:miter;stroke-opacity:1"/>
<path class="bond-1 atom-1 atom-2" d="M 301.0,95.0 L 307.6,98.8" style="fill:none;fill-rule:evenodd;stroke:#000000;stroke-width:2.0px;stroke-linecap:butt;stroke-linejoin:miter;stroke-opacity:1"/>
<path class="bond-1 atom-1 atom-2" d="M 307.6,98.8 L 314.3,102.7" style="fill:none;fill-rule:evenodd;stroke:#0000FF;stroke-width:2.0px;stroke-linecap:butt;stroke-linejoin:miter;stroke-opacity:1"/>
<path class="bond-2 atom-2 atom-3" d="M 319.4,102.7 L 326.1,98.8" style="fill:none;fill-rule:evenodd;stroke:#0000FF;stroke-width:2.0px;stroke-linecap:butt;stroke-linejoin:miter;stroke-opacity:1"/>
<path class="bond-2 atom-2 atom-3" d="M 326.1,98.8 L 332.7,95.0" style="fill:none;fill-rule:evenodd;stroke:#000000;stroke-width:2.0px;stroke-linecap:butt;stroke-linejoin:miter;stroke-opacity:1"/>
<path class="bond-3 atom-3 atom-4" d="M 332.7,95.0 L 348.6,104.2" style="fill:none;fill-rule:evenodd;stroke:#000000;stroke-width:2.0px;stroke-linecap:butt;stroke-linejoin:miter;stroke-opacity:1"/>
<path class="bond-3 atom-3 atom-4" d="M 335.5,93.4 L 348.6,101.0" style="fill:none;fill-rule:evenodd;stroke:#000000;stroke-width:2.0px;stroke-linecap:butt;stroke-linejoin:miter;stroke-opacity:1"/>
<path class="bond-4 atom-4 atom-5" d="M 348.6,104.2 L 364.5,95.0" style="fill:none;fill-rule:evenodd;stroke:#000000;stroke-width:2.0px;stroke-linecap:butt;stroke-linejoin:miter;stroke-opacity:1"/>
<path class="bond-5 atom-5 atom-6" d="M 364.5,95.0 L 364.5,76.7" style="fill:none;fill-rule:evenodd;stroke:#000000;stroke-width:2.0px;stroke-linecap:butt;stroke-linejoin:miter;stroke-opacity:1"/>
<path class="bond-5 atom-5 atom-6" d="M 361.7,93.4 L 361.7,78.3" style="fill:none;fill-rule:evenodd;stroke:#000000;stroke-width:2.0px;stroke-linecap:butt;stroke-linejoin:miter;stroke-opacity:1"/>
<path class="bond-6 atom-6 atom-7" d="M 364.5,76.7 L 348.6,67.5" style="fill:none;fill-rule:evenodd;stroke:#000000;stroke-width:2.0px;stroke-linecap:butt;stroke-linejoin:miter;stroke-opacity:1"/>
<path class="bond-7 atom-7 atom-8" d="M 348.6,67.5 L 332.7,76.7" style="fill:none;fill-rule:evenodd;stroke:#000000;stroke-width:2.0px;stroke-linecap:butt;stroke-linejoin:miter;stroke-opacity:1"/>
<path class="bond-7 atom-7 atom-8" d="M 348.6,70.7 L 335.5,78.3" style="fill:none;fill-rule:evenodd;stroke:#000000;stroke-width:2.0px;stroke-linecap:butt;stroke-linejoin:miter;stroke-opacity:1"/>
<path class="bond-8 atom-1 atom-9" d="M 301.0,95.0 L 294.3,98.8" style="fill:none;fill-rule:evenodd;stroke:#000000;stroke-width:2.0px;stroke-linecap:butt;stroke-linejoin:miter;stroke-opacity:1"/>
<path class="bond-8 atom-1 atom-9" d="M 294.3,98.8 L 287.7,102.7" style="fill:none;fill-rule:evenodd;stroke:#0000FF;stroke-width:2.0px;stroke-linecap:butt;stroke-linejoin:miter;stroke-opacity:1"/>
<path class="bond-9 atom-9 atom-10" d="M 282.5,102.7 L 275.9,98.8" style="fill:none;fill-rule:evenodd;stroke:#0000FF;stroke-width:2.0px;stroke-linecap:butt;stroke-linejoin:miter;stroke-opacity:1"/>
<path class="bond-9 atom-9 atom-10" d="M 275.9,98.8 L 269.2,95.0" style="fill:none;fill-rule:evenodd;stroke:#000000;stroke-width:2.0px;stroke-linecap:butt;stroke-linejoin:miter;stroke-opacity:1"/>
<path class="bond-10 atom-10 atom-11" d="M 269.2,95.0 L 269.2,76.7" style="fill:none;fill-rule:evenodd;stroke:#000000;stroke-width:2.0px;stroke-linecap:butt;stroke-linejoin:miter;stroke-opacity:1"/>
<path class="bond-10 atom-10 atom-11" d="M 266.5,93.4 L 266.5,78.3" style="fill:none;fill-rule:evenodd;stroke:#000000;stroke-width:2.0px;stroke-linecap:butt;stroke-linejoin:miter;stroke-opacity:1"/>
<path class="bond-11 atom-11 atom-12" d="M 269.2,76.7 L 253.4,67.5" style="fill:none;fill-rule:evenodd;stroke:#000000;stroke-width:2.0px;stroke-linecap:butt;stroke-linejoin:miter;stroke-opacity:1"/>
<path class="bond-12 atom-12 atom-13" d="M 253.4,67.5 L 237.5,76.7" style="fill:none;fill-rule:evenodd;stroke:#000000;stroke-width:2.0px;stroke-linecap:butt;stroke-linejoin:miter;stroke-opacity:1"/>
<path class="bond-12 atom-12 atom-13" d="M 253.4,70.7 L 240.3,78.3" style="fill:none;fill-rule:evenodd;stroke:#000000;stroke-width:2.0px;stroke-linecap:butt;stroke-linejoin:miter;stroke-opacity:1"/>
<path class="bond-13 atom-13 atom-14" d="M 237.5,76.7 L 237.5,84.2" style="fill:none;fill-rule:evenodd;stroke:#000000;stroke-width:2.0px;stroke-linecap:butt;stroke-linejoin:miter;stroke-opacity:1"/>
<path class="bond-13 atom-13 atom-14" d="M 237.5,84.2 L 237.5,91.8" style="fill:none;fill-rule:evenodd;stroke:#0000FF;stroke-width:2.0px;stroke-linecap:butt;stroke-linejoin:miter;stroke-opacity:1"/>
<path class="bond-14 atom-14 atom-15" d="M 240.1,96.5 L 246.7,100.3" style="fill:none;fill-rule:evenodd;stroke:#0000FF;stroke-width:2.0px;stroke-linecap:butt;stroke-linejoin:miter;stroke-opacity:1"/>
<path class="bond-14 atom-14 atom-15" d="M 246.7,100.3 L 253.4,104.2" style="fill:none;fill-rule:evenodd;stroke:#000000;stroke-width:2.0px;stroke-linecap:butt;stroke-linejoin:miter;stroke-opacity:1"/>
<path class="bond-14 atom-14 atom-15" d="M 241.4,94.1 L 247.4,97.6" style="fill:none;fill-rule:evenodd;stroke:#0000FF;stroke-width:2.0px;stroke-linecap:butt;stroke-linejoin:miter;stroke-opacity:1"/>
<path class="bond-14 atom-14 atom-15" d="M 247.4,97.6 L 253.4,101.0" style="fill:none;fill-rule:evenodd;stroke:#000000;stroke-width:2.0px;stroke-linecap:butt;stroke-linejoin:miter;stroke-opacity:1"/>
<path class="bond-15 atom-8 atom-3" d="M 332.7,76.7 L 332.7,95.0" style="fill:none;fill-rule:evenodd;stroke:#000000;stroke-width:2.0px;stroke-linecap:butt;stroke-linejoin:miter;stroke-opacity:1"/>
<path class="bond-16 atom-15 atom-10" d="M 253.4,104.2 L 269.2,95.0" style="fill:none;fill-rule:evenodd;stroke:#000000;stroke-width:2.0px;stroke-linecap:butt;stroke-linejoin:miter;stroke-opacity:1"/>
<path d="M 301.3,95.2 L 301.0,95.0 L 300.7,95.2" style="fill:none;stroke:#000000;stroke-width:2.0px;stroke-linecap:butt;stroke-linejoin:miter;stroke-opacity:1;"/>
<path d="M 347.8,103.7 L 348.6,104.2 L 349.4,103.7" style="fill:none;stroke:#000000;stroke-width:2.0px;stroke-linecap:butt;stroke-linejoin:miter;stroke-opacity:1;"/>
<path d="M 363.7,95.5 L 364.5,95.0 L 364.5,94.1" style="fill:none;stroke:#000000;stroke-width:2.0px;stroke-linecap:butt;stroke-linejoin:miter;stroke-opacity:1;"/>
<path d="M 364.5,77.6 L 364.5,76.7 L 363.7,76.2" style="fill:none;stroke:#000000;stroke-width:2.0px;stroke-linecap:butt;stroke-linejoin:miter;stroke-opacity:1;"/>
<path d="M 349.4,68.0 L 348.6,67.5 L 347.8,68.0" style="fill:none;stroke:#000000;stroke-width:2.0px;stroke-linecap:butt;stroke-linejoin:miter;stroke-opacity:1;"/>
<path d="M 333.5,76.2 L 332.7,76.7 L 332.7,77.6" style="fill:none;stroke:#000000;stroke-width:2.0px;stroke-linecap:butt;stroke-linejoin:miter;stroke-opacity:1;"/>
<path d="M 269.2,77.6 L 269.2,76.7 L 268.4,76.2" style="fill:none;stroke:#000000;stroke-width:2.0px;stroke-linecap:butt;stroke-linejoin:miter;stroke-opacity:1;"/>
<path d="M 254.2,68.0 L 253.4,67.5 L 252.6,68.0" style="fill:none;stroke:#000000;stroke-width:2.0px;stroke-linecap:butt;stroke-linejoin:miter;stroke-opacity:1;"/>
<path d="M 238.3,76.2 L 237.5,76.7 L 237.5,77.1" style="fill:none;stroke:#000000;stroke-width:2.0px;stroke-linecap:butt;stroke-linejoin:miter;stroke-opacity:1;"/>
<path d="M 253.0,104.0 L 253.4,104.2 L 254.2,103.7" style="fill:none;stroke:#000000;stroke-width:2.0px;stroke-linecap:butt;stroke-linejoin:miter;stroke-opacity:1;"/>
<path class="atom-0" d="M 298.6 76.7 Q 298.6 75.5, 299.2 74.8 Q 299.8 74.1, 301.0 74.1 Q 302.1 74.1, 302.8 74.8 Q 303.4 75.5, 303.4 76.7 Q 303.4 78.0, 302.7 78.7 Q 302.1 79.4, 301.0 79.4 Q 299.8 79.4, 299.2 78.7 Q 298.6 78.0, 298.6 76.7 M 301.0 78.8 Q 301.8 78.8, 302.2 78.3 Q 302.6 77.7, 302.6 76.7 Q 302.6 75.7, 302.2 75.2 Q 301.8 74.6, 301.0 74.6 Q 300.2 74.6, 299.8 75.2 Q 299.3 75.7, 299.3 76.7 Q 299.3 77.7, 299.8 78.3 Q 300.2 78.8, 301.0 78.8 " fill="#FF0000"/>
<path class="atom-2" d="M 315.7 101.6 L 317.4 104.3 Q 317.6 104.6, 317.8 105.1 Q 318.1 105.6, 318.1 105.6 L 318.1 101.6 L 318.8 101.6 L 318.8 106.8 L 318.1 106.8 L 316.3 103.8 Q 316.1 103.4, 315.8 103.0 Q 315.6 102.6, 315.6 102.5 L 315.6 106.8 L 314.9 106.8 L 314.9 101.6 L 315.7 101.6 " fill="#0000FF"/>
<path class="atom-2" d="M 314.8 107.3 L 315.5 107.3 L 315.5 109.5 L 318.2 109.5 L 318.2 107.3 L 318.9 107.3 L 318.9 112.5 L 318.2 112.5 L 318.2 110.1 L 315.5 110.1 L 315.5 112.5 L 314.8 112.5 L 314.8 107.3 " fill="#0000FF"/>
<path class="atom-9" d="M 284.0 101.6 L 285.7 104.3 Q 285.8 104.6, 286.1 105.1 Q 286.4 105.6, 286.4 105.6 L 286.4 101.6 L 287.1 101.6 L 287.1 106.8 L 286.4 106.8 L 284.5 103.8 Q 284.3 103.4, 284.1 103.0 Q 283.9 102.6, 283.8 102.5 L 283.8 106.8 L 283.1 106.8 L 283.1 101.6 L 284.0 101.6 " fill="#0000FF"/>
<path class="atom-9" d="M 283.1 107.3 L 283.8 107.3 L 283.8 109.5 L 286.4 109.5 L 286.4 107.3 L 287.1 107.3 L 287.1 112.5 L 286.4 112.5 L 286.4 110.1 L 283.8 110.1 L 283.8 112.5 L 283.1 112.5 L 283.1 107.3 " fill="#0000FF"/>
<path class="atom-14" d="M 236.4 92.4 L 238.1 95.2 Q 238.2 95.4, 238.5 95.9 Q 238.8 96.4, 238.8 96.4 L 238.8 92.4 L 239.5 92.4 L 239.5 97.6 L 238.8 97.6 L 236.9 94.6 Q 236.7 94.2, 236.5 93.8 Q 236.3 93.4, 236.2 93.3 L 236.2 97.6 L 235.5 97.6 L 235.5 92.4 L 236.4 92.4 " fill="#0000FF"/>
<path class="legend" d="M 279.3 190.6 L 276.6 186.6 L 278.3 186.6 L 280.3 189.4 L 282.3 186.6 L 283.9 186.6 L 281.1 190.6 L 284.1 194.8 L 282.3 194.8 L 280.2 191.7 L 278.0 194.8 L 276.3 194.8 L 279.3 190.6 " fill="#000000"/>
<path class="legend" d="M 289.2 195.0 Q 287.1 195.0, 286.1 193.4 Q 285.1 191.9, 285.1 189.2 Q 285.1 186.4, 286.1 184.9 Q 287.1 183.4, 289.2 183.4 Q 291.3 183.4, 292.3 184.9 Q 293.4 186.4, 293.4 189.2 Q 293.4 191.9, 292.3 193.4 Q 291.3 195.0, 289.2 195.0 M 289.2 193.7 Q 290.4 193.7, 291.1 192.6 Q 291.8 191.4, 291.8 189.2 Q 291.8 186.9, 291.1 185.8 Q 290.4 184.7, 289.2 184.7 Q 288.0 184.7, 287.3 185.8 Q 286.7 186.9, 286.7 189.2 Q 286.7 191.4, 287.3 192.6 Q 288.0 193.7, 289.2 193.7 " fill="#000000"/>
<path class="legend" d="M 302.6 191.0 L 303.9 191.0 L 303.9 192.2 L 302.6 192.2 L 302.6 194.8 L 301.1 194.8 L 301.1 192.2 L 295.2 192.2 L 295.2 191.2 L 300.2 183.5 L 302.6 183.5 L 302.6 191.0 M 297.1 191.0 L 301.1 191.0 L 301.1 184.5 L 297.1 191.0 " fill="#000000"/>
<path class="legend" d="M 311.0 188.9 Q 312.1 189.2, 312.6 189.9 Q 313.2 190.6, 313.2 191.7 Q 313.2 192.7, 312.7 193.4 Q 312.2 194.2, 311.3 194.6 Q 310.4 195.0, 309.3 195.0 Q 308.1 195.0, 307.2 194.6 Q 306.3 194.2, 305.6 193.3 L 306.5 192.4 Q 307.2 193.1, 307.8 193.4 Q 308.4 193.7, 309.3 193.7 Q 310.3 193.7, 310.9 193.2 Q 311.6 192.6, 311.6 191.7 Q 311.6 190.6, 310.9 190.1 Q 310.3 189.5, 308.9 189.5 L 308.1 189.5 L 308.1 188.4 L 308.8 188.4 Q 310.0 188.4, 310.7 187.8 Q 311.3 187.3, 311.3 186.3 Q 311.3 185.5, 310.8 185.1 Q 310.2 184.7, 309.3 184.7 Q 308.4 184.7, 307.8 185.0 Q 307.2 185.3, 306.8 186.2 L 305.6 185.6 Q 306.0 184.6, 307.0 184.0 Q 308.0 183.4, 309.3 183.4 Q 311.0 183.4, 312.0 184.2 Q 312.9 185.0, 312.9 186.3 Q 312.9 187.2, 312.4 187.8 Q 311.9 188.5, 311.0 188.9 " fill="#000000"/>
<path class="legend" d="M 322.3 191.0 L 323.7 191.0 L 323.7 192.2 L 322.3 192.2 L 322.3 194.8 L 320.8 194.8 L 320.8 192.2 L 314.9 192.2 L 314.9 191.2 L 319.9 183.5 L 322.3 183.5 L 322.3 191.0 M 316.8 191.0 L 320.8 191.0 L 320.8 184.5 L 316.8 191.0 " fill="#000000"/>
</svg>