<svg xmlns="http://www.w3.org/2000/svg" xmlns:rdkit="http://www.rdkit.org/xml" xmlns:xlink="http://www.w3.org/1999/xlink" version="1.1" baseProfile="full" xml:space="preserve" width="600px" height="200px" viewBox="0 0 600 200">
<!-- END OF HEADER -->
<rect style="opacity:1.0;fill:#FFFFFF;stroke:none" width="600.0" height="200.0" x="0.0" y="0.0"> </rect>
<path class="bond-0 atom-0 atom-1" d="M 122.4,151.8 L 112.8,146.8" style="fill:none;fill-rule:evenodd;stroke:#0000FF;stroke-width:2.0px;stroke-linecap:butt;stroke-linejoin:miter;stroke-opacity:1"/>
<path class="bond-0 atom-0 atom-1" d="M 112.8,146.8 L 103.2,141.7" style="fill:none;fill-rule:evenodd;stroke:#000000;stroke-width:2.0px;stroke-linecap:butt;stroke-linejoin:miter;stroke-opacity:1"/>
<path class="bond-0 atom-0 atom-1" d="M 120.6,155.3 L 111.0,150.2" style="fill:none;fill-rule:evenodd;stroke:#0000FF;stroke-width:2.0px;stroke-linecap:butt;stroke-linejoin:miter;stroke-opacity:1"/>
<path class="bond-0 atom-0 atom-1" d="M 111.0,150.2 L 101.4,145.1" style="fill:none;fill-rule:evenodd;stroke:#000000;stroke-width:2.0px;stroke-linecap:butt;stroke-linejoin:miter;stroke-opacity:1"/>
<path class="bond-0 atom-0 atom-1" d="M 124.2,148.4 L 114.6,143.3" style="fill:none;fill-rule:evenodd;stroke:#0000FF;stroke-width:2.0px;stroke-linecap:butt;stroke-linejoin:miter;stroke-opacity:1"/>
<path class="bond-0 atom-0 atom-1" d="M 114.6,143.3 L 105.0,138.2" style="fill:none;fill-rule:evenodd;stroke:#000000;stroke-width:2.0px;stroke-linecap:butt;stroke-linejoin:miter;stroke-opacity:1"/>
<path class="bond-1 atom-1 atom-2" d="M 103.2,141.7 L 80.4,129.6" style="fill:none;fill-rule:evenodd;stroke:#000000;stroke-width:2.0px;stroke-linecap:butt;stroke-linejoin:miter;stroke-opacity:1"/>
<path class="bond-2 atom-2 atom-3" d="M 80.4,129.6 L 80.0,119.0" style="fill:none;fill-rule:evenodd;stroke:#000000;stroke-width:2.0px;stroke-linecap:butt;stroke-linejoin:miter;stroke-opacity:1"/>
<path class="bond-2 atom-2 atom-3" d="M 80.0,119.0 L 79.6,108.4" style="fill:none;fill-rule:evenodd;stroke:#FF0000;stroke-width:2.0px;stroke-linecap:butt;stroke-linejoin:miter;stroke-opacity:1"/>
<path class="bond-3 atom-3 atom-4" d="M 75.2,101.5 L 65.9,96.6" style="fill:none;fill-rule:evenodd;stroke:#FF0000;stroke-width:2.0px;stroke-linecap:butt;stroke-linejoin:miter;stroke-opacity:1"/>
<path class="bond-3 atom-3 atom-4" d="M 65.9,96.6 L 56.6,91.6" style="fill:none;fill-rule:evenodd;stroke:#000000;stroke-width:2.0px;stroke-linecap:butt;stroke-linejoin:miter;stroke-opacity:1"/>
<path class="bond-4 atom-4 atom-5" d="M 56.6,91.6 L 34.7,105.4" style="fill:none;fill-rule:evenodd;stroke:#000000;stroke-width:2.0px;stroke-linecap:butt;stroke-linejoin:miter;stroke-opacity:1"/>
<path class="bond-4 atom-4 atom-5" d="M 52.6,89.6 L 34.5,100.9" style="fill:none;fill-rule:evenodd;stroke:#000000;stroke-width:2.0px;stroke-linecap:butt;stroke-linejoin:miter;stroke-opacity:1"/>
<path class="bond-5 atom-5 atom-6" d="M 34.7,105.4 L 11.9,93.3" style="fill:none;fill-rule:evenodd;stroke:#000000;stroke-width:2.0px;stroke-linecap:butt;stroke-linejoin:miter;stroke-opacity:1"/>
<path class="bond-6 atom-6 atom-7" d="M 11.9,93.3 L 10.9,67.4" style="fill:none;fill-rule:evenodd;stroke:#000000;stroke-width:2.0px;stroke-linecap:butt;stroke-linejoin:miter;stroke-opacity:1"/>
<path class="bond-6 atom-6 atom-7" d="M 15.7,90.9 L 14.9,69.5" style="fill:none;fill-rule:evenodd;stroke:#000000;stroke-width:2.0px;stroke-linecap:butt;stroke-linejoin:miter;stroke-opacity:1"/>
<path class="bond-7 atom-7 atom-8" d="M 10.9,67.4 L 32.8,53.7" style="fill:none;fill-rule:evenodd;stroke:#000000;stroke-width:2.0px;stroke-linecap:butt;stroke-linejoin:miter;stroke-opacity:1"/>
<path class="bond-8 atom-8 atom-9" d="M 32.8,53.7 L 55.7,65.8" style="fill:none;fill-rule:evenodd;stroke:#000000;stroke-width:2.0px;stroke-linecap:butt;stroke-linejoin:miter;stroke-opacity:1"/>
<path class="bond-8 atom-8 atom-9" d="M 33.0,58.2 L 51.9,68.2" style="fill:none;fill-rule:evenodd;stroke:#000000;stroke-width:2.0px;stroke-linecap:butt;stroke-linejoin:miter;stroke-opacity:1"/>
<path class="bond-9 atom-9 atom-10" d="M 55.7,65.8 L 77.5,52.1" style="fill:none;fill-rule:evenodd;stroke:#000000;stroke-width:2.0px;stroke-linecap:butt;stroke-linejoin:miter;stroke-opacity:1"/>
<path class="bond-10 atom-10 atom-11" d="M 79.5,53.1 L 79.1,42.0" style="fill:none;fill-rule:evenodd;stroke:#000000;stroke-width:2.0px;stroke-linecap:butt;stroke-linejoin:miter;stroke-opacity:1"/>
<path class="bond-10 atom-10 atom-11" d="M 79.1,42.0 L 78.7,30.9" style="fill:none;fill-rule:evenodd;stroke:#FF0000;stroke-width:2.0px;stroke-linecap:butt;stroke-linejoin:miter;stroke-opacity:1"/>
<path class="bond-10 atom-10 atom-11" d="M 75.7,53.3 L 75.2,42.1" style="fill:none;fill-rule:evenodd;stroke:#000000;stroke-width:2.0px;stroke-linecap:butt;stroke-linejoin:miter;stroke-opacity:1"/>
<path class="bond-10 atom-10 atom-11" d="M 75.2,42.1 L 74.8,31.0" style="fill:none;fill-rule:evenodd;stroke:#FF0000;stroke-width:2.0px;stroke-linecap:butt;stroke-linejoin:miter;stroke-opacity:1"/>
<path class="bond-11 atom-10 atom-12" d="M 77.5,52.1 L 87.2,57.2" style="fill:none;fill-rule:evenodd;stroke:#000000;stroke-width:2.0px;stroke-linecap:butt;stroke-linejoin:miter;stroke-opacity:1"/>
<path class="bond-11 atom-10 atom-12" d="M 87.2,57.2 L 96.8,62.3" style="fill:none;fill-rule:evenodd;stroke:#0000FF;stroke-width:2.0px;stroke-linecap:butt;stroke-linejoin:miter;stroke-opacity:1"/>
<path class="bond-12 atom-12 atom-13" d="M 104.0,61.9 L 113.1,56.2" style="fill:none;fill-rule:evenodd;stroke:#0000FF;stroke-width:2.0px;stroke-linecap:butt;stroke-linejoin:miter;stroke-opacity:1"/>
<path class="bond-12 atom-12 atom-13" d="M 113.1,56.2 L 122.3,50.5" style="fill:none;fill-rule:evenodd;stroke:#000000;stroke-width:2.0px;stroke-linecap:butt;stroke-linejoin:miter;stroke-opacity:1"/>
<path class="bond-13 atom-13 atom-14" d="M 122.3,50.5 L 145.1,62.6" style="fill:none;fill-rule:evenodd;stroke:#000000;stroke-width:2.0px;stroke-linecap:butt;stroke-linejoin:miter;stroke-opacity:1"/>
<path class="bond-14 atom-14 atom-15" d="M 145.1,62.6 L 168.3,51.2" style="fill:none;fill-rule:evenodd;stroke:#000000;stroke-width:2.0px;stroke-linecap:butt;stroke-linejoin:miter;stroke-opacity:1"/>
<path class="bond-15 atom-15 atom-16" d="M 168.3,51.2 L 175.5,58.6" style="fill:none;fill-rule:evenodd;stroke:#000000;stroke-width:2.0px;stroke-linecap:butt;stroke-linejoin:miter;stroke-opacity:1"/>
<path class="bond-15 atom-15 atom-16" d="M 175.5,58.6 L 182.7,66.0" style="fill:none;fill-rule:evenodd;stroke:#0000FF;stroke-width:2.0px;stroke-linecap:butt;stroke-linejoin:miter;stroke-opacity:1"/>
<path class="bond-15 atom-15 atom-16" d="M 167.5,55.9 L 173.7,62.3" style="fill:none;fill-rule:evenodd;stroke:#000000;stroke-width:2.0px;stroke-linecap:butt;stroke-linejoin:miter;stroke-opacity:1"/>
<path class="bond-15 atom-15 atom-16" d="M 173.7,62.3 L 179.9,68.7" style="fill:none;fill-rule:evenodd;stroke:#0000FF;stroke-width:2.0px;stroke-linecap:butt;stroke-linejoin:miter;stroke-opacity:1"/>
<path class="bond-16 atom-16 atom-17" d="M 183.9,74.3 L 180.3,81.2" style="fill:none;fill-rule:evenodd;stroke:#0000FF;stroke-width:2.0px;stroke-linecap:butt;stroke-linejoin:miter;stroke-opacity:1"/>
<path class="bond-16 atom-16 atom-17" d="M 180.3,81.2 L 176.6,88.1" style="fill:none;fill-rule:evenodd;stroke:#CCCC00;stroke-width:2.0px;stroke-linecap:butt;stroke-linejoin:miter;stroke-opacity:1"/>
<path class="bond-17 atom-17 atom-18" d="M 171.0,92.0 L 159.9,90.1" style="fill:none;fill-rule:evenodd;stroke:#CCCC00;stroke-width:2.0px;stroke-linecap:butt;stroke-linejoin:miter;stroke-opacity:1"/>
<path class="bond-17 atom-17 atom-18" d="M 159.9,90.1 L 148.7,88.2" style="fill:none;fill-rule:evenodd;stroke:#000000;stroke-width:2.0px;stroke-linecap:butt;stroke-linejoin:miter;stroke-opacity:1"/>
<path class="bond-18 atom-9 atom-4" d="M 55.7,65.8 L 56.6,91.6" style="fill:none;fill-rule:evenodd;stroke:#000000;stroke-width:2.0px;stroke-linecap:butt;stroke-linejoin:miter;stroke-opacity:1"/>
<path class="bond-19 atom-18 atom-14" d="M 148.7,88.2 L 145.1,62.6" style="fill:none;fill-rule:evenodd;stroke:#000000;stroke-width:2.0px;stroke-linecap:butt;stroke-linejoin:miter;stroke-opacity:1"/>
<path class="bond-19 atom-18 atom-14" d="M 152.2,84.8 L 149.3,64.8" style="fill:none;fill-rule:evenodd;stroke:#000000;stroke-width:2.0px;stroke-linecap:butt;stroke-linejoin:miter;stroke-opacity:1"/>
<path d="M 103.7,141.9 L 103.2,141.7 L 102.1,141.1" style="fill:none;stroke:#000000;stroke-width:2.0px;stroke-linecap:butt;stroke-linejoin:miter;stroke-opacity:1;"/>
<path d="M 81.5,130.2 L 80.4,129.6 L 80.3,129.0" style="fill:none;stroke:#000000;stroke-width:2.0px;stroke-linecap:butt;stroke-linejoin:miter;stroke-opacity:1;"/>
<path d="M 35.8,104.7 L 34.7,105.4 L 33.6,104.8" style="fill:none;stroke:#000000;stroke-width:2.0px;stroke-linecap:butt;stroke-linejoin:miter;stroke-opacity:1;"/>
<path d="M 13.0,93.9 L 11.9,93.3 L 11.8,92.0" style="fill:none;stroke:#000000;stroke-width:2.0px;stroke-linecap:butt;stroke-linejoin:miter;stroke-opacity:1;"/>
<path d="M 11.0,68.7 L 10.9,67.4 L 12.0,66.8" style="fill:none;stroke:#000000;stroke-width:2.0px;stroke-linecap:butt;stroke-linejoin:miter;stroke-opacity:1;"/>
<path d="M 31.7,54.4 L 32.8,53.7 L 34.0,54.3" style="fill:none;stroke:#000000;stroke-width:2.0px;stroke-linecap:butt;stroke-linejoin:miter;stroke-opacity:1;"/>
<path d="M 76.5,52.8 L 77.5,52.1 L 78.0,52.4" style="fill:none;stroke:#000000;stroke-width:2.0px;stroke-linecap:butt;stroke-linejoin:miter;stroke-opacity:1;"/>
<path d="M 121.8,50.8 L 122.3,50.5 L 123.4,51.1" style="fill:none;stroke:#000000;stroke-width:2.0px;stroke-linecap:butt;stroke-linejoin:miter;stroke-opacity:1;"/>
<path d="M 167.2,51.8 L 168.3,51.2 L 168.7,51.6" style="fill:none;stroke:#000000;stroke-width:2.0px;stroke-linecap:butt;stroke-linejoin:miter;stroke-opacity:1;"/>
<path d="M 149.3,88.3 L 148.7,88.2 L 148.6,86.9" style="fill:none;stroke:#000000;stroke-width:2.0px;stroke-linecap:butt;stroke-linejoin:miter;stroke-opacity:1;"/>
<path class="atom-0" d="M 124.4 150.1 L 126.8 154.0 Q 127.1 154.4, 127.4 155.1 Q 127.8 155.8, 127.8 155.8 L 127.8 150.1 L 128.8 150.1 L 128.8 157.4 L 127.8 157.4 L 125.2 153.2 Q 124.9 152.7, 124.6 152.1 Q 124.3 151.6, 124.2 151.4 L 124.2 157.4 L 123.3 157.4 L 123.3 150.1 L 124.4 150.1 " fill="#0000FF"/>
<path class="atom-3" d="M 76.1 103.8 Q 76.1 102.0, 76.9 101.0 Q 77.8 100.0, 79.4 100.0 Q 81.0 100.0, 81.9 101.0 Q 82.8 102.0, 82.8 103.8 Q 82.8 105.5, 81.9 106.6 Q 81.0 107.6, 79.4 107.6 Q 77.8 107.6, 76.9 106.6 Q 76.1 105.6, 76.1 103.8 M 79.4 106.7 Q 80.5 106.7, 81.1 106.0 Q 81.8 105.2, 81.8 103.8 Q 81.8 102.3, 81.1 101.6 Q 80.5 100.9, 79.4 100.9 Q 78.3 100.9, 77.7 101.6 Q 77.1 102.3, 77.1 103.8 Q 77.1 105.2, 77.7 106.0 Q 78.3 106.7, 79.4 106.7 " fill="#FF0000"/>
<path class="atom-11" d="M 73.2 26.3 Q 73.2 24.5, 74.1 23.6 Q 75.0 22.6, 76.6 22.6 Q 78.2 22.6, 79.1 23.6 Q 80.0 24.5, 80.0 26.3 Q 80.0 28.1, 79.1 29.1 Q 78.2 30.1, 76.6 30.1 Q 75.0 30.1, 74.1 29.1 Q 73.2 28.1, 73.2 26.3 M 76.6 29.3 Q 77.7 29.3, 78.3 28.5 Q 78.9 27.8, 78.9 26.3 Q 78.9 24.9, 78.3 24.1 Q 77.7 23.4, 76.6 23.4 Q 75.5 23.4, 74.9 24.1 Q 74.3 24.8, 74.3 26.3 Q 74.3 27.8, 74.9 28.5 Q 75.5 29.3, 76.6 29.3 " fill="#FF0000"/>
<path class="atom-12" d="M 98.8 60.5 L 101.2 64.4 Q 101.4 64.8, 101.8 65.5 Q 102.2 66.2, 102.2 66.2 L 102.2 60.5 L 103.2 60.5 L 103.2 67.9 L 102.2 67.9 L 99.6 63.6 Q 99.3 63.1, 99.0 62.6 Q 98.7 62.0, 98.6 61.8 L 98.6 67.9 L 97.6 67.9 L 97.6 60.5 L 98.8 60.5 " fill="#0000FF"/>
<path class="atom-12" d="M 97.5 68.6 L 98.5 68.6 L 98.5 71.7 L 102.3 71.7 L 102.3 68.6 L 103.2 68.6 L 103.2 75.9 L 102.3 75.9 L 102.3 72.5 L 98.5 72.5 L 98.5 75.9 L 97.5 75.9 L 97.5 68.6 " fill="#0000FF"/>
<path class="atom-16" d="M 184.7 66.1 L 187.1 70.0 Q 187.3 70.4, 187.7 71.1 Q 188.1 71.8, 188.1 71.8 L 188.1 66.1 L 189.1 66.1 L 189.1 73.4 L 188.1 73.4 L 185.5 69.2 Q 185.2 68.7, 184.9 68.1 Q 184.6 67.6, 184.5 67.4 L 184.5 73.4 L 183.5 73.4 L 183.5 66.1 L 184.7 66.1 " fill="#0000FF"/>
<path class="atom-17" d="M 172.1 95.1 Q 172.2 95.1, 172.6 95.3 Q 172.9 95.4, 173.3 95.5 Q 173.7 95.6, 174.0 95.6 Q 174.7 95.6, 175.1 95.3 Q 175.5 94.9, 175.5 94.4 Q 175.5 93.9, 175.3 93.7 Q 175.1 93.5, 174.8 93.3 Q 174.5 93.2, 174.0 93.0 Q 173.3 92.8, 172.9 92.6 Q 172.6 92.5, 172.3 92.1 Q 172.0 91.7, 172.0 91.0 Q 172.0 90.1, 172.6 89.5 Q 173.3 89.0, 174.5 89.0 Q 175.4 89.0, 176.3 89.4 L 176.1 90.2 Q 175.2 89.8, 174.5 89.8 Q 173.8 89.8, 173.4 90.1 Q 173.0 90.4, 173.0 90.9 Q 173.0 91.3, 173.2 91.5 Q 173.4 91.8, 173.7 91.9 Q 174.0 92.0, 174.5 92.2 Q 175.2 92.4, 175.6 92.6 Q 176.0 92.8, 176.3 93.2 Q 176.6 93.6, 176.6 94.4 Q 176.6 95.4, 175.9 95.9 Q 175.2 96.5, 174.1 96.5 Q 173.4 96.5, 172.9 96.3 Q 172.4 96.2, 171.9 95.9 L 172.1 95.1 " fill="#CCCC00"/>
<path class="legend" d="M 80.4 190.6 L 77.7 186.6 L 79.4 186.6 L 81.4 189.4 L 83.4 186.6 L 85.0 186.6 L 82.2 190.6 L 85.2 194.9 L 83.5 194.9 L 81.3 191.8 L 79.1 194.9 L 77.5 194.9 L 80.4 190.6 " fill="#000000"/>
<path class="legend" d="M 86.2 185.7 Q 86.6 184.6, 87.6 184.0 Q 88.6 183.4, 90.0 183.4 Q 91.7 183.4, 92.6 184.3 Q 93.6 185.3, 93.6 186.9 Q 93.6 188.6, 92.3 190.2 Q 91.1 191.7, 88.5 193.6 L 93.8 193.6 L 93.8 194.9 L 86.1 194.9 L 86.1 193.8 Q 88.3 192.3, 89.5 191.2 Q 90.8 190.1, 91.4 189.0 Q 92.0 188.0, 92.0 187.0 Q 92.0 185.9, 91.4 185.3 Q 90.9 184.7, 90.0 184.7 Q 89.0 184.7, 88.4 185.1 Q 87.8 185.4, 87.4 186.2 L 86.2 185.7 " fill="#000000"/>
<path class="legend" d="M 101.5 184.8 L 95.5 184.8 L 95.5 183.5 L 103.0 183.5 L 103.0 184.7 L 98.5 194.9 L 96.9 194.9 L 101.5 184.8 " fill="#000000"/>
<path class="legend" d="M 108.7 187.8 Q 109.7 187.8, 110.5 188.2 Q 111.3 188.7, 111.7 189.4 Q 112.2 190.2, 112.2 191.2 Q 112.2 192.3, 111.7 193.2 Q 111.2 194.0, 110.3 194.5 Q 109.5 195.0, 108.3 195.0 Q 106.3 195.0, 105.3 193.6 Q 104.3 192.3, 104.3 189.5 Q 104.3 186.5, 105.5 185.0 Q 106.8 183.4, 109.2 183.4 Q 109.9 183.4, 110.5 183.6 Q 111.1 183.7, 111.7 184.1 L 111.1 185.1 Q 110.3 184.7, 109.2 184.7 Q 107.6 184.7, 106.8 185.7 Q 106.0 186.8, 105.9 188.9 Q 106.5 188.4, 107.2 188.1 Q 107.9 187.8, 108.7 187.8 M 108.4 193.7 Q 109.0 193.7, 109.5 193.4 Q 110.0 193.0, 110.3 192.5 Q 110.6 191.9, 110.6 191.2 Q 110.6 190.2, 110.0 189.7 Q 109.4 189.1, 108.4 189.1 Q 107.8 189.1, 107.1 189.4 Q 106.4 189.6, 105.9 190.1 Q 106.0 192.0, 106.6 192.8 Q 107.2 193.7, 108.4 193.7 " fill="#000000"/>
<path class="legend" d="M 121.2 191.0 L 122.5 191.0 L 122.5 192.3 L 121.2 192.3 L 121.2 194.9 L 119.7 194.9 L 119.7 192.3 L 113.8 192.3 L 113.8 191.3 L 118.8 183.5 L 121.2 183.5 L 121.2 191.0 M 115.7 191.0 L 119.7 191.0 L 119.7 184.6 L 115.7 191.0 " fill="#000000"/>
<path class="bond-0 atom-0 atom-1" d="M 303.3,75.9 L 303.3,87.0" style="fill:none;fill-rule:evenodd;stroke:#FF0000;stroke-width:2.0px;stroke-linecap:butt;stroke-linejoin:miter;stroke-opacity:1"/>
<path class="bond-0 atom-0 atom-1" d="M 303.3,87.0 L 303.3,98.2" style="fill:none;fill-rule:evenodd;stroke:#000000;stroke-width:2.0px;stroke-linecap:butt;stroke-linejoin:miter;stroke-opacity:1"/>
<path class="bond-0 atom-0 atom-1" d="M 299.4,75.9 L 299.4,87.0" style="fill:none;fill-rule:evenodd;stroke:#FF0000;stroke-width:2.0px;stroke-linecap:butt;stroke-linejoin:miter;stroke-opacity:1"/>
<path class="bond-0 atom-0 atom-1" d="M 299.4,87.0 L 299.4,98.2" style="fill:none;fill-rule:evenodd;stroke:#000000;stroke-width:2.0px;stroke-linecap:butt;stroke-linejoin:miter;stroke-opacity:1"/>
<path class="bond-1 atom-1 atom-2" d="M 301.4,97.1 L 310.8,102.5" style="fill:none;fill-rule:evenodd;stroke:#000000;stroke-width:2.0px;stroke-linecap:butt;stroke-linejoin:miter;stroke-opacity:1"/>
<path class="bond-1 atom-1 atom-2" d="M 310.8,102.5 L 320.1,107.9" style="fill:none;fill-rule:evenodd;stroke:#0000FF;stroke-width:2.0px;stroke-linecap:butt;stroke-linejoin:miter;stroke-opacity:1"/>
<path class="bond-2 atom-2 atom-3" d="M 327.4,107.9 L 336.8,102.5" style="fill:none;fill-rule:evenodd;stroke:#0000FF;stroke-width:2.0px;stroke-linecap:butt;stroke-linejoin:miter;stroke-opacity:1"/>
<path class="bond-2 atom-2 atom-3" d="M 336.8,102.5 L 346.1,97.1" style="fill:none;fill-rule:evenodd;stroke:#000000;stroke-width:2.0px;stroke-linecap:butt;stroke-linejoin:miter;stroke-opacity:1"/>
<path class="bond-3 atom-3 atom-4" d="M 346.1,97.1 L 368.5,110.0" style="fill:none;fill-rule:evenodd;stroke:#000000;stroke-width:2.0px;stroke-linecap:butt;stroke-linejoin:miter;stroke-opacity:1"/>
<path class="bond-3 atom-3 atom-4" d="M 350.0,94.8 L 368.5,105.5" style="fill:none;fill-rule:evenodd;stroke:#000000;stroke-width:2.0px;stroke-linecap:butt;stroke-linejoin:miter;stroke-opacity:1"/>
<path class="bond-4 atom-4 atom-5" d="M 368.5,110.0 L 390.9,97.1" style="fill:none;fill-rule:evenodd;stroke:#000000;stroke-width:2.0px;stroke-linecap:butt;stroke-linejoin:miter;stroke-opacity:1"/>
<path class="bond-5 atom-5 atom-6" d="M 390.9,97.1 L 390.9,71.2" style="fill:none;fill-rule:evenodd;stroke:#000000;stroke-width:2.0px;stroke-linecap:butt;stroke-linejoin:miter;stroke-opacity:1"/>
<path class="bond-5 atom-5 atom-6" d="M 387.0,94.8 L 387.0,73.5" style="fill:none;fill-rule:evenodd;stroke:#000000;stroke-width:2.0px;stroke-linecap:butt;stroke-linejoin:miter;stroke-opacity:1"/>
<path class="bond-6 atom-6 atom-7" d="M 390.9,71.2 L 368.5,58.3" style="fill:none;fill-rule:evenodd;stroke:#000000;stroke-width:2.0px;stroke-linecap:butt;stroke-linejoin:miter;stroke-opacity:1"/>
<path class="bond-7 atom-7 atom-8" d="M 368.5,58.3 L 346.1,71.2" style="fill:none;fill-rule:evenodd;stroke:#000000;stroke-width:2.0px;stroke-linecap:butt;stroke-linejoin:miter;stroke-opacity:1"/>
<path class="bond-7 atom-7 atom-8" d="M 368.5,62.8 L 350.0,73.5" style="fill:none;fill-rule:evenodd;stroke:#000000;stroke-width:2.0px;stroke-linecap:butt;stroke-linejoin:miter;stroke-opacity:1"/>
<path class="bond-8 atom-1 atom-9" d="M 301.4,97.1 L 292.0,102.5" style="fill:none;fill-rule:evenodd;stroke:#000000;stroke-width:2.0px;stroke-linecap:butt;stroke-linejoin:miter;stroke-opacity:1"/>
<path class="bond-8 atom-1 atom-9" d="M 292.0,102.5 L 282.6,107.9" style="fill:none;fill-rule:evenodd;stroke:#0000FF;stroke-width:2.0px;stroke-linecap:butt;stroke-linejoin:miter;stroke-opacity:1"/>
<path class="bond-9 atom-9 atom-10" d="M 275.4,107.9 L 266.0,102.5" style="fill:none;fill-rule:evenodd;stroke:#0000FF;stroke-width:2.0px;stroke-linecap:butt;stroke-linejoin:miter;stroke-opacity:1"/>
<path class="bond-9 atom-9 atom-10" d="M 266.0,102.5 L 256.6,97.1" style="fill:none;fill-rule:evenodd;stroke:#000000;stroke-width:2.0px;stroke-linecap:butt;stroke-linejoin:miter;stroke-opacity:1"/>
<path class="bond-10 atom-10 atom-11" d="M 256.6,97.1 L 256.6,71.2" style="fill:none;fill-rule:evenodd;stroke:#000000;stroke-width:2.0px;stroke-linecap:butt;stroke-linejoin:miter;stroke-opacity:1"/>
<path class="bond-10 atom-10 atom-11" d="M 252.8,94.8 L 252.8,73.5" style="fill:none;fill-rule:evenodd;stroke:#000000;stroke-width:2.0px;stroke-linecap:butt;stroke-linejoin:miter;stroke-opacity:1"/>
<path class="bond-11 atom-11 atom-12" d="M 256.6,71.2 L 234.2,58.3" style="fill:none;fill-rule:evenodd;stroke:#000000;stroke-width:2.0px;stroke-linecap:butt;stroke-linejoin:miter;stroke-opacity:1"/>
<path class="bond-12 atom-12 atom-13" d="M 234.2,58.3 L 211.9,71.2" style="fill:none;fill-rule:evenodd;stroke:#000000;stroke-width:2.0px;stroke-linecap:butt;stroke-linejoin:miter;stroke-opacity:1"/>
<path class="bond-12 atom-12 atom-13" d="M 234.2,62.8 L 215.7,73.5" style="fill:none;fill-rule:evenodd;stroke:#000000;stroke-width:2.0px;stroke-linecap:butt;stroke-linejoin:miter;stroke-opacity:1"/>
<path class="bond-13 atom-13 atom-14" d="M 211.9,71.2 L 211.9,81.9" style="fill:none;fill-rule:evenodd;stroke:#000000;stroke-width:2.0px;stroke-linecap:butt;stroke-linejoin:miter;stroke-opacity:1"/>
<path class="bond-13 atom-13 atom-14" d="M 211.9,81.9 L 211.9,92.6" style="fill:none;fill-rule:evenodd;stroke:#0000FF;stroke-width:2.0px;stroke-linecap:butt;stroke-linejoin:miter;stroke-opacity:1"/>
<path class="bond-14 atom-14 atom-15" d="M 215.5,99.2 L 224.9,104.6" style="fill:none;fill-rule:evenodd;stroke:#0000FF;stroke-width:2.0px;stroke-linecap:butt;stroke-linejoin:miter;stroke-opacity:1"/>
<path class="bond-14 atom-14 atom-15" d="M 224.9,104.6 L 234.2,110.0" style="fill:none;fill-rule:evenodd;stroke:#000000;stroke-width:2.0px;stroke-linecap:butt;stroke-linejoin:miter;stroke-opacity:1"/>
<path class="bond-14 atom-14 atom-15" d="M 217.4,95.8 L 225.8,100.7" style="fill:none;fill-rule:evenodd;stroke:#0000FF;stroke-width:2.0px;stroke-linecap:butt;stroke-linejoin:miter;stroke-opacity:1"/>
<path class="bond-14 atom-14 atom-15" d="M 225.8,100.7 L 234.2,105.5" style="fill:none;fill-rule:evenodd;stroke:#000000;stroke-width:2.0px;stroke-linecap:butt;stroke-linejoin:miter;stroke-opacity:1"/>
<path class="bond-15 atom-8 atom-3" d="M 346.1,71.2 L 346.1,97.1" style="fill:none;fill-rule:evenodd;stroke:#000000;stroke-width:2.0px;stroke-linecap:butt;stroke-linejoin:miter;stroke-opacity:1"/>
<path class="bond-16 atom-15 atom-10" d="M 234.2,110.0 L 256.6,97.1" style="fill:none;fill-rule:evenodd;stroke:#000000;stroke-width:2.0px;stroke-linecap:butt;stroke-linejoin:miter;stroke-opacity:1"/>
<path d="M 301.9,97.3 L 301.4,97.1 L 300.9,97.3" style="fill:none;stroke:#000000;stroke-width:2.0px;stroke-linecap:butt;stroke-linejoin:miter;stroke-opacity:1;"/>
<path d="M 367.4,109.3 L 368.5,110.0 L 369.6,109.3" style="fill:none;stroke:#000000;stroke-width:2.0px;stroke-linecap:butt;stroke-linejoin:miter;stroke-opacity:1;"/>
<path d="M 389.8,97.7 L 390.9,97.1 L 390.9,95.8" style="fill:none;stroke:#000000;stroke-width:2.0px;stroke-linecap:butt;stroke-linejoin:miter;stroke-opacity:1;"/>
<path d="M 390.9,72.5 L 390.9,71.2 L 389.8,70.6" style="fill:none;stroke:#000000;stroke-width:2.0px;stroke-linecap:butt;stroke-linejoin:miter;stroke-opacity:1;"/>
<path d="M 369.6,58.9 L 368.5,58.3 L 367.4,58.9" style="fill:none;stroke:#000000;stroke-width:2.0px;stroke-linecap:butt;stroke-linejoin:miter;stroke-opacity:1;"/>
<path d="M 347.3,70.6 L 346.1,71.2 L 346.1,72.5" style="fill:none;stroke:#000000;stroke-width:2.0px;stroke-linecap:butt;stroke-linejoin:miter;stroke-opacity:1;"/>
<path d="M 256.6,72.5 L 256.6,71.2 L 255.5,70.6" style="fill:none;stroke:#000000;stroke-width:2.0px;stroke-linecap:butt;stroke-linejoin:miter;stroke-opacity:1;"/>
<path d="M 235.4,58.9 L 234.2,58.3 L 233.1,58.9" style="fill:none;stroke:#000000;stroke-width:2.0px;stroke-linecap:butt;stroke-linejoin:miter;stroke-opacity:1;"/>
<path d="M 213.0,70.6 L 211.9,71.2 L 211.9,71.8" style="fill:none;stroke:#000000;stroke-width:2.0px;stroke-linecap:butt;stroke-linejoin:miter;stroke-opacity:1;"/>
<path d="M 233.8,109.7 L 234.2,110.0 L 235.4,109.3" style="fill:none;stroke:#000000;stroke-width:2.0px;stroke-linecap:butt;stroke-linejoin:miter;stroke-opacity:1;"/>
<path class="atom-0" d="M 298.0 71.2 Q 298.0 69.5, 298.9 68.5 Q 299.8 67.5, 301.4 67.5 Q 303.0 67.5, 303.9 68.5 Q 304.7 69.5, 304.7 71.2 Q 304.7 73.0, 303.9 74.0 Q 303.0 75.0, 301.4 75.0 Q 299.8 75.0, 298.9 74.0 Q 298.0 73.0, 298.0 71.2 M 301.4 74.2 Q 302.5 74.2, 303.1 73.5 Q 303.7 72.7, 303.7 71.2 Q 303.7 69.8, 303.1 69.1 Q 302.5 68.4, 301.4 68.4 Q 300.3 68.4, 299.7 69.1 Q 299.1 69.8, 299.1 71.2 Q 299.1 72.7, 299.7 73.5 Q 300.3 74.2, 301.4 74.2 " fill="#FF0000"/>
<path class="atom-2" d="M 322.2 106.3 L 324.5 110.2 Q 324.8 110.6, 325.2 111.3 Q 325.6 112.0, 325.6 112.0 L 325.6 106.3 L 326.5 106.3 L 326.5 113.6 L 325.5 113.6 L 323.0 109.4 Q 322.7 108.9, 322.3 108.3 Q 322.0 107.8, 321.9 107.6 L 321.9 113.6 L 321.0 113.6 L 321.0 106.3 L 322.2 106.3 " fill="#0000FF"/>
<path class="atom-2" d="M 320.9 114.4 L 321.9 114.4 L 321.9 117.5 L 325.6 117.5 L 325.6 114.4 L 326.6 114.4 L 326.6 121.7 L 325.6 121.7 L 325.6 118.3 L 321.9 118.3 L 321.9 121.7 L 320.9 121.7 L 320.9 114.4 " fill="#0000FF"/>
<path class="atom-9" d="M 277.4 106.3 L 279.8 110.2 Q 280.0 110.6, 280.4 111.3 Q 280.8 112.0, 280.8 112.0 L 280.8 106.3 L 281.8 106.3 L 281.8 113.6 L 280.8 113.6 L 278.2 109.4 Q 277.9 108.9, 277.6 108.3 Q 277.3 107.8, 277.2 107.6 L 277.2 113.6 L 276.2 113.6 L 276.2 106.3 L 277.4 106.3 " fill="#0000FF"/>
<path class="atom-9" d="M 276.1 114.4 L 277.1 114.4 L 277.1 117.5 L 280.9 117.5 L 280.9 114.4 L 281.9 114.4 L 281.9 121.7 L 280.9 121.7 L 280.9 118.3 L 277.1 118.3 L 277.1 121.7 L 276.1 121.7 L 276.1 114.4 " fill="#0000FF"/>
<path class="atom-14" d="M 210.2 93.4 L 212.6 97.3 Q 212.9 97.7, 213.3 98.4 Q 213.6 99.1, 213.7 99.1 L 213.7 93.4 L 214.6 93.4 L 214.6 100.7 L 213.6 100.7 L 211.1 96.5 Q 210.8 96.0, 210.4 95.4 Q 210.1 94.9, 210.0 94.7 L 210.0 100.7 L 209.1 100.7 L 209.1 93.4 L 210.2 93.4 " fill="#0000FF"/>
<path class="legend" d="M 279.3 190.6 L 276.6 186.6 L 278.3 186.6 L 280.3 189.4 L 282.3 186.6 L 283.9 186.6 L 281.1 190.6 L 284.1 194.8 L 282.3 194.8 L 280.2 191.7 L 278.0 194.8 L 276.3 194.8 L 279.3 190.6 " fill="#000000"/>
<path class="legend" d="M 289.2 195.0 Q 287.1 195.0, 286.1 193.4 Q 285.1 191.9, 285.1 189.2 Q 285.1 186.4, 286.1 184.9 Q 287.1 183.4, 289.2 183.4 Q 291.3 183.4, 292.3 184.9 Q 293.4 186.4, 293.4 189.2 Q 293.4 191.9, 292.3 193.4 Q 291.3 195.0, 289.2 195.0 M 289.2 193.7 Q 290.4 193.7, 291.1 192.6 Q 291.8 191.4, 291.8 189.2 Q 291.8 186.9, 291.1 185.8 Q 290.4 184.7, 289.2 184.7 Q 288.0 184.7, 287.3 185.8 Q 286.7 186.9, 286.7 189.2 Q 286.7 191.4, 287.3 192.6 Q 288.0 193.7, 289.2 193.7 " fill="#000000"/>
<path class="legend" d="M 302.6 191.0 L 303.9 191.0 L 303.9 192.2 L 302.6 192.2 L 302.6 194.8 L 301.1 194.8 L 301.1 192.2 L 295.2 192.2 L 295.2 191.2 L 300.2 183.5 L 302.6 183.5 L 302.6 191.0 M 297.1 191.0 L 301.1 191.0 L 301.1 184.5 L 297.1 191.0 " fill="#000000"/>
<path class="legend" d="M 311.0 188.9 Q 312.1 189.2, 312.6 189.9 Q 313.2 190.6, 313.2 191.7 Q 313.2 192.7, 312.7 193.4 Q 312.2 194.2, 311.3 194.6 Q 310.4 195.0, 309.3 195.0 Q 308.1 195.0, 307.2 194.6 Q 306.3 194.2, 305.6 193.3 L 306.5 192.4 Q 307.2 193.1, 307.8 193.4 Q 308.4 193.7, 309.3 193.7 Q 310.3 193.7, 310.9 193.2 Q 311.6 192.6, 311.6 191.7 Q 311.6 190.6, 310.9 190.1 Q 310.3 189.5, 308.9 189.5 L 308.1 189.5 L 308.1 188.4 L 308.8 188.4 Q 310.0 188.4, 310.7 187.8 Q 311.3 187.3, 311.3 186.3 Q 311.3 185.5, 310.8 185.1 Q 310.2 184.7, 309.3 184.7 Q 308.4 184.7, 307.8 185.0 Q 307.2 185.3, 306.8 186.2 L 305.6 185.6 Q 306.0 184.6, 307.0 184.0 Q 308.0 183.4, 309.3 183.4 Q 311.0 183.4, 312.0 184.2 Q 312.9 185.0, 312.9 186.3 Q 312.9 187.2, 312.4 187.8 Q 311.9 188.5, 311.0 188.9 " fill="#000000"/>
<path class="legend" d="M 322.3 191.0 L 323.7 191.0 L 323.7 192.2 L 322.3 192.2 L 322.3 194.8 L 320.8 194.8 L 320.8 192.2 L 314.9 192.2 L 314.9 191.2 L 319.9 183.5 L 322.3 183.5 L 322.3 191.0 M 316.8 191.0 L 320.8 191.0 L 320.8 184.5 L 316.8 191.0 " fill="#000000"/>
</svg>