<svg xmlns="http://www.w3.org/2000/svg" xmlns:rdkit="http://www.rdkit.org/xml" xmlns:xlink="http://www.w3.org/1999/xlink" version="1.1" baseProfile="full" xml:space="preserve" width="600px" height="200px" viewBox="0 0 600 200">
<!-- END OF HEADER -->
<rect style="opacity:1.0;fill:#FFFFFF;stroke:none" width="600.0" height="200.0" x="0.0" y="0.0"> </rect>
<path class="bond-0 atom-0 atom-1" d="M 84.9,100.5 L 86.5,91.0" style="fill:none;fill-rule:evenodd;stroke:#FF0000;stroke-width:2.0px;stroke-linecap:butt;stroke-linejoin:miter;stroke-opacity:1"/>
<path class="bond-0 atom-0 atom-1" d="M 86.5,91.0 L 88.1,81.5" style="fill:none;fill-rule:evenodd;stroke:#000000;stroke-width:2.0px;stroke-linecap:butt;stroke-linejoin:miter;stroke-opacity:1"/>
<path class="bond-0 atom-0 atom-1" d="M 88.2,101.0 L 89.8,91.5" style="fill:none;fill-rule:evenodd;stroke:#FF0000;stroke-width:2.0px;stroke-linecap:butt;stroke-linejoin:miter;stroke-opacity:1"/>
<path class="bond-0 atom-0 atom-1" d="M 89.8,91.5 L 91.4,82.0" style="fill:none;fill-rule:evenodd;stroke:#000000;stroke-width:2.0px;stroke-linecap:butt;stroke-linejoin:miter;stroke-opacity:1"/>
<path class="bond-1 atom-1 atom-2" d="M 89.6,82.7 L 110.4,74.9" style="fill:none;fill-rule:evenodd;stroke:#000000;stroke-width:2.0px;stroke-linecap:butt;stroke-linejoin:miter;stroke-opacity:1"/>
<path class="bond-2 atom-2 atom-3" d="M 110.4,74.9 L 127.6,89.1" style="fill:none;fill-rule:evenodd;stroke:#000000;stroke-width:2.0px;stroke-linecap:butt;stroke-linejoin:miter;stroke-opacity:1"/>
<path class="bond-3 atom-3 atom-4" d="M 127.6,89.1 L 123.9,111.1" style="fill:none;fill-rule:evenodd;stroke:#000000;stroke-width:2.0px;stroke-linecap:butt;stroke-linejoin:miter;stroke-opacity:1"/>
<path class="bond-3 atom-3 atom-4" d="M 130.6,91.6 L 127.6,109.8" style="fill:none;fill-rule:evenodd;stroke:#000000;stroke-width:2.0px;stroke-linecap:butt;stroke-linejoin:miter;stroke-opacity:1"/>
<path class="bond-4 atom-4 atom-5" d="M 123.9,111.1 L 131.0,116.9" style="fill:none;fill-rule:evenodd;stroke:#000000;stroke-width:2.0px;stroke-linecap:butt;stroke-linejoin:miter;stroke-opacity:1"/>
<path class="bond-4 atom-4 atom-5" d="M 131.0,116.9 L 138.0,122.7" style="fill:none;fill-rule:evenodd;stroke:#0000FF;stroke-width:2.0px;stroke-linecap:butt;stroke-linejoin:miter;stroke-opacity:1"/>
<path class="bond-5 atom-5 atom-6" d="M 144.3,124.1 L 153.2,120.8" style="fill:none;fill-rule:evenodd;stroke:#0000FF;stroke-width:2.0px;stroke-linecap:butt;stroke-linejoin:miter;stroke-opacity:1"/>
<path class="bond-5 atom-5 atom-6" d="M 153.2,120.8 L 162.0,117.5" style="fill:none;fill-rule:evenodd;stroke:#000000;stroke-width:2.0px;stroke-linecap:butt;stroke-linejoin:miter;stroke-opacity:1"/>
<path class="bond-5 atom-5 atom-6" d="M 143.1,121.0 L 151.1,118.0" style="fill:none;fill-rule:evenodd;stroke:#0000FF;stroke-width:2.0px;stroke-linecap:butt;stroke-linejoin:miter;stroke-opacity:1"/>
<path class="bond-5 atom-5 atom-6" d="M 151.1,118.0 L 159.1,115.1" style="fill:none;fill-rule:evenodd;stroke:#000000;stroke-width:2.0px;stroke-linecap:butt;stroke-linejoin:miter;stroke-opacity:1"/>
<path class="bond-6 atom-6 atom-7" d="M 162.0,117.5 L 165.7,95.5" style="fill:none;fill-rule:evenodd;stroke:#000000;stroke-width:2.0px;stroke-linecap:butt;stroke-linejoin:miter;stroke-opacity:1"/>
<path class="bond-7 atom-7 atom-8" d="M 165.7,95.5 L 186.6,87.7" style="fill:none;fill-rule:evenodd;stroke:#000000;stroke-width:2.0px;stroke-linecap:butt;stroke-linejoin:miter;stroke-opacity:1"/>
<path class="bond-7 atom-7 atom-8" d="M 166.4,91.7 L 183.7,85.3" style="fill:none;fill-rule:evenodd;stroke:#000000;stroke-width:2.0px;stroke-linecap:butt;stroke-linejoin:miter;stroke-opacity:1"/>
<path class="bond-8 atom-8 atom-9" d="M 186.6,87.7 L 190.3,65.7" style="fill:none;fill-rule:evenodd;stroke:#000000;stroke-width:2.0px;stroke-linecap:butt;stroke-linejoin:miter;stroke-opacity:1"/>
<path class="bond-9 atom-9 atom-10" d="M 190.3,65.7 L 173.1,51.5" style="fill:none;fill-rule:evenodd;stroke:#000000;stroke-width:2.0px;stroke-linecap:butt;stroke-linejoin:miter;stroke-opacity:1"/>
<path class="bond-9 atom-9 atom-10" d="M 186.7,67.1 L 172.5,55.3" style="fill:none;fill-rule:evenodd;stroke:#000000;stroke-width:2.0px;stroke-linecap:butt;stroke-linejoin:miter;stroke-opacity:1"/>
<path class="bond-10 atom-10 atom-11" d="M 173.1,51.5 L 152.2,59.3" style="fill:none;fill-rule:evenodd;stroke:#000000;stroke-width:2.0px;stroke-linecap:butt;stroke-linejoin:miter;stroke-opacity:1"/>
<path class="bond-11 atom-11 atom-12" d="M 152.2,59.3 L 148.5,81.3" style="fill:none;fill-rule:evenodd;stroke:#000000;stroke-width:2.0px;stroke-linecap:butt;stroke-linejoin:miter;stroke-opacity:1"/>
<path class="bond-11 atom-11 atom-12" d="M 155.2,61.8 L 152.2,80.0" style="fill:none;fill-rule:evenodd;stroke:#000000;stroke-width:2.0px;stroke-linecap:butt;stroke-linejoin:miter;stroke-opacity:1"/>
<path class="bond-12 atom-1 atom-13" d="M 89.6,82.7 L 82.5,76.9" style="fill:none;fill-rule:evenodd;stroke:#000000;stroke-width:2.0px;stroke-linecap:butt;stroke-linejoin:miter;stroke-opacity:1"/>
<path class="bond-12 atom-1 atom-13" d="M 82.5,76.9 L 75.5,71.1" style="fill:none;fill-rule:evenodd;stroke:#0000FF;stroke-width:2.0px;stroke-linecap:butt;stroke-linejoin:miter;stroke-opacity:1"/>
<path class="bond-13 atom-13 atom-14" d="M 69.2,69.7 L 60.3,73.0" style="fill:none;fill-rule:evenodd;stroke:#0000FF;stroke-width:2.0px;stroke-linecap:butt;stroke-linejoin:miter;stroke-opacity:1"/>
<path class="bond-13 atom-13 atom-14" d="M 60.3,73.0 L 51.5,76.3" style="fill:none;fill-rule:evenodd;stroke:#000000;stroke-width:2.0px;stroke-linecap:butt;stroke-linejoin:miter;stroke-opacity:1"/>
<path class="bond-14 atom-14 atom-15" d="M 51.5,76.3 L 34.3,62.1" style="fill:none;fill-rule:evenodd;stroke:#000000;stroke-width:2.0px;stroke-linecap:butt;stroke-linejoin:miter;stroke-opacity:1"/>
<path class="bond-14 atom-14 atom-15" d="M 47.8,77.6 L 33.6,65.9" style="fill:none;fill-rule:evenodd;stroke:#000000;stroke-width:2.0px;stroke-linecap:butt;stroke-linejoin:miter;stroke-opacity:1"/>
<path class="bond-15 atom-15 atom-16" d="M 34.3,62.1 L 13.4,69.9" style="fill:none;fill-rule:evenodd;stroke:#000000;stroke-width:2.0px;stroke-linecap:butt;stroke-linejoin:miter;stroke-opacity:1"/>
<path class="bond-16 atom-16 atom-17" d="M 13.4,69.9 L 9.7,91.9" style="fill:none;fill-rule:evenodd;stroke:#000000;stroke-width:2.0px;stroke-linecap:butt;stroke-linejoin:miter;stroke-opacity:1"/>
<path class="bond-16 atom-16 atom-17" d="M 16.3,72.3 L 13.3,90.5" style="fill:none;fill-rule:evenodd;stroke:#000000;stroke-width:2.0px;stroke-linecap:butt;stroke-linejoin:miter;stroke-opacity:1"/>
<path class="bond-17 atom-17 atom-18" d="M 9.7,91.9 L 26.9,106.1" style="fill:none;fill-rule:evenodd;stroke:#000000;stroke-width:2.0px;stroke-linecap:butt;stroke-linejoin:miter;stroke-opacity:1"/>
<path class="bond-18 atom-18 atom-19" d="M 26.9,106.1 L 47.8,98.3" style="fill:none;fill-rule:evenodd;stroke:#000000;stroke-width:2.0px;stroke-linecap:butt;stroke-linejoin:miter;stroke-opacity:1"/>
<path class="bond-18 atom-18 atom-19" d="M 27.5,102.3 L 44.8,95.8" style="fill:none;fill-rule:evenodd;stroke:#000000;stroke-width:2.0px;stroke-linecap:butt;stroke-linejoin:miter;stroke-opacity:1"/>
<path class="bond-19 atom-12 atom-3" d="M 148.5,81.3 L 127.6,89.1" style="fill:none;fill-rule:evenodd;stroke:#000000;stroke-width:2.0px;stroke-linecap:butt;stroke-linejoin:miter;stroke-opacity:1"/>
<path class="bond-20 atom-19 atom-14" d="M 47.8,98.3 L 51.5,76.3" style="fill:none;fill-rule:evenodd;stroke:#000000;stroke-width:2.0px;stroke-linecap:butt;stroke-linejoin:miter;stroke-opacity:1"/>
<path class="bond-21 atom-12 atom-7" d="M 148.5,81.3 L 165.7,95.5" style="fill:none;fill-rule:evenodd;stroke:#000000;stroke-width:2.0px;stroke-linecap:butt;stroke-linejoin:miter;stroke-opacity:1"/>
<path d="M 90.6,82.3 L 89.6,82.7 L 89.2,82.4" style="fill:none;stroke:#000000;stroke-width:2.0px;stroke-linecap:butt;stroke-linejoin:miter;stroke-opacity:1;"/>
<path d="M 109.4,75.3 L 110.4,74.9 L 111.3,75.6" style="fill:none;stroke:#000000;stroke-width:2.0px;stroke-linecap:butt;stroke-linejoin:miter;stroke-opacity:1;"/>
<path d="M 124.1,110.0 L 123.9,111.1 L 124.3,111.4" style="fill:none;stroke:#000000;stroke-width:2.0px;stroke-linecap:butt;stroke-linejoin:miter;stroke-opacity:1;"/>
<path d="M 161.6,117.7 L 162.0,117.5 L 162.2,116.4" style="fill:none;stroke:#000000;stroke-width:2.0px;stroke-linecap:butt;stroke-linejoin:miter;stroke-opacity:1;"/>
<path d="M 185.6,88.1 L 186.6,87.7 L 186.8,86.6" style="fill:none;stroke:#000000;stroke-width:2.0px;stroke-linecap:butt;stroke-linejoin:miter;stroke-opacity:1;"/>
<path d="M 190.2,66.8 L 190.3,65.7 L 189.5,65.0" style="fill:none;stroke:#000000;stroke-width:2.0px;stroke-linecap:butt;stroke-linejoin:miter;stroke-opacity:1;"/>
<path d="M 174.0,52.2 L 173.1,51.5 L 172.1,51.9" style="fill:none;stroke:#000000;stroke-width:2.0px;stroke-linecap:butt;stroke-linejoin:miter;stroke-opacity:1;"/>
<path d="M 153.3,58.9 L 152.2,59.3 L 152.1,60.4" style="fill:none;stroke:#000000;stroke-width:2.0px;stroke-linecap:butt;stroke-linejoin:miter;stroke-opacity:1;"/>
<path d="M 35.1,62.8 L 34.3,62.1 L 33.2,62.5" style="fill:none;stroke:#000000;stroke-width:2.0px;stroke-linecap:butt;stroke-linejoin:miter;stroke-opacity:1;"/>
<path d="M 14.4,69.5 L 13.4,69.9 L 13.2,71.0" style="fill:none;stroke:#000000;stroke-width:2.0px;stroke-linecap:butt;stroke-linejoin:miter;stroke-opacity:1;"/>
<path d="M 9.8,90.8 L 9.7,91.9 L 10.5,92.6" style="fill:none;stroke:#000000;stroke-width:2.0px;stroke-linecap:butt;stroke-linejoin:miter;stroke-opacity:1;"/>
<path d="M 26.0,105.4 L 26.9,106.1 L 27.9,105.7" style="fill:none;stroke:#000000;stroke-width:2.0px;stroke-linecap:butt;stroke-linejoin:miter;stroke-opacity:1;"/>
<path d="M 46.7,98.7 L 47.8,98.3 L 47.9,97.2" style="fill:none;stroke:#000000;stroke-width:2.0px;stroke-linecap:butt;stroke-linejoin:miter;stroke-opacity:1;"/>
<path class="atom-0" d="M 82.9 104.7 Q 82.9 103.2, 83.7 102.4 Q 84.4 101.5, 85.8 101.5 Q 87.3 101.5, 88.0 102.4 Q 88.7 103.2, 88.7 104.7 Q 88.7 106.3, 88.0 107.1 Q 87.2 108.0, 85.8 108.0 Q 84.5 108.0, 83.7 107.1 Q 82.9 106.3, 82.9 104.7 M 85.8 107.3 Q 86.8 107.3, 87.3 106.6 Q 87.9 106.0, 87.9 104.7 Q 87.9 103.5, 87.3 102.9 Q 86.8 102.2, 85.8 102.2 Q 84.9 102.2, 84.4 102.8 Q 83.8 103.5, 83.8 104.7 Q 83.8 106.0, 84.4 106.6 Q 84.9 107.3, 85.8 107.3 " fill="#FF0000"/>
<path class="atom-5" d="M 139.8 122.2 L 141.8 125.5 Q 142.0 125.8, 142.4 126.4 Q 142.7 127.0, 142.7 127.1 L 142.7 122.2 L 143.5 122.2 L 143.5 128.5 L 142.7 128.5 L 140.5 124.8 Q 140.2 124.4, 139.9 123.9 Q 139.7 123.4, 139.6 123.3 L 139.6 128.5 L 138.8 128.5 L 138.8 122.2 L 139.8 122.2 " fill="#0000FF"/>
<path class="atom-13" d="M 71.0 65.3 L 73.0 68.7 Q 73.2 69.0, 73.6 69.6 Q 73.9 70.2, 73.9 70.2 L 73.9 65.3 L 74.7 65.3 L 74.7 71.7 L 73.9 71.7 L 71.7 68.0 Q 71.4 67.6, 71.1 67.1 Q 70.9 66.6, 70.8 66.4 L 70.8 71.7 L 70.0 71.7 L 70.0 65.3 L 71.0 65.3 " fill="#0000FF"/>
<path class="atom-13" d="M 69.9 58.4 L 70.7 58.4 L 70.7 61.1 L 74.0 61.1 L 74.0 58.4 L 74.8 58.4 L 74.8 64.7 L 74.0 64.7 L 74.0 61.8 L 70.7 61.8 L 70.7 64.7 L 69.9 64.7 L 69.9 58.4 " fill="#0000FF"/>
<path class="legend" d="M 80.8 190.6 L 78.0 186.6 L 79.8 186.6 L 81.8 189.4 L 83.7 186.6 L 85.3 186.6 L 82.6 190.6 L 85.6 194.8 L 83.8 194.8 L 81.6 191.7 L 79.5 194.8 L 77.8 194.8 L 80.8 190.6 " fill="#000000"/>
<path class="legend" d="M 86.5 185.7 Q 86.9 184.6, 87.9 184.0 Q 88.9 183.4, 90.3 183.4 Q 92.0 183.4, 93.0 184.3 Q 93.9 185.2, 93.9 186.9 Q 93.9 188.6, 92.7 190.1 Q 91.5 191.7, 88.9 193.6 L 94.1 193.6 L 94.1 194.8 L 86.5 194.8 L 86.5 193.8 Q 88.6 192.3, 89.9 191.1 Q 91.1 190.0, 91.7 189.0 Q 92.3 188.0, 92.3 187.0 Q 92.3 185.9, 91.8 185.3 Q 91.2 184.7, 90.3 184.7 Q 89.4 184.7, 88.8 185.0 Q 88.2 185.4, 87.7 186.2 L 86.5 185.7 " fill="#000000"/>
<path class="legend" d="M 100.0 187.8 Q 101.0 187.8, 101.8 188.2 Q 102.6 188.6, 103.1 189.4 Q 103.5 190.2, 103.5 191.3 Q 103.5 192.4, 102.9 193.3 Q 102.4 194.1, 101.5 194.5 Q 100.5 195.0, 99.5 195.0 Q 98.4 195.0, 97.5 194.6 Q 96.5 194.2, 95.9 193.5 L 96.8 192.5 Q 97.3 193.0, 98.1 193.4 Q 98.8 193.7, 99.5 193.7 Q 100.5 193.7, 101.2 193.0 Q 101.9 192.4, 101.9 191.3 Q 101.9 190.1, 101.2 189.5 Q 100.5 189.0, 99.4 189.0 Q 98.4 189.0, 97.3 189.4 L 96.4 189.0 L 97.0 183.5 L 102.8 183.5 L 102.7 184.8 L 98.3 184.8 L 98.0 188.2 Q 99.0 187.8, 100.0 187.8 " fill="#000000"/>
<path class="legend" d="M 109.5 187.8 Q 110.5 187.8, 111.3 188.2 Q 112.1 188.6, 112.5 189.4 Q 112.9 190.2, 112.9 191.2 Q 112.9 192.3, 112.4 193.2 Q 111.9 194.0, 111.1 194.5 Q 110.2 195.0, 109.1 195.0 Q 107.1 195.0, 106.1 193.6 Q 105.1 192.2, 105.1 189.5 Q 105.1 186.5, 106.3 185.0 Q 107.6 183.4, 110.0 183.4 Q 110.7 183.4, 111.3 183.5 Q 111.9 183.7, 112.5 184.0 L 111.8 185.1 Q 111.0 184.7, 110.0 184.7 Q 108.4 184.7, 107.6 185.7 Q 106.8 186.7, 106.7 188.9 Q 107.3 188.3, 108.0 188.1 Q 108.7 187.8, 109.5 187.8 M 109.1 193.7 Q 109.7 193.7, 110.2 193.3 Q 110.7 193.0, 111.0 192.5 Q 111.3 191.9, 111.3 191.2 Q 111.3 190.2, 110.8 189.6 Q 110.2 189.0, 109.2 189.0 Q 108.5 189.0, 107.8 189.3 Q 107.2 189.6, 106.7 190.1 Q 106.7 192.0, 107.3 192.8 Q 107.9 193.7, 109.1 193.7 " fill="#000000"/>
<path class="legend" d="M 120.0 188.9 Q 121.1 189.2, 121.6 189.9 Q 122.2 190.6, 122.2 191.7 Q 122.2 192.7, 121.7 193.4 Q 121.2 194.2, 120.3 194.6 Q 119.5 195.0, 118.3 195.0 Q 117.1 195.0, 116.2 194.6 Q 115.3 194.2, 114.6 193.3 L 115.5 192.4 Q 116.2 193.1, 116.8 193.4 Q 117.4 193.7, 118.3 193.7 Q 119.3 193.7, 120.0 193.2 Q 120.6 192.6, 120.6 191.7 Q 120.6 190.6, 119.9 190.1 Q 119.3 189.5, 117.9 189.5 L 117.1 189.5 L 117.1 188.4 L 117.8 188.4 Q 119.0 188.4, 119.7 187.8 Q 120.3 187.3, 120.3 186.3 Q 120.3 185.5, 119.8 185.1 Q 119.3 184.7, 118.3 184.7 Q 117.4 184.7, 116.8 185.0 Q 116.2 185.3, 115.8 186.2 L 114.7 185.6 Q 115.1 184.6, 116.0 184.0 Q 117.0 183.4, 118.3 183.4 Q 120.0 183.4, 121.0 184.2 Q 121.9 185.0, 121.9 186.3 Q 121.9 187.2, 121.4 187.8 Q 120.9 188.5, 120.0 188.9 " fill="#000000"/>
<path class="bond-0 atom-0 atom-1" d="M 302.9,77.8 L 302.9,87.4" style="fill:none;fill-rule:evenodd;stroke:#FF0000;stroke-width:2.0px;stroke-linecap:butt;stroke-linejoin:miter;stroke-opacity:1"/>
<path class="bond-0 atom-0 atom-1" d="M 302.9,87.4 L 302.9,97.1" style="fill:none;fill-rule:evenodd;stroke:#000000;stroke-width:2.0px;stroke-linecap:butt;stroke-linejoin:miter;stroke-opacity:1"/>
<path class="bond-0 atom-0 atom-1" d="M 299.5,77.8 L 299.5,87.4" style="fill:none;fill-rule:evenodd;stroke:#FF0000;stroke-width:2.0px;stroke-linecap:butt;stroke-linejoin:miter;stroke-opacity:1"/>
<path class="bond-0 atom-0 atom-1" d="M 299.5,87.4 L 299.5,97.1" style="fill:none;fill-rule:evenodd;stroke:#000000;stroke-width:2.0px;stroke-linecap:butt;stroke-linejoin:miter;stroke-opacity:1"/>
<path class="bond-1 atom-1 atom-2" d="M 301.2,96.1 L 309.3,100.8" style="fill:none;fill-rule:evenodd;stroke:#000000;stroke-width:2.0px;stroke-linecap:butt;stroke-linejoin:miter;stroke-opacity:1"/>
<path class="bond-1 atom-1 atom-2" d="M 309.3,100.8 L 317.4,105.4" style="fill:none;fill-rule:evenodd;stroke:#0000FF;stroke-width:2.0px;stroke-linecap:butt;stroke-linejoin:miter;stroke-opacity:1"/>
<path class="bond-2 atom-2 atom-3" d="M 323.6,105.4 L 331.7,100.8" style="fill:none;fill-rule:evenodd;stroke:#0000FF;stroke-width:2.0px;stroke-linecap:butt;stroke-linejoin:miter;stroke-opacity:1"/>
<path class="bond-2 atom-2 atom-3" d="M 331.7,100.8 L 339.8,96.1" style="fill:none;fill-rule:evenodd;stroke:#000000;stroke-width:2.0px;stroke-linecap:butt;stroke-linejoin:miter;stroke-opacity:1"/>
<path class="bond-3 atom-3 atom-4" d="M 339.8,96.1 L 359.2,107.3" style="fill:none;fill-rule:evenodd;stroke:#000000;stroke-width:2.0px;stroke-linecap:butt;stroke-linejoin:miter;stroke-opacity:1"/>
<path class="bond-3 atom-3 atom-4" d="M 343.2,94.2 L 359.2,103.4" style="fill:none;fill-rule:evenodd;stroke:#000000;stroke-width:2.0px;stroke-linecap:butt;stroke-linejoin:miter;stroke-opacity:1"/>
<path class="bond-4 atom-4 atom-5" d="M 359.2,107.3 L 378.5,96.1" style="fill:none;fill-rule:evenodd;stroke:#000000;stroke-width:2.0px;stroke-linecap:butt;stroke-linejoin:miter;stroke-opacity:1"/>
<path class="bond-5 atom-5 atom-6" d="M 378.5,96.1 L 378.5,73.8" style="fill:none;fill-rule:evenodd;stroke:#000000;stroke-width:2.0px;stroke-linecap:butt;stroke-linejoin:miter;stroke-opacity:1"/>
<path class="bond-5 atom-5 atom-6" d="M 375.1,94.2 L 375.1,75.7" style="fill:none;fill-rule:evenodd;stroke:#000000;stroke-width:2.0px;stroke-linecap:butt;stroke-linejoin:miter;stroke-opacity:1"/>
<path class="bond-6 atom-6 atom-7" d="M 378.5,73.8 L 359.2,62.6" style="fill:none;fill-rule:evenodd;stroke:#000000;stroke-width:2.0px;stroke-linecap:butt;stroke-linejoin:miter;stroke-opacity:1"/>
<path class="bond-7 atom-7 atom-8" d="M 359.2,62.6 L 339.8,73.8" style="fill:none;fill-rule:evenodd;stroke:#000000;stroke-width:2.0px;stroke-linecap:butt;stroke-linejoin:miter;stroke-opacity:1"/>
<path class="bond-7 atom-7 atom-8" d="M 359.2,66.5 L 343.2,75.7" style="fill:none;fill-rule:evenodd;stroke:#000000;stroke-width:2.0px;stroke-linecap:butt;stroke-linejoin:miter;stroke-opacity:1"/>
<path class="bond-8 atom-1 atom-9" d="M 301.2,96.1 L 293.1,100.8" style="fill:none;fill-rule:evenodd;stroke:#000000;stroke-width:2.0px;stroke-linecap:butt;stroke-linejoin:miter;stroke-opacity:1"/>
<path class="bond-8 atom-1 atom-9" d="M 293.1,100.8 L 285.0,105.4" style="fill:none;fill-rule:evenodd;stroke:#0000FF;stroke-width:2.0px;stroke-linecap:butt;stroke-linejoin:miter;stroke-opacity:1"/>
<path class="bond-9 atom-9 atom-10" d="M 278.7,105.4 L 270.7,100.8" style="fill:none;fill-rule:evenodd;stroke:#0000FF;stroke-width:2.0px;stroke-linecap:butt;stroke-linejoin:miter;stroke-opacity:1"/>
<path class="bond-9 atom-9 atom-10" d="M 270.7,100.8 L 262.6,96.1" style="fill:none;fill-rule:evenodd;stroke:#000000;stroke-width:2.0px;stroke-linecap:butt;stroke-linejoin:miter;stroke-opacity:1"/>
<path class="bond-10 atom-10 atom-11" d="M 262.6,96.1 L 262.6,73.8" style="fill:none;fill-rule:evenodd;stroke:#000000;stroke-width:2.0px;stroke-linecap:butt;stroke-linejoin:miter;stroke-opacity:1"/>
<path class="bond-10 atom-10 atom-11" d="M 259.2,94.2 L 259.2,75.7" style="fill:none;fill-rule:evenodd;stroke:#000000;stroke-width:2.0px;stroke-linecap:butt;stroke-linejoin:miter;stroke-opacity:1"/>
<path class="bond-11 atom-11 atom-12" d="M 262.6,73.8 L 243.2,62.6" style="fill:none;fill-rule:evenodd;stroke:#000000;stroke-width:2.0px;stroke-linecap:butt;stroke-linejoin:miter;stroke-opacity:1"/>
<path class="bond-12 atom-12 atom-13" d="M 243.2,62.6 L 223.9,73.8" style="fill:none;fill-rule:evenodd;stroke:#000000;stroke-width:2.0px;stroke-linecap:butt;stroke-linejoin:miter;stroke-opacity:1"/>
<path class="bond-12 atom-12 atom-13" d="M 243.2,66.5 L 227.3,75.7" style="fill:none;fill-rule:evenodd;stroke:#000000;stroke-width:2.0px;stroke-linecap:butt;stroke-linejoin:miter;stroke-opacity:1"/>
<path class="bond-13 atom-13 atom-14" d="M 223.9,73.8 L 223.9,83.0" style="fill:none;fill-rule:evenodd;stroke:#000000;stroke-width:2.0px;stroke-linecap:butt;stroke-linejoin:miter;stroke-opacity:1"/>
<path class="bond-13 atom-13 atom-14" d="M 223.9,83.0 L 223.9,92.2" style="fill:none;fill-rule:evenodd;stroke:#0000FF;stroke-width:2.0px;stroke-linecap:butt;stroke-linejoin:miter;stroke-opacity:1"/>
<path class="bond-14 atom-14 atom-15" d="M 227.1,97.9 L 235.2,102.6" style="fill:none;fill-rule:evenodd;stroke:#0000FF;stroke-width:2.0px;stroke-linecap:butt;stroke-linejoin:miter;stroke-opacity:1"/>
<path class="bond-14 atom-14 atom-15" d="M 235.2,102.6 L 243.2,107.3" style="fill:none;fill-rule:evenodd;stroke:#000000;stroke-width:2.0px;stroke-linecap:butt;stroke-linejoin:miter;stroke-opacity:1"/>
<path class="bond-14 atom-14 atom-15" d="M 228.7,95.0 L 236.0,99.2" style="fill:none;fill-rule:evenodd;stroke:#0000FF;stroke-width:2.0px;stroke-linecap:butt;stroke-linejoin:miter;stroke-opacity:1"/>
<path class="bond-14 atom-14 atom-15" d="M 236.0,99.2 L 243.2,103.4" style="fill:none;fill-rule:evenodd;stroke:#000000;stroke-width:2.0px;stroke-linecap:butt;stroke-linejoin:miter;stroke-opacity:1"/>
<path class="bond-15 atom-8 atom-3" d="M 339.8,73.8 L 339.8,96.1" style="fill:none;fill-rule:evenodd;stroke:#000000;stroke-width:2.0px;stroke-linecap:butt;stroke-linejoin:miter;stroke-opacity:1"/>
<path class="bond-16 atom-15 atom-10" d="M 243.2,107.3 L 262.6,96.1" style="fill:none;fill-rule:evenodd;stroke:#000000;stroke-width:2.0px;stroke-linecap:butt;stroke-linejoin:miter;stroke-opacity:1"/>
<path d="M 301.6,96.3 L 301.2,96.1 L 300.8,96.3" style="fill:none;stroke:#000000;stroke-width:2.0px;stroke-linecap:butt;stroke-linejoin:miter;stroke-opacity:1;"/>
<path d="M 358.2,106.7 L 359.2,107.3 L 360.1,106.7" style="fill:none;stroke:#000000;stroke-width:2.0px;stroke-linecap:butt;stroke-linejoin:miter;stroke-opacity:1;"/>
<path d="M 377.5,96.7 L 378.5,96.1 L 378.5,95.0" style="fill:none;stroke:#000000;stroke-width:2.0px;stroke-linecap:butt;stroke-linejoin:miter;stroke-opacity:1;"/>
<path d="M 378.5,74.9 L 378.5,73.8 L 377.5,73.2" style="fill:none;stroke:#000000;stroke-width:2.0px;stroke-linecap:butt;stroke-linejoin:miter;stroke-opacity:1;"/>
<path d="M 360.1,63.2 L 359.2,62.6 L 358.2,63.2" style="fill:none;stroke:#000000;stroke-width:2.0px;stroke-linecap:butt;stroke-linejoin:miter;stroke-opacity:1;"/>
<path d="M 340.8,73.2 L 339.8,73.8 L 339.8,74.9" style="fill:none;stroke:#000000;stroke-width:2.0px;stroke-linecap:butt;stroke-linejoin:miter;stroke-opacity:1;"/>
<path d="M 262.6,74.9 L 262.6,73.8 L 261.6,73.2" style="fill:none;stroke:#000000;stroke-width:2.0px;stroke-linecap:butt;stroke-linejoin:miter;stroke-opacity:1;"/>
<path d="M 244.2,63.2 L 243.2,62.6 L 242.3,63.2" style="fill:none;stroke:#000000;stroke-width:2.0px;stroke-linecap:butt;stroke-linejoin:miter;stroke-opacity:1;"/>
<path d="M 224.9,73.2 L 223.9,73.8 L 223.9,74.3" style="fill:none;stroke:#000000;stroke-width:2.0px;stroke-linecap:butt;stroke-linejoin:miter;stroke-opacity:1;"/>
<path d="M 242.8,107.0 L 243.2,107.3 L 244.2,106.7" style="fill:none;stroke:#000000;stroke-width:2.0px;stroke-linecap:butt;stroke-linejoin:miter;stroke-opacity:1;"/>
<path class="atom-0" d="M 298.3 73.8 Q 298.3 72.3, 299.0 71.4 Q 299.8 70.6, 301.2 70.6 Q 302.6 70.6, 303.3 71.4 Q 304.1 72.3, 304.1 73.8 Q 304.1 75.3, 303.3 76.2 Q 302.6 77.1, 301.2 77.1 Q 299.8 77.1, 299.0 76.2 Q 298.3 75.4, 298.3 73.8 M 301.2 76.4 Q 302.2 76.4, 302.7 75.7 Q 303.2 75.1, 303.2 73.8 Q 303.2 72.6, 302.7 71.9 Q 302.2 71.3, 301.2 71.3 Q 300.2 71.3, 299.7 71.9 Q 299.2 72.6, 299.2 73.8 Q 299.2 75.1, 299.7 75.7 Q 300.2 76.4, 301.2 76.4 " fill="#FF0000"/>
<path class="atom-2" d="M 319.1 104.1 L 321.2 107.4 Q 321.4 107.8, 321.7 108.4 Q 322.1 109.0, 322.1 109.0 L 322.1 104.1 L 322.9 104.1 L 322.9 110.4 L 322.0 110.4 L 319.8 106.8 Q 319.6 106.3, 319.3 105.8 Q 319.0 105.3, 318.9 105.2 L 318.9 110.4 L 318.1 110.4 L 318.1 104.1 L 319.1 104.1 " fill="#0000FF"/>
<path class="atom-2" d="M 318.0 111.0 L 318.9 111.0 L 318.9 113.7 L 322.1 113.7 L 322.1 111.0 L 323.0 111.0 L 323.0 117.4 L 322.1 117.4 L 322.1 114.4 L 318.9 114.4 L 318.9 117.4 L 318.0 117.4 L 318.0 111.0 " fill="#0000FF"/>
<path class="atom-9" d="M 280.5 104.1 L 282.6 107.4 Q 282.8 107.8, 283.1 108.4 Q 283.4 109.0, 283.4 109.0 L 283.4 104.1 L 284.3 104.1 L 284.3 110.4 L 283.4 110.4 L 281.2 106.8 Q 280.9 106.3, 280.7 105.8 Q 280.4 105.3, 280.3 105.2 L 280.3 110.4 L 279.5 110.4 L 279.5 104.1 L 280.5 104.1 " fill="#0000FF"/>
<path class="atom-9" d="M 279.4 111.0 L 280.3 111.0 L 280.3 113.7 L 283.5 113.7 L 283.5 111.0 L 284.4 111.0 L 284.4 117.4 L 283.5 117.4 L 283.5 114.4 L 280.3 114.4 L 280.3 117.4 L 279.4 117.4 L 279.4 111.0 " fill="#0000FF"/>
<path class="atom-14" d="M 222.5 92.9 L 224.6 96.3 Q 224.8 96.6, 225.1 97.2 Q 225.5 97.8, 225.5 97.8 L 225.5 92.9 L 226.3 92.9 L 226.3 99.3 L 225.5 99.3 L 223.2 95.6 Q 223.0 95.2, 222.7 94.7 Q 222.4 94.2, 222.4 94.0 L 222.4 99.3 L 221.5 99.3 L 221.5 92.9 L 222.5 92.9 " fill="#0000FF"/>
<path class="legend" d="M 279.3 190.6 L 276.6 186.6 L 278.3 186.6 L 280.3 189.4 L 282.3 186.6 L 283.9 186.6 L 281.1 190.6 L 284.1 194.8 L 282.3 194.8 L 280.2 191.7 L 278.0 194.8 L 276.3 194.8 L 279.3 190.6 " fill="#000000"/>
<path class="legend" d="M 289.2 195.0 Q 287.1 195.0, 286.1 193.4 Q 285.1 191.9, 285.1 189.2 Q 285.1 186.4, 286.1 184.9 Q 287.1 183.4, 289.2 183.4 Q 291.3 183.4, 292.3 184.9 Q 293.4 186.4, 293.4 189.2 Q 293.4 191.9, 292.3 193.4 Q 291.3 195.0, 289.2 195.0 M 289.2 193.7 Q 290.4 193.7, 291.1 192.6 Q 291.8 191.4, 291.8 189.2 Q 291.8 186.9, 291.1 185.8 Q 290.4 184.7, 289.2 184.7 Q 288.0 184.7, 287.3 185.8 Q 286.7 186.9, 286.7 189.2 Q 286.7 191.4, 287.3 192.6 Q 288.0 193.7, 289.2 193.7 " fill="#000000"/>
<path class="legend" d="M 302.6 191.0 L 303.9 191.0 L 303.9 192.2 L 302.6 192.2 L 302.6 194.8 L 301.1 194.8 L 301.1 192.2 L 295.2 192.2 L 295.2 191.2 L 300.2 183.5 L 302.6 183.5 L 302.6 191.0 M 297.1 191.0 L 301.1 191.0 L 301.1 184.5 L 297.1 191.0 " fill="#000000"/>
<path class="legend" d="M 311.0 188.9 Q 312.1 189.2, 312.6 189.9 Q 313.2 190.6, 313.2 191.7 Q 313.2 192.7, 312.7 193.4 Q 312.2 194.2, 311.3 194.6 Q 310.4 195.0, 309.3 195.0 Q 308.1 195.0, 307.2 194.6 Q 306.3 194.2, 305.6 193.3 L 306.5 192.4 Q 307.2 193.1, 307.8 193.4 Q 308.4 193.7, 309.3 193.7 Q 310.3 193.7, 310.9 193.2 Q 311.6 192.6, 311.6 191.7 Q 311.6 190.6, 310.9 190.1 Q 310.3 189.5, 308.9 189.5 L 308.1 189.5 L 308.1 188.4 L 308.8 188.4 Q 310.0 188.4, 310.7 187.8 Q 311.3 187.3, 311.3 186.3 Q 311.3 185.5, 310.8 185.1 Q 310.2 184.7, 309.3 184.7 Q 308.4 184.7, 307.8 185.0 Q 307.2 185.3, 306.8 186.2 L 305.6 185.6 Q 306.0 184.6, 307.0 184.0 Q 308.0 183.4, 309.3 183.4 Q 311.0 183.4, 312.0 184.2 Q 312.9 185.0, 312.9 186.3 Q 312.9 187.2, 312.4 187.8 Q 311.9 188.5, 311.0 188.9 " fill="#000000"/>
<path class="legend" d="M 322.3 191.0 L 323.7 191.0 L 323.7 192.2 L 322.3 192.2 L 322.3 194.8 L 320.8 194.8 L 320.8 192.2 L 314.9 192.2 L 314.9 191.2 L 319.9 183.5 L 322.3 183.5 L 322.3 191.0 M 316.8 191.0 L 320.8 191.0 L 320.8 184.5 L 316.8 191.0 " fill="#000000"/>
<path class="bond-0 atom-0 atom-1" d="M 409.1,69.1 L 417.9,72.5" style="fill:none;fill-rule:evenodd;stroke:#000000;stroke-width:2.0px;stroke-linecap:butt;stroke-linejoin:miter;stroke-opacity:1"/>
<path class="bond-0 atom-0 atom-1" d="M 417.9,72.5 L 426.8,75.9" style="fill:none;fill-rule:evenodd;stroke:#0000FF;stroke-width:2.0px;stroke-linecap:butt;stroke-linejoin:miter;stroke-opacity:1"/>
<path class="bond-1 atom-1 atom-2" d="M 433.0,74.6 L 440.1,68.9" style="fill:none;fill-rule:evenodd;stroke:#0000FF;stroke-width:2.0px;stroke-linecap:butt;stroke-linejoin:miter;stroke-opacity:1"/>
<path class="bond-1 atom-1 atom-2" d="M 440.1,68.9 L 447.3,63.1" style="fill:none;fill-rule:evenodd;stroke:#000000;stroke-width:2.0px;stroke-linecap:butt;stroke-linejoin:miter;stroke-opacity:1"/>
<path class="bond-2 atom-2 atom-3" d="M 447.3,63.1 L 468.1,71.2" style="fill:none;fill-rule:evenodd;stroke:#000000;stroke-width:2.0px;stroke-linecap:butt;stroke-linejoin:miter;stroke-opacity:1"/>
<path class="bond-3 atom-3 atom-4" d="M 468.1,71.2 L 469.5,80.3" style="fill:none;fill-rule:evenodd;stroke:#000000;stroke-width:2.0px;stroke-linecap:butt;stroke-linejoin:miter;stroke-opacity:1"/>
<path class="bond-3 atom-3 atom-4" d="M 469.5,80.3 L 470.9,89.4" style="fill:none;fill-rule:evenodd;stroke:#0000FF;stroke-width:2.0px;stroke-linecap:butt;stroke-linejoin:miter;stroke-opacity:1"/>
<path class="bond-4 atom-4 atom-5" d="M 474.6,94.5 L 483.4,97.9" style="fill:none;fill-rule:evenodd;stroke:#0000FF;stroke-width:2.0px;stroke-linecap:butt;stroke-linejoin:miter;stroke-opacity:1"/>
<path class="bond-4 atom-4 atom-5" d="M 483.4,97.9 L 492.3,101.3" style="fill:none;fill-rule:evenodd;stroke:#000000;stroke-width:2.0px;stroke-linecap:butt;stroke-linejoin:miter;stroke-opacity:1"/>
<path class="bond-5 atom-5 atom-6" d="M 490.5,100.6 L 492.0,110.1" style="fill:none;fill-rule:evenodd;stroke:#000000;stroke-width:2.0px;stroke-linecap:butt;stroke-linejoin:miter;stroke-opacity:1"/>
<path class="bond-5 atom-5 atom-6" d="M 492.0,110.1 L 493.4,119.7" style="fill:none;fill-rule:evenodd;stroke:#FF0000;stroke-width:2.0px;stroke-linecap:butt;stroke-linejoin:miter;stroke-opacity:1"/>
<path class="bond-5 atom-5 atom-6" d="M 493.8,100.1 L 495.3,109.6" style="fill:none;fill-rule:evenodd;stroke:#000000;stroke-width:2.0px;stroke-linecap:butt;stroke-linejoin:miter;stroke-opacity:1"/>
<path class="bond-5 atom-5 atom-6" d="M 495.3,109.6 L 496.7,119.2" style="fill:none;fill-rule:evenodd;stroke:#FF0000;stroke-width:2.0px;stroke-linecap:butt;stroke-linejoin:miter;stroke-opacity:1"/>
<path class="bond-6 atom-5 atom-7" d="M 492.3,101.3 L 509.7,87.3" style="fill:none;fill-rule:evenodd;stroke:#000000;stroke-width:2.0px;stroke-linecap:butt;stroke-linejoin:miter;stroke-opacity:1"/>
<path class="bond-7 atom-7 atom-8" d="M 509.7,87.3 L 530.5,95.4" style="fill:none;fill-rule:evenodd;stroke:#000000;stroke-width:2.0px;stroke-linecap:butt;stroke-linejoin:miter;stroke-opacity:1"/>
<path class="bond-8 atom-8 atom-9" d="M 530.5,95.4 L 536.2,117.0" style="fill:none;fill-rule:evenodd;stroke:#000000;stroke-width:2.0px;stroke-linecap:butt;stroke-linejoin:miter;stroke-opacity:1"/>
<path class="bond-8 atom-8 atom-9" d="M 534.3,96.9 L 538.8,113.7" style="fill:none;fill-rule:evenodd;stroke:#000000;stroke-width:2.0px;stroke-linecap:butt;stroke-linejoin:miter;stroke-opacity:1"/>
<path class="bond-9 atom-9 atom-10" d="M 536.2,117.0 L 545.7,117.5" style="fill:none;fill-rule:evenodd;stroke:#000000;stroke-width:2.0px;stroke-linecap:butt;stroke-linejoin:miter;stroke-opacity:1"/>
<path class="bond-9 atom-9 atom-10" d="M 545.7,117.5 L 555.3,118.0" style="fill:none;fill-rule:evenodd;stroke:#0000FF;stroke-width:2.0px;stroke-linecap:butt;stroke-linejoin:miter;stroke-opacity:1"/>
<path class="bond-10 atom-10 atom-11" d="M 559.9,114.3 L 563.2,105.8" style="fill:none;fill-rule:evenodd;stroke:#0000FF;stroke-width:2.0px;stroke-linecap:butt;stroke-linejoin:miter;stroke-opacity:1"/>
<path class="bond-10 atom-10 atom-11" d="M 563.2,105.8 L 566.5,97.4" style="fill:none;fill-rule:evenodd;stroke:#000000;stroke-width:2.0px;stroke-linecap:butt;stroke-linejoin:miter;stroke-opacity:1"/>
<path class="bond-11 atom-11 atom-12" d="M 566.5,97.4 L 575.4,94.0" style="fill:none;fill-rule:evenodd;stroke:#000000;stroke-width:2.0px;stroke-linecap:butt;stroke-linejoin:miter;stroke-opacity:1"/>
<path class="bond-11 atom-11 atom-12" d="M 575.4,94.0 L 584.2,90.7" style="fill:none;fill-rule:evenodd;stroke:#0000FF;stroke-width:2.0px;stroke-linecap:butt;stroke-linejoin:miter;stroke-opacity:1"/>
<path class="bond-11 atom-11 atom-12" d="M 567.1,93.6 L 575.1,90.6" style="fill:none;fill-rule:evenodd;stroke:#000000;stroke-width:2.0px;stroke-linecap:butt;stroke-linejoin:miter;stroke-opacity:1"/>
<path class="bond-11 atom-11 atom-12" d="M 575.1,90.6 L 583.0,87.5" style="fill:none;fill-rule:evenodd;stroke:#0000FF;stroke-width:2.0px;stroke-linecap:butt;stroke-linejoin:miter;stroke-opacity:1"/>
<path class="bond-12 atom-12 atom-13" d="M 588.0,85.6 L 589.4,76.5" style="fill:none;fill-rule:evenodd;stroke:#0000FF;stroke-width:2.0px;stroke-linecap:butt;stroke-linejoin:miter;stroke-opacity:1"/>
<path class="bond-12 atom-12 atom-13" d="M 589.4,76.5 L 590.9,67.5" style="fill:none;fill-rule:evenodd;stroke:#000000;stroke-width:2.0px;stroke-linecap:butt;stroke-linejoin:miter;stroke-opacity:1"/>
<path class="bond-13 atom-13 atom-14" d="M 590.9,67.5 L 573.6,53.4" style="fill:none;fill-rule:evenodd;stroke:#000000;stroke-width:2.0px;stroke-linecap:butt;stroke-linejoin:miter;stroke-opacity:1"/>
<path class="bond-13 atom-13 atom-14" d="M 587.3,68.8 L 573.0,57.2" style="fill:none;fill-rule:evenodd;stroke:#000000;stroke-width:2.0px;stroke-linecap:butt;stroke-linejoin:miter;stroke-opacity:1"/>
<path class="bond-14 atom-14 atom-15" d="M 573.6,53.4 L 552.8,61.3" style="fill:none;fill-rule:evenodd;stroke:#000000;stroke-width:2.0px;stroke-linecap:butt;stroke-linejoin:miter;stroke-opacity:1"/>
<path class="bond-15 atom-15 atom-16" d="M 552.8,61.3 L 549.2,83.3" style="fill:none;fill-rule:evenodd;stroke:#000000;stroke-width:2.0px;stroke-linecap:butt;stroke-linejoin:miter;stroke-opacity:1"/>
<path class="bond-15 atom-15 atom-16" d="M 555.8,63.7 L 552.8,81.9" style="fill:none;fill-rule:evenodd;stroke:#000000;stroke-width:2.0px;stroke-linecap:butt;stroke-linejoin:miter;stroke-opacity:1"/>
<path class="bond-16 atom-4 atom-17" d="M 468.4,95.8 L 461.2,101.5" style="fill:none;fill-rule:evenodd;stroke:#0000FF;stroke-width:2.0px;stroke-linecap:butt;stroke-linejoin:miter;stroke-opacity:1"/>
<path class="bond-16 atom-4 atom-17" d="M 461.2,101.5 L 454.1,107.2" style="fill:none;fill-rule:evenodd;stroke:#000000;stroke-width:2.0px;stroke-linecap:butt;stroke-linejoin:miter;stroke-opacity:1"/>
<path class="bond-17 atom-17 atom-18" d="M 454.1,107.2 L 433.3,99.2" style="fill:none;fill-rule:evenodd;stroke:#000000;stroke-width:2.0px;stroke-linecap:butt;stroke-linejoin:miter;stroke-opacity:1"/>
<path class="bond-18 atom-18 atom-1" d="M 433.3,99.2 L 431.9,90.1" style="fill:none;fill-rule:evenodd;stroke:#000000;stroke-width:2.0px;stroke-linecap:butt;stroke-linejoin:miter;stroke-opacity:1"/>
<path class="bond-18 atom-18 atom-1" d="M 431.9,90.1 L 430.5,81.0" style="fill:none;fill-rule:evenodd;stroke:#0000FF;stroke-width:2.0px;stroke-linecap:butt;stroke-linejoin:miter;stroke-opacity:1"/>
<path class="bond-19 atom-16 atom-8" d="M 549.2,83.3 L 530.5,95.4" style="fill:none;fill-rule:evenodd;stroke:#000000;stroke-width:2.0px;stroke-linecap:butt;stroke-linejoin:miter;stroke-opacity:1"/>
<path class="bond-20 atom-16 atom-11" d="M 549.2,83.3 L 566.5,97.4" style="fill:none;fill-rule:evenodd;stroke:#000000;stroke-width:2.0px;stroke-linecap:butt;stroke-linejoin:miter;stroke-opacity:1"/>
<path d="M 446.9,63.4 L 447.3,63.1 L 448.3,63.5" style="fill:none;stroke:#000000;stroke-width:2.0px;stroke-linecap:butt;stroke-linejoin:miter;stroke-opacity:1;"/>
<path d="M 467.0,70.8 L 468.1,71.2 L 468.1,71.7" style="fill:none;stroke:#000000;stroke-width:2.0px;stroke-linecap:butt;stroke-linejoin:miter;stroke-opacity:1;"/>
<path d="M 491.8,101.1 L 492.3,101.3 L 493.2,100.6" style="fill:none;stroke:#000000;stroke-width:2.0px;stroke-linecap:butt;stroke-linejoin:miter;stroke-opacity:1;"/>
<path d="M 508.8,88.0 L 509.7,87.3 L 510.7,87.7" style="fill:none;stroke:#000000;stroke-width:2.0px;stroke-linecap:butt;stroke-linejoin:miter;stroke-opacity:1;"/>
<path d="M 535.9,115.9 L 536.2,117.0 L 536.6,117.0" style="fill:none;stroke:#000000;stroke-width:2.0px;stroke-linecap:butt;stroke-linejoin:miter;stroke-opacity:1;"/>
<path d="M 590.8,67.9 L 590.9,67.5 L 590.0,66.7" style="fill:none;stroke:#000000;stroke-width:2.0px;stroke-linecap:butt;stroke-linejoin:miter;stroke-opacity:1;"/>
<path d="M 574.5,54.1 L 573.6,53.4 L 572.6,53.8" style="fill:none;stroke:#000000;stroke-width:2.0px;stroke-linecap:butt;stroke-linejoin:miter;stroke-opacity:1;"/>
<path d="M 553.8,60.9 L 552.8,61.3 L 552.6,62.4" style="fill:none;stroke:#000000;stroke-width:2.0px;stroke-linecap:butt;stroke-linejoin:miter;stroke-opacity:1;"/>
<path d="M 454.5,106.9 L 454.1,107.2 L 453.1,106.8" style="fill:none;stroke:#000000;stroke-width:2.0px;stroke-linecap:butt;stroke-linejoin:miter;stroke-opacity:1;"/>
<path d="M 434.3,99.6 L 433.3,99.2 L 433.2,98.7" style="fill:none;stroke:#000000;stroke-width:2.0px;stroke-linecap:butt;stroke-linejoin:miter;stroke-opacity:1;"/>
<path class="atom-1" d="M 428.5 74.0 L 430.6 77.3 Q 430.8 77.6, 431.1 78.2 Q 431.4 78.8, 431.4 78.9 L 431.4 74.0 L 432.3 74.0 L 432.3 80.3 L 431.4 80.3 L 429.2 76.6 Q 428.9 76.2, 428.7 75.7 Q 428.4 75.2, 428.3 75.1 L 428.3 80.3 L 427.5 80.3 L 427.5 74.0 L 428.5 74.0 " fill="#0000FF"/>
<path class="atom-4" d="M 470.1 90.1 L 472.2 93.4 Q 472.4 93.8, 472.7 94.4 Q 473.0 95.0, 473.0 95.0 L 473.0 90.1 L 473.9 90.1 L 473.9 96.4 L 473.0 96.4 L 470.8 92.7 Q 470.5 92.3, 470.3 91.8 Q 470.0 91.3, 469.9 91.2 L 469.9 96.4 L 469.1 96.4 L 469.1 90.1 L 470.1 90.1 " fill="#0000FF"/>
<path class="atom-6" d="M 492.8 123.4 Q 492.8 121.9, 493.5 121.0 Q 494.3 120.2, 495.7 120.2 Q 497.1 120.2, 497.8 121.0 Q 498.6 121.9, 498.6 123.4 Q 498.6 124.9, 497.8 125.8 Q 497.1 126.6, 495.7 126.6 Q 494.3 126.6, 493.5 125.8 Q 492.8 124.9, 492.8 123.4 M 495.7 125.9 Q 496.7 125.9, 497.2 125.3 Q 497.7 124.6, 497.7 123.4 Q 497.7 122.1, 497.2 121.5 Q 496.7 120.9, 495.7 120.9 Q 494.7 120.9, 494.2 121.5 Q 493.7 122.1, 493.7 123.4 Q 493.7 124.6, 494.2 125.3 Q 494.7 125.9, 495.7 125.9 " fill="#FF0000"/>
<path class="atom-10" d="M 557.0 115.0 L 559.1 118.4 Q 559.3 118.7, 559.6 119.3 Q 560.0 119.9, 560.0 119.9 L 560.0 115.0 L 560.8 115.0 L 560.8 121.4 L 560.0 121.4 L 557.7 117.7 Q 557.5 117.3, 557.2 116.8 Q 556.9 116.3, 556.9 116.1 L 556.9 121.4 L 556.0 121.4 L 556.0 115.0 L 557.0 115.0 " fill="#0000FF"/>
<path class="atom-10" d="M 562.1 115.0 L 562.9 115.0 L 562.9 117.7 L 566.1 117.7 L 566.1 115.0 L 567.0 115.0 L 567.0 121.4 L 566.1 121.4 L 566.1 118.4 L 562.9 118.4 L 562.9 121.4 L 562.1 121.4 L 562.1 115.0 " fill="#0000FF"/>
<path class="atom-12" d="M 586.0 86.3 L 588.0 89.7 Q 588.2 90.0, 588.6 90.6 Q 588.9 91.2, 588.9 91.2 L 588.9 86.3 L 589.7 86.3 L 589.7 92.6 L 588.9 92.6 L 586.7 89.0 Q 586.4 88.5, 586.1 88.1 Q 585.9 87.6, 585.8 87.4 L 585.8 92.6 L 585.0 92.6 L 585.0 86.3 L 586.0 86.3 " fill="#0000FF"/>
<path class="legend" d="M 480.8 190.6 L 478.0 186.6 L 479.8 186.6 L 481.8 189.4 L 483.7 186.6 L 485.3 186.6 L 482.6 190.6 L 485.6 194.8 L 483.8 194.8 L 481.6 191.7 L 479.4 194.8 L 477.8 194.8 L 480.8 190.6 " fill="#000000"/>
<path class="legend" d="M 487.1 193.6 L 489.6 193.6 L 489.6 185.1 L 486.9 185.9 L 486.5 185.0 L 490.0 183.4 L 491.1 183.6 L 491.1 193.6 L 493.3 193.6 L 493.3 194.8 L 487.1 194.8 L 487.1 193.6 " fill="#000000"/>
<path class="legend" d="M 498.9 195.0 Q 496.8 195.0, 495.8 193.4 Q 494.8 191.9, 494.8 189.2 Q 494.8 186.4, 495.8 184.9 Q 496.8 183.4, 498.9 183.4 Q 501.0 183.4, 502.0 184.9 Q 503.0 186.4, 503.0 189.2 Q 503.0 191.9, 502.0 193.4 Q 501.0 195.0, 498.9 195.0 M 498.9 193.7 Q 500.1 193.7, 500.8 192.6 Q 501.4 191.4, 501.4 189.2 Q 501.4 186.9, 500.8 185.8 Q 500.1 184.7, 498.9 184.7 Q 497.7 184.7, 497.0 185.8 Q 496.4 186.9, 496.4 189.2 Q 496.4 191.4, 497.0 192.6 Q 497.7 193.7, 498.9 193.7 " fill="#000000"/>
<path class="legend" d="M 508.7 183.4 Q 510.7 183.4, 511.7 184.8 Q 512.7 186.1, 512.7 188.8 Q 512.7 191.8, 511.4 193.4 Q 510.2 195.0, 507.8 195.0 Q 507.1 195.0, 506.5 194.8 Q 505.9 194.6, 505.3 194.3 L 505.9 193.2 Q 506.8 193.7, 507.8 193.7 Q 509.4 193.7, 510.2 192.7 Q 511.0 191.6, 511.1 189.5 Q 510.5 190.0, 509.8 190.3 Q 509.1 190.6, 508.3 190.6 Q 507.3 190.6, 506.5 190.2 Q 505.7 189.7, 505.3 188.9 Q 504.9 188.2, 504.9 187.2 Q 504.9 186.1, 505.3 185.2 Q 505.8 184.3, 506.7 183.9 Q 507.6 183.4, 508.7 183.4 M 506.5 187.1 Q 506.5 188.2, 507.0 188.7 Q 507.6 189.3, 508.6 189.3 Q 509.3 189.3, 509.9 189.0 Q 510.6 188.7, 511.1 188.3 Q 511.0 186.4, 510.4 185.5 Q 509.8 184.7, 508.6 184.7 Q 508.0 184.7, 507.5 185.0 Q 507.0 185.3, 506.7 185.9 Q 506.5 186.5, 506.5 187.1 " fill="#000000"/>
<path class="legend" d="M 520.0 188.9 Q 521.1 189.2, 521.6 189.9 Q 522.2 190.6, 522.2 191.7 Q 522.2 192.7, 521.7 193.4 Q 521.2 194.2, 520.3 194.6 Q 519.5 195.0, 518.3 195.0 Q 517.1 195.0, 516.2 194.6 Q 515.3 194.2, 514.6 193.3 L 515.5 192.4 Q 516.2 193.1, 516.8 193.4 Q 517.4 193.7, 518.3 193.7 Q 519.3 193.7, 520.0 193.2 Q 520.6 192.6, 520.6 191.7 Q 520.6 190.6, 519.9 190.1 Q 519.3 189.5, 517.9 189.5 L 517.1 189.5 L 517.1 188.4 L 517.8 188.4 Q 519.0 188.4, 519.7 187.8 Q 520.3 187.3, 520.3 186.3 Q 520.3 185.5, 519.8 185.1 Q 519.3 184.7, 518.3 184.7 Q 517.4 184.7, 516.8 185.0 Q 516.2 185.3, 515.8 186.2 L 514.7 185.6 Q 515.1 184.6, 516.0 184.0 Q 517.0 183.4, 518.3 183.4 Q 520.0 183.4, 521.0 184.2 Q 521.9 185.0, 521.9 186.3 Q 521.9 187.2, 521.4 187.8 Q 521.0 188.5, 520.0 188.9 " fill="#000000"/>
</svg>