<svg xmlns="http://www.w3.org/2000/svg" xmlns:rdkit="http://www.rdkit.org/xml" xmlns:xlink="http://www.w3.org/1999/xlink" version="1.1" baseProfile="full" xml:space="preserve" width="600px" height="200px" viewBox="0 0 600 200">
<!-- END OF HEADER -->
<rect style="opacity:1.0;fill:#FFFFFF;stroke:none" width="600.0" height="200.0" x="0.0" y="0.0"> </rect>
<path class="bond-0 atom-0 atom-1" d="M 174.1,56.4 L 172.9,77.8" style="fill:none;fill-rule:evenodd;stroke:#000000;stroke-width:2.0px;stroke-linecap:butt;stroke-linejoin:miter;stroke-opacity:1"/>
<path class="bond-1 atom-1 atom-2" d="M 172.9,77.8 L 190.9,89.5" style="fill:none;fill-rule:evenodd;stroke:#000000;stroke-width:2.0px;stroke-linecap:butt;stroke-linejoin:miter;stroke-opacity:1"/>
<path class="bond-1 atom-1 atom-2" d="M 172.7,81.5 L 187.6,91.1" style="fill:none;fill-rule:evenodd;stroke:#000000;stroke-width:2.0px;stroke-linecap:butt;stroke-linejoin:miter;stroke-opacity:1"/>
<path class="bond-2 atom-2 atom-3" d="M 190.9,89.5 L 189.8,110.9" style="fill:none;fill-rule:evenodd;stroke:#000000;stroke-width:2.0px;stroke-linecap:butt;stroke-linejoin:miter;stroke-opacity:1"/>
<path class="bond-3 atom-3 atom-4" d="M 189.8,110.9 L 181.7,115.0" style="fill:none;fill-rule:evenodd;stroke:#000000;stroke-width:2.0px;stroke-linecap:butt;stroke-linejoin:miter;stroke-opacity:1"/>
<path class="bond-3 atom-3 atom-4" d="M 181.7,115.0 L 173.7,119.1" style="fill:none;fill-rule:evenodd;stroke:#0000FF;stroke-width:2.0px;stroke-linecap:butt;stroke-linejoin:miter;stroke-opacity:1"/>
<path class="bond-3 atom-3 atom-4" d="M 186.7,108.8 L 179.4,112.5" style="fill:none;fill-rule:evenodd;stroke:#000000;stroke-width:2.0px;stroke-linecap:butt;stroke-linejoin:miter;stroke-opacity:1"/>
<path class="bond-3 atom-3 atom-4" d="M 179.4,112.5 L 172.2,116.2" style="fill:none;fill-rule:evenodd;stroke:#0000FF;stroke-width:2.0px;stroke-linecap:butt;stroke-linejoin:miter;stroke-opacity:1"/>
<path class="bond-4 atom-4 atom-5" d="M 167.7,118.6 L 160.2,113.8" style="fill:none;fill-rule:evenodd;stroke:#0000FF;stroke-width:2.0px;stroke-linecap:butt;stroke-linejoin:miter;stroke-opacity:1"/>
<path class="bond-4 atom-4 atom-5" d="M 160.2,113.8 L 152.7,108.9" style="fill:none;fill-rule:evenodd;stroke:#000000;stroke-width:2.0px;stroke-linecap:butt;stroke-linejoin:miter;stroke-opacity:1"/>
<path class="bond-5 atom-5 atom-6" d="M 152.7,108.9 L 153.8,87.5" style="fill:none;fill-rule:evenodd;stroke:#000000;stroke-width:2.0px;stroke-linecap:butt;stroke-linejoin:miter;stroke-opacity:1"/>
<path class="bond-5 atom-5 atom-6" d="M 156.0,107.2 L 156.9,89.5" style="fill:none;fill-rule:evenodd;stroke:#000000;stroke-width:2.0px;stroke-linecap:butt;stroke-linejoin:miter;stroke-opacity:1"/>
<path class="bond-6 atom-6 atom-7" d="M 153.8,87.5 L 146.4,82.6" style="fill:none;fill-rule:evenodd;stroke:#000000;stroke-width:2.0px;stroke-linecap:butt;stroke-linejoin:miter;stroke-opacity:1"/>
<path class="bond-6 atom-6 atom-7" d="M 146.4,82.6 L 138.9,77.8" style="fill:none;fill-rule:evenodd;stroke:#0000FF;stroke-width:2.0px;stroke-linecap:butt;stroke-linejoin:miter;stroke-opacity:1"/>
<path class="bond-7 atom-7 atom-8" d="M 132.9,77.3 L 124.8,81.4" style="fill:none;fill-rule:evenodd;stroke:#0000FF;stroke-width:2.0px;stroke-linecap:butt;stroke-linejoin:miter;stroke-opacity:1"/>
<path class="bond-7 atom-7 atom-8" d="M 124.8,81.4 L 116.8,85.5" style="fill:none;fill-rule:evenodd;stroke:#000000;stroke-width:2.0px;stroke-linecap:butt;stroke-linejoin:miter;stroke-opacity:1"/>
<path class="bond-8 atom-8 atom-9" d="M 115.2,84.5 L 114.7,93.8" style="fill:none;fill-rule:evenodd;stroke:#000000;stroke-width:2.0px;stroke-linecap:butt;stroke-linejoin:miter;stroke-opacity:1"/>
<path class="bond-8 atom-8 atom-9" d="M 114.7,93.8 L 114.2,103.1" style="fill:none;fill-rule:evenodd;stroke:#FF0000;stroke-width:2.0px;stroke-linecap:butt;stroke-linejoin:miter;stroke-opacity:1"/>
<path class="bond-8 atom-8 atom-9" d="M 118.4,84.7 L 117.9,94.0" style="fill:none;fill-rule:evenodd;stroke:#000000;stroke-width:2.0px;stroke-linecap:butt;stroke-linejoin:miter;stroke-opacity:1"/>
<path class="bond-8 atom-8 atom-9" d="M 117.9,94.0 L 117.4,103.2" style="fill:none;fill-rule:evenodd;stroke:#FF0000;stroke-width:2.0px;stroke-linecap:butt;stroke-linejoin:miter;stroke-opacity:1"/>
<path class="bond-9 atom-8 atom-10" d="M 116.8,85.5 L 98.8,73.8" style="fill:none;fill-rule:evenodd;stroke:#000000;stroke-width:2.0px;stroke-linecap:butt;stroke-linejoin:miter;stroke-opacity:1"/>
<path class="bond-10 atom-10 atom-11" d="M 98.8,73.8 L 79.7,83.6" style="fill:none;fill-rule:evenodd;stroke:#000000;stroke-width:2.0px;stroke-linecap:butt;stroke-linejoin:miter;stroke-opacity:1"/>
<path class="bond-11 atom-11 atom-12" d="M 79.7,83.6 L 78.5,105.0" style="fill:none;fill-rule:evenodd;stroke:#000000;stroke-width:2.0px;stroke-linecap:butt;stroke-linejoin:miter;stroke-opacity:1"/>
<path class="bond-11 atom-11 atom-12" d="M 76.4,85.2 L 75.4,102.9" style="fill:none;fill-rule:evenodd;stroke:#000000;stroke-width:2.0px;stroke-linecap:butt;stroke-linejoin:miter;stroke-opacity:1"/>
<path class="bond-12 atom-12 atom-13" d="M 78.5,105.0 L 59.4,114.7" style="fill:none;fill-rule:evenodd;stroke:#000000;stroke-width:2.0px;stroke-linecap:butt;stroke-linejoin:miter;stroke-opacity:1"/>
<path class="bond-13 atom-13 atom-14" d="M 59.4,114.7 L 41.5,103.0" style="fill:none;fill-rule:evenodd;stroke:#000000;stroke-width:2.0px;stroke-linecap:butt;stroke-linejoin:miter;stroke-opacity:1"/>
<path class="bond-13 atom-13 atom-14" d="M 59.6,111.0 L 44.8,101.3" style="fill:none;fill-rule:evenodd;stroke:#000000;stroke-width:2.0px;stroke-linecap:butt;stroke-linejoin:miter;stroke-opacity:1"/>
<path class="bond-14 atom-14 atom-15" d="M 41.5,103.0 L 32.6,105.4" style="fill:none;fill-rule:evenodd;stroke:#000000;stroke-width:2.0px;stroke-linecap:butt;stroke-linejoin:miter;stroke-opacity:1"/>
<path class="bond-14 atom-14 atom-15" d="M 32.6,105.4 L 23.8,107.7" style="fill:none;fill-rule:evenodd;stroke:#0000FF;stroke-width:2.0px;stroke-linecap:butt;stroke-linejoin:miter;stroke-opacity:1"/>
<path class="bond-15 atom-15 atom-16" d="M 18.3,104.8 L 13.7,97.7" style="fill:none;fill-rule:evenodd;stroke:#0000FF;stroke-width:2.0px;stroke-linecap:butt;stroke-linejoin:miter;stroke-opacity:1"/>
<path class="bond-15 atom-15 atom-16" d="M 13.7,97.7 L 9.1,90.6" style="fill:none;fill-rule:evenodd;stroke:#000000;stroke-width:2.0px;stroke-linecap:butt;stroke-linejoin:miter;stroke-opacity:1"/>
<path class="bond-15 atom-15 atom-16" d="M 21.0,103.0 L 17.0,96.9" style="fill:none;fill-rule:evenodd;stroke:#0000FF;stroke-width:2.0px;stroke-linecap:butt;stroke-linejoin:miter;stroke-opacity:1"/>
<path class="bond-15 atom-15 atom-16" d="M 17.0,96.9 L 13.1,90.8" style="fill:none;fill-rule:evenodd;stroke:#000000;stroke-width:2.0px;stroke-linecap:butt;stroke-linejoin:miter;stroke-opacity:1"/>
<path class="bond-16 atom-16 atom-17" d="M 9.1,90.6 L 14.3,84.1" style="fill:none;fill-rule:evenodd;stroke:#000000;stroke-width:2.0px;stroke-linecap:butt;stroke-linejoin:miter;stroke-opacity:1"/>
<path class="bond-16 atom-16 atom-17" d="M 14.3,84.1 L 19.6,77.6" style="fill:none;fill-rule:evenodd;stroke:#0000FF;stroke-width:2.0px;stroke-linecap:butt;stroke-linejoin:miter;stroke-opacity:1"/>
<path class="bond-17 atom-17 atom-18" d="M 25.6,75.1 L 34.1,78.3" style="fill:none;fill-rule:evenodd;stroke:#0000FF;stroke-width:2.0px;stroke-linecap:butt;stroke-linejoin:miter;stroke-opacity:1"/>
<path class="bond-17 atom-17 atom-18" d="M 34.1,78.3 L 42.6,81.6" style="fill:none;fill-rule:evenodd;stroke:#000000;stroke-width:2.0px;stroke-linecap:butt;stroke-linejoin:miter;stroke-opacity:1"/>
<path class="bond-18 atom-18 atom-19" d="M 42.6,81.6 L 61.7,71.9" style="fill:none;fill-rule:evenodd;stroke:#000000;stroke-width:2.0px;stroke-linecap:butt;stroke-linejoin:miter;stroke-opacity:1"/>
<path class="bond-18 atom-18 atom-19" d="M 45.7,83.6 L 61.5,75.6" style="fill:none;fill-rule:evenodd;stroke:#000000;stroke-width:2.0px;stroke-linecap:butt;stroke-linejoin:miter;stroke-opacity:1"/>
<path class="bond-19 atom-6 atom-1" d="M 153.8,87.5 L 172.9,77.8" style="fill:none;fill-rule:evenodd;stroke:#000000;stroke-width:2.0px;stroke-linecap:butt;stroke-linejoin:miter;stroke-opacity:1"/>
<path class="bond-20 atom-19 atom-11" d="M 61.7,71.9 L 79.7,83.6" style="fill:none;fill-rule:evenodd;stroke:#000000;stroke-width:2.0px;stroke-linecap:butt;stroke-linejoin:miter;stroke-opacity:1"/>
<path class="bond-21 atom-18 atom-14" d="M 42.6,81.6 L 41.5,103.0" style="fill:none;fill-rule:evenodd;stroke:#000000;stroke-width:2.0px;stroke-linecap:butt;stroke-linejoin:miter;stroke-opacity:1"/>
<path d="M 190.0,88.9 L 190.9,89.5 L 190.9,90.5" style="fill:none;stroke:#000000;stroke-width:2.0px;stroke-linecap:butt;stroke-linejoin:miter;stroke-opacity:1;"/>
<path d="M 189.8,109.8 L 189.8,110.9 L 189.4,111.1" style="fill:none;stroke:#000000;stroke-width:2.0px;stroke-linecap:butt;stroke-linejoin:miter;stroke-opacity:1;"/>
<path d="M 153.1,109.1 L 152.7,108.9 L 152.8,107.8" style="fill:none;stroke:#000000;stroke-width:2.0px;stroke-linecap:butt;stroke-linejoin:miter;stroke-opacity:1;"/>
<path d="M 117.2,85.3 L 116.8,85.5 L 115.9,84.9" style="fill:none;stroke:#000000;stroke-width:2.0px;stroke-linecap:butt;stroke-linejoin:miter;stroke-opacity:1;"/>
<path d="M 99.7,74.4 L 98.8,73.8 L 97.8,74.3" style="fill:none;stroke:#000000;stroke-width:2.0px;stroke-linecap:butt;stroke-linejoin:miter;stroke-opacity:1;"/>
<path d="M 78.6,103.9 L 78.5,105.0 L 77.6,105.5" style="fill:none;stroke:#000000;stroke-width:2.0px;stroke-linecap:butt;stroke-linejoin:miter;stroke-opacity:1;"/>
<path d="M 60.4,114.2 L 59.4,114.7 L 58.5,114.1" style="fill:none;stroke:#000000;stroke-width:2.0px;stroke-linecap:butt;stroke-linejoin:miter;stroke-opacity:1;"/>
<path d="M 9.3,90.9 L 9.1,90.6 L 9.4,90.2" style="fill:none;stroke:#000000;stroke-width:2.0px;stroke-linecap:butt;stroke-linejoin:miter;stroke-opacity:1;"/>
<path d="M 60.8,72.4 L 61.7,71.9 L 62.6,72.5" style="fill:none;stroke:#000000;stroke-width:2.0px;stroke-linecap:butt;stroke-linejoin:miter;stroke-opacity:1;"/>
<path class="atom-4" d="M 169.3 117.6 L 171.3 120.8 Q 171.5 121.1, 171.8 121.7 Q 172.1 122.2, 172.2 122.3 L 172.2 117.6 L 173.0 117.6 L 173.0 123.6 L 172.1 123.6 L 170.0 120.1 Q 169.8 119.7, 169.5 119.2 Q 169.2 118.8, 169.2 118.6 L 169.2 123.6 L 168.4 123.6 L 168.4 117.6 L 169.3 117.6 " fill="#0000FF"/>
<path class="atom-7" d="M 134.5 72.8 L 136.5 76.0 Q 136.7 76.3, 137.0 76.9 Q 137.3 77.5, 137.4 77.5 L 137.4 72.8 L 138.2 72.8 L 138.2 78.8 L 137.3 78.8 L 135.2 75.3 Q 134.9 74.9, 134.7 74.4 Q 134.4 74.0, 134.3 73.8 L 134.3 78.8 L 133.6 78.8 L 133.6 72.8 L 134.5 72.8 " fill="#0000FF"/>
<path class="atom-7" d="M 133.5 66.1 L 134.3 66.1 L 134.3 68.7 L 137.4 68.7 L 137.4 66.1 L 138.2 66.1 L 138.2 72.2 L 137.4 72.2 L 137.4 69.4 L 134.3 69.4 L 134.3 72.2 L 133.5 72.2 L 133.5 66.1 " fill="#0000FF"/>
<path class="atom-9" d="M 112.8 107.0 Q 112.8 105.5, 113.6 104.7 Q 114.3 103.9, 115.6 103.9 Q 117.0 103.9, 117.7 104.7 Q 118.4 105.5, 118.4 107.0 Q 118.4 108.4, 117.7 109.3 Q 116.9 110.1, 115.6 110.1 Q 114.3 110.1, 113.6 109.3 Q 112.8 108.4, 112.8 107.0 M 115.6 109.4 Q 116.5 109.4, 117.0 108.8 Q 117.5 108.2, 117.5 107.0 Q 117.5 105.8, 117.0 105.2 Q 116.5 104.6, 115.6 104.6 Q 114.7 104.6, 114.2 105.2 Q 113.7 105.8, 113.7 107.0 Q 113.7 108.2, 114.2 108.8 Q 114.7 109.4, 115.6 109.4 " fill="#FF0000"/>
<path class="atom-15" d="M 19.4 105.5 L 21.4 108.7 Q 21.6 109.0, 21.9 109.6 Q 22.2 110.2, 22.3 110.2 L 22.3 105.5 L 23.1 105.5 L 23.1 111.6 L 22.2 111.6 L 20.1 108.1 Q 19.8 107.6, 19.6 107.2 Q 19.3 106.7, 19.2 106.6 L 19.2 111.6 L 18.5 111.6 L 18.5 105.5 L 19.4 105.5 " fill="#0000FF"/>
<path class="atom-17" d="M 21.2 70.9 L 23.2 74.1 Q 23.4 74.4, 23.8 75.0 Q 24.1 75.6, 24.1 75.6 L 24.1 70.9 L 24.9 70.9 L 24.9 76.9 L 24.1 76.9 L 21.9 73.4 Q 21.7 73.0, 21.4 72.5 Q 21.2 72.1, 21.1 71.9 L 21.1 76.9 L 20.3 76.9 L 20.3 70.9 L 21.2 70.9 " fill="#0000FF"/>
<path class="atom-17" d="M 20.2 64.2 L 21.0 64.2 L 21.0 66.8 L 24.1 66.8 L 24.1 64.2 L 25.0 64.2 L 25.0 70.3 L 24.1 70.3 L 24.1 67.5 L 21.0 67.5 L 21.0 70.3 L 20.2 70.3 L 20.2 64.2 " fill="#0000FF"/>
<path class="legend" d="M 80.6 190.6 L 77.9 186.6 L 79.6 186.6 L 81.6 189.4 L 83.5 186.6 L 85.2 186.6 L 82.4 190.6 L 85.4 194.8 L 83.6 194.8 L 81.5 191.7 L 79.3 194.8 L 77.6 194.8 L 80.6 190.6 " fill="#000000"/>
<path class="legend" d="M 91.8 188.9 Q 92.9 189.2, 93.4 189.9 Q 93.9 190.6, 93.9 191.7 Q 93.9 192.7, 93.5 193.4 Q 93.0 194.2, 92.1 194.6 Q 91.2 195.0, 90.1 195.0 Q 88.8 195.0, 87.9 194.6 Q 87.0 194.2, 86.3 193.3 L 87.2 192.4 Q 87.9 193.1, 88.5 193.4 Q 89.1 193.7, 90.1 193.7 Q 91.1 193.7, 91.7 193.2 Q 92.3 192.6, 92.3 191.7 Q 92.3 190.6, 91.7 190.1 Q 91.0 189.5, 89.6 189.5 L 88.8 189.5 L 88.8 188.4 L 89.6 188.4 Q 90.8 188.4, 91.4 187.8 Q 92.1 187.3, 92.1 186.3 Q 92.1 185.5, 91.6 185.1 Q 91.0 184.7, 90.1 184.7 Q 89.1 184.7, 88.5 185.0 Q 88.0 185.3, 87.5 186.2 L 86.4 185.6 Q 86.8 184.6, 87.8 184.0 Q 88.7 183.4, 90.1 183.4 Q 91.7 183.4, 92.7 184.2 Q 93.7 185.0, 93.7 186.3 Q 93.7 187.2, 93.2 187.8 Q 92.7 188.5, 91.8 188.9 " fill="#000000"/>
<path class="legend" d="M 101.1 188.9 Q 102.2 189.2, 102.7 189.9 Q 103.3 190.6, 103.3 191.7 Q 103.3 192.7, 102.8 193.4 Q 102.3 194.2, 101.4 194.6 Q 100.6 195.0, 99.4 195.0 Q 98.2 195.0, 97.3 194.6 Q 96.4 194.2, 95.7 193.3 L 96.6 192.4 Q 97.3 193.1, 97.9 193.4 Q 98.5 193.7, 99.4 193.7 Q 100.4 193.7, 101.0 193.2 Q 101.7 192.6, 101.7 191.7 Q 101.7 190.6, 101.0 190.1 Q 100.4 189.5, 99.0 189.5 L 98.2 189.5 L 98.2 188.4 L 98.9 188.4 Q 100.1 188.4, 100.8 187.8 Q 101.4 187.3, 101.4 186.3 Q 101.4 185.5, 100.9 185.1 Q 100.3 184.7, 99.4 184.7 Q 98.5 184.7, 97.9 185.0 Q 97.3 185.3, 96.9 186.2 L 95.8 185.6 Q 96.2 184.6, 97.1 184.0 Q 98.1 183.4, 99.4 183.4 Q 101.1 183.4, 102.1 184.2 Q 103.0 185.0, 103.0 186.3 Q 103.0 187.2, 102.5 187.8 Q 102.0 188.5, 101.1 188.9 " fill="#000000"/>
<path class="legend" d="M 109.4 187.8 Q 110.4 187.8, 111.2 188.2 Q 112.0 188.6, 112.4 189.4 Q 112.8 190.2, 112.8 191.2 Q 112.8 192.3, 112.4 193.2 Q 111.9 194.0, 111.0 194.5 Q 110.1 195.0, 109.0 195.0 Q 107.0 195.0, 106.0 193.6 Q 105.0 192.2, 105.0 189.5 Q 105.0 186.5, 106.2 185.0 Q 107.5 183.4, 109.9 183.4 Q 110.6 183.4, 111.2 183.5 Q 111.8 183.7, 112.4 184.0 L 111.8 185.1 Q 110.9 184.7, 109.9 184.7 Q 108.3 184.7, 107.5 185.7 Q 106.7 186.7, 106.6 188.9 Q 107.2 188.3, 107.9 188.1 Q 108.6 187.8, 109.4 187.8 M 109.1 193.7 Q 109.7 193.7, 110.2 193.3 Q 110.7 193.0, 111.0 192.5 Q 111.2 191.9, 111.2 191.2 Q 111.2 190.2, 110.7 189.6 Q 110.1 189.0, 109.1 189.0 Q 108.4 189.0, 107.8 189.3 Q 107.1 189.6, 106.6 190.1 Q 106.7 192.0, 107.3 192.8 Q 107.9 193.7, 109.1 193.7 " fill="#000000"/>
<path class="legend" d="M 118.9 187.8 Q 119.9 187.8, 120.7 188.2 Q 121.5 188.6, 121.9 189.4 Q 122.4 190.2, 122.4 191.2 Q 122.4 192.3, 121.9 193.2 Q 121.4 194.0, 120.5 194.5 Q 119.7 195.0, 118.5 195.0 Q 116.5 195.0, 115.5 193.6 Q 114.5 192.2, 114.5 189.5 Q 114.5 186.5, 115.7 185.0 Q 117.0 183.4, 119.4 183.4 Q 120.1 183.4, 120.7 183.5 Q 121.3 183.7, 121.9 184.0 L 121.3 185.1 Q 120.5 184.7, 119.4 184.7 Q 117.8 184.7, 117.0 185.7 Q 116.2 186.7, 116.1 188.9 Q 116.7 188.3, 117.4 188.1 Q 118.1 187.8, 118.9 187.8 M 118.6 193.7 Q 119.2 193.7, 119.7 193.3 Q 120.2 193.0, 120.5 192.5 Q 120.8 191.9, 120.8 191.2 Q 120.8 190.2, 120.2 189.6 Q 119.6 189.0, 118.6 189.0 Q 118.0 189.0, 117.3 189.3 Q 116.6 189.6, 116.1 190.1 Q 116.2 192.0, 116.8 192.8 Q 117.4 193.7, 118.6 193.7 " fill="#000000"/>
<path class="bond-0 atom-0 atom-1" d="M 252.2,94.6 L 271.8,85.8" style="fill:none;fill-rule:evenodd;stroke:#000000;stroke-width:2.0px;stroke-linecap:butt;stroke-linejoin:miter;stroke-opacity:1"/>
<path class="bond-1 atom-1 atom-2" d="M 273.3,86.9 L 274.2,77.7" style="fill:none;fill-rule:evenodd;stroke:#000000;stroke-width:2.0px;stroke-linecap:butt;stroke-linejoin:miter;stroke-opacity:1"/>
<path class="bond-1 atom-1 atom-2" d="M 274.2,77.7 L 275.1,68.5" style="fill:none;fill-rule:evenodd;stroke:#FF0000;stroke-width:2.0px;stroke-linecap:butt;stroke-linejoin:miter;stroke-opacity:1"/>
<path class="bond-1 atom-1 atom-2" d="M 270.1,86.6 L 271.0,77.4" style="fill:none;fill-rule:evenodd;stroke:#000000;stroke-width:2.0px;stroke-linecap:butt;stroke-linejoin:miter;stroke-opacity:1"/>
<path class="bond-1 atom-1 atom-2" d="M 271.0,77.4 L 271.9,68.2" style="fill:none;fill-rule:evenodd;stroke:#FF0000;stroke-width:2.0px;stroke-linecap:butt;stroke-linejoin:miter;stroke-opacity:1"/>
<path class="bond-2 atom-1 atom-3" d="M 271.8,85.8 L 278.9,91.0" style="fill:none;fill-rule:evenodd;stroke:#000000;stroke-width:2.0px;stroke-linecap:butt;stroke-linejoin:miter;stroke-opacity:1"/>
<path class="bond-2 atom-1 atom-3" d="M 278.9,91.0 L 286.1,96.2" style="fill:none;fill-rule:evenodd;stroke:#0000FF;stroke-width:2.0px;stroke-linecap:butt;stroke-linejoin:miter;stroke-opacity:1"/>
<path class="bond-3 atom-3 atom-4" d="M 292.1,97.0 L 300.4,93.3" style="fill:none;fill-rule:evenodd;stroke:#0000FF;stroke-width:2.0px;stroke-linecap:butt;stroke-linejoin:miter;stroke-opacity:1"/>
<path class="bond-3 atom-3 atom-4" d="M 300.4,93.3 L 308.7,89.6" style="fill:none;fill-rule:evenodd;stroke:#000000;stroke-width:2.0px;stroke-linecap:butt;stroke-linejoin:miter;stroke-opacity:1"/>
<path class="bond-4 atom-4 atom-5" d="M 308.7,89.6 L 310.9,68.3" style="fill:none;fill-rule:evenodd;stroke:#000000;stroke-width:2.0px;stroke-linecap:butt;stroke-linejoin:miter;stroke-opacity:1"/>
<path class="bond-4 atom-4 atom-5" d="M 312.1,88.1 L 313.9,70.5" style="fill:none;fill-rule:evenodd;stroke:#000000;stroke-width:2.0px;stroke-linecap:butt;stroke-linejoin:miter;stroke-opacity:1"/>
<path class="bond-5 atom-5 atom-6" d="M 310.9,68.3 L 319.2,64.6" style="fill:none;fill-rule:evenodd;stroke:#000000;stroke-width:2.0px;stroke-linecap:butt;stroke-linejoin:miter;stroke-opacity:1"/>
<path class="bond-5 atom-5 atom-6" d="M 319.2,64.6 L 327.4,60.9" style="fill:none;fill-rule:evenodd;stroke:#0000FF;stroke-width:2.0px;stroke-linecap:butt;stroke-linejoin:miter;stroke-opacity:1"/>
<path class="bond-6 atom-6 atom-7" d="M 333.5,61.7 L 340.6,66.9" style="fill:none;fill-rule:evenodd;stroke:#0000FF;stroke-width:2.0px;stroke-linecap:butt;stroke-linejoin:miter;stroke-opacity:1"/>
<path class="bond-6 atom-6 atom-7" d="M 340.6,66.9 L 347.8,72.1" style="fill:none;fill-rule:evenodd;stroke:#000000;stroke-width:2.0px;stroke-linecap:butt;stroke-linejoin:miter;stroke-opacity:1"/>
<path class="bond-6 atom-6 atom-7" d="M 331.6,64.3 L 338.0,69.0" style="fill:none;fill-rule:evenodd;stroke:#0000FF;stroke-width:2.0px;stroke-linecap:butt;stroke-linejoin:miter;stroke-opacity:1"/>
<path class="bond-6 atom-6 atom-7" d="M 338.0,69.0 L 344.4,73.6" style="fill:none;fill-rule:evenodd;stroke:#000000;stroke-width:2.0px;stroke-linecap:butt;stroke-linejoin:miter;stroke-opacity:1"/>
<path class="bond-7 atom-7 atom-8" d="M 347.8,72.1 L 345.6,93.4" style="fill:none;fill-rule:evenodd;stroke:#000000;stroke-width:2.0px;stroke-linecap:butt;stroke-linejoin:miter;stroke-opacity:1"/>
<path class="bond-8 atom-8 atom-9" d="M 345.6,93.4 L 326.1,102.2" style="fill:none;fill-rule:evenodd;stroke:#000000;stroke-width:2.0px;stroke-linecap:butt;stroke-linejoin:miter;stroke-opacity:1"/>
<path class="bond-8 atom-8 atom-9" d="M 342.6,91.2 L 326.4,98.5" style="fill:none;fill-rule:evenodd;stroke:#000000;stroke-width:2.0px;stroke-linecap:butt;stroke-linejoin:miter;stroke-opacity:1"/>
<path class="bond-9 atom-9 atom-10" d="M 326.1,102.2 L 323.9,123.5" style="fill:none;fill-rule:evenodd;stroke:#000000;stroke-width:2.0px;stroke-linecap:butt;stroke-linejoin:miter;stroke-opacity:1"/>
<path class="bond-10 atom-9 atom-4" d="M 326.1,102.2 L 308.7,89.6" style="fill:none;fill-rule:evenodd;stroke:#000000;stroke-width:2.0px;stroke-linecap:butt;stroke-linejoin:miter;stroke-opacity:1"/>
<path d="M 270.8,86.3 L 271.8,85.8 L 272.1,86.1" style="fill:none;stroke:#000000;stroke-width:2.0px;stroke-linecap:butt;stroke-linejoin:miter;stroke-opacity:1;"/>
<path d="M 310.8,69.4 L 310.9,68.3 L 311.3,68.1" style="fill:none;stroke:#000000;stroke-width:2.0px;stroke-linecap:butt;stroke-linejoin:miter;stroke-opacity:1;"/>
<path d="M 347.5,71.8 L 347.8,72.1 L 347.7,73.2" style="fill:none;stroke:#000000;stroke-width:2.0px;stroke-linecap:butt;stroke-linejoin:miter;stroke-opacity:1;"/>
<path d="M 345.7,92.4 L 345.6,93.4 L 344.6,93.9" style="fill:none;stroke:#000000;stroke-width:2.0px;stroke-linecap:butt;stroke-linejoin:miter;stroke-opacity:1;"/>
<path class="atom-2" d="M 271.2 64.5 Q 271.2 63.1, 271.9 62.2 Q 272.6 61.4, 273.9 61.4 Q 275.3 61.4, 276.0 62.2 Q 276.7 63.1, 276.7 64.5 Q 276.7 66.0, 276.0 66.8 Q 275.3 67.7, 273.9 67.7 Q 272.6 67.7, 271.9 66.8 Q 271.2 66.0, 271.2 64.5 M 273.9 67.0 Q 274.9 67.0, 275.4 66.4 Q 275.9 65.7, 275.9 64.5 Q 275.9 63.3, 275.4 62.7 Q 274.9 62.1, 273.9 62.1 Q 273.0 62.1, 272.5 62.7 Q 272.0 63.3, 272.0 64.5 Q 272.0 65.7, 272.5 66.4 Q 273.0 67.0, 273.9 67.0 " fill="#FF0000"/>
<path class="atom-3" d="M 287.8 95.3 L 289.8 98.6 Q 290.0 98.9, 290.3 99.5 Q 290.6 100.0, 290.6 100.1 L 290.6 95.3 L 291.4 95.3 L 291.4 101.4 L 290.6 101.4 L 288.5 97.9 Q 288.2 97.5, 287.9 97.0 Q 287.7 96.5, 287.6 96.4 L 287.6 101.4 L 286.8 101.4 L 286.8 95.3 L 287.8 95.3 " fill="#0000FF"/>
<path class="atom-3" d="M 286.7 102.0 L 287.6 102.0 L 287.6 104.6 L 290.7 104.6 L 290.7 102.0 L 291.5 102.0 L 291.5 108.1 L 290.7 108.1 L 290.7 105.3 L 287.6 105.3 L 287.6 108.1 L 286.7 108.1 L 286.7 102.0 " fill="#0000FF"/>
<path class="atom-6" d="M 329.1 56.5 L 331.1 59.7 Q 331.3 60.0, 331.6 60.6 Q 331.9 61.2, 331.9 61.2 L 331.9 56.5 L 332.7 56.5 L 332.7 62.6 L 331.9 62.6 L 329.8 59.1 Q 329.5 58.6, 329.3 58.2 Q 329.0 57.7, 328.9 57.6 L 328.9 62.6 L 328.1 62.6 L 328.1 56.5 L 329.1 56.5 " fill="#0000FF"/>
<path class="legend" d="M 280.7 190.6 L 277.9 186.6 L 279.6 186.6 L 281.6 189.4 L 283.6 186.6 L 285.2 186.6 L 282.4 190.6 L 285.4 194.9 L 283.7 194.9 L 281.5 191.8 L 279.3 194.9 L 277.7 194.9 L 280.7 190.6 " fill="#000000"/>
<path class="legend" d="M 290.5 195.0 Q 288.4 195.0, 287.4 193.5 Q 286.3 191.9, 286.3 189.2 Q 286.3 186.5, 287.4 184.9 Q 288.4 183.4, 290.5 183.4 Q 292.6 183.4, 293.6 184.9 Q 294.6 186.5, 294.6 189.2 Q 294.6 191.9, 293.6 193.5 Q 292.6 195.0, 290.5 195.0 M 290.5 193.7 Q 291.7 193.7, 292.4 192.6 Q 293.0 191.4, 293.0 189.2 Q 293.0 187.0, 292.4 185.8 Q 291.7 184.7, 290.5 184.7 Q 289.3 184.7, 288.6 185.8 Q 287.9 187.0, 287.9 189.2 Q 287.9 191.4, 288.6 192.6 Q 289.3 193.7, 290.5 193.7 " fill="#000000"/>
<path class="legend" d="M 297.1 193.6 L 299.5 193.6 L 299.5 185.1 L 296.8 186.0 L 296.4 185.0 L 299.9 183.5 L 301.0 183.7 L 301.0 193.6 L 303.3 193.6 L 303.3 194.9 L 297.1 194.9 L 297.1 193.6 " fill="#000000"/>
<path class="legend" d="M 308.9 195.0 Q 306.8 195.0, 305.7 193.5 Q 304.7 191.9, 304.7 189.2 Q 304.7 186.5, 305.7 184.9 Q 306.8 183.4, 308.9 183.4 Q 311.0 183.4, 312.0 184.9 Q 313.0 186.5, 313.0 189.2 Q 313.0 191.9, 312.0 193.5 Q 310.9 195.0, 308.9 195.0 M 308.9 193.7 Q 310.1 193.7, 310.7 192.6 Q 311.4 191.4, 311.4 189.2 Q 311.4 187.0, 310.7 185.8 Q 310.1 184.7, 308.9 184.7 Q 307.6 184.7, 307.0 185.8 Q 306.3 187.0, 306.3 189.2 Q 306.3 191.4, 307.0 192.6 Q 307.6 193.7, 308.9 193.7 " fill="#000000"/>
<path class="legend" d="M 320.8 184.8 L 314.8 184.8 L 314.8 183.5 L 322.3 183.5 L 322.3 184.7 L 317.8 194.9 L 316.2 194.9 L 320.8 184.8 " fill="#000000"/>
</svg>