<svg xmlns="http://www.w3.org/2000/svg" xmlns:rdkit="http://www.rdkit.org/xml" xmlns:xlink="http://www.w3.org/1999/xlink" version="1.1" baseProfile="full" xml:space="preserve" width="600px" height="200px" viewBox="0 0 600 200">
<!-- END OF HEADER -->
<rect style="opacity:1.0;fill:#FFFFFF;stroke:none" width="600.0" height="200.0" x="0.0" y="0.0"> </rect>
<path class="bond-0 atom-0 atom-1" d="M 119.4,53.1 L 119.8,62.1" style="fill:none;fill-rule:evenodd;stroke:#FF0000;stroke-width:2.0px;stroke-linecap:butt;stroke-linejoin:miter;stroke-opacity:1"/>
<path class="bond-0 atom-0 atom-1" d="M 119.8,62.1 L 120.1,71.1" style="fill:none;fill-rule:evenodd;stroke:#000000;stroke-width:2.0px;stroke-linecap:butt;stroke-linejoin:miter;stroke-opacity:1"/>
<path class="bond-0 atom-0 atom-1" d="M 116.3,53.2 L 116.6,62.2" style="fill:none;fill-rule:evenodd;stroke:#FF0000;stroke-width:2.0px;stroke-linecap:butt;stroke-linejoin:miter;stroke-opacity:1"/>
<path class="bond-0 atom-0 atom-1" d="M 116.6,62.2 L 116.9,71.2" style="fill:none;fill-rule:evenodd;stroke:#000000;stroke-width:2.0px;stroke-linecap:butt;stroke-linejoin:miter;stroke-opacity:1"/>
<path class="bond-1 atom-1 atom-2" d="M 118.5,70.2 L 126.3,74.4" style="fill:none;fill-rule:evenodd;stroke:#000000;stroke-width:2.0px;stroke-linecap:butt;stroke-linejoin:miter;stroke-opacity:1"/>
<path class="bond-1 atom-1 atom-2" d="M 126.3,74.4 L 134.0,78.5" style="fill:none;fill-rule:evenodd;stroke:#0000FF;stroke-width:2.0px;stroke-linecap:butt;stroke-linejoin:miter;stroke-opacity:1"/>
<path class="bond-2 atom-2 atom-3" d="M 139.9,78.2 L 147.3,73.6" style="fill:none;fill-rule:evenodd;stroke:#0000FF;stroke-width:2.0px;stroke-linecap:butt;stroke-linejoin:miter;stroke-opacity:1"/>
<path class="bond-2 atom-2 atom-3" d="M 147.3,73.6 L 154.7,68.9" style="fill:none;fill-rule:evenodd;stroke:#000000;stroke-width:2.0px;stroke-linecap:butt;stroke-linejoin:miter;stroke-opacity:1"/>
<path class="bond-3 atom-3 atom-4" d="M 154.7,68.9 L 173.2,78.8" style="fill:none;fill-rule:evenodd;stroke:#000000;stroke-width:2.0px;stroke-linecap:butt;stroke-linejoin:miter;stroke-opacity:1"/>
<path class="bond-3 atom-3 atom-4" d="M 157.8,67.0 L 173.0,75.1" style="fill:none;fill-rule:evenodd;stroke:#000000;stroke-width:2.0px;stroke-linecap:butt;stroke-linejoin:miter;stroke-opacity:1"/>
<path class="bond-4 atom-4 atom-5" d="M 173.2,78.8 L 190.9,67.7" style="fill:none;fill-rule:evenodd;stroke:#000000;stroke-width:2.0px;stroke-linecap:butt;stroke-linejoin:miter;stroke-opacity:1"/>
<path class="bond-5 atom-5 atom-6" d="M 190.9,67.7 L 190.2,46.7" style="fill:none;fill-rule:evenodd;stroke:#000000;stroke-width:2.0px;stroke-linecap:butt;stroke-linejoin:miter;stroke-opacity:1"/>
<path class="bond-5 atom-5 atom-6" d="M 187.7,66.0 L 187.1,48.7" style="fill:none;fill-rule:evenodd;stroke:#000000;stroke-width:2.0px;stroke-linecap:butt;stroke-linejoin:miter;stroke-opacity:1"/>
<path class="bond-6 atom-6 atom-7" d="M 190.2,46.7 L 182.4,42.6" style="fill:none;fill-rule:evenodd;stroke:#000000;stroke-width:2.0px;stroke-linecap:butt;stroke-linejoin:miter;stroke-opacity:1"/>
<path class="bond-6 atom-6 atom-7" d="M 182.4,42.6 L 174.6,38.5" style="fill:none;fill-rule:evenodd;stroke:#0000FF;stroke-width:2.0px;stroke-linecap:butt;stroke-linejoin:miter;stroke-opacity:1"/>
<path class="bond-7 atom-7 atom-8" d="M 168.7,38.8 L 161.3,43.4" style="fill:none;fill-rule:evenodd;stroke:#0000FF;stroke-width:2.0px;stroke-linecap:butt;stroke-linejoin:miter;stroke-opacity:1"/>
<path class="bond-7 atom-7 atom-8" d="M 161.3,43.4 L 153.9,48.0" style="fill:none;fill-rule:evenodd;stroke:#000000;stroke-width:2.0px;stroke-linecap:butt;stroke-linejoin:miter;stroke-opacity:1"/>
<path class="bond-7 atom-7 atom-8" d="M 170.4,41.4 L 163.8,45.6" style="fill:none;fill-rule:evenodd;stroke:#0000FF;stroke-width:2.0px;stroke-linecap:butt;stroke-linejoin:miter;stroke-opacity:1"/>
<path class="bond-7 atom-7 atom-8" d="M 163.8,45.6 L 157.1,49.7" style="fill:none;fill-rule:evenodd;stroke:#000000;stroke-width:2.0px;stroke-linecap:butt;stroke-linejoin:miter;stroke-opacity:1"/>
<path class="bond-8 atom-1 atom-9" d="M 118.5,70.2 L 111.1,74.9" style="fill:none;fill-rule:evenodd;stroke:#000000;stroke-width:2.0px;stroke-linecap:butt;stroke-linejoin:miter;stroke-opacity:1"/>
<path class="bond-8 atom-1 atom-9" d="M 111.1,74.9 L 103.7,79.5" style="fill:none;fill-rule:evenodd;stroke:#0000FF;stroke-width:2.0px;stroke-linecap:butt;stroke-linejoin:miter;stroke-opacity:1"/>
<path class="bond-9 atom-9 atom-10" d="M 97.8,79.8 L 90.0,75.7" style="fill:none;fill-rule:evenodd;stroke:#0000FF;stroke-width:2.0px;stroke-linecap:butt;stroke-linejoin:miter;stroke-opacity:1"/>
<path class="bond-9 atom-9 atom-10" d="M 90.0,75.7 L 82.3,71.5" style="fill:none;fill-rule:evenodd;stroke:#000000;stroke-width:2.0px;stroke-linecap:butt;stroke-linejoin:miter;stroke-opacity:1"/>
<path class="bond-10 atom-10 atom-11" d="M 82.3,71.5 L 64.5,82.6" style="fill:none;fill-rule:evenodd;stroke:#000000;stroke-width:2.0px;stroke-linecap:butt;stroke-linejoin:miter;stroke-opacity:1"/>
<path class="bond-11 atom-11 atom-12" d="M 64.5,82.6 L 46.1,72.8" style="fill:none;fill-rule:evenodd;stroke:#000000;stroke-width:2.0px;stroke-linecap:butt;stroke-linejoin:miter;stroke-opacity:1"/>
<path class="bond-12 atom-12 atom-13" d="M 46.1,72.8 L 45.3,51.9" style="fill:none;fill-rule:evenodd;stroke:#000000;stroke-width:2.0px;stroke-linecap:butt;stroke-linejoin:miter;stroke-opacity:1"/>
<path class="bond-13 atom-13 atom-14" d="M 45.3,51.9 L 26.8,42.1" style="fill:none;fill-rule:evenodd;stroke:#000000;stroke-width:2.0px;stroke-linecap:butt;stroke-linejoin:miter;stroke-opacity:1"/>
<path class="bond-14 atom-14 atom-15" d="M 26.8,42.1 L 9.1,53.2" style="fill:none;fill-rule:evenodd;stroke:#000000;stroke-width:2.0px;stroke-linecap:butt;stroke-linejoin:miter;stroke-opacity:1"/>
<path class="bond-15 atom-15 atom-16" d="M 9.1,53.2 L 9.8,74.1" style="fill:none;fill-rule:evenodd;stroke:#000000;stroke-width:2.0px;stroke-linecap:butt;stroke-linejoin:miter;stroke-opacity:1"/>
<path class="bond-16 atom-16 atom-17" d="M 9.8,74.1 L 28.3,83.9" style="fill:none;fill-rule:evenodd;stroke:#000000;stroke-width:2.0px;stroke-linecap:butt;stroke-linejoin:miter;stroke-opacity:1"/>
<path class="bond-17 atom-9 atom-18" d="M 100.9,85.0 L 101.2,93.6" style="fill:none;fill-rule:evenodd;stroke:#0000FF;stroke-width:2.0px;stroke-linecap:butt;stroke-linejoin:miter;stroke-opacity:1"/>
<path class="bond-17 atom-9 atom-18" d="M 101.2,93.6 L 101.5,102.3" style="fill:none;fill-rule:evenodd;stroke:#000000;stroke-width:2.0px;stroke-linecap:butt;stroke-linejoin:miter;stroke-opacity:1"/>
<path class="bond-18 atom-18 atom-19" d="M 101.5,102.3 L 83.8,113.4" style="fill:none;fill-rule:evenodd;stroke:#000000;stroke-width:2.0px;stroke-linecap:butt;stroke-linejoin:miter;stroke-opacity:1"/>
<path class="bond-18 atom-18 atom-19" d="M 101.6,105.9 L 87.0,115.1" style="fill:none;fill-rule:evenodd;stroke:#000000;stroke-width:2.0px;stroke-linecap:butt;stroke-linejoin:miter;stroke-opacity:1"/>
<path class="bond-19 atom-19 atom-20" d="M 83.8,113.4 L 84.5,134.3" style="fill:none;fill-rule:evenodd;stroke:#000000;stroke-width:2.0px;stroke-linecap:butt;stroke-linejoin:miter;stroke-opacity:1"/>
<path class="bond-20 atom-20 atom-21" d="M 84.5,134.3 L 103.0,144.1" style="fill:none;fill-rule:evenodd;stroke:#000000;stroke-width:2.0px;stroke-linecap:butt;stroke-linejoin:miter;stroke-opacity:1"/>
<path class="bond-20 atom-20 atom-21" d="M 87.6,132.3 L 102.9,140.4" style="fill:none;fill-rule:evenodd;stroke:#000000;stroke-width:2.0px;stroke-linecap:butt;stroke-linejoin:miter;stroke-opacity:1"/>
<path class="bond-21 atom-21 atom-22" d="M 103.0,144.1 L 120.7,133.0" style="fill:none;fill-rule:evenodd;stroke:#000000;stroke-width:2.0px;stroke-linecap:butt;stroke-linejoin:miter;stroke-opacity:1"/>
<path class="bond-22 atom-22 atom-23" d="M 120.7,133.0 L 128.5,137.1" style="fill:none;fill-rule:evenodd;stroke:#000000;stroke-width:2.0px;stroke-linecap:butt;stroke-linejoin:miter;stroke-opacity:1"/>
<path class="bond-22 atom-22 atom-23" d="M 128.5,137.1 L 136.2,141.2" style="fill:none;fill-rule:evenodd;stroke:#00CC00;stroke-width:2.0px;stroke-linecap:butt;stroke-linejoin:miter;stroke-opacity:1"/>
<path class="bond-23 atom-22 atom-24" d="M 120.7,133.0 L 120.0,112.1" style="fill:none;fill-rule:evenodd;stroke:#000000;stroke-width:2.0px;stroke-linecap:butt;stroke-linejoin:miter;stroke-opacity:1"/>
<path class="bond-23 atom-22 atom-24" d="M 117.5,131.3 L 116.9,114.0" style="fill:none;fill-rule:evenodd;stroke:#000000;stroke-width:2.0px;stroke-linecap:butt;stroke-linejoin:miter;stroke-opacity:1"/>
<path class="bond-24 atom-8 atom-3" d="M 153.9,48.0 L 154.7,68.9" style="fill:none;fill-rule:evenodd;stroke:#000000;stroke-width:2.0px;stroke-linecap:butt;stroke-linejoin:miter;stroke-opacity:1"/>
<path class="bond-25 atom-17 atom-12" d="M 28.3,83.9 L 46.1,72.8" style="fill:none;fill-rule:evenodd;stroke:#000000;stroke-width:2.0px;stroke-linecap:butt;stroke-linejoin:miter;stroke-opacity:1"/>
<path class="bond-26 atom-24 atom-18" d="M 120.0,112.1 L 101.5,102.3" style="fill:none;fill-rule:evenodd;stroke:#000000;stroke-width:2.0px;stroke-linecap:butt;stroke-linejoin:miter;stroke-opacity:1"/>
<path d="M 118.9,70.5 L 118.5,70.2 L 118.1,70.5" style="fill:none;stroke:#000000;stroke-width:2.0px;stroke-linecap:butt;stroke-linejoin:miter;stroke-opacity:1;"/>
<path d="M 172.3,78.3 L 173.2,78.8 L 174.1,78.2" style="fill:none;stroke:#000000;stroke-width:2.0px;stroke-linecap:butt;stroke-linejoin:miter;stroke-opacity:1;"/>
<path d="M 190.0,68.2 L 190.9,67.7 L 190.9,66.6" style="fill:none;stroke:#000000;stroke-width:2.0px;stroke-linecap:butt;stroke-linejoin:miter;stroke-opacity:1;"/>
<path d="M 190.2,47.8 L 190.2,46.7 L 189.8,46.5" style="fill:none;stroke:#000000;stroke-width:2.0px;stroke-linecap:butt;stroke-linejoin:miter;stroke-opacity:1;"/>
<path d="M 154.3,47.8 L 153.9,48.0 L 154.0,49.1" style="fill:none;stroke:#000000;stroke-width:2.0px;stroke-linecap:butt;stroke-linejoin:miter;stroke-opacity:1;"/>
<path d="M 82.7,71.7 L 82.3,71.5 L 81.4,72.1" style="fill:none;stroke:#000000;stroke-width:2.0px;stroke-linecap:butt;stroke-linejoin:miter;stroke-opacity:1;"/>
<path d="M 65.4,82.1 L 64.5,82.6 L 63.6,82.2" style="fill:none;stroke:#000000;stroke-width:2.0px;stroke-linecap:butt;stroke-linejoin:miter;stroke-opacity:1;"/>
<path d="M 45.3,53.0 L 45.3,51.9 L 44.4,51.4" style="fill:none;stroke:#000000;stroke-width:2.0px;stroke-linecap:butt;stroke-linejoin:miter;stroke-opacity:1;"/>
<path d="M 27.7,42.6 L 26.8,42.1 L 25.9,42.7" style="fill:none;stroke:#000000;stroke-width:2.0px;stroke-linecap:butt;stroke-linejoin:miter;stroke-opacity:1;"/>
<path d="M 10.0,52.7 L 9.1,53.2 L 9.1,54.3" style="fill:none;stroke:#000000;stroke-width:2.0px;stroke-linecap:butt;stroke-linejoin:miter;stroke-opacity:1;"/>
<path d="M 9.8,73.1 L 9.8,74.1 L 10.8,74.6" style="fill:none;stroke:#000000;stroke-width:2.0px;stroke-linecap:butt;stroke-linejoin:miter;stroke-opacity:1;"/>
<path d="M 27.4,83.5 L 28.3,83.9 L 29.2,83.4" style="fill:none;stroke:#000000;stroke-width:2.0px;stroke-linecap:butt;stroke-linejoin:miter;stroke-opacity:1;"/>
<path d="M 84.7,112.8 L 83.8,113.4 L 83.8,114.4" style="fill:none;stroke:#000000;stroke-width:2.0px;stroke-linecap:butt;stroke-linejoin:miter;stroke-opacity:1;"/>
<path d="M 84.5,133.2 L 84.5,134.3 L 85.4,134.8" style="fill:none;stroke:#000000;stroke-width:2.0px;stroke-linecap:butt;stroke-linejoin:miter;stroke-opacity:1;"/>
<path d="M 102.1,143.6 L 103.0,144.1 L 103.9,143.5" style="fill:none;stroke:#000000;stroke-width:2.0px;stroke-linecap:butt;stroke-linejoin:miter;stroke-opacity:1;"/>
<path d="M 120.0,113.1 L 120.0,112.1 L 119.1,111.6" style="fill:none;stroke:#000000;stroke-width:2.0px;stroke-linecap:butt;stroke-linejoin:miter;stroke-opacity:1;"/>
<path class="atom-0" d="M 115.0 49.4 Q 115.0 47.9, 115.7 47.1 Q 116.4 46.3, 117.7 46.3 Q 119.0 46.3, 119.7 47.1 Q 120.5 47.9, 120.5 49.4 Q 120.5 50.8, 119.7 51.6 Q 119.0 52.4, 117.7 52.4 Q 116.4 52.4, 115.7 51.6 Q 115.0 50.8, 115.0 49.4 M 117.7 51.8 Q 118.6 51.8, 119.1 51.2 Q 119.6 50.5, 119.6 49.4 Q 119.6 48.2, 119.1 47.6 Q 118.6 47.0, 117.7 47.0 Q 116.8 47.0, 116.3 47.6 Q 115.8 48.2, 115.8 49.4 Q 115.8 50.5, 116.3 51.2 Q 116.8 51.8, 117.7 51.8 " fill="#FF0000"/>
<path class="atom-2" d="M 135.7 77.1 L 137.6 80.2 Q 137.8 80.5, 138.1 81.1 Q 138.4 81.7, 138.4 81.7 L 138.4 77.1 L 139.2 77.1 L 139.2 83.0 L 138.4 83.0 L 136.3 79.6 Q 136.1 79.2, 135.8 78.7 Q 135.6 78.3, 135.5 78.1 L 135.5 83.0 L 134.7 83.0 L 134.7 77.1 L 135.7 77.1 " fill="#0000FF"/>
<path class="atom-2" d="M 134.6 83.6 L 135.4 83.6 L 135.4 86.1 L 138.5 86.1 L 138.5 83.6 L 139.3 83.6 L 139.3 89.5 L 138.5 89.5 L 138.5 86.8 L 135.4 86.8 L 135.4 89.5 L 134.6 89.5 L 134.6 83.6 " fill="#0000FF"/>
<path class="atom-7" d="M 170.4 34.0 L 172.3 37.1 Q 172.5 37.4, 172.8 38.0 Q 173.1 38.5, 173.1 38.6 L 173.1 34.0 L 173.9 34.0 L 173.9 39.9 L 173.1 39.9 L 171.0 36.5 Q 170.8 36.1, 170.5 35.6 Q 170.3 35.1, 170.2 35.0 L 170.2 39.9 L 169.4 39.9 L 169.4 34.0 L 170.4 34.0 " fill="#0000FF"/>
<path class="atom-9" d="M 99.4 78.4 L 101.4 81.5 Q 101.6 81.8, 101.9 82.4 Q 102.2 83.0, 102.2 83.0 L 102.2 78.4 L 103.0 78.4 L 103.0 84.3 L 102.2 84.3 L 100.1 80.9 Q 99.9 80.5, 99.6 80.0 Q 99.3 79.6, 99.3 79.4 L 99.3 84.3 L 98.5 84.3 L 98.5 78.4 L 99.4 78.4 " fill="#0000FF"/>
<path class="atom-23" d="M 136.9 143.0 Q 136.9 141.5, 137.6 140.7 Q 138.3 140.0, 139.6 140.0 Q 140.8 140.0, 141.5 140.8 L 140.9 141.3 Q 140.5 140.6, 139.6 140.6 Q 138.7 140.6, 138.2 141.2 Q 137.8 141.8, 137.8 143.0 Q 137.8 144.2, 138.3 144.8 Q 138.8 145.4, 139.7 145.4 Q 140.4 145.4, 141.1 145.0 L 141.4 145.6 Q 141.0 145.8, 140.6 145.9 Q 140.1 146.0, 139.6 146.0 Q 138.3 146.0, 137.6 145.2 Q 136.9 144.5, 136.9 143.0 " fill="#00CC00"/>
<path class="atom-23" d="M 142.1 139.6 L 142.9 139.6 L 142.9 146.0 L 142.1 146.0 L 142.1 139.6 " fill="#00CC00"/>
<path class="legend" d="M 76.2 190.6 L 73.4 186.6 L 75.2 186.6 L 77.1 189.4 L 79.1 186.6 L 80.7 186.6 L 77.9 190.6 L 81.0 194.8 L 79.2 194.8 L 77.0 191.7 L 74.8 194.8 L 73.2 194.8 L 76.2 190.6 " fill="#000000"/>
<path class="legend" d="M 82.5 193.6 L 85.0 193.6 L 85.0 185.1 L 82.3 185.9 L 81.9 185.0 L 85.4 183.4 L 86.5 183.6 L 86.5 193.6 L 88.7 193.6 L 88.7 194.8 L 82.5 194.8 L 82.5 193.6 " fill="#000000"/>
<path class="legend" d="M 94.3 195.0 Q 92.2 195.0, 91.2 193.4 Q 90.2 191.9, 90.2 189.2 Q 90.2 186.4, 91.2 184.9 Q 92.2 183.4, 94.3 183.4 Q 96.4 183.4, 97.4 184.9 Q 98.4 186.4, 98.4 189.2 Q 98.4 191.9, 97.4 193.4 Q 96.4 195.0, 94.3 195.0 M 94.3 193.7 Q 95.5 193.7, 96.2 192.6 Q 96.8 191.4, 96.8 189.2 Q 96.8 186.9, 96.2 185.8 Q 95.5 184.7, 94.3 184.7 Q 93.1 184.7, 92.4 185.8 Q 91.8 186.9, 91.8 189.2 Q 91.8 191.4, 92.4 192.6 Q 93.1 193.7, 94.3 193.7 " fill="#000000"/>
<path class="legend" d="M 100.3 185.7 Q 100.7 184.6, 101.7 184.0 Q 102.7 183.4, 104.1 183.4 Q 105.8 183.4, 106.7 184.3 Q 107.7 185.2, 107.7 186.9 Q 107.7 188.6, 106.4 190.1 Q 105.2 191.7, 102.6 193.6 L 107.9 193.6 L 107.9 194.8 L 100.2 194.8 L 100.2 193.8 Q 102.4 192.3, 103.6 191.1 Q 104.9 190.0, 105.5 189.0 Q 106.1 188.0, 106.1 187.0 Q 106.1 185.9, 105.5 185.3 Q 105.0 184.7, 104.1 184.7 Q 103.1 184.7, 102.5 185.0 Q 101.9 185.4, 101.5 186.2 L 100.3 185.7 " fill="#000000"/>
<path class="legend" d="M 115.0 188.9 Q 116.1 189.2, 116.7 189.9 Q 117.2 190.6, 117.2 191.7 Q 117.2 192.7, 116.7 193.4 Q 116.3 194.2, 115.4 194.6 Q 114.5 195.0, 113.3 195.0 Q 112.1 195.0, 111.2 194.6 Q 110.3 194.2, 109.6 193.3 L 110.5 192.4 Q 111.2 193.1, 111.8 193.4 Q 112.4 193.7, 113.3 193.7 Q 114.4 193.7, 115.0 193.2 Q 115.6 192.6, 115.6 191.7 Q 115.6 190.6, 115.0 190.1 Q 114.3 189.5, 112.9 189.5 L 112.1 189.5 L 112.1 188.4 L 112.8 188.4 Q 114.1 188.4, 114.7 187.8 Q 115.4 187.3, 115.4 186.3 Q 115.4 185.5, 114.8 185.1 Q 114.3 184.7, 113.4 184.7 Q 112.4 184.7, 111.8 185.0 Q 111.3 185.3, 110.8 186.2 L 109.7 185.6 Q 110.1 184.6, 111.1 184.0 Q 112.0 183.4, 113.4 183.4 Q 115.0 183.4, 116.0 184.2 Q 117.0 185.0, 117.0 186.3 Q 117.0 187.2, 116.5 187.8 Q 116.0 188.5, 115.0 188.9 " fill="#000000"/>
<path class="legend" d="M 123.4 187.8 Q 124.4 187.8, 125.1 188.2 Q 125.9 188.6, 126.4 189.4 Q 126.8 190.2, 126.8 191.2 Q 126.8 192.3, 126.3 193.2 Q 125.8 194.0, 124.9 194.5 Q 124.1 195.0, 123.0 195.0 Q 121.0 195.0, 119.9 193.6 Q 118.9 192.2, 118.9 189.5 Q 118.9 186.5, 120.2 185.0 Q 121.4 183.4, 123.9 183.4 Q 124.6 183.4, 125.2 183.5 Q 125.8 183.7, 126.3 184.0 L 125.7 185.1 Q 124.9 184.7, 123.9 184.7 Q 122.3 184.7, 121.5 185.7 Q 120.6 186.7, 120.5 188.9 Q 121.1 188.3, 121.8 188.1 Q 122.6 187.8, 123.4 187.8 M 123.0 193.7 Q 123.6 193.7, 124.1 193.3 Q 124.6 193.0, 124.9 192.5 Q 125.2 191.9, 125.2 191.2 Q 125.2 190.2, 124.6 189.6 Q 124.1 189.0, 123.1 189.0 Q 122.4 189.0, 121.7 189.3 Q 121.0 189.6, 120.5 190.1 Q 120.6 192.0, 121.2 192.8 Q 121.8 193.7, 123.0 193.7 " fill="#000000"/>
<path class="bond-0 atom-0 atom-1" d="M 244.9,102.7 L 252.8,99.2" style="fill:none;fill-rule:evenodd;stroke:#FF0000;stroke-width:2.0px;stroke-linecap:butt;stroke-linejoin:miter;stroke-opacity:1"/>
<path class="bond-0 atom-0 atom-1" d="M 252.8,99.2 L 260.6,95.8" style="fill:none;fill-rule:evenodd;stroke:#000000;stroke-width:2.0px;stroke-linecap:butt;stroke-linejoin:miter;stroke-opacity:1"/>
<path class="bond-1 atom-1 atom-2" d="M 260.6,95.8 L 262.9,75.0" style="fill:none;fill-rule:evenodd;stroke:#000000;stroke-width:2.0px;stroke-linecap:butt;stroke-linejoin:miter;stroke-opacity:1"/>
<path class="bond-2 atom-2 atom-3" d="M 262.9,75.0 L 282.0,66.6" style="fill:none;fill-rule:evenodd;stroke:#000000;stroke-width:2.0px;stroke-linecap:butt;stroke-linejoin:miter;stroke-opacity:1"/>
<path class="bond-3 atom-3 atom-4" d="M 282.0,66.6 L 289.0,71.7" style="fill:none;fill-rule:evenodd;stroke:#000000;stroke-width:2.0px;stroke-linecap:butt;stroke-linejoin:miter;stroke-opacity:1"/>
<path class="bond-3 atom-3 atom-4" d="M 289.0,71.7 L 296.0,76.8" style="fill:none;fill-rule:evenodd;stroke:#0000FF;stroke-width:2.0px;stroke-linecap:butt;stroke-linejoin:miter;stroke-opacity:1"/>
<path class="bond-4 atom-4 atom-5" d="M 301.9,77.6 L 310.0,74.1" style="fill:none;fill-rule:evenodd;stroke:#0000FF;stroke-width:2.0px;stroke-linecap:butt;stroke-linejoin:miter;stroke-opacity:1"/>
<path class="bond-4 atom-4 atom-5" d="M 310.0,74.1 L 318.1,70.5" style="fill:none;fill-rule:evenodd;stroke:#000000;stroke-width:2.0px;stroke-linecap:butt;stroke-linejoin:miter;stroke-opacity:1"/>
<path class="bond-5 atom-5 atom-6" d="M 318.1,70.5 L 334.9,82.9" style="fill:none;fill-rule:evenodd;stroke:#000000;stroke-width:2.0px;stroke-linecap:butt;stroke-linejoin:miter;stroke-opacity:1"/>
<path class="bond-6 atom-6 atom-7" d="M 334.9,82.9 L 354.9,76.5" style="fill:none;fill-rule:evenodd;stroke:#000000;stroke-width:2.0px;stroke-linecap:butt;stroke-linejoin:miter;stroke-opacity:1"/>
<path class="bond-7 atom-7 atom-8" d="M 354.9,76.5 L 367.1,93.5" style="fill:none;fill-rule:evenodd;stroke:#000000;stroke-width:2.0px;stroke-linecap:butt;stroke-linejoin:miter;stroke-opacity:1"/>
<path class="bond-7 atom-7 atom-8" d="M 353.7,80.2 L 363.2,93.4" style="fill:none;fill-rule:evenodd;stroke:#000000;stroke-width:2.0px;stroke-linecap:butt;stroke-linejoin:miter;stroke-opacity:1"/>
<path class="bond-8 atom-8 atom-9" d="M 367.1,93.5 L 362.2,100.1" style="fill:none;fill-rule:evenodd;stroke:#000000;stroke-width:2.0px;stroke-linecap:butt;stroke-linejoin:miter;stroke-opacity:1"/>
<path class="bond-8 atom-8 atom-9" d="M 362.2,100.1 L 357.3,106.8" style="fill:none;fill-rule:evenodd;stroke:#CCCC00;stroke-width:2.0px;stroke-linecap:butt;stroke-linejoin:miter;stroke-opacity:1"/>
<path class="bond-9 atom-9 atom-10" d="M 352.1,109.5 L 343.5,106.6" style="fill:none;fill-rule:evenodd;stroke:#CCCC00;stroke-width:2.0px;stroke-linecap:butt;stroke-linejoin:miter;stroke-opacity:1"/>
<path class="bond-9 atom-9 atom-10" d="M 343.5,106.6 L 334.9,103.8" style="fill:none;fill-rule:evenodd;stroke:#000000;stroke-width:2.0px;stroke-linecap:butt;stroke-linejoin:miter;stroke-opacity:1"/>
<path class="bond-10 atom-4 atom-11" d="M 298.5,82.6 L 297.6,91.1" style="fill:none;fill-rule:evenodd;stroke:#0000FF;stroke-width:2.0px;stroke-linecap:butt;stroke-linejoin:miter;stroke-opacity:1"/>
<path class="bond-10 atom-4 atom-11" d="M 297.6,91.1 L 296.6,99.7" style="fill:none;fill-rule:evenodd;stroke:#000000;stroke-width:2.0px;stroke-linecap:butt;stroke-linejoin:miter;stroke-opacity:1"/>
<path class="bond-11 atom-11 atom-12" d="M 296.6,99.7 L 277.5,108.1" style="fill:none;fill-rule:evenodd;stroke:#000000;stroke-width:2.0px;stroke-linecap:butt;stroke-linejoin:miter;stroke-opacity:1"/>
<path class="bond-12 atom-12 atom-1" d="M 277.5,108.1 L 260.6,95.8" style="fill:none;fill-rule:evenodd;stroke:#000000;stroke-width:2.0px;stroke-linecap:butt;stroke-linejoin:miter;stroke-opacity:1"/>
<path class="bond-13 atom-10 atom-6" d="M 334.9,103.8 L 334.9,82.9" style="fill:none;fill-rule:evenodd;stroke:#000000;stroke-width:2.0px;stroke-linecap:butt;stroke-linejoin:miter;stroke-opacity:1"/>
<path class="bond-13 atom-10 atom-6" d="M 338.0,101.5 L 338.1,85.2" style="fill:none;fill-rule:evenodd;stroke:#000000;stroke-width:2.0px;stroke-linecap:butt;stroke-linejoin:miter;stroke-opacity:1"/>
<path d="M 262.8,76.0 L 262.9,75.0 L 263.9,74.6" style="fill:none;stroke:#000000;stroke-width:2.0px;stroke-linecap:butt;stroke-linejoin:miter;stroke-opacity:1;"/>
<path d="M 281.1,67.0 L 282.0,66.6 L 282.4,66.8" style="fill:none;stroke:#000000;stroke-width:2.0px;stroke-linecap:butt;stroke-linejoin:miter;stroke-opacity:1;"/>
<path d="M 317.7,70.7 L 318.1,70.5 L 318.9,71.1" style="fill:none;stroke:#000000;stroke-width:2.0px;stroke-linecap:butt;stroke-linejoin:miter;stroke-opacity:1;"/>
<path d="M 353.9,76.8 L 354.9,76.5 L 355.5,77.3" style="fill:none;stroke:#000000;stroke-width:2.0px;stroke-linecap:butt;stroke-linejoin:miter;stroke-opacity:1;"/>
<path d="M 366.5,92.6 L 367.1,93.5 L 366.9,93.8" style="fill:none;stroke:#000000;stroke-width:2.0px;stroke-linecap:butt;stroke-linejoin:miter;stroke-opacity:1;"/>
<path d="M 335.3,103.9 L 334.9,103.8 L 334.9,102.7" style="fill:none;stroke:#000000;stroke-width:2.0px;stroke-linecap:butt;stroke-linejoin:miter;stroke-opacity:1;"/>
<path d="M 296.7,99.3 L 296.6,99.7 L 295.7,100.1" style="fill:none;stroke:#000000;stroke-width:2.0px;stroke-linecap:butt;stroke-linejoin:miter;stroke-opacity:1;"/>
<path d="M 278.5,107.7 L 277.5,108.1 L 276.7,107.5" style="fill:none;stroke:#000000;stroke-width:2.0px;stroke-linecap:butt;stroke-linejoin:miter;stroke-opacity:1;"/>
<path class="atom-0" d="M 232.9 101.3 L 233.7 101.3 L 233.7 103.8 L 236.7 103.8 L 236.7 101.3 L 237.5 101.3 L 237.5 107.2 L 236.7 107.2 L 236.7 104.5 L 233.7 104.5 L 233.7 107.2 L 232.9 107.2 L 232.9 101.3 " fill="#FF0000"/>
<path class="atom-0" d="M 238.8 104.2 Q 238.8 102.8, 239.5 102.0 Q 240.2 101.2, 241.5 101.2 Q 242.8 101.2, 243.5 102.0 Q 244.2 102.8, 244.2 104.2 Q 244.2 105.7, 243.5 106.5 Q 242.8 107.3, 241.5 107.3 Q 240.2 107.3, 239.5 106.5 Q 238.8 105.7, 238.8 104.2 M 241.5 106.6 Q 242.4 106.6, 242.9 106.0 Q 243.4 105.4, 243.4 104.2 Q 243.4 103.1, 242.9 102.5 Q 242.4 101.9, 241.5 101.9 Q 240.6 101.9, 240.1 102.5 Q 239.6 103.1, 239.6 104.2 Q 239.6 105.4, 240.1 106.0 Q 240.6 106.6, 241.5 106.6 " fill="#FF0000"/>
<path class="atom-4" d="M 297.6 76.0 L 299.6 79.1 Q 299.7 79.4, 300.1 80.0 Q 300.4 80.5, 300.4 80.6 L 300.4 76.0 L 301.2 76.0 L 301.2 81.9 L 300.4 81.9 L 298.3 78.5 Q 298.0 78.1, 297.8 77.6 Q 297.5 77.1, 297.4 77.0 L 297.4 81.9 L 296.7 81.9 L 296.7 76.0 L 297.6 76.0 " fill="#0000FF"/>
<path class="atom-9" d="M 353.1 112.4 Q 353.1 112.4, 353.4 112.5 Q 353.7 112.6, 354.0 112.7 Q 354.3 112.8, 354.6 112.8 Q 355.1 112.8, 355.5 112.5 Q 355.8 112.2, 355.8 111.7 Q 355.8 111.4, 355.6 111.2 Q 355.5 111.0, 355.2 110.9 Q 355.0 110.8, 354.5 110.7 Q 354.0 110.5, 353.7 110.4 Q 353.4 110.2, 353.2 109.9 Q 353.0 109.6, 353.0 109.0 Q 353.0 108.3, 353.5 107.8 Q 354.0 107.4, 355.0 107.4 Q 355.7 107.4, 356.4 107.7 L 356.2 108.4 Q 355.5 108.1, 355.0 108.1 Q 354.4 108.1, 354.1 108.3 Q 353.8 108.5, 353.8 108.9 Q 353.8 109.3, 353.9 109.5 Q 354.1 109.6, 354.3 109.8 Q 354.6 109.9, 355.0 110.0 Q 355.5 110.2, 355.8 110.3 Q 356.2 110.5, 356.4 110.8 Q 356.6 111.2, 356.6 111.7 Q 356.6 112.6, 356.1 113.0 Q 355.5 113.4, 354.6 113.4 Q 354.1 113.4, 353.7 113.3 Q 353.3 113.2, 352.8 113.0 L 353.1 112.4 " fill="#CCCC00"/>
<path class="legend" d="M 280.3 190.6 L 277.5 186.6 L 279.2 186.6 L 281.2 189.4 L 283.2 186.6 L 284.8 186.6 L 282.0 190.6 L 285.0 194.8 L 283.3 194.8 L 281.1 191.7 L 278.9 194.8 L 277.3 194.8 L 280.3 190.6 " fill="#000000"/>
<path class="legend" d="M 290.1 195.0 Q 288.0 195.0, 287.0 193.4 Q 286.0 191.9, 286.0 189.2 Q 286.0 186.4, 287.0 184.9 Q 288.0 183.4, 290.1 183.4 Q 292.2 183.4, 293.2 184.9 Q 294.2 186.4, 294.2 189.2 Q 294.2 191.9, 293.2 193.4 Q 292.2 195.0, 290.1 195.0 M 290.1 193.7 Q 291.3 193.7, 292.0 192.6 Q 292.6 191.4, 292.6 189.2 Q 292.6 186.9, 292.0 185.8 Q 291.3 184.7, 290.1 184.7 Q 288.9 184.7, 288.2 185.8 Q 287.6 186.9, 287.6 189.2 Q 287.6 191.4, 288.2 192.6 Q 288.9 193.7, 290.1 193.7 " fill="#000000"/>
<path class="legend" d="M 301.5 188.9 Q 302.6 189.2, 303.1 189.9 Q 303.7 190.6, 303.7 191.7 Q 303.7 192.7, 303.2 193.4 Q 302.7 194.2, 301.8 194.6 Q 301.0 195.0, 299.8 195.0 Q 298.6 195.0, 297.7 194.6 Q 296.8 194.2, 296.1 193.3 L 297.0 192.4 Q 297.7 193.1, 298.3 193.4 Q 298.9 193.7, 299.8 193.7 Q 300.8 193.7, 301.5 193.2 Q 302.1 192.6, 302.1 191.7 Q 302.1 190.6, 301.4 190.1 Q 300.8 189.5, 299.4 189.5 L 298.6 189.5 L 298.6 188.4 L 299.3 188.4 Q 300.5 188.4, 301.2 187.8 Q 301.8 187.3, 301.8 186.3 Q 301.8 185.5, 301.3 185.1 Q 300.8 184.7, 299.8 184.7 Q 298.9 184.7, 298.3 185.0 Q 297.7 185.3, 297.3 186.2 L 296.2 185.6 Q 296.6 184.6, 297.5 184.0 Q 298.5 183.4, 299.8 183.4 Q 301.5 183.4, 302.5 184.2 Q 303.4 185.0, 303.4 186.3 Q 303.4 187.2, 303.0 187.8 Q 302.5 188.5, 301.5 188.9 " fill="#000000"/>
<path class="legend" d="M 311.2 188.8 Q 312.2 189.3, 312.8 190.0 Q 313.4 190.6, 313.4 191.7 Q 313.4 192.7, 312.9 193.4 Q 312.4 194.2, 311.5 194.6 Q 310.6 195.0, 309.5 195.0 Q 307.6 195.0, 306.5 194.1 Q 305.4 193.3, 305.4 191.7 Q 305.4 190.8, 305.9 190.1 Q 306.4 189.4, 307.4 188.9 Q 306.6 188.5, 306.2 187.9 Q 305.8 187.2, 305.8 186.3 Q 305.8 185.0, 306.8 184.2 Q 307.8 183.4, 309.4 183.4 Q 311.1 183.4, 312.0 184.2 Q 313.0 185.0, 313.0 186.3 Q 313.0 187.1, 312.5 187.7 Q 312.1 188.3, 311.2 188.8 M 309.4 184.6 Q 308.5 184.6, 307.9 185.0 Q 307.4 185.5, 307.4 186.3 Q 307.4 186.9, 307.8 187.3 Q 308.1 187.7, 308.6 187.9 Q 309.1 188.1, 310.1 188.4 Q 310.8 188.0, 311.1 187.4 Q 311.4 186.9, 311.4 186.3 Q 311.4 185.5, 310.9 185.0 Q 310.4 184.6, 309.4 184.6 M 309.5 193.8 Q 310.5 193.8, 311.2 193.2 Q 311.8 192.7, 311.8 191.7 Q 311.8 191.1, 311.5 190.7 Q 311.1 190.3, 310.6 190.1 Q 310.1 189.9, 309.2 189.6 L 308.5 189.4 Q 307.7 189.8, 307.4 190.4 Q 307.0 191.0, 307.0 191.7 Q 307.0 192.7, 307.7 193.2 Q 308.4 193.8, 309.5 193.8 " fill="#000000"/>
<path class="legend" d="M 321.1 184.8 L 315.2 184.8 L 315.2 183.5 L 322.7 183.5 L 322.7 184.6 L 318.2 194.8 L 316.6 194.8 L 321.1 184.8 " fill="#000000"/>
<path class="bond-0 atom-0 atom-1" d="M 502.7,78.6 L 502.7,87.6" style="fill:none;fill-rule:evenodd;stroke:#FF0000;stroke-width:2.0px;stroke-linecap:butt;stroke-linejoin:miter;stroke-opacity:1"/>
<path class="bond-0 atom-0 atom-1" d="M 502.7,87.6 L 502.7,96.6" style="fill:none;fill-rule:evenodd;stroke:#000000;stroke-width:2.0px;stroke-linecap:butt;stroke-linejoin:miter;stroke-opacity:1"/>
<path class="bond-0 atom-0 atom-1" d="M 499.6,78.6 L 499.6,87.6" style="fill:none;fill-rule:evenodd;stroke:#FF0000;stroke-width:2.0px;stroke-linecap:butt;stroke-linejoin:miter;stroke-opacity:1"/>
<path class="bond-0 atom-0 atom-1" d="M 499.6,87.6 L 499.6,96.6" style="fill:none;fill-rule:evenodd;stroke:#000000;stroke-width:2.0px;stroke-linecap:butt;stroke-linejoin:miter;stroke-opacity:1"/>
<path class="bond-1 atom-1 atom-2" d="M 501.1,95.7 L 508.7,100.1" style="fill:none;fill-rule:evenodd;stroke:#000000;stroke-width:2.0px;stroke-linecap:butt;stroke-linejoin:miter;stroke-opacity:1"/>
<path class="bond-1 atom-1 atom-2" d="M 508.7,100.1 L 516.3,104.5" style="fill:none;fill-rule:evenodd;stroke:#0000FF;stroke-width:2.0px;stroke-linecap:butt;stroke-linejoin:miter;stroke-opacity:1"/>
<path class="bond-2 atom-2 atom-3" d="M 522.2,104.5 L 529.8,100.1" style="fill:none;fill-rule:evenodd;stroke:#0000FF;stroke-width:2.0px;stroke-linecap:butt;stroke-linejoin:miter;stroke-opacity:1"/>
<path class="bond-2 atom-2 atom-3" d="M 529.8,100.1 L 537.4,95.7" style="fill:none;fill-rule:evenodd;stroke:#000000;stroke-width:2.0px;stroke-linecap:butt;stroke-linejoin:miter;stroke-opacity:1"/>
<path class="bond-3 atom-3 atom-4" d="M 537.4,95.7 L 555.5,106.2" style="fill:none;fill-rule:evenodd;stroke:#000000;stroke-width:2.0px;stroke-linecap:butt;stroke-linejoin:miter;stroke-opacity:1"/>
<path class="bond-3 atom-3 atom-4" d="M 540.5,93.9 L 555.5,102.6" style="fill:none;fill-rule:evenodd;stroke:#000000;stroke-width:2.0px;stroke-linecap:butt;stroke-linejoin:miter;stroke-opacity:1"/>
<path class="bond-4 atom-4 atom-5" d="M 555.5,106.2 L 573.6,95.7" style="fill:none;fill-rule:evenodd;stroke:#000000;stroke-width:2.0px;stroke-linecap:butt;stroke-linejoin:miter;stroke-opacity:1"/>
<path class="bond-5 atom-5 atom-6" d="M 573.6,95.7 L 573.6,74.8" style="fill:none;fill-rule:evenodd;stroke:#000000;stroke-width:2.0px;stroke-linecap:butt;stroke-linejoin:miter;stroke-opacity:1"/>
<path class="bond-5 atom-5 atom-6" d="M 570.5,93.9 L 570.5,76.6" style="fill:none;fill-rule:evenodd;stroke:#000000;stroke-width:2.0px;stroke-linecap:butt;stroke-linejoin:miter;stroke-opacity:1"/>
<path class="bond-6 atom-6 atom-7" d="M 573.6,74.8 L 555.5,64.3" style="fill:none;fill-rule:evenodd;stroke:#000000;stroke-width:2.0px;stroke-linecap:butt;stroke-linejoin:miter;stroke-opacity:1"/>
<path class="bond-7 atom-7 atom-8" d="M 555.5,64.3 L 537.4,74.8" style="fill:none;fill-rule:evenodd;stroke:#000000;stroke-width:2.0px;stroke-linecap:butt;stroke-linejoin:miter;stroke-opacity:1"/>
<path class="bond-7 atom-7 atom-8" d="M 555.5,68.0 L 540.5,76.6" style="fill:none;fill-rule:evenodd;stroke:#000000;stroke-width:2.0px;stroke-linecap:butt;stroke-linejoin:miter;stroke-opacity:1"/>
<path class="bond-8 atom-1 atom-9" d="M 501.1,95.7 L 493.5,100.1" style="fill:none;fill-rule:evenodd;stroke:#000000;stroke-width:2.0px;stroke-linecap:butt;stroke-linejoin:miter;stroke-opacity:1"/>
<path class="bond-8 atom-1 atom-9" d="M 493.5,100.1 L 485.9,104.5" style="fill:none;fill-rule:evenodd;stroke:#0000FF;stroke-width:2.0px;stroke-linecap:butt;stroke-linejoin:miter;stroke-opacity:1"/>
<path class="bond-9 atom-9 atom-10" d="M 480.1,104.5 L 472.5,100.1" style="fill:none;fill-rule:evenodd;stroke:#0000FF;stroke-width:2.0px;stroke-linecap:butt;stroke-linejoin:miter;stroke-opacity:1"/>
<path class="bond-9 atom-9 atom-10" d="M 472.5,100.1 L 464.9,95.7" style="fill:none;fill-rule:evenodd;stroke:#000000;stroke-width:2.0px;stroke-linecap:butt;stroke-linejoin:miter;stroke-opacity:1"/>
<path class="bond-10 atom-10 atom-11" d="M 464.9,95.7 L 464.9,74.8" style="fill:none;fill-rule:evenodd;stroke:#000000;stroke-width:2.0px;stroke-linecap:butt;stroke-linejoin:miter;stroke-opacity:1"/>
<path class="bond-10 atom-10 atom-11" d="M 461.7,93.9 L 461.7,76.6" style="fill:none;fill-rule:evenodd;stroke:#000000;stroke-width:2.0px;stroke-linecap:butt;stroke-linejoin:miter;stroke-opacity:1"/>
<path class="bond-11 atom-11 atom-12" d="M 464.9,74.8 L 446.8,64.3" style="fill:none;fill-rule:evenodd;stroke:#000000;stroke-width:2.0px;stroke-linecap:butt;stroke-linejoin:miter;stroke-opacity:1"/>
<path class="bond-12 atom-12 atom-13" d="M 446.8,64.3 L 428.6,74.8" style="fill:none;fill-rule:evenodd;stroke:#000000;stroke-width:2.0px;stroke-linecap:butt;stroke-linejoin:miter;stroke-opacity:1"/>
<path class="bond-12 atom-12 atom-13" d="M 446.8,68.0 L 431.8,76.6" style="fill:none;fill-rule:evenodd;stroke:#000000;stroke-width:2.0px;stroke-linecap:butt;stroke-linejoin:miter;stroke-opacity:1"/>
<path class="bond-13 atom-13 atom-14" d="M 428.6,74.8 L 428.6,83.4" style="fill:none;fill-rule:evenodd;stroke:#000000;stroke-width:2.0px;stroke-linecap:butt;stroke-linejoin:miter;stroke-opacity:1"/>
<path class="bond-13 atom-13 atom-14" d="M 428.6,83.4 L 428.6,92.1" style="fill:none;fill-rule:evenodd;stroke:#0000FF;stroke-width:2.0px;stroke-linecap:butt;stroke-linejoin:miter;stroke-opacity:1"/>
<path class="bond-14 atom-14 atom-15" d="M 431.6,97.4 L 439.2,101.8" style="fill:none;fill-rule:evenodd;stroke:#0000FF;stroke-width:2.0px;stroke-linecap:butt;stroke-linejoin:miter;stroke-opacity:1"/>
<path class="bond-14 atom-14 atom-15" d="M 439.2,101.8 L 446.8,106.2" style="fill:none;fill-rule:evenodd;stroke:#000000;stroke-width:2.0px;stroke-linecap:butt;stroke-linejoin:miter;stroke-opacity:1"/>
<path class="bond-14 atom-14 atom-15" d="M 433.2,94.7 L 440.0,98.6" style="fill:none;fill-rule:evenodd;stroke:#0000FF;stroke-width:2.0px;stroke-linecap:butt;stroke-linejoin:miter;stroke-opacity:1"/>
<path class="bond-14 atom-14 atom-15" d="M 440.0,98.6 L 446.8,102.6" style="fill:none;fill-rule:evenodd;stroke:#000000;stroke-width:2.0px;stroke-linecap:butt;stroke-linejoin:miter;stroke-opacity:1"/>
<path class="bond-15 atom-8 atom-3" d="M 537.4,74.8 L 537.4,95.7" style="fill:none;fill-rule:evenodd;stroke:#000000;stroke-width:2.0px;stroke-linecap:butt;stroke-linejoin:miter;stroke-opacity:1"/>
<path class="bond-16 atom-15 atom-10" d="M 446.8,106.2 L 464.9,95.7" style="fill:none;fill-rule:evenodd;stroke:#000000;stroke-width:2.0px;stroke-linecap:butt;stroke-linejoin:miter;stroke-opacity:1"/>
<path d="M 501.5,95.9 L 501.1,95.7 L 500.7,95.9" style="fill:none;stroke:#000000;stroke-width:2.0px;stroke-linecap:butt;stroke-linejoin:miter;stroke-opacity:1;"/>
<path d="M 554.6,105.7 L 555.5,106.2 L 556.4,105.7" style="fill:none;stroke:#000000;stroke-width:2.0px;stroke-linecap:butt;stroke-linejoin:miter;stroke-opacity:1;"/>
<path d="M 572.7,96.2 L 573.6,95.7 L 573.6,94.7" style="fill:none;stroke:#000000;stroke-width:2.0px;stroke-linecap:butt;stroke-linejoin:miter;stroke-opacity:1;"/>
<path d="M 573.6,75.8 L 573.6,74.8 L 572.7,74.3" style="fill:none;stroke:#000000;stroke-width:2.0px;stroke-linecap:butt;stroke-linejoin:miter;stroke-opacity:1;"/>
<path d="M 556.4,64.9 L 555.5,64.3 L 554.6,64.9" style="fill:none;stroke:#000000;stroke-width:2.0px;stroke-linecap:butt;stroke-linejoin:miter;stroke-opacity:1;"/>
<path d="M 538.3,74.3 L 537.4,74.8 L 537.4,75.8" style="fill:none;stroke:#000000;stroke-width:2.0px;stroke-linecap:butt;stroke-linejoin:miter;stroke-opacity:1;"/>
<path d="M 464.9,75.8 L 464.9,74.8 L 464.0,74.3" style="fill:none;stroke:#000000;stroke-width:2.0px;stroke-linecap:butt;stroke-linejoin:miter;stroke-opacity:1;"/>
<path d="M 447.7,64.9 L 446.8,64.3 L 445.9,64.9" style="fill:none;stroke:#000000;stroke-width:2.0px;stroke-linecap:butt;stroke-linejoin:miter;stroke-opacity:1;"/>
<path d="M 429.6,74.3 L 428.6,74.8 L 428.6,75.2" style="fill:none;stroke:#000000;stroke-width:2.0px;stroke-linecap:butt;stroke-linejoin:miter;stroke-opacity:1;"/>
<path d="M 446.4,106.0 L 446.8,106.2 L 447.7,105.7" style="fill:none;stroke:#000000;stroke-width:2.0px;stroke-linecap:butt;stroke-linejoin:miter;stroke-opacity:1;"/>
<path class="atom-0" d="M 498.4 74.8 Q 498.4 73.4, 499.1 72.6 Q 499.8 71.8, 501.1 71.8 Q 502.4 71.8, 503.1 72.6 Q 503.8 73.4, 503.8 74.8 Q 503.8 76.3, 503.1 77.1 Q 502.4 77.9, 501.1 77.9 Q 499.8 77.9, 499.1 77.1 Q 498.4 76.3, 498.4 74.8 M 501.1 77.2 Q 502.0 77.2, 502.5 76.6 Q 503.0 76.0, 503.0 74.8 Q 503.0 73.7, 502.5 73.1 Q 502.0 72.5, 501.1 72.5 Q 500.2 72.5, 499.7 73.1 Q 499.2 73.6, 499.2 74.8 Q 499.2 76.0, 499.7 76.6 Q 500.2 77.2, 501.1 77.2 " fill="#FF0000"/>
<path class="atom-2" d="M 517.9 103.2 L 519.9 106.4 Q 520.1 106.7, 520.4 107.2 Q 520.7 107.8, 520.7 107.8 L 520.7 103.2 L 521.5 103.2 L 521.5 109.1 L 520.7 109.1 L 518.6 105.7 Q 518.4 105.3, 518.1 104.9 Q 517.8 104.4, 517.8 104.2 L 517.8 109.1 L 517.0 109.1 L 517.0 103.2 L 517.9 103.2 " fill="#0000FF"/>
<path class="atom-2" d="M 516.9 109.7 L 517.7 109.7 L 517.7 112.3 L 520.8 112.3 L 520.8 109.7 L 521.6 109.7 L 521.6 115.7 L 520.8 115.7 L 520.8 112.9 L 517.7 112.9 L 517.7 115.7 L 516.9 115.7 L 516.9 109.7 " fill="#0000FF"/>
<path class="atom-9" d="M 481.7 103.2 L 483.6 106.4 Q 483.8 106.7, 484.1 107.2 Q 484.4 107.8, 484.5 107.8 L 484.5 103.2 L 485.3 103.2 L 485.3 109.1 L 484.4 109.1 L 482.4 105.7 Q 482.1 105.3, 481.9 104.9 Q 481.6 104.4, 481.5 104.2 L 481.5 109.1 L 480.8 109.1 L 480.8 103.2 L 481.7 103.2 " fill="#0000FF"/>
<path class="atom-9" d="M 480.7 109.7 L 481.5 109.7 L 481.5 112.3 L 484.5 112.3 L 484.5 109.7 L 485.3 109.7 L 485.3 115.7 L 484.5 115.7 L 484.5 112.9 L 481.5 112.9 L 481.5 115.7 L 480.7 115.7 L 480.7 109.7 " fill="#0000FF"/>
<path class="atom-14" d="M 427.3 92.8 L 429.3 95.9 Q 429.5 96.2, 429.8 96.8 Q 430.1 97.3, 430.1 97.4 L 430.1 92.8 L 430.9 92.8 L 430.9 98.7 L 430.1 98.7 L 428.0 95.3 Q 427.8 94.9, 427.5 94.4 Q 427.2 93.9, 427.2 93.8 L 427.2 98.7 L 426.4 98.7 L 426.4 92.8 L 427.3 92.8 " fill="#0000FF"/>
<path class="legend" d="M 479.3 190.6 L 476.6 186.6 L 478.3 186.6 L 480.3 189.4 L 482.3 186.6 L 483.9 186.6 L 481.1 190.6 L 484.1 194.8 L 482.3 194.8 L 480.2 191.7 L 478.0 194.8 L 476.3 194.8 L 479.3 190.6 " fill="#000000"/>
<path class="legend" d="M 489.2 195.0 Q 487.1 195.0, 486.1 193.4 Q 485.1 191.9, 485.1 189.2 Q 485.1 186.4, 486.1 184.9 Q 487.1 183.4, 489.2 183.4 Q 491.3 183.4, 492.3 184.9 Q 493.4 186.4, 493.4 189.2 Q 493.4 191.9, 492.3 193.4 Q 491.3 195.0, 489.2 195.0 M 489.2 193.7 Q 490.4 193.7, 491.1 192.6 Q 491.8 191.4, 491.8 189.2 Q 491.8 186.9, 491.1 185.8 Q 490.4 184.7, 489.2 184.7 Q 488.0 184.7, 487.3 185.8 Q 486.7 186.9, 486.7 189.2 Q 486.7 191.4, 487.3 192.6 Q 488.0 193.7, 489.2 193.7 " fill="#000000"/>
<path class="legend" d="M 502.6 191.0 L 503.9 191.0 L 503.9 192.2 L 502.6 192.2 L 502.6 194.8 L 501.1 194.8 L 501.1 192.2 L 495.2 192.2 L 495.2 191.2 L 500.2 183.5 L 502.6 183.5 L 502.6 191.0 M 497.1 191.0 L 501.1 191.0 L 501.1 184.5 L 497.1 191.0 " fill="#000000"/>
<path class="legend" d="M 511.0 188.9 Q 512.1 189.2, 512.6 189.9 Q 513.2 190.6, 513.2 191.7 Q 513.2 192.7, 512.7 193.4 Q 512.2 194.2, 511.3 194.6 Q 510.4 195.0, 509.3 195.0 Q 508.1 195.0, 507.2 194.6 Q 506.3 194.2, 505.6 193.3 L 506.5 192.4 Q 507.2 193.1, 507.8 193.4 Q 508.4 193.7, 509.3 193.7 Q 510.3 193.7, 510.9 193.2 Q 511.6 192.6, 511.6 191.7 Q 511.6 190.6, 510.9 190.1 Q 510.3 189.5, 508.9 189.5 L 508.1 189.5 L 508.1 188.4 L 508.8 188.4 Q 510.0 188.4, 510.7 187.8 Q 511.3 187.3, 511.3 186.3 Q 511.3 185.5, 510.8 185.1 Q 510.2 184.7, 509.3 184.7 Q 508.4 184.7, 507.8 185.0 Q 507.2 185.3, 506.8 186.2 L 505.6 185.6 Q 506.0 184.6, 507.0 184.0 Q 508.0 183.4, 509.3 183.4 Q 511.0 183.4, 512.0 184.2 Q 512.9 185.0, 512.9 186.3 Q 512.9 187.2, 512.4 187.8 Q 511.9 188.5, 511.0 188.9 " fill="#000000"/>
<path class="legend" d="M 522.3 191.0 L 523.7 191.0 L 523.7 192.2 L 522.3 192.2 L 522.3 194.8 L 520.8 194.8 L 520.8 192.2 L 514.9 192.2 L 514.9 191.2 L 519.9 183.5 L 522.3 183.5 L 522.3 191.0 M 516.8 191.0 L 520.8 191.0 L 520.8 184.5 L 516.8 191.0 " fill="#000000"/>
</svg>