<svg xmlns="http://www.w3.org/2000/svg" xmlns:rdkit="http://www.rdkit.org/xml" xmlns:xlink="http://www.w3.org/1999/xlink" version="1.1" baseProfile="full" xml:space="preserve" width="600px" height="200px" viewBox="0 0 600 200">
<!-- END OF HEADER -->
<rect style="opacity:1.0;fill:#FFFFFF;stroke:none" width="600.0" height="200.0" x="0.0" y="0.0"> </rect>
<path class="bond-0 atom-0 atom-1" d="M 16.5,102.8 L 26.5,106.2" style="fill:none;fill-rule:evenodd;stroke:#191919;stroke-width:2.0px;stroke-linecap:butt;stroke-linejoin:miter;stroke-opacity:1"/>
<path class="bond-0 atom-0 atom-1" d="M 26.5,106.2 L 36.4,109.5" style="fill:none;fill-rule:evenodd;stroke:#000000;stroke-width:2.0px;stroke-linecap:butt;stroke-linejoin:miter;stroke-opacity:1"/>
<path class="bond-1 atom-1 atom-2" d="M 36.4,109.5 L 53.2,94.8" style="fill:none;fill-rule:evenodd;stroke:#000000;stroke-width:2.0px;stroke-linecap:butt;stroke-linejoin:miter;stroke-opacity:1"/>
<path class="bond-2 atom-2 atom-3" d="M 55.0,95.4 L 53.2,86.0" style="fill:none;fill-rule:evenodd;stroke:#000000;stroke-width:2.0px;stroke-linecap:butt;stroke-linejoin:miter;stroke-opacity:1"/>
<path class="bond-2 atom-2 atom-3" d="M 53.2,86.0 L 51.3,76.7" style="fill:none;fill-rule:evenodd;stroke:#FF0000;stroke-width:2.0px;stroke-linecap:butt;stroke-linejoin:miter;stroke-opacity:1"/>
<path class="bond-2 atom-2 atom-3" d="M 51.7,96.1 L 49.9,86.7" style="fill:none;fill-rule:evenodd;stroke:#000000;stroke-width:2.0px;stroke-linecap:butt;stroke-linejoin:miter;stroke-opacity:1"/>
<path class="bond-2 atom-2 atom-3" d="M 49.9,86.7 L 48.0,77.3" style="fill:none;fill-rule:evenodd;stroke:#FF0000;stroke-width:2.0px;stroke-linecap:butt;stroke-linejoin:miter;stroke-opacity:1"/>
<path class="bond-3 atom-2 atom-4" d="M 53.2,94.8 L 62.2,97.9" style="fill:none;fill-rule:evenodd;stroke:#000000;stroke-width:2.0px;stroke-linecap:butt;stroke-linejoin:miter;stroke-opacity:1"/>
<path class="bond-3 atom-2 atom-4" d="M 62.2,97.9 L 71.2,100.9" style="fill:none;fill-rule:evenodd;stroke:#0000FF;stroke-width:2.0px;stroke-linecap:butt;stroke-linejoin:miter;stroke-opacity:1"/>
<path class="bond-4 atom-4 atom-5" d="M 77.5,99.2 L 84.3,93.2" style="fill:none;fill-rule:evenodd;stroke:#0000FF;stroke-width:2.0px;stroke-linecap:butt;stroke-linejoin:miter;stroke-opacity:1"/>
<path class="bond-4 atom-4 atom-5" d="M 84.3,93.2 L 91.1,87.3" style="fill:none;fill-rule:evenodd;stroke:#000000;stroke-width:2.0px;stroke-linecap:butt;stroke-linejoin:miter;stroke-opacity:1"/>
<path class="bond-5 atom-5 atom-6" d="M 91.1,87.3 L 86.7,65.4" style="fill:none;fill-rule:evenodd;stroke:#000000;stroke-width:2.0px;stroke-linecap:butt;stroke-linejoin:miter;stroke-opacity:1"/>
<path class="bond-5 atom-5 atom-6" d="M 94.0,84.7 L 90.4,66.6" style="fill:none;fill-rule:evenodd;stroke:#000000;stroke-width:2.0px;stroke-linecap:butt;stroke-linejoin:miter;stroke-opacity:1"/>
<path class="bond-6 atom-6 atom-7" d="M 86.7,65.4 L 103.5,50.7" style="fill:none;fill-rule:evenodd;stroke:#000000;stroke-width:2.0px;stroke-linecap:butt;stroke-linejoin:miter;stroke-opacity:1"/>
<path class="bond-7 atom-7 atom-8" d="M 103.5,50.7 L 124.6,57.8" style="fill:none;fill-rule:evenodd;stroke:#000000;stroke-width:2.0px;stroke-linecap:butt;stroke-linejoin:miter;stroke-opacity:1"/>
<path class="bond-7 atom-7 atom-8" d="M 104.2,54.5 L 121.7,60.4" style="fill:none;fill-rule:evenodd;stroke:#000000;stroke-width:2.0px;stroke-linecap:butt;stroke-linejoin:miter;stroke-opacity:1"/>
<path class="bond-8 atom-8 atom-9" d="M 124.6,57.8 L 129.0,79.7" style="fill:none;fill-rule:evenodd;stroke:#000000;stroke-width:2.0px;stroke-linecap:butt;stroke-linejoin:miter;stroke-opacity:1"/>
<path class="bond-9 atom-9 atom-10" d="M 129.0,79.7 L 138.0,82.7" style="fill:none;fill-rule:evenodd;stroke:#000000;stroke-width:2.0px;stroke-linecap:butt;stroke-linejoin:miter;stroke-opacity:1"/>
<path class="bond-9 atom-9 atom-10" d="M 138.0,82.7 L 147.0,85.8" style="fill:none;fill-rule:evenodd;stroke:#0000FF;stroke-width:2.0px;stroke-linecap:butt;stroke-linejoin:miter;stroke-opacity:1"/>
<path class="bond-10 atom-10 atom-11" d="M 153.2,84.6 L 160.8,79.3" style="fill:none;fill-rule:evenodd;stroke:#0000FF;stroke-width:2.0px;stroke-linecap:butt;stroke-linejoin:miter;stroke-opacity:1"/>
<path class="bond-10 atom-10 atom-11" d="M 160.8,79.3 L 168.3,74.0" style="fill:none;fill-rule:evenodd;stroke:#000000;stroke-width:2.0px;stroke-linecap:butt;stroke-linejoin:miter;stroke-opacity:1"/>
<path class="bond-11 atom-11 atom-12" d="M 168.3,74.0 L 186.2,87.3" style="fill:none;fill-rule:evenodd;stroke:#000000;stroke-width:2.0px;stroke-linecap:butt;stroke-linejoin:miter;stroke-opacity:1"/>
<path class="bond-12 atom-12 atom-13" d="M 186.2,87.3 L 179.0,108.4" style="fill:none;fill-rule:evenodd;stroke:#000000;stroke-width:2.0px;stroke-linecap:butt;stroke-linejoin:miter;stroke-opacity:1"/>
<path class="bond-13 atom-13 atom-14" d="M 179.0,108.4 L 156.7,108.2" style="fill:none;fill-rule:evenodd;stroke:#000000;stroke-width:2.0px;stroke-linecap:butt;stroke-linejoin:miter;stroke-opacity:1"/>
<path class="bond-14 atom-14 atom-15" d="M 156.1,106.2 L 150.5,113.6" style="fill:none;fill-rule:evenodd;stroke:#000000;stroke-width:2.0px;stroke-linecap:butt;stroke-linejoin:miter;stroke-opacity:1"/>
<path class="bond-14 atom-14 atom-15" d="M 150.5,113.6 L 145.0,121.1" style="fill:none;fill-rule:evenodd;stroke:#FF0000;stroke-width:2.0px;stroke-linecap:butt;stroke-linejoin:miter;stroke-opacity:1"/>
<path class="bond-14 atom-14 atom-15" d="M 158.8,108.2 L 153.2,115.6" style="fill:none;fill-rule:evenodd;stroke:#000000;stroke-width:2.0px;stroke-linecap:butt;stroke-linejoin:miter;stroke-opacity:1"/>
<path class="bond-14 atom-14 atom-15" d="M 153.2,115.6 L 147.7,123.1" style="fill:none;fill-rule:evenodd;stroke:#FF0000;stroke-width:2.0px;stroke-linecap:butt;stroke-linejoin:miter;stroke-opacity:1"/>
<path class="bond-15 atom-9 atom-16" d="M 129.0,79.7 L 112.2,94.4" style="fill:none;fill-rule:evenodd;stroke:#000000;stroke-width:2.0px;stroke-linecap:butt;stroke-linejoin:miter;stroke-opacity:1"/>
<path class="bond-15 atom-9 atom-16" d="M 125.3,78.5 L 111.5,90.6" style="fill:none;fill-rule:evenodd;stroke:#000000;stroke-width:2.0px;stroke-linecap:butt;stroke-linejoin:miter;stroke-opacity:1"/>
<path class="bond-16 atom-16 atom-5" d="M 112.2,94.4 L 91.1,87.3" style="fill:none;fill-rule:evenodd;stroke:#000000;stroke-width:2.0px;stroke-linecap:butt;stroke-linejoin:miter;stroke-opacity:1"/>
<path class="bond-17 atom-14 atom-10" d="M 156.7,108.2 L 154.0,99.5" style="fill:none;fill-rule:evenodd;stroke:#000000;stroke-width:2.0px;stroke-linecap:butt;stroke-linejoin:miter;stroke-opacity:1"/>
<path class="bond-17 atom-14 atom-10" d="M 154.0,99.5 L 151.3,90.8" style="fill:none;fill-rule:evenodd;stroke:#0000FF;stroke-width:2.0px;stroke-linecap:butt;stroke-linejoin:miter;stroke-opacity:1"/>
<path d="M 35.9,109.4 L 36.4,109.5 L 37.3,108.8" style="fill:none;stroke:#000000;stroke-width:2.0px;stroke-linecap:butt;stroke-linejoin:miter;stroke-opacity:1;"/>
<path d="M 52.4,95.6 L 53.2,94.8 L 53.6,95.0" style="fill:none;stroke:#000000;stroke-width:2.0px;stroke-linecap:butt;stroke-linejoin:miter;stroke-opacity:1;"/>
<path d="M 86.9,66.5 L 86.7,65.4 L 87.6,64.7" style="fill:none;stroke:#000000;stroke-width:2.0px;stroke-linecap:butt;stroke-linejoin:miter;stroke-opacity:1;"/>
<path d="M 102.6,51.4 L 103.5,50.7 L 104.5,51.0" style="fill:none;stroke:#000000;stroke-width:2.0px;stroke-linecap:butt;stroke-linejoin:miter;stroke-opacity:1;"/>
<path d="M 123.5,57.5 L 124.6,57.8 L 124.8,58.9" style="fill:none;stroke:#000000;stroke-width:2.0px;stroke-linecap:butt;stroke-linejoin:miter;stroke-opacity:1;"/>
<path d="M 167.9,74.2 L 168.3,74.0 L 169.2,74.6" style="fill:none;stroke:#000000;stroke-width:2.0px;stroke-linecap:butt;stroke-linejoin:miter;stroke-opacity:1;"/>
<path d="M 185.3,86.6 L 186.2,87.3 L 185.8,88.4" style="fill:none;stroke:#000000;stroke-width:2.0px;stroke-linecap:butt;stroke-linejoin:miter;stroke-opacity:1;"/>
<path d="M 179.4,107.4 L 179.0,108.4 L 177.9,108.4" style="fill:none;stroke:#000000;stroke-width:2.0px;stroke-linecap:butt;stroke-linejoin:miter;stroke-opacity:1;"/>
<path d="M 157.8,108.2 L 156.7,108.2 L 156.6,107.7" style="fill:none;stroke:#000000;stroke-width:2.0px;stroke-linecap:butt;stroke-linejoin:miter;stroke-opacity:1;"/>
<path d="M 113.0,93.7 L 112.2,94.4 L 111.2,94.1" style="fill:none;stroke:#000000;stroke-width:2.0px;stroke-linecap:butt;stroke-linejoin:miter;stroke-opacity:1;"/>
<path class="atom-0" d="M 14.1 101.7 L 15.1 100.7 L 13.8 100.5 L 14.0 99.9 L 15.1 100.4 L 15.0 99.2 L 15.6 99.2 L 15.5 100.4 L 16.6 99.9 L 16.8 100.5 L 15.6 100.7 L 16.5 101.7 L 15.9 102.1 L 15.3 100.9 L 14.7 102.1 L 14.1 101.7 " fill="#191919"/>
<path class="atom-3" d="M 45.9 73.0 Q 45.9 71.5, 46.7 70.6 Q 47.4 69.8, 48.8 69.8 Q 50.2 69.8, 51.0 70.6 Q 51.7 71.5, 51.7 73.0 Q 51.7 74.5, 51.0 75.4 Q 50.2 76.2, 48.8 76.2 Q 47.4 76.2, 46.7 75.4 Q 45.9 74.5, 45.9 73.0 M 48.8 75.5 Q 49.8 75.5, 50.3 74.9 Q 50.8 74.2, 50.8 73.0 Q 50.8 71.7, 50.3 71.1 Q 49.8 70.5, 48.8 70.5 Q 47.9 70.5, 47.3 71.1 Q 46.8 71.7, 46.8 73.0 Q 46.8 74.2, 47.3 74.9 Q 47.9 75.5, 48.8 75.5 " fill="#FF0000"/>
<path class="atom-4" d="M 72.9 98.8 L 75.0 102.2 Q 75.2 102.5, 75.5 103.1 Q 75.9 103.7, 75.9 103.7 L 75.9 98.8 L 76.7 98.8 L 76.7 105.1 L 75.9 105.1 L 73.6 101.5 Q 73.4 101.1, 73.1 100.6 Q 72.8 100.1, 72.7 99.9 L 72.7 105.1 L 71.9 105.1 L 71.9 98.8 L 72.9 98.8 " fill="#0000FF"/>
<path class="atom-4" d="M 71.9 105.8 L 72.7 105.8 L 72.7 108.5 L 75.9 108.5 L 75.9 105.8 L 76.8 105.8 L 76.8 112.1 L 75.9 112.1 L 75.9 109.2 L 72.7 109.2 L 72.7 112.1 L 71.9 112.1 L 71.9 105.8 " fill="#0000FF"/>
<path class="atom-10" d="M 148.7 83.7 L 150.8 87.0 Q 151.0 87.4, 151.3 88.0 Q 151.6 88.6, 151.7 88.6 L 151.7 83.7 L 152.5 83.7 L 152.5 90.0 L 151.6 90.0 L 149.4 86.4 Q 149.1 85.9, 148.9 85.4 Q 148.6 84.9, 148.5 84.8 L 148.5 90.0 L 147.7 90.0 L 147.7 83.7 L 148.7 83.7 " fill="#0000FF"/>
<path class="atom-15" d="M 140.5 126.1 Q 140.5 124.5, 141.2 123.7 Q 142.0 122.8, 143.4 122.8 Q 144.8 122.8, 145.5 123.7 Q 146.3 124.5, 146.3 126.1 Q 146.3 127.6, 145.5 128.5 Q 144.8 129.3, 143.4 129.3 Q 142.0 129.3, 141.2 128.5 Q 140.5 127.6, 140.5 126.1 M 143.4 128.6 Q 144.4 128.6, 144.9 128.0 Q 145.4 127.3, 145.4 126.1 Q 145.4 124.8, 144.9 124.2 Q 144.4 123.6, 143.4 123.6 Q 142.4 123.6, 141.9 124.2 Q 141.4 124.8, 141.4 126.1 Q 141.4 127.3, 141.9 128.0 Q 142.4 128.6, 143.4 128.6 " fill="#FF0000"/>
<path class="legend" d="M 80.6 190.6 L 77.8 186.6 L 79.5 186.6 L 81.5 189.4 L 83.5 186.6 L 85.1 186.6 L 82.3 190.6 L 85.4 194.8 L 83.6 194.8 L 81.4 191.7 L 79.2 194.8 L 77.6 194.8 L 80.6 190.6 " fill="#000000"/>
<path class="legend" d="M 86.9 193.6 L 89.4 193.6 L 89.4 185.1 L 86.6 185.9 L 86.3 185.0 L 89.7 183.4 L 90.9 183.6 L 90.9 193.6 L 93.1 193.6 L 93.1 194.8 L 86.9 194.8 L 86.9 193.6 " fill="#000000"/>
<path class="legend" d="M 100.0 188.9 Q 101.1 189.2, 101.6 189.9 Q 102.2 190.6, 102.2 191.7 Q 102.2 192.7, 101.7 193.4 Q 101.2 194.2, 100.3 194.6 Q 99.5 195.0, 98.3 195.0 Q 97.1 195.0, 96.2 194.6 Q 95.3 194.2, 94.6 193.3 L 95.5 192.4 Q 96.2 193.1, 96.8 193.4 Q 97.4 193.7, 98.3 193.7 Q 99.3 193.7, 100.0 193.2 Q 100.6 192.6, 100.6 191.7 Q 100.6 190.6, 99.9 190.1 Q 99.3 189.5, 97.9 189.5 L 97.1 189.5 L 97.1 188.4 L 97.8 188.4 Q 99.0 188.4, 99.7 187.8 Q 100.3 187.3, 100.3 186.3 Q 100.3 185.5, 99.8 185.1 Q 99.2 184.7, 98.3 184.7 Q 97.4 184.7, 96.8 185.0 Q 96.2 185.3, 95.8 186.2 L 94.7 185.6 Q 95.1 184.6, 96.0 184.0 Q 97.0 183.4, 98.3 183.4 Q 100.0 183.4, 101.0 184.2 Q 101.9 185.0, 101.9 186.3 Q 101.9 187.2, 101.4 187.8 Q 100.9 188.5, 100.0 188.9 " fill="#000000"/>
<path class="legend" d="M 109.7 188.8 Q 110.7 189.3, 111.3 190.0 Q 111.9 190.6, 111.9 191.7 Q 111.9 192.7, 111.4 193.4 Q 110.9 194.2, 110.0 194.6 Q 109.1 195.0, 108.0 195.0 Q 106.1 195.0, 105.0 194.1 Q 103.9 193.3, 103.9 191.7 Q 103.9 190.8, 104.4 190.1 Q 104.9 189.4, 105.9 188.9 Q 105.1 188.5, 104.7 187.9 Q 104.3 187.2, 104.3 186.3 Q 104.3 185.0, 105.3 184.2 Q 106.3 183.4, 107.9 183.4 Q 109.5 183.4, 110.5 184.2 Q 111.5 185.0, 111.5 186.3 Q 111.5 187.1, 111.0 187.7 Q 110.6 188.3, 109.7 188.8 M 107.9 184.6 Q 107.0 184.6, 106.4 185.0 Q 105.9 185.5, 105.9 186.3 Q 105.9 186.9, 106.3 187.3 Q 106.6 187.7, 107.1 187.9 Q 107.6 188.1, 108.6 188.4 Q 109.3 188.0, 109.6 187.4 Q 109.9 186.9, 109.9 186.3 Q 109.9 185.5, 109.4 185.0 Q 108.8 184.6, 107.9 184.6 M 108.0 193.8 Q 109.0 193.8, 109.7 193.2 Q 110.3 192.7, 110.3 191.7 Q 110.3 191.1, 110.0 190.7 Q 109.6 190.3, 109.1 190.1 Q 108.6 189.9, 107.7 189.6 L 107.0 189.4 Q 106.2 189.8, 105.9 190.4 Q 105.5 191.0, 105.5 191.7 Q 105.5 192.7, 106.2 193.2 Q 106.8 193.8, 108.0 193.8 " fill="#000000"/>
<path class="legend" d="M 121.0 191.0 L 122.4 191.0 L 122.4 192.2 L 121.0 192.2 L 121.0 194.8 L 119.5 194.8 L 119.5 192.2 L 113.7 192.2 L 113.7 191.2 L 118.6 183.5 L 121.0 183.5 L 121.0 191.0 M 115.5 191.0 L 119.5 191.0 L 119.5 184.5 L 115.5 191.0 " fill="#000000"/>
<path class="bond-0 atom-0 atom-1" d="M 212.8,74.8 L 222.8,74.4" style="fill:none;fill-rule:evenodd;stroke:#191919;stroke-width:2.0px;stroke-linecap:butt;stroke-linejoin:miter;stroke-opacity:1"/>
<path class="bond-0 atom-0 atom-1" d="M 222.8,74.4 L 232.9,74.0" style="fill:none;fill-rule:evenodd;stroke:#000000;stroke-width:2.0px;stroke-linecap:butt;stroke-linejoin:miter;stroke-opacity:1"/>
<path class="bond-1 atom-1 atom-2" d="M 232.9,74.0 L 244.7,92.9" style="fill:none;fill-rule:evenodd;stroke:#000000;stroke-width:2.0px;stroke-linecap:butt;stroke-linejoin:miter;stroke-opacity:1"/>
<path class="bond-2 atom-2 atom-3" d="M 243.7,91.3 L 239.3,99.6" style="fill:none;fill-rule:evenodd;stroke:#000000;stroke-width:2.0px;stroke-linecap:butt;stroke-linejoin:miter;stroke-opacity:1"/>
<path class="bond-2 atom-2 atom-3" d="M 239.3,99.6 L 234.9,107.9" style="fill:none;fill-rule:evenodd;stroke:#FF0000;stroke-width:2.0px;stroke-linecap:butt;stroke-linejoin:miter;stroke-opacity:1"/>
<path class="bond-2 atom-2 atom-3" d="M 246.7,92.8 L 242.3,101.2" style="fill:none;fill-rule:evenodd;stroke:#000000;stroke-width:2.0px;stroke-linecap:butt;stroke-linejoin:miter;stroke-opacity:1"/>
<path class="bond-2 atom-2 atom-3" d="M 242.3,101.2 L 237.9,109.5" style="fill:none;fill-rule:evenodd;stroke:#FF0000;stroke-width:2.0px;stroke-linecap:butt;stroke-linejoin:miter;stroke-opacity:1"/>
<path class="bond-3 atom-2 atom-4" d="M 244.7,92.9 L 254.3,92.6" style="fill:none;fill-rule:evenodd;stroke:#000000;stroke-width:2.0px;stroke-linecap:butt;stroke-linejoin:miter;stroke-opacity:1"/>
<path class="bond-3 atom-2 atom-4" d="M 254.3,92.6 L 263.9,92.2" style="fill:none;fill-rule:evenodd;stroke:#0000FF;stroke-width:2.0px;stroke-linecap:butt;stroke-linejoin:miter;stroke-opacity:1"/>
<path class="bond-4 atom-4 atom-5" d="M 269.1,88.2 L 273.3,80.3" style="fill:none;fill-rule:evenodd;stroke:#0000FF;stroke-width:2.0px;stroke-linecap:butt;stroke-linejoin:miter;stroke-opacity:1"/>
<path class="bond-4 atom-4 atom-5" d="M 273.3,80.3 L 277.4,72.4" style="fill:none;fill-rule:evenodd;stroke:#000000;stroke-width:2.0px;stroke-linecap:butt;stroke-linejoin:miter;stroke-opacity:1"/>
<path class="bond-5 atom-5 atom-6" d="M 277.4,72.4 L 299.7,71.5" style="fill:none;fill-rule:evenodd;stroke:#000000;stroke-width:2.0px;stroke-linecap:butt;stroke-linejoin:miter;stroke-opacity:1"/>
<path class="bond-6 atom-6 atom-7" d="M 299.7,71.5 L 304.5,79.0" style="fill:none;fill-rule:evenodd;stroke:#000000;stroke-width:2.0px;stroke-linecap:butt;stroke-linejoin:miter;stroke-opacity:1"/>
<path class="bond-6 atom-6 atom-7" d="M 304.5,79.0 L 309.2,86.5" style="fill:none;fill-rule:evenodd;stroke:#0000FF;stroke-width:2.0px;stroke-linecap:butt;stroke-linejoin:miter;stroke-opacity:1"/>
<path class="bond-7 atom-7 atom-8" d="M 314.7,90.3 L 322.9,90.0" style="fill:none;fill-rule:evenodd;stroke:#0000FF;stroke-width:2.0px;stroke-linecap:butt;stroke-linejoin:miter;stroke-opacity:1"/>
<path class="bond-7 atom-7 atom-8" d="M 322.9,90.0 L 331.1,89.6" style="fill:none;fill-rule:evenodd;stroke:#CCCC00;stroke-width:2.0px;stroke-linecap:butt;stroke-linejoin:miter;stroke-opacity:1"/>
<path class="bond-8 atom-8 atom-9" d="M 335.4,85.6 L 335.2,78.4" style="fill:none;fill-rule:evenodd;stroke:#CCCC00;stroke-width:2.0px;stroke-linecap:butt;stroke-linejoin:miter;stroke-opacity:1"/>
<path class="bond-8 atom-8 atom-9" d="M 335.2,78.4 L 334.9,71.2" style="fill:none;fill-rule:evenodd;stroke:#FF0000;stroke-width:2.0px;stroke-linecap:butt;stroke-linejoin:miter;stroke-opacity:1"/>
<path class="bond-8 atom-8 atom-9" d="M 332.1,85.7 L 331.8,78.5" style="fill:none;fill-rule:evenodd;stroke:#CCCC00;stroke-width:2.0px;stroke-linecap:butt;stroke-linejoin:miter;stroke-opacity:1"/>
<path class="bond-8 atom-8 atom-9" d="M 331.8,78.5 L 331.5,71.3" style="fill:none;fill-rule:evenodd;stroke:#FF0000;stroke-width:2.0px;stroke-linecap:butt;stroke-linejoin:miter;stroke-opacity:1"/>
<path class="bond-9 atom-8 atom-10" d="M 332.4,93.7 L 332.7,100.8" style="fill:none;fill-rule:evenodd;stroke:#CCCC00;stroke-width:2.0px;stroke-linecap:butt;stroke-linejoin:miter;stroke-opacity:1"/>
<path class="bond-9 atom-8 atom-10" d="M 332.7,100.8 L 332.9,108.0" style="fill:none;fill-rule:evenodd;stroke:#FF0000;stroke-width:2.0px;stroke-linecap:butt;stroke-linejoin:miter;stroke-opacity:1"/>
<path class="bond-9 atom-8 atom-10" d="M 335.7,93.5 L 336.0,100.7" style="fill:none;fill-rule:evenodd;stroke:#CCCC00;stroke-width:2.0px;stroke-linecap:butt;stroke-linejoin:miter;stroke-opacity:1"/>
<path class="bond-9 atom-8 atom-10" d="M 336.0,100.7 L 336.3,107.8" style="fill:none;fill-rule:evenodd;stroke:#FF0000;stroke-width:2.0px;stroke-linecap:butt;stroke-linejoin:miter;stroke-opacity:1"/>
<path class="bond-10 atom-8 atom-11" d="M 336.7,89.4 L 346.4,89.1" style="fill:none;fill-rule:evenodd;stroke:#CCCC00;stroke-width:2.0px;stroke-linecap:butt;stroke-linejoin:miter;stroke-opacity:1"/>
<path class="bond-10 atom-8 atom-11" d="M 346.4,89.1 L 356.2,88.7" style="fill:none;fill-rule:evenodd;stroke:#000000;stroke-width:2.0px;stroke-linecap:butt;stroke-linejoin:miter;stroke-opacity:1"/>
<path class="bond-11 atom-11 atom-12" d="M 356.2,88.7 L 368.6,70.2" style="fill:none;fill-rule:evenodd;stroke:#000000;stroke-width:2.0px;stroke-linecap:butt;stroke-linejoin:miter;stroke-opacity:1"/>
<path class="bond-11 atom-11 atom-12" d="M 360.3,88.5 L 370.0,74.1" style="fill:none;fill-rule:evenodd;stroke:#000000;stroke-width:2.0px;stroke-linecap:butt;stroke-linejoin:miter;stroke-opacity:1"/>
<path class="bond-12 atom-12 atom-13" d="M 368.6,70.2 L 390.1,76.3" style="fill:none;fill-rule:evenodd;stroke:#000000;stroke-width:2.0px;stroke-linecap:butt;stroke-linejoin:miter;stroke-opacity:1"/>
<path class="bond-13 atom-13 atom-14" d="M 390.1,76.3 L 390.9,98.5" style="fill:none;fill-rule:evenodd;stroke:#000000;stroke-width:2.0px;stroke-linecap:butt;stroke-linejoin:miter;stroke-opacity:1"/>
<path class="bond-13 atom-13 atom-14" d="M 386.8,78.8 L 387.5,96.2" style="fill:none;fill-rule:evenodd;stroke:#000000;stroke-width:2.0px;stroke-linecap:butt;stroke-linejoin:miter;stroke-opacity:1"/>
<path class="bond-14 atom-14 atom-15" d="M 390.9,98.5 L 381.8,101.9" style="fill:none;fill-rule:evenodd;stroke:#000000;stroke-width:2.0px;stroke-linecap:butt;stroke-linejoin:miter;stroke-opacity:1"/>
<path class="bond-14 atom-14 atom-15" d="M 381.8,101.9 L 372.7,105.2" style="fill:none;fill-rule:evenodd;stroke:#CCCC00;stroke-width:2.0px;stroke-linecap:butt;stroke-linejoin:miter;stroke-opacity:1"/>
<path class="bond-15 atom-7 atom-16" d="M 309.6,94.3 L 305.4,102.2" style="fill:none;fill-rule:evenodd;stroke:#0000FF;stroke-width:2.0px;stroke-linecap:butt;stroke-linejoin:miter;stroke-opacity:1"/>
<path class="bond-15 atom-7 atom-16" d="M 305.4,102.2 L 301.2,110.1" style="fill:none;fill-rule:evenodd;stroke:#000000;stroke-width:2.0px;stroke-linecap:butt;stroke-linejoin:miter;stroke-opacity:1"/>
<path class="bond-16 atom-16 atom-17" d="M 301.2,110.1 L 278.9,111.0" style="fill:none;fill-rule:evenodd;stroke:#000000;stroke-width:2.0px;stroke-linecap:butt;stroke-linejoin:miter;stroke-opacity:1"/>
<path class="bond-17 atom-17 atom-4" d="M 278.9,111.0 L 274.2,103.5" style="fill:none;fill-rule:evenodd;stroke:#000000;stroke-width:2.0px;stroke-linecap:butt;stroke-linejoin:miter;stroke-opacity:1"/>
<path class="bond-17 atom-17 atom-4" d="M 274.2,103.5 L 269.5,96.0" style="fill:none;fill-rule:evenodd;stroke:#0000FF;stroke-width:2.0px;stroke-linecap:butt;stroke-linejoin:miter;stroke-opacity:1"/>
<path class="bond-18 atom-15 atom-11" d="M 367.2,102.7 L 361.7,95.7" style="fill:none;fill-rule:evenodd;stroke:#CCCC00;stroke-width:2.0px;stroke-linecap:butt;stroke-linejoin:miter;stroke-opacity:1"/>
<path class="bond-18 atom-15 atom-11" d="M 361.7,95.7 L 356.2,88.7" style="fill:none;fill-rule:evenodd;stroke:#000000;stroke-width:2.0px;stroke-linecap:butt;stroke-linejoin:miter;stroke-opacity:1"/>
<path d="M 232.4,74.1 L 232.9,74.0 L 233.5,75.0" style="fill:none;stroke:#000000;stroke-width:2.0px;stroke-linecap:butt;stroke-linejoin:miter;stroke-opacity:1;"/>
<path d="M 244.2,92.0 L 244.7,92.9 L 245.2,92.9" style="fill:none;stroke:#000000;stroke-width:2.0px;stroke-linecap:butt;stroke-linejoin:miter;stroke-opacity:1;"/>
<path d="M 277.2,72.7 L 277.4,72.4 L 278.6,72.3" style="fill:none;stroke:#000000;stroke-width:2.0px;stroke-linecap:butt;stroke-linejoin:miter;stroke-opacity:1;"/>
<path d="M 298.6,71.6 L 299.7,71.5 L 300.0,71.9" style="fill:none;stroke:#000000;stroke-width:2.0px;stroke-linecap:butt;stroke-linejoin:miter;stroke-opacity:1;"/>
<path d="M 368.0,71.1 L 368.6,70.2 L 369.7,70.5" style="fill:none;stroke:#000000;stroke-width:2.0px;stroke-linecap:butt;stroke-linejoin:miter;stroke-opacity:1;"/>
<path d="M 389.0,76.0 L 390.1,76.3 L 390.1,77.4" style="fill:none;stroke:#000000;stroke-width:2.0px;stroke-linecap:butt;stroke-linejoin:miter;stroke-opacity:1;"/>
<path d="M 390.9,97.4 L 390.9,98.5 L 390.5,98.7" style="fill:none;stroke:#000000;stroke-width:2.0px;stroke-linecap:butt;stroke-linejoin:miter;stroke-opacity:1;"/>
<path d="M 301.4,109.7 L 301.2,110.1 L 300.1,110.2" style="fill:none;stroke:#000000;stroke-width:2.0px;stroke-linecap:butt;stroke-linejoin:miter;stroke-opacity:1;"/>
<path d="M 280.0,110.9 L 278.9,111.0 L 278.7,110.6" style="fill:none;stroke:#000000;stroke-width:2.0px;stroke-linecap:butt;stroke-linejoin:miter;stroke-opacity:1;"/>
<path class="atom-0" d="M 209.4 74.2 L 210.3 73.2 L 209.1 73.0 L 209.3 72.4 L 210.4 72.9 L 210.3 71.7 L 210.9 71.7 L 210.7 72.9 L 211.9 72.4 L 212.1 73.0 L 210.8 73.2 L 211.7 74.2 L 211.2 74.6 L 210.6 73.4 L 209.9 74.6 L 209.4 74.2 " fill="#191919"/>
<path class="atom-3" d="M 231.4 112.7 Q 231.4 111.1, 232.2 110.3 Q 232.9 109.5, 234.3 109.5 Q 235.7 109.5, 236.5 110.3 Q 237.2 111.1, 237.2 112.7 Q 237.2 114.2, 236.5 115.1 Q 235.7 115.9, 234.3 115.9 Q 232.9 115.9, 232.2 115.1 Q 231.4 114.2, 231.4 112.7 M 234.3 115.2 Q 235.3 115.2, 235.8 114.6 Q 236.3 113.9, 236.3 112.7 Q 236.3 111.4, 235.8 110.8 Q 235.3 110.2, 234.3 110.2 Q 233.4 110.2, 232.8 110.8 Q 232.3 111.4, 232.3 112.7 Q 232.3 113.9, 232.8 114.6 Q 233.4 115.2, 234.3 115.2 " fill="#FF0000"/>
<path class="atom-4" d="M 265.6 88.9 L 267.7 92.3 Q 267.9 92.6, 268.2 93.2 Q 268.6 93.8, 268.6 93.8 L 268.6 88.9 L 269.4 88.9 L 269.4 95.2 L 268.6 95.2 L 266.3 91.6 Q 266.1 91.1, 265.8 90.7 Q 265.5 90.2, 265.5 90.0 L 265.5 95.2 L 264.6 95.2 L 264.6 88.9 L 265.6 88.9 " fill="#0000FF"/>
<path class="atom-7" d="M 310.2 87.2 L 312.3 90.6 Q 312.5 90.9, 312.8 91.5 Q 313.2 92.1, 313.2 92.1 L 313.2 87.2 L 314.0 87.2 L 314.0 93.5 L 313.1 93.5 L 310.9 89.9 Q 310.7 89.5, 310.4 89.0 Q 310.1 88.5, 310.0 88.3 L 310.0 93.5 L 309.2 93.5 L 309.2 87.2 L 310.2 87.2 " fill="#0000FF"/>
<path class="atom-8" d="M 332.1 91.7 Q 332.2 91.7, 332.5 91.9 Q 332.8 92.0, 333.1 92.1 Q 333.4 92.1, 333.7 92.1 Q 334.3 92.1, 334.7 91.9 Q 335.0 91.6, 335.0 91.1 Q 335.0 90.7, 334.9 90.5 Q 334.7 90.3, 334.4 90.2 Q 334.2 90.0, 333.7 89.9 Q 333.2 89.7, 332.8 89.6 Q 332.5 89.4, 332.2 89.1 Q 332.0 88.7, 332.0 88.2 Q 332.0 87.4, 332.5 86.9 Q 333.1 86.4, 334.2 86.4 Q 334.9 86.4, 335.7 86.7 L 335.5 87.4 Q 334.8 87.1, 334.2 87.1 Q 333.6 87.1, 333.2 87.4 Q 332.9 87.6, 332.9 88.1 Q 332.9 88.4, 333.1 88.6 Q 333.2 88.8, 333.5 88.9 Q 333.8 89.0, 334.2 89.2 Q 334.8 89.4, 335.1 89.5 Q 335.4 89.7, 335.7 90.1 Q 335.9 90.4, 335.9 91.1 Q 335.9 91.9, 335.3 92.4 Q 334.8 92.9, 333.8 92.9 Q 333.2 92.9, 332.8 92.7 Q 332.4 92.6, 331.9 92.4 L 332.1 91.7 " fill="#CCCC00"/>
<path class="atom-9" d="M 330.2 67.3 Q 330.2 65.8, 330.9 64.9 Q 331.7 64.1, 333.1 64.1 Q 334.5 64.1, 335.2 64.9 Q 336.0 65.8, 336.0 67.3 Q 336.0 68.8, 335.2 69.7 Q 334.4 70.5, 333.1 70.5 Q 331.7 70.5, 330.9 69.7 Q 330.2 68.8, 330.2 67.3 M 333.1 69.8 Q 334.0 69.8, 334.5 69.2 Q 335.1 68.5, 335.1 67.3 Q 335.1 66.0, 334.5 65.4 Q 334.0 64.8, 333.1 64.8 Q 332.1 64.8, 331.6 65.4 Q 331.0 66.0, 331.0 67.3 Q 331.0 68.5, 331.6 69.2 Q 332.1 69.8, 333.1 69.8 " fill="#FF0000"/>
<path class="atom-10" d="M 331.8 111.8 Q 331.8 110.3, 332.6 109.5 Q 333.3 108.6, 334.7 108.6 Q 336.1 108.6, 336.9 109.5 Q 337.6 110.3, 337.6 111.8 Q 337.6 113.4, 336.9 114.3 Q 336.1 115.1, 334.7 115.1 Q 333.4 115.1, 332.6 114.3 Q 331.8 113.4, 331.8 111.8 M 334.7 114.4 Q 335.7 114.4, 336.2 113.8 Q 336.8 113.1, 336.8 111.8 Q 336.8 110.6, 336.2 110.0 Q 335.7 109.4, 334.7 109.4 Q 333.8 109.4, 333.3 110.0 Q 332.7 110.6, 332.7 111.8 Q 332.7 113.1, 333.3 113.8 Q 333.8 114.4, 334.7 114.4 " fill="#FF0000"/>
<path class="atom-15" d="M 368.2 108.4 Q 368.3 108.4, 368.6 108.6 Q 368.8 108.7, 369.2 108.8 Q 369.5 108.8, 369.8 108.8 Q 370.4 108.8, 370.8 108.5 Q 371.1 108.3, 371.1 107.7 Q 371.1 107.4, 370.9 107.2 Q 370.8 107.0, 370.5 106.8 Q 370.2 106.7, 369.8 106.6 Q 369.2 106.4, 368.9 106.3 Q 368.6 106.1, 368.3 105.8 Q 368.1 105.4, 368.1 104.9 Q 368.1 104.1, 368.6 103.6 Q 369.2 103.1, 370.2 103.1 Q 371.0 103.1, 371.8 103.4 L 371.6 104.1 Q 370.8 103.8, 370.3 103.8 Q 369.6 103.8, 369.3 104.1 Q 369.0 104.3, 369.0 104.8 Q 369.0 105.1, 369.1 105.3 Q 369.3 105.5, 369.6 105.6 Q 369.8 105.7, 370.3 105.9 Q 370.8 106.0, 371.2 106.2 Q 371.5 106.4, 371.7 106.8 Q 372.0 107.1, 372.0 107.7 Q 372.0 108.6, 371.4 109.1 Q 370.8 109.6, 369.9 109.6 Q 369.3 109.6, 368.9 109.4 Q 368.4 109.3, 367.9 109.1 L 368.2 108.4 " fill="#CCCC00"/>
<path class="legend" d="M 280.0 190.6 L 277.2 186.6 L 278.9 186.6 L 280.9 189.4 L 282.9 186.6 L 284.5 186.6 L 281.7 190.6 L 284.8 194.8 L 283.0 194.8 L 280.8 191.7 L 278.6 194.8 L 277.0 194.8 L 280.0 190.6 " fill="#000000"/>
<path class="legend" d="M 289.8 195.0 Q 287.8 195.0, 286.7 193.4 Q 285.7 191.9, 285.7 189.2 Q 285.7 186.4, 286.7 184.9 Q 287.7 183.4, 289.8 183.4 Q 291.9 183.4, 293.0 184.9 Q 294.0 186.4, 294.0 189.2 Q 294.0 191.9, 292.9 193.4 Q 291.9 195.0, 289.8 195.0 M 289.8 193.7 Q 291.1 193.7, 291.7 192.6 Q 292.4 191.4, 292.4 189.2 Q 292.4 186.9, 291.7 185.8 Q 291.1 184.7, 289.8 184.7 Q 288.6 184.7, 287.9 185.8 Q 287.3 186.9, 287.3 189.2 Q 287.3 191.4, 287.9 192.6 Q 288.6 193.7, 289.8 193.7 " fill="#000000"/>
<path class="legend" d="M 300.2 187.8 Q 301.2 187.8, 302.0 188.2 Q 302.8 188.6, 303.2 189.4 Q 303.7 190.2, 303.7 191.2 Q 303.7 192.3, 303.2 193.2 Q 302.7 194.0, 301.8 194.5 Q 301.0 195.0, 299.9 195.0 Q 297.8 195.0, 296.8 193.6 Q 295.8 192.2, 295.8 189.5 Q 295.8 186.5, 297.1 185.0 Q 298.3 183.4, 300.7 183.4 Q 301.4 183.4, 302.0 183.5 Q 302.6 183.7, 303.2 184.0 L 302.6 185.1 Q 301.8 184.7, 300.8 184.7 Q 299.2 184.7, 298.3 185.7 Q 297.5 186.7, 297.4 188.9 Q 298.0 188.3, 298.7 188.1 Q 299.5 187.8, 300.2 187.8 M 299.9 193.7 Q 300.5 193.7, 301.0 193.3 Q 301.5 193.0, 301.8 192.5 Q 302.1 191.9, 302.1 191.2 Q 302.1 190.2, 301.5 189.6 Q 301.0 189.0, 300.0 189.0 Q 299.3 189.0, 298.6 189.3 Q 297.9 189.6, 297.4 190.1 Q 297.5 192.0, 298.1 192.8 Q 298.7 193.7, 299.9 193.7 " fill="#000000"/>
<path class="legend" d="M 311.1 188.8 Q 312.2 189.3, 312.8 190.0 Q 313.3 190.6, 313.3 191.7 Q 313.3 192.7, 312.9 193.4 Q 312.4 194.2, 311.5 194.6 Q 310.6 195.0, 309.4 195.0 Q 307.5 195.0, 306.4 194.1 Q 305.3 193.3, 305.3 191.7 Q 305.3 190.8, 305.8 190.1 Q 306.3 189.4, 307.3 188.9 Q 306.6 188.5, 306.2 187.9 Q 305.8 187.2, 305.8 186.3 Q 305.8 185.0, 306.7 184.2 Q 307.7 183.4, 309.3 183.4 Q 311.0 183.4, 312.0 184.2 Q 312.9 185.0, 312.9 186.3 Q 312.9 187.1, 312.5 187.7 Q 312.0 188.3, 311.1 188.8 M 309.3 184.6 Q 308.4 184.6, 307.9 185.0 Q 307.4 185.5, 307.4 186.3 Q 307.4 186.9, 307.7 187.3 Q 308.1 187.7, 308.6 187.9 Q 309.1 188.1, 310.1 188.4 Q 310.7 188.0, 311.0 187.4 Q 311.3 186.9, 311.3 186.3 Q 311.3 185.5, 310.8 185.0 Q 310.3 184.6, 309.3 184.6 M 309.4 193.8 Q 310.5 193.8, 311.1 193.2 Q 311.7 192.7, 311.7 191.7 Q 311.7 191.1, 311.4 190.7 Q 311.1 190.3, 310.6 190.1 Q 310.1 189.9, 309.2 189.6 L 308.5 189.4 Q 307.7 189.8, 307.3 190.4 Q 306.9 191.0, 306.9 191.7 Q 306.9 192.7, 307.6 193.2 Q 308.3 193.8, 309.4 193.8 " fill="#000000"/>
<path class="legend" d="M 319.0 183.4 Q 321.0 183.4, 322.0 184.8 Q 323.0 186.1, 323.0 188.8 Q 323.0 191.8, 321.7 193.4 Q 320.5 195.0, 318.1 195.0 Q 317.4 195.0, 316.8 194.8 Q 316.2 194.6, 315.6 194.3 L 316.2 193.2 Q 317.1 193.7, 318.1 193.7 Q 319.7 193.7, 320.5 192.7 Q 321.3 191.6, 321.4 189.5 Q 320.8 190.0, 320.1 190.3 Q 319.4 190.6, 318.6 190.6 Q 317.6 190.6, 316.8 190.2 Q 316.0 189.7, 315.6 188.9 Q 315.2 188.2, 315.2 187.2 Q 315.2 186.1, 315.6 185.2 Q 316.1 184.3, 317.0 183.9 Q 317.9 183.4, 319.0 183.4 M 316.8 187.1 Q 316.8 188.2, 317.3 188.7 Q 317.9 189.3, 318.9 189.3 Q 319.6 189.3, 320.2 189.0 Q 320.9 188.7, 321.4 188.3 Q 321.3 186.4, 320.7 185.5 Q 320.1 184.7, 318.9 184.7 Q 318.3 184.7, 317.8 185.0 Q 317.3 185.3, 317.0 185.9 Q 316.8 186.5, 316.8 187.1 " fill="#000000"/>
</svg>