<svg xmlns="http://www.w3.org/2000/svg" xmlns:rdkit="http://www.rdkit.org/xml" xmlns:xlink="http://www.w3.org/1999/xlink" version="1.1" baseProfile="full" xml:space="preserve" width="600px" height="200px" viewBox="0 0 600 200">
<!-- END OF HEADER -->
<rect style="opacity:1.0;fill:#FFFFFF;stroke:none" width="600.0" height="200.0" x="0.0" y="0.0"> </rect>
<path class="bond-0 atom-0 atom-1" d="M 26.8,135.6 L 29.9,109.8" style="fill:none;fill-rule:evenodd;stroke:#000000;stroke-width:2.0px;stroke-linecap:butt;stroke-linejoin:miter;stroke-opacity:1"/>
<path class="bond-1 atom-1 atom-2" d="M 29.9,109.8 L 9.1,94.2" style="fill:none;fill-rule:evenodd;stroke:#000000;stroke-width:2.0px;stroke-linecap:butt;stroke-linejoin:miter;stroke-opacity:1"/>
<path class="bond-1 atom-1 atom-2" d="M 30.4,105.3 L 13.2,92.4" style="fill:none;fill-rule:evenodd;stroke:#000000;stroke-width:2.0px;stroke-linecap:butt;stroke-linejoin:miter;stroke-opacity:1"/>
<path class="bond-2 atom-2 atom-3" d="M 9.1,94.2 L 12.2,68.4" style="fill:none;fill-rule:evenodd;stroke:#000000;stroke-width:2.0px;stroke-linecap:butt;stroke-linejoin:miter;stroke-opacity:1"/>
<path class="bond-3 atom-3 atom-4" d="M 12.2,68.4 L 22.3,64.1" style="fill:none;fill-rule:evenodd;stroke:#000000;stroke-width:2.0px;stroke-linecap:butt;stroke-linejoin:miter;stroke-opacity:1"/>
<path class="bond-3 atom-3 atom-4" d="M 22.3,64.1 L 32.4,59.7" style="fill:none;fill-rule:evenodd;stroke:#0000FF;stroke-width:2.0px;stroke-linecap:butt;stroke-linejoin:miter;stroke-opacity:1"/>
<path class="bond-3 atom-3 atom-4" d="M 15.8,71.1 L 24.9,67.2" style="fill:none;fill-rule:evenodd;stroke:#000000;stroke-width:2.0px;stroke-linecap:butt;stroke-linejoin:miter;stroke-opacity:1"/>
<path class="bond-3 atom-3 atom-4" d="M 24.9,67.2 L 33.9,63.3" style="fill:none;fill-rule:evenodd;stroke:#0000FF;stroke-width:2.0px;stroke-linecap:butt;stroke-linejoin:miter;stroke-opacity:1"/>
<path class="bond-4 atom-4 atom-5" d="M 39.7,60.9 L 48.3,67.3" style="fill:none;fill-rule:evenodd;stroke:#0000FF;stroke-width:2.0px;stroke-linecap:butt;stroke-linejoin:miter;stroke-opacity:1"/>
<path class="bond-4 atom-4 atom-5" d="M 48.3,67.3 L 56.9,73.7" style="fill:none;fill-rule:evenodd;stroke:#000000;stroke-width:2.0px;stroke-linecap:butt;stroke-linejoin:miter;stroke-opacity:1"/>
<path class="bond-5 atom-5 atom-6" d="M 56.9,73.7 L 53.8,99.5" style="fill:none;fill-rule:evenodd;stroke:#000000;stroke-width:2.0px;stroke-linecap:butt;stroke-linejoin:miter;stroke-opacity:1"/>
<path class="bond-5 atom-5 atom-6" d="M 52.7,75.5 L 50.2,96.8" style="fill:none;fill-rule:evenodd;stroke:#000000;stroke-width:2.0px;stroke-linecap:butt;stroke-linejoin:miter;stroke-opacity:1"/>
<path class="bond-6 atom-6 atom-7" d="M 53.8,99.5 L 62.4,106.0" style="fill:none;fill-rule:evenodd;stroke:#000000;stroke-width:2.0px;stroke-linecap:butt;stroke-linejoin:miter;stroke-opacity:1"/>
<path class="bond-6 atom-6 atom-7" d="M 62.4,106.0 L 70.9,112.4" style="fill:none;fill-rule:evenodd;stroke:#0000FF;stroke-width:2.0px;stroke-linecap:butt;stroke-linejoin:miter;stroke-opacity:1"/>
<path class="bond-7 atom-7 atom-8" d="M 78.2,113.5 L 88.3,109.2" style="fill:none;fill-rule:evenodd;stroke:#0000FF;stroke-width:2.0px;stroke-linecap:butt;stroke-linejoin:miter;stroke-opacity:1"/>
<path class="bond-7 atom-7 atom-8" d="M 88.3,109.2 L 98.5,104.9" style="fill:none;fill-rule:evenodd;stroke:#000000;stroke-width:2.0px;stroke-linecap:butt;stroke-linejoin:miter;stroke-opacity:1"/>
<path class="bond-8 atom-8 atom-9" d="M 100.3,106.2 L 101.6,95.1" style="fill:none;fill-rule:evenodd;stroke:#000000;stroke-width:2.0px;stroke-linecap:butt;stroke-linejoin:miter;stroke-opacity:1"/>
<path class="bond-8 atom-8 atom-9" d="M 101.6,95.1 L 102.9,84.0" style="fill:none;fill-rule:evenodd;stroke:#FF0000;stroke-width:2.0px;stroke-linecap:butt;stroke-linejoin:miter;stroke-opacity:1"/>
<path class="bond-8 atom-8 atom-9" d="M 96.4,105.8 L 97.7,94.6" style="fill:none;fill-rule:evenodd;stroke:#000000;stroke-width:2.0px;stroke-linecap:butt;stroke-linejoin:miter;stroke-opacity:1"/>
<path class="bond-8 atom-8 atom-9" d="M 97.7,94.6 L 99.0,83.5" style="fill:none;fill-rule:evenodd;stroke:#FF0000;stroke-width:2.0px;stroke-linecap:butt;stroke-linejoin:miter;stroke-opacity:1"/>
<path class="bond-9 atom-8 atom-10" d="M 98.5,104.9 L 119.3,120.4" style="fill:none;fill-rule:evenodd;stroke:#000000;stroke-width:2.0px;stroke-linecap:butt;stroke-linejoin:miter;stroke-opacity:1"/>
<path class="bond-10 atom-10 atom-11" d="M 119.3,120.4 L 143.1,110.2" style="fill:none;fill-rule:evenodd;stroke:#000000;stroke-width:2.0px;stroke-linecap:butt;stroke-linejoin:miter;stroke-opacity:1"/>
<path class="bond-11 atom-11 atom-12" d="M 143.1,110.2 L 163.9,125.8" style="fill:none;fill-rule:evenodd;stroke:#000000;stroke-width:2.0px;stroke-linecap:butt;stroke-linejoin:miter;stroke-opacity:1"/>
<path class="bond-11 atom-11 atom-12" d="M 147.3,108.4 L 164.5,121.3" style="fill:none;fill-rule:evenodd;stroke:#000000;stroke-width:2.0px;stroke-linecap:butt;stroke-linejoin:miter;stroke-opacity:1"/>
<path class="bond-12 atom-12 atom-13" d="M 163.9,125.8 L 174.1,121.4" style="fill:none;fill-rule:evenodd;stroke:#000000;stroke-width:2.0px;stroke-linecap:butt;stroke-linejoin:miter;stroke-opacity:1"/>
<path class="bond-12 atom-12 atom-13" d="M 174.1,121.4 L 184.2,117.1" style="fill:none;fill-rule:evenodd;stroke:#0000FF;stroke-width:2.0px;stroke-linecap:butt;stroke-linejoin:miter;stroke-opacity:1"/>
<path class="bond-13 atom-13 atom-14" d="M 188.4,111.0 L 189.6,100.4" style="fill:none;fill-rule:evenodd;stroke:#0000FF;stroke-width:2.0px;stroke-linecap:butt;stroke-linejoin:miter;stroke-opacity:1"/>
<path class="bond-13 atom-13 atom-14" d="M 189.6,100.4 L 190.9,89.8" style="fill:none;fill-rule:evenodd;stroke:#000000;stroke-width:2.0px;stroke-linecap:butt;stroke-linejoin:miter;stroke-opacity:1"/>
<path class="bond-13 atom-13 atom-14" d="M 184.5,110.6 L 185.6,101.0" style="fill:none;fill-rule:evenodd;stroke:#0000FF;stroke-width:2.0px;stroke-linecap:butt;stroke-linejoin:miter;stroke-opacity:1"/>
<path class="bond-13 atom-13 atom-14" d="M 185.6,101.0 L 186.8,91.5" style="fill:none;fill-rule:evenodd;stroke:#000000;stroke-width:2.0px;stroke-linecap:butt;stroke-linejoin:miter;stroke-opacity:1"/>
<path class="bond-14 atom-14 atom-15" d="M 190.9,89.8 L 170.1,74.2" style="fill:none;fill-rule:evenodd;stroke:#000000;stroke-width:2.0px;stroke-linecap:butt;stroke-linejoin:miter;stroke-opacity:1"/>
<path class="bond-15 atom-15 atom-16" d="M 170.1,74.2 L 171.4,63.7" style="fill:none;fill-rule:evenodd;stroke:#000000;stroke-width:2.0px;stroke-linecap:butt;stroke-linejoin:miter;stroke-opacity:1"/>
<path class="bond-15 atom-15 atom-16" d="M 171.4,63.7 L 172.6,53.3" style="fill:none;fill-rule:evenodd;stroke:#00CC00;stroke-width:2.0px;stroke-linecap:butt;stroke-linejoin:miter;stroke-opacity:1"/>
<path class="bond-16 atom-15 atom-17" d="M 170.1,74.2 L 146.2,84.4" style="fill:none;fill-rule:evenodd;stroke:#000000;stroke-width:2.0px;stroke-linecap:butt;stroke-linejoin:miter;stroke-opacity:1"/>
<path class="bond-16 atom-15 atom-17" d="M 169.6,78.7 L 149.8,87.1" style="fill:none;fill-rule:evenodd;stroke:#000000;stroke-width:2.0px;stroke-linecap:butt;stroke-linejoin:miter;stroke-opacity:1"/>
<path class="bond-17 atom-6 atom-1" d="M 53.8,99.5 L 29.9,109.8" style="fill:none;fill-rule:evenodd;stroke:#000000;stroke-width:2.0px;stroke-linecap:butt;stroke-linejoin:miter;stroke-opacity:1"/>
<path class="bond-18 atom-17 atom-11" d="M 146.2,84.4 L 143.1,110.2" style="fill:none;fill-rule:evenodd;stroke:#000000;stroke-width:2.0px;stroke-linecap:butt;stroke-linejoin:miter;stroke-opacity:1"/>
<path d="M 10.1,95.0 L 9.1,94.2 L 9.2,92.9" style="fill:none;stroke:#000000;stroke-width:2.0px;stroke-linecap:butt;stroke-linejoin:miter;stroke-opacity:1;"/>
<path d="M 12.0,69.7 L 12.2,68.4 L 12.7,68.2" style="fill:none;stroke:#000000;stroke-width:2.0px;stroke-linecap:butt;stroke-linejoin:miter;stroke-opacity:1;"/>
<path d="M 56.4,73.4 L 56.9,73.7 L 56.7,75.0" style="fill:none;stroke:#000000;stroke-width:2.0px;stroke-linecap:butt;stroke-linejoin:miter;stroke-opacity:1;"/>
<path d="M 98.0,105.1 L 98.5,104.9 L 99.5,105.6" style="fill:none;stroke:#000000;stroke-width:2.0px;stroke-linecap:butt;stroke-linejoin:miter;stroke-opacity:1;"/>
<path d="M 118.2,119.7 L 119.3,120.4 L 120.5,119.9" style="fill:none;stroke:#000000;stroke-width:2.0px;stroke-linecap:butt;stroke-linejoin:miter;stroke-opacity:1;"/>
<path d="M 162.9,125.0 L 163.9,125.8 L 164.4,125.6" style="fill:none;stroke:#000000;stroke-width:2.0px;stroke-linecap:butt;stroke-linejoin:miter;stroke-opacity:1;"/>
<path d="M 190.8,90.3 L 190.9,89.8 L 189.9,89.0" style="fill:none;stroke:#000000;stroke-width:2.0px;stroke-linecap:butt;stroke-linejoin:miter;stroke-opacity:1;"/>
<path d="M 147.4,83.9 L 146.2,84.4 L 146.1,85.7" style="fill:none;stroke:#000000;stroke-width:2.0px;stroke-linecap:butt;stroke-linejoin:miter;stroke-opacity:1;"/>
<path class="atom-4" d="M 34.4 54.5 L 36.8 58.4 Q 37.1 58.8, 37.5 59.5 Q 37.8 60.2, 37.9 60.2 L 37.9 54.5 L 38.8 54.5 L 38.8 61.8 L 37.8 61.8 L 35.3 57.6 Q 35.0 57.1, 34.6 56.5 Q 34.3 55.9, 34.2 55.8 L 34.2 61.8 L 33.3 61.8 L 33.3 54.5 L 34.4 54.5 " fill="#0000FF"/>
<path class="atom-7" d="M 72.9 111.4 L 75.4 115.3 Q 75.6 115.7, 76.0 116.4 Q 76.4 117.1, 76.4 117.1 L 76.4 111.4 L 77.4 111.4 L 77.4 118.8 L 76.4 118.8 L 73.8 114.5 Q 73.5 114.0, 73.1 113.4 Q 72.8 112.9, 72.7 112.7 L 72.7 118.8 L 71.8 118.8 L 71.8 111.4 L 72.9 111.4 " fill="#0000FF"/>
<path class="atom-7" d="M 71.7 119.5 L 72.7 119.5 L 72.7 122.6 L 76.5 122.6 L 76.5 119.5 L 77.5 119.5 L 77.5 126.9 L 76.5 126.9 L 76.5 123.5 L 72.7 123.5 L 72.7 126.9 L 71.7 126.9 L 71.7 119.5 " fill="#0000FF"/>
<path class="atom-9" d="M 98.2 79.1 Q 98.2 77.3, 99.0 76.3 Q 99.9 75.4, 101.5 75.4 Q 103.2 75.4, 104.0 76.3 Q 104.9 77.3, 104.9 79.1 Q 104.9 80.9, 104.0 81.9 Q 103.2 82.9, 101.5 82.9 Q 99.9 82.9, 99.0 81.9 Q 98.2 80.9, 98.2 79.1 M 101.5 82.1 Q 102.7 82.1, 103.3 81.3 Q 103.9 80.6, 103.9 79.1 Q 103.9 77.6, 103.3 76.9 Q 102.7 76.2, 101.5 76.2 Q 100.4 76.2, 99.8 76.9 Q 99.2 77.6, 99.2 79.1 Q 99.2 80.6, 99.8 81.3 Q 100.4 82.1, 101.5 82.1 " fill="#FF0000"/>
<path class="atom-13" d="M 186.2 111.9 L 188.6 115.8 Q 188.8 116.2, 189.2 116.8 Q 189.6 117.5, 189.6 117.6 L 189.6 111.9 L 190.6 111.9 L 190.6 119.2 L 189.6 119.2 L 187.0 115.0 Q 186.7 114.5, 186.4 113.9 Q 186.1 113.3, 186.0 113.1 L 186.0 119.2 L 185.0 119.2 L 185.0 111.9 L 186.2 111.9 " fill="#0000FF"/>
<path class="atom-16" d="M 170.4 48.6 Q 170.4 46.8, 171.2 45.9 Q 172.1 44.9, 173.7 44.9 Q 175.2 44.9, 176.0 46.0 L 175.3 46.5 Q 174.8 45.7, 173.7 45.7 Q 172.6 45.7, 172.0 46.5 Q 171.4 47.2, 171.4 48.6 Q 171.4 50.1, 172.0 50.8 Q 172.6 51.6, 173.8 51.6 Q 174.6 51.6, 175.6 51.1 L 175.9 51.9 Q 175.5 52.1, 174.9 52.3 Q 174.3 52.4, 173.7 52.4 Q 172.1 52.4, 171.2 51.4 Q 170.4 50.5, 170.4 48.6 " fill="#00CC00"/>
<path class="atom-16" d="M 176.8 44.4 L 177.7 44.4 L 177.7 52.3 L 176.8 52.3 L 176.8 44.4 " fill="#00CC00"/>
<path class="legend" d="M 76.6 190.6 L 73.8 186.6 L 75.6 186.6 L 77.6 189.4 L 79.5 186.6 L 81.2 186.6 L 78.4 190.6 L 81.4 194.8 L 79.6 194.8 L 77.4 191.7 L 75.3 194.8 L 73.6 194.8 L 76.6 190.6 " fill="#000000"/>
<path class="legend" d="M 82.9 193.6 L 85.4 193.6 L 85.4 185.1 L 82.7 185.9 L 82.3 185.0 L 85.8 183.4 L 86.9 183.6 L 86.9 193.6 L 89.1 193.6 L 89.1 194.8 L 82.9 194.8 L 82.9 193.6 " fill="#000000"/>
<path class="legend" d="M 94.7 195.0 Q 92.6 195.0, 91.6 193.4 Q 90.6 191.9, 90.6 189.2 Q 90.6 186.4, 91.6 184.9 Q 92.6 183.4, 94.7 183.4 Q 96.8 183.4, 97.8 184.9 Q 98.9 186.4, 98.9 189.2 Q 98.9 191.9, 97.8 193.4 Q 96.8 195.0, 94.7 195.0 M 94.7 193.7 Q 95.9 193.7, 96.6 192.6 Q 97.3 191.4, 97.3 189.2 Q 97.3 186.9, 96.6 185.8 Q 95.9 184.7, 94.7 184.7 Q 93.5 184.7, 92.8 185.8 Q 92.2 186.9, 92.2 189.2 Q 92.2 191.4, 92.8 192.6 Q 93.5 193.7, 94.7 193.7 " fill="#000000"/>
<path class="legend" d="M 106.6 184.8 L 100.7 184.8 L 100.7 183.5 L 108.2 183.5 L 108.2 184.6 L 103.6 194.8 L 102.1 194.8 L 106.6 184.8 " fill="#000000"/>
<path class="legend" d="M 109.4 185.7 Q 109.8 184.6, 110.8 184.0 Q 111.8 183.4, 113.2 183.4 Q 114.9 183.4, 115.9 184.3 Q 116.8 185.2, 116.8 186.9 Q 116.8 188.6, 115.6 190.1 Q 114.4 191.7, 111.8 193.6 L 117.0 193.6 L 117.0 194.8 L 109.4 194.8 L 109.4 193.8 Q 111.5 192.3, 112.8 191.1 Q 114.0 190.0, 114.6 189.0 Q 115.2 188.0, 115.2 187.0 Q 115.2 185.9, 114.7 185.3 Q 114.1 184.7, 113.2 184.7 Q 112.3 184.7, 111.7 185.0 Q 111.1 185.4, 110.6 186.2 L 109.4 185.7 " fill="#000000"/>
<path class="legend" d="M 124.2 188.9 Q 125.3 189.2, 125.8 189.9 Q 126.4 190.6, 126.4 191.7 Q 126.4 192.7, 125.9 193.4 Q 125.4 194.2, 124.5 194.6 Q 123.6 195.0, 122.5 195.0 Q 121.3 195.0, 120.4 194.6 Q 119.5 194.2, 118.8 193.3 L 119.7 192.4 Q 120.4 193.1, 121.0 193.4 Q 121.5 193.7, 122.5 193.7 Q 123.5 193.7, 124.1 193.2 Q 124.8 192.6, 124.8 191.7 Q 124.8 190.6, 124.1 190.1 Q 123.5 189.5, 122.1 189.5 L 121.3 189.5 L 121.3 188.4 L 122.0 188.4 Q 123.2 188.4, 123.9 187.8 Q 124.5 187.3, 124.5 186.3 Q 124.5 185.5, 124.0 185.1 Q 123.4 184.7, 122.5 184.7 Q 121.6 184.7, 121.0 185.0 Q 120.4 185.3, 120.0 186.2 L 118.8 185.6 Q 119.2 184.6, 120.2 184.0 Q 121.2 183.4, 122.5 183.4 Q 124.2 183.4, 125.2 184.2 Q 126.1 185.0, 126.1 186.3 Q 126.1 187.2, 125.6 187.8 Q 125.1 188.5, 124.2 188.9 " fill="#000000"/>
<path class="bond-0 atom-0 atom-1" d="M 231.6,105.8 L 241.3,101.5" style="fill:none;fill-rule:evenodd;stroke:#FF0000;stroke-width:2.0px;stroke-linecap:butt;stroke-linejoin:miter;stroke-opacity:1"/>
<path class="bond-0 atom-0 atom-1" d="M 241.3,101.5 L 251.1,97.2" style="fill:none;fill-rule:evenodd;stroke:#000000;stroke-width:2.0px;stroke-linecap:butt;stroke-linejoin:miter;stroke-opacity:1"/>
<path class="bond-1 atom-1 atom-2" d="M 251.1,97.2 L 253.9,71.3" style="fill:none;fill-rule:evenodd;stroke:#000000;stroke-width:2.0px;stroke-linecap:butt;stroke-linejoin:miter;stroke-opacity:1"/>
<path class="bond-2 atom-2 atom-3" d="M 253.9,71.3 L 277.7,60.9" style="fill:none;fill-rule:evenodd;stroke:#000000;stroke-width:2.0px;stroke-linecap:butt;stroke-linejoin:miter;stroke-opacity:1"/>
<path class="bond-3 atom-3 atom-4" d="M 277.7,60.9 L 286.4,67.2" style="fill:none;fill-rule:evenodd;stroke:#000000;stroke-width:2.0px;stroke-linecap:butt;stroke-linejoin:miter;stroke-opacity:1"/>
<path class="bond-3 atom-3 atom-4" d="M 286.4,67.2 L 295.0,73.6" style="fill:none;fill-rule:evenodd;stroke:#0000FF;stroke-width:2.0px;stroke-linecap:butt;stroke-linejoin:miter;stroke-opacity:1"/>
<path class="bond-4 atom-4 atom-5" d="M 302.3,74.6 L 312.4,70.2" style="fill:none;fill-rule:evenodd;stroke:#0000FF;stroke-width:2.0px;stroke-linecap:butt;stroke-linejoin:miter;stroke-opacity:1"/>
<path class="bond-4 atom-4 atom-5" d="M 312.4,70.2 L 322.4,65.8" style="fill:none;fill-rule:evenodd;stroke:#000000;stroke-width:2.0px;stroke-linecap:butt;stroke-linejoin:miter;stroke-opacity:1"/>
<path class="bond-5 atom-5 atom-6" d="M 322.4,65.8 L 343.4,81.1" style="fill:none;fill-rule:evenodd;stroke:#000000;stroke-width:2.0px;stroke-linecap:butt;stroke-linejoin:miter;stroke-opacity:1"/>
<path class="bond-6 atom-6 atom-7" d="M 343.4,81.1 L 368.1,73.2" style="fill:none;fill-rule:evenodd;stroke:#000000;stroke-width:2.0px;stroke-linecap:butt;stroke-linejoin:miter;stroke-opacity:1"/>
<path class="bond-7 atom-7 atom-8" d="M 368.1,73.2 L 383.3,94.3" style="fill:none;fill-rule:evenodd;stroke:#000000;stroke-width:2.0px;stroke-linecap:butt;stroke-linejoin:miter;stroke-opacity:1"/>
<path class="bond-7 atom-7 atom-8" d="M 366.6,77.8 L 378.5,94.3" style="fill:none;fill-rule:evenodd;stroke:#000000;stroke-width:2.0px;stroke-linecap:butt;stroke-linejoin:miter;stroke-opacity:1"/>
<path class="bond-8 atom-8 atom-9" d="M 383.3,94.3 L 377.3,102.6" style="fill:none;fill-rule:evenodd;stroke:#000000;stroke-width:2.0px;stroke-linecap:butt;stroke-linejoin:miter;stroke-opacity:1"/>
<path class="bond-8 atom-8 atom-9" d="M 377.3,102.6 L 371.2,110.9" style="fill:none;fill-rule:evenodd;stroke:#CCCC00;stroke-width:2.0px;stroke-linecap:butt;stroke-linejoin:miter;stroke-opacity:1"/>
<path class="bond-9 atom-9 atom-10" d="M 364.7,114.2 L 354.0,110.7" style="fill:none;fill-rule:evenodd;stroke:#CCCC00;stroke-width:2.0px;stroke-linecap:butt;stroke-linejoin:miter;stroke-opacity:1"/>
<path class="bond-9 atom-9 atom-10" d="M 354.0,110.7 L 343.3,107.1" style="fill:none;fill-rule:evenodd;stroke:#000000;stroke-width:2.0px;stroke-linecap:butt;stroke-linejoin:miter;stroke-opacity:1"/>
<path class="bond-10 atom-4 atom-11" d="M 298.2,80.8 L 297.0,91.4" style="fill:none;fill-rule:evenodd;stroke:#0000FF;stroke-width:2.0px;stroke-linecap:butt;stroke-linejoin:miter;stroke-opacity:1"/>
<path class="bond-10 atom-4 atom-11" d="M 297.0,91.4 L 295.8,102.1" style="fill:none;fill-rule:evenodd;stroke:#000000;stroke-width:2.0px;stroke-linecap:butt;stroke-linejoin:miter;stroke-opacity:1"/>
<path class="bond-11 atom-11 atom-12" d="M 295.8,102.1 L 272.1,112.5" style="fill:none;fill-rule:evenodd;stroke:#000000;stroke-width:2.0px;stroke-linecap:butt;stroke-linejoin:miter;stroke-opacity:1"/>
<path class="bond-12 atom-12 atom-1" d="M 272.1,112.5 L 251.1,97.2" style="fill:none;fill-rule:evenodd;stroke:#000000;stroke-width:2.0px;stroke-linecap:butt;stroke-linejoin:miter;stroke-opacity:1"/>
<path class="bond-13 atom-10 atom-6" d="M 343.3,107.1 L 343.4,81.1" style="fill:none;fill-rule:evenodd;stroke:#000000;stroke-width:2.0px;stroke-linecap:butt;stroke-linejoin:miter;stroke-opacity:1"/>
<path class="bond-13 atom-10 atom-6" d="M 347.2,104.3 L 347.3,84.0" style="fill:none;fill-rule:evenodd;stroke:#000000;stroke-width:2.0px;stroke-linecap:butt;stroke-linejoin:miter;stroke-opacity:1"/>
<path d="M 253.8,72.6 L 253.9,71.3 L 255.1,70.8" style="fill:none;stroke:#000000;stroke-width:2.0px;stroke-linecap:butt;stroke-linejoin:miter;stroke-opacity:1;"/>
<path d="M 276.5,61.4 L 277.7,60.9 L 278.1,61.2" style="fill:none;stroke:#000000;stroke-width:2.0px;stroke-linecap:butt;stroke-linejoin:miter;stroke-opacity:1;"/>
<path d="M 321.9,66.0 L 322.4,65.8 L 323.5,66.5" style="fill:none;stroke:#000000;stroke-width:2.0px;stroke-linecap:butt;stroke-linejoin:miter;stroke-opacity:1;"/>
<path d="M 366.9,73.6 L 368.1,73.2 L 368.9,74.3" style="fill:none;stroke:#000000;stroke-width:2.0px;stroke-linecap:butt;stroke-linejoin:miter;stroke-opacity:1;"/>
<path d="M 382.6,93.2 L 383.3,94.3 L 383.0,94.7" style="fill:none;stroke:#000000;stroke-width:2.0px;stroke-linecap:butt;stroke-linejoin:miter;stroke-opacity:1;"/>
<path d="M 343.8,107.3 L 343.3,107.1 L 343.3,105.8" style="fill:none;stroke:#000000;stroke-width:2.0px;stroke-linecap:butt;stroke-linejoin:miter;stroke-opacity:1;"/>
<path d="M 295.9,101.5 L 295.8,102.1 L 294.6,102.6" style="fill:none;stroke:#000000;stroke-width:2.0px;stroke-linecap:butt;stroke-linejoin:miter;stroke-opacity:1;"/>
<path d="M 273.2,112.0 L 272.1,112.5 L 271.0,111.8" style="fill:none;stroke:#000000;stroke-width:2.0px;stroke-linecap:butt;stroke-linejoin:miter;stroke-opacity:1;"/>
<path class="atom-0" d="M 216.7 104.0 L 217.7 104.0 L 217.7 107.1 L 221.4 107.1 L 221.4 104.0 L 222.4 104.0 L 222.4 111.4 L 221.4 111.4 L 221.4 108.0 L 217.7 108.0 L 217.7 111.4 L 216.7 111.4 L 216.7 104.0 " fill="#FF0000"/>
<path class="atom-0" d="M 223.9 107.7 Q 223.9 105.9, 224.8 104.9 Q 225.7 103.9, 227.3 103.9 Q 229.0 103.9, 229.8 104.9 Q 230.7 105.9, 230.7 107.7 Q 230.7 109.5, 229.8 110.5 Q 228.9 111.5, 227.3 111.5 Q 225.7 111.5, 224.8 110.5 Q 223.9 109.5, 223.9 107.7 M 227.3 110.6 Q 228.4 110.6, 229.0 109.9 Q 229.7 109.1, 229.7 107.7 Q 229.7 106.2, 229.0 105.5 Q 228.4 104.8, 227.3 104.8 Q 226.2 104.8, 225.6 105.5 Q 225.0 106.2, 225.0 107.7 Q 225.0 109.1, 225.6 109.9 Q 226.2 110.6, 227.3 110.6 " fill="#FF0000"/>
<path class="atom-4" d="M 297.0 72.6 L 299.4 76.5 Q 299.7 76.8, 300.1 77.5 Q 300.5 78.2, 300.5 78.3 L 300.5 72.6 L 301.5 72.6 L 301.5 79.9 L 300.4 79.9 L 297.9 75.7 Q 297.6 75.2, 297.2 74.6 Q 296.9 74.0, 296.8 73.8 L 296.8 79.9 L 295.9 79.9 L 295.9 72.6 L 297.0 72.6 " fill="#0000FF"/>
<path class="atom-9" d="M 365.9 117.8 Q 366.0 117.8, 366.3 118.0 Q 366.7 118.1, 367.0 118.2 Q 367.4 118.3, 367.8 118.3 Q 368.5 118.3, 368.9 117.9 Q 369.3 117.6, 369.3 117.0 Q 369.3 116.6, 369.1 116.4 Q 368.9 116.1, 368.6 116.0 Q 368.3 115.8, 367.7 115.7 Q 367.1 115.5, 366.7 115.3 Q 366.3 115.1, 366.0 114.7 Q 365.8 114.3, 365.8 113.7 Q 365.8 112.7, 366.4 112.2 Q 367.0 111.6, 368.3 111.6 Q 369.1 111.6, 370.1 112.0 L 369.8 112.8 Q 369.0 112.4, 368.3 112.4 Q 367.6 112.4, 367.2 112.7 Q 366.8 113.0, 366.8 113.5 Q 366.8 113.9, 367.0 114.2 Q 367.2 114.4, 367.5 114.5 Q 367.8 114.7, 368.3 114.8 Q 369.0 115.0, 369.4 115.2 Q 369.7 115.5, 370.0 115.9 Q 370.3 116.3, 370.3 117.0 Q 370.3 118.0, 369.6 118.6 Q 369.0 119.1, 367.8 119.1 Q 367.2 119.1, 366.7 119.0 Q 366.2 118.8, 365.6 118.6 L 365.9 117.8 " fill="#CCCC00"/>
<path class="legend" d="M 280.3 190.6 L 277.5 186.6 L 279.2 186.6 L 281.2 189.4 L 283.2 186.6 L 284.8 186.6 L 282.0 190.6 L 285.0 194.8 L 283.3 194.8 L 281.1 191.7 L 278.9 194.8 L 277.3 194.8 L 280.3 190.6 " fill="#000000"/>
<path class="legend" d="M 290.1 195.0 Q 288.0 195.0, 287.0 193.4 Q 286.0 191.9, 286.0 189.2 Q 286.0 186.4, 287.0 184.9 Q 288.0 183.4, 290.1 183.4 Q 292.2 183.4, 293.2 184.9 Q 294.2 186.4, 294.2 189.2 Q 294.2 191.9, 293.2 193.4 Q 292.2 195.0, 290.1 195.0 M 290.1 193.7 Q 291.3 193.7, 292.0 192.6 Q 292.6 191.4, 292.6 189.2 Q 292.6 186.9, 292.0 185.8 Q 291.3 184.7, 290.1 184.7 Q 288.9 184.7, 288.2 185.8 Q 287.6 186.9, 287.6 189.2 Q 287.6 191.4, 288.2 192.6 Q 288.9 193.7, 290.1 193.7 " fill="#000000"/>
<path class="legend" d="M 301.5 188.9 Q 302.6 189.2, 303.1 189.9 Q 303.7 190.6, 303.7 191.7 Q 303.7 192.7, 303.2 193.4 Q 302.7 194.2, 301.8 194.6 Q 301.0 195.0, 299.8 195.0 Q 298.6 195.0, 297.7 194.6 Q 296.8 194.2, 296.1 193.3 L 297.0 192.4 Q 297.7 193.1, 298.3 193.4 Q 298.9 193.7, 299.8 193.7 Q 300.8 193.7, 301.5 193.2 Q 302.1 192.6, 302.1 191.7 Q 302.1 190.6, 301.4 190.1 Q 300.8 189.5, 299.4 189.5 L 298.6 189.5 L 298.6 188.4 L 299.3 188.4 Q 300.5 188.4, 301.2 187.8 Q 301.8 187.3, 301.8 186.3 Q 301.8 185.5, 301.3 185.1 Q 300.8 184.7, 299.8 184.7 Q 298.9 184.7, 298.3 185.0 Q 297.7 185.3, 297.3 186.2 L 296.2 185.6 Q 296.6 184.6, 297.5 184.0 Q 298.5 183.4, 299.8 183.4 Q 301.5 183.4, 302.5 184.2 Q 303.4 185.0, 303.4 186.3 Q 303.4 187.2, 303.0 187.8 Q 302.5 188.5, 301.5 188.9 " fill="#000000"/>
<path class="legend" d="M 311.2 188.8 Q 312.2 189.3, 312.8 190.0 Q 313.4 190.6, 313.4 191.7 Q 313.4 192.7, 312.9 193.4 Q 312.4 194.2, 311.5 194.6 Q 310.6 195.0, 309.5 195.0 Q 307.6 195.0, 306.5 194.1 Q 305.4 193.3, 305.4 191.7 Q 305.4 190.8, 305.9 190.1 Q 306.4 189.4, 307.4 188.9 Q 306.6 188.5, 306.2 187.9 Q 305.8 187.2, 305.8 186.3 Q 305.8 185.0, 306.8 184.2 Q 307.8 183.4, 309.4 183.4 Q 311.1 183.4, 312.0 184.2 Q 313.0 185.0, 313.0 186.3 Q 313.0 187.1, 312.5 187.7 Q 312.1 188.3, 311.2 188.8 M 309.4 184.6 Q 308.5 184.6, 307.9 185.0 Q 307.4 185.5, 307.4 186.3 Q 307.4 186.9, 307.8 187.3 Q 308.1 187.7, 308.6 187.9 Q 309.1 188.1, 310.1 188.4 Q 310.8 188.0, 311.1 187.4 Q 311.4 186.9, 311.4 186.3 Q 311.4 185.5, 310.9 185.0 Q 310.4 184.6, 309.4 184.6 M 309.5 193.8 Q 310.5 193.8, 311.2 193.2 Q 311.8 192.7, 311.8 191.7 Q 311.8 191.1, 311.5 190.7 Q 311.1 190.3, 310.6 190.1 Q 310.1 189.9, 309.2 189.6 L 308.5 189.4 Q 307.7 189.8, 307.4 190.4 Q 307.0 191.0, 307.0 191.7 Q 307.0 192.7, 307.7 193.2 Q 308.4 193.8, 309.5 193.8 " fill="#000000"/>
<path class="legend" d="M 321.1 184.8 L 315.2 184.8 L 315.2 183.5 L 322.7 183.5 L 322.7 184.6 L 318.2 194.8 L 316.6 194.8 L 321.1 184.8 " fill="#000000"/>
<path class="bond-0 atom-0 atom-1" d="M 577.1,75.9 L 565.6,74.0" style="fill:none;fill-rule:evenodd;stroke:#191919;stroke-width:2.0px;stroke-linecap:butt;stroke-linejoin:miter;stroke-opacity:1"/>
<path class="bond-0 atom-0 atom-1" d="M 565.6,74.0 L 554.1,72.1" style="fill:none;fill-rule:evenodd;stroke:#000000;stroke-width:2.0px;stroke-linecap:butt;stroke-linejoin:miter;stroke-opacity:1"/>
<path class="bond-1 atom-1 atom-2" d="M 554.1,72.1 L 537.6,92.2" style="fill:none;fill-rule:evenodd;stroke:#000000;stroke-width:2.0px;stroke-linecap:butt;stroke-linejoin:miter;stroke-opacity:1"/>
<path class="bond-2 atom-2 atom-3" d="M 535.4,91.8 L 539.3,102.2" style="fill:none;fill-rule:evenodd;stroke:#000000;stroke-width:2.0px;stroke-linecap:butt;stroke-linejoin:miter;stroke-opacity:1"/>
<path class="bond-2 atom-2 atom-3" d="M 539.3,102.2 L 543.2,112.6" style="fill:none;fill-rule:evenodd;stroke:#FF0000;stroke-width:2.0px;stroke-linecap:butt;stroke-linejoin:miter;stroke-opacity:1"/>
<path class="bond-2 atom-2 atom-3" d="M 539.0,90.5 L 542.9,100.9" style="fill:none;fill-rule:evenodd;stroke:#000000;stroke-width:2.0px;stroke-linecap:butt;stroke-linejoin:miter;stroke-opacity:1"/>
<path class="bond-2 atom-2 atom-3" d="M 542.9,100.9 L 546.8,111.3" style="fill:none;fill-rule:evenodd;stroke:#FF0000;stroke-width:2.0px;stroke-linecap:butt;stroke-linejoin:miter;stroke-opacity:1"/>
<path class="bond-3 atom-2 atom-4" d="M 537.6,92.2 L 526.6,90.4" style="fill:none;fill-rule:evenodd;stroke:#000000;stroke-width:2.0px;stroke-linecap:butt;stroke-linejoin:miter;stroke-opacity:1"/>
<path class="bond-3 atom-2 atom-4" d="M 526.6,90.4 L 515.6,88.6" style="fill:none;fill-rule:evenodd;stroke:#0000FF;stroke-width:2.0px;stroke-linecap:butt;stroke-linejoin:miter;stroke-opacity:1"/>
<path class="bond-4 atom-4 atom-5" d="M 508.2,92.5 L 501.8,100.3" style="fill:none;fill-rule:evenodd;stroke:#0000FF;stroke-width:2.0px;stroke-linecap:butt;stroke-linejoin:miter;stroke-opacity:1"/>
<path class="bond-4 atom-4 atom-5" d="M 501.8,100.3 L 495.5,108.0" style="fill:none;fill-rule:evenodd;stroke:#000000;stroke-width:2.0px;stroke-linecap:butt;stroke-linejoin:miter;stroke-opacity:1"/>
<path class="bond-5 atom-5 atom-6" d="M 497.0,111.4 L 496.5,111.6" style="fill:none;fill-rule:evenodd;stroke:#000000;stroke-width:1.0px;stroke-linecap:butt;stroke-linejoin:miter;stroke-opacity:1"/>
<path class="bond-5 atom-5 atom-6" d="M 498.6,114.8 L 497.5,115.2" style="fill:none;fill-rule:evenodd;stroke:#000000;stroke-width:1.0px;stroke-linecap:butt;stroke-linejoin:miter;stroke-opacity:1"/>
<path class="bond-5 atom-5 atom-6" d="M 500.2,118.2 L 498.6,118.8" style="fill:none;fill-rule:evenodd;stroke:#000000;stroke-width:1.0px;stroke-linecap:butt;stroke-linejoin:miter;stroke-opacity:1"/>
<path class="bond-5 atom-5 atom-6" d="M 501.7,121.5 L 499.6,122.3" style="fill:none;fill-rule:evenodd;stroke:#000000;stroke-width:1.0px;stroke-linecap:butt;stroke-linejoin:miter;stroke-opacity:1"/>
<path class="bond-5 atom-5 atom-6" d="M 503.3,124.9 L 500.7,125.9" style="fill:none;fill-rule:evenodd;stroke:#000000;stroke-width:1.0px;stroke-linecap:butt;stroke-linejoin:miter;stroke-opacity:1"/>
<path class="bond-5 atom-5 atom-6" d="M 504.9,128.3 L 501.7,129.5" style="fill:none;fill-rule:evenodd;stroke:#000000;stroke-width:1.0px;stroke-linecap:butt;stroke-linejoin:miter;stroke-opacity:1"/>
<path class="bond-5 atom-5 atom-6" d="M 506.4,131.7 L 502.8,133.0" style="fill:none;fill-rule:evenodd;stroke:#000000;stroke-width:1.0px;stroke-linecap:butt;stroke-linejoin:miter;stroke-opacity:1"/>
<path class="bond-6 atom-5 atom-7" d="M 495.5,108.0 L 469.8,103.8" style="fill:none;fill-rule:evenodd;stroke:#000000;stroke-width:2.0px;stroke-linecap:butt;stroke-linejoin:miter;stroke-opacity:1"/>
<path class="bond-7 atom-7 atom-8" d="M 469.8,103.8 L 453.3,123.9" style="fill:none;fill-rule:evenodd;stroke:#000000;stroke-width:2.0px;stroke-linecap:butt;stroke-linejoin:miter;stroke-opacity:1"/>
<path class="bond-7 atom-7 atom-8" d="M 465.4,103.1 L 451.7,119.7" style="fill:none;fill-rule:evenodd;stroke:#000000;stroke-width:2.0px;stroke-linecap:butt;stroke-linejoin:miter;stroke-opacity:1"/>
<path class="bond-8 atom-8 atom-9" d="M 453.3,123.9 L 427.7,119.6" style="fill:none;fill-rule:evenodd;stroke:#000000;stroke-width:2.0px;stroke-linecap:butt;stroke-linejoin:miter;stroke-opacity:1"/>
<path class="bond-9 atom-9 atom-10" d="M 427.7,119.6 L 418.6,95.3" style="fill:none;fill-rule:evenodd;stroke:#000000;stroke-width:2.0px;stroke-linecap:butt;stroke-linejoin:miter;stroke-opacity:1"/>
<path class="bond-9 atom-9 atom-10" d="M 430.6,116.1 L 423.0,96.0" style="fill:none;fill-rule:evenodd;stroke:#000000;stroke-width:2.0px;stroke-linecap:butt;stroke-linejoin:miter;stroke-opacity:1"/>
<path class="bond-10 atom-10 atom-11" d="M 418.6,95.3 L 435.0,75.2" style="fill:none;fill-rule:evenodd;stroke:#000000;stroke-width:2.0px;stroke-linecap:butt;stroke-linejoin:miter;stroke-opacity:1"/>
<path class="bond-11 atom-11 atom-12" d="M 435.0,75.2 L 431.1,64.8" style="fill:none;fill-rule:evenodd;stroke:#000000;stroke-width:2.0px;stroke-linecap:butt;stroke-linejoin:miter;stroke-opacity:1"/>
<path class="bond-11 atom-11 atom-12" d="M 431.1,64.8 L 427.2,54.5" style="fill:none;fill-rule:evenodd;stroke:#00CC00;stroke-width:2.0px;stroke-linecap:butt;stroke-linejoin:miter;stroke-opacity:1"/>
<path class="bond-12 atom-11 atom-13" d="M 435.0,75.2 L 460.7,79.5" style="fill:none;fill-rule:evenodd;stroke:#000000;stroke-width:2.0px;stroke-linecap:butt;stroke-linejoin:miter;stroke-opacity:1"/>
<path class="bond-12 atom-11 atom-13" d="M 436.6,79.4 L 457.8,82.9" style="fill:none;fill-rule:evenodd;stroke:#000000;stroke-width:2.0px;stroke-linecap:butt;stroke-linejoin:miter;stroke-opacity:1"/>
<path class="bond-13 atom-13 atom-7" d="M 460.7,79.5 L 469.8,103.8" style="fill:none;fill-rule:evenodd;stroke:#000000;stroke-width:2.0px;stroke-linecap:butt;stroke-linejoin:miter;stroke-opacity:1"/>
<path d="M 554.6,72.2 L 554.1,72.1 L 553.2,73.1" style="fill:none;stroke:#000000;stroke-width:2.0px;stroke-linecap:butt;stroke-linejoin:miter;stroke-opacity:1;"/>
<path d="M 538.4,91.2 L 537.6,92.2 L 537.0,92.1" style="fill:none;stroke:#000000;stroke-width:2.0px;stroke-linecap:butt;stroke-linejoin:miter;stroke-opacity:1;"/>
<path d="M 495.8,107.6 L 495.5,108.0 L 494.2,107.8" style="fill:none;stroke:#000000;stroke-width:2.0px;stroke-linecap:butt;stroke-linejoin:miter;stroke-opacity:1;"/>
<path d="M 454.2,122.9 L 453.3,123.9 L 452.0,123.7" style="fill:none;stroke:#000000;stroke-width:2.0px;stroke-linecap:butt;stroke-linejoin:miter;stroke-opacity:1;"/>
<path d="M 429.0,119.8 L 427.7,119.6 L 427.2,118.4" style="fill:none;stroke:#000000;stroke-width:2.0px;stroke-linecap:butt;stroke-linejoin:miter;stroke-opacity:1;"/>
<path d="M 419.0,96.5 L 418.6,95.3 L 419.4,94.3" style="fill:none;stroke:#000000;stroke-width:2.0px;stroke-linecap:butt;stroke-linejoin:miter;stroke-opacity:1;"/>
<path d="M 459.4,79.3 L 460.7,79.5 L 461.1,80.7" style="fill:none;stroke:#000000;stroke-width:2.0px;stroke-linecap:butt;stroke-linejoin:miter;stroke-opacity:1;"/>
<path class="atom-0" d="M 578.3 75.5 L 579.4 74.4 L 578.0 74.2 L 578.2 73.4 L 579.5 74.1 L 579.3 72.6 L 580.1 72.6 L 579.9 74.1 L 581.2 73.5 L 581.4 74.2 L 580.0 74.4 L 581.0 75.5 L 580.4 76.0 L 579.7 74.6 L 579.0 76.0 L 578.3 75.5 " fill="#191919"/>
<path class="atom-3" d="M 543.3 116.5 Q 543.3 114.8, 544.2 113.8 Q 545.1 112.8, 546.7 112.8 Q 548.4 112.8, 549.2 113.8 Q 550.1 114.8, 550.1 116.5 Q 550.1 118.3, 549.2 119.3 Q 548.3 120.4, 546.7 120.4 Q 545.1 120.4, 544.2 119.3 Q 543.3 118.3, 543.3 116.5 M 546.7 119.5 Q 547.8 119.5, 548.4 118.8 Q 549.1 118.0, 549.1 116.5 Q 549.1 115.1, 548.4 114.4 Q 547.8 113.6, 546.7 113.6 Q 545.6 113.6, 545.0 114.4 Q 544.4 115.1, 544.4 116.5 Q 544.4 118.0, 545.0 118.8 Q 545.6 119.5, 546.7 119.5 " fill="#FF0000"/>
<path class="atom-4" d="M 501.9 84.3 L 502.9 84.3 L 502.9 87.4 L 506.7 87.4 L 506.7 84.3 L 507.7 84.3 L 507.7 91.6 L 506.7 91.6 L 506.7 88.2 L 502.9 88.2 L 502.9 91.6 L 501.9 91.6 L 501.9 84.3 " fill="#0000FF"/>
<path class="atom-4" d="M 510.3 84.3 L 512.7 88.2 Q 513.0 88.6, 513.4 89.3 Q 513.7 90.0, 513.8 90.0 L 513.8 84.3 L 514.7 84.3 L 514.7 91.6 L 513.7 91.6 L 511.1 87.4 Q 510.8 86.9, 510.5 86.3 Q 510.2 85.7, 510.1 85.6 L 510.1 91.6 L 509.2 91.6 L 509.2 84.3 L 510.3 84.3 " fill="#0000FF"/>
<path class="atom-12" d="M 419.0 51.2 Q 419.0 49.3, 419.9 48.4 Q 420.7 47.4, 422.4 47.4 Q 423.9 47.4, 424.7 48.5 L 424.0 49.0 Q 423.4 48.3, 422.4 48.3 Q 421.2 48.3, 420.6 49.0 Q 420.1 49.7, 420.1 51.2 Q 420.1 52.6, 420.7 53.4 Q 421.3 54.1, 422.5 54.1 Q 423.3 54.1, 424.2 53.6 L 424.5 54.4 Q 424.1 54.7, 423.5 54.8 Q 423.0 54.9, 422.3 54.9 Q 420.7 54.9, 419.9 54.0 Q 419.0 53.0, 419.0 51.2 " fill="#00CC00"/>
<path class="atom-12" d="M 425.4 47.0 L 426.4 47.0 L 426.4 54.8 L 425.4 54.8 L 425.4 47.0 " fill="#00CC00"/>
<path class="legend" d="M 481.2 190.6 L 478.4 186.6 L 480.1 186.6 L 482.1 189.4 L 484.1 186.6 L 485.7 186.6 L 482.9 190.6 L 485.9 194.8 L 484.2 194.8 L 482.0 191.7 L 479.8 194.8 L 478.2 194.8 L 481.2 190.6 " fill="#000000"/>
<path class="legend" d="M 487.5 193.6 L 489.9 193.6 L 489.9 185.1 L 487.2 185.9 L 486.8 185.0 L 490.3 183.4 L 491.5 183.6 L 491.5 193.6 L 493.7 193.6 L 493.7 194.8 L 487.5 194.8 L 487.5 193.6 " fill="#000000"/>
<path class="legend" d="M 500.5 188.9 Q 501.6 189.2, 502.2 189.9 Q 502.7 190.6, 502.7 191.7 Q 502.7 192.7, 502.2 193.4 Q 501.8 194.2, 500.9 194.6 Q 500.0 195.0, 498.8 195.0 Q 497.6 195.0, 496.7 194.6 Q 495.8 194.2, 495.1 193.3 L 496.0 192.4 Q 496.7 193.1, 497.3 193.4 Q 497.9 193.7, 498.8 193.7 Q 499.9 193.7, 500.5 193.2 Q 501.1 192.6, 501.1 191.7 Q 501.1 190.6, 500.5 190.1 Q 499.8 189.5, 498.4 189.5 L 497.6 189.5 L 497.6 188.4 L 498.3 188.4 Q 499.6 188.4, 500.2 187.8 Q 500.9 187.3, 500.9 186.3 Q 500.9 185.5, 500.3 185.1 Q 499.8 184.7, 498.9 184.7 Q 497.9 184.7, 497.3 185.0 Q 496.8 185.3, 496.3 186.2 L 495.2 185.6 Q 495.6 184.6, 496.6 184.0 Q 497.5 183.4, 498.9 183.4 Q 500.5 183.4, 501.5 184.2 Q 502.5 185.0, 502.5 186.3 Q 502.5 187.2, 502.0 187.8 Q 501.5 188.5, 500.5 188.9 " fill="#000000"/>
<path class="legend" d="M 510.2 188.8 Q 511.2 189.3, 511.8 190.0 Q 512.4 190.6, 512.4 191.7 Q 512.4 192.7, 511.9 193.4 Q 511.4 194.2, 510.5 194.6 Q 509.7 195.0, 508.5 195.0 Q 506.6 195.0, 505.5 194.1 Q 504.4 193.3, 504.4 191.7 Q 504.4 190.8, 504.9 190.1 Q 505.4 189.4, 506.4 188.9 Q 505.6 188.5, 505.2 187.9 Q 504.8 187.2, 504.8 186.3 Q 504.8 185.0, 505.8 184.2 Q 506.8 183.4, 508.4 183.4 Q 510.1 183.4, 511.0 184.2 Q 512.0 185.0, 512.0 186.3 Q 512.0 187.1, 511.5 187.7 Q 511.1 188.3, 510.2 188.8 M 508.4 184.6 Q 507.5 184.6, 506.9 185.0 Q 506.4 185.5, 506.4 186.3 Q 506.4 186.9, 506.8 187.3 Q 507.1 187.7, 507.6 187.9 Q 508.1 188.1, 509.1 188.4 Q 509.8 188.0, 510.1 187.4 Q 510.4 186.9, 510.4 186.3 Q 510.4 185.5, 509.9 185.0 Q 509.4 184.6, 508.4 184.6 M 508.5 193.8 Q 509.5 193.8, 510.2 193.2 Q 510.8 192.7, 510.8 191.7 Q 510.8 191.1, 510.5 190.7 Q 510.1 190.3, 509.6 190.1 Q 509.1 189.9, 508.2 189.6 L 507.5 189.4 Q 506.7 189.8, 506.4 190.4 Q 506.0 191.0, 506.0 191.7 Q 506.0 192.7, 506.7 193.2 Q 507.4 193.8, 508.5 193.8 " fill="#000000"/>
<path class="legend" d="M 514.2 185.7 Q 514.6 184.6, 515.6 184.0 Q 516.6 183.4, 518.0 183.4 Q 519.7 183.4, 520.7 184.3 Q 521.6 185.2, 521.6 186.9 Q 521.6 188.6, 520.4 190.1 Q 519.1 191.7, 516.6 193.6 L 521.8 193.6 L 521.8 194.8 L 514.2 194.8 L 514.2 193.8 Q 516.3 192.3, 517.5 191.1 Q 518.8 190.0, 519.4 189.0 Q 520.0 188.0, 520.0 187.0 Q 520.0 185.9, 519.5 185.3 Q 518.9 184.7, 518.0 184.7 Q 517.1 184.7, 516.5 185.0 Q 515.9 185.4, 515.4 186.2 L 514.2 185.7 " fill="#000000"/>
</svg>