<svg xmlns="http://www.w3.org/2000/svg" xmlns:rdkit="http://www.rdkit.org/xml" xmlns:xlink="http://www.w3.org/1999/xlink" version="1.1" baseProfile="full" xml:space="preserve" width="600px" height="400px" viewBox="0 0 600 400">
<!-- END OF HEADER -->
<rect style="opacity:1.0;fill:#FFFFFF;stroke:none" width="600.0" height="400.0" x="0.0" y="0.0"> </rect>
<path class="bond-0 atom-0 atom-1" d="M 52.7,131.2 L 57.1,110.2" style="fill:none;fill-rule:evenodd;stroke:#000000;stroke-width:2.0px;stroke-linecap:butt;stroke-linejoin:miter;stroke-opacity:1"/>
<path class="bond-1 atom-1 atom-2" d="M 57.1,110.2 L 41.2,95.9" style="fill:none;fill-rule:evenodd;stroke:#000000;stroke-width:2.0px;stroke-linecap:butt;stroke-linejoin:miter;stroke-opacity:1"/>
<path class="bond-1 atom-1 atom-2" d="M 57.9,106.6 L 44.7,94.7" style="fill:none;fill-rule:evenodd;stroke:#000000;stroke-width:2.0px;stroke-linecap:butt;stroke-linejoin:miter;stroke-opacity:1"/>
<path class="bond-2 atom-2 atom-3" d="M 41.2,95.9 L 32.5,98.7" style="fill:none;fill-rule:evenodd;stroke:#000000;stroke-width:2.0px;stroke-linecap:butt;stroke-linejoin:miter;stroke-opacity:1"/>
<path class="bond-2 atom-2 atom-3" d="M 32.5,98.7 L 23.8,101.5" style="fill:none;fill-rule:evenodd;stroke:#0000FF;stroke-width:2.0px;stroke-linecap:butt;stroke-linejoin:miter;stroke-opacity:1"/>
<path class="bond-3 atom-2 atom-4" d="M 41.2,95.9 L 45.7,74.9" style="fill:none;fill-rule:evenodd;stroke:#000000;stroke-width:2.0px;stroke-linecap:butt;stroke-linejoin:miter;stroke-opacity:1"/>
<path class="bond-4 atom-4 atom-5" d="M 45.7,74.9 L 54.4,72.1" style="fill:none;fill-rule:evenodd;stroke:#000000;stroke-width:2.0px;stroke-linecap:butt;stroke-linejoin:miter;stroke-opacity:1"/>
<path class="bond-4 atom-4 atom-5" d="M 54.4,72.1 L 63.0,69.3" style="fill:none;fill-rule:evenodd;stroke:#0000FF;stroke-width:2.0px;stroke-linecap:butt;stroke-linejoin:miter;stroke-opacity:1"/>
<path class="bond-4 atom-4 atom-5" d="M 48.4,77.4 L 56.2,74.9" style="fill:none;fill-rule:evenodd;stroke:#000000;stroke-width:2.0px;stroke-linecap:butt;stroke-linejoin:miter;stroke-opacity:1"/>
<path class="bond-4 atom-4 atom-5" d="M 56.2,74.9 L 64.0,72.3" style="fill:none;fill-rule:evenodd;stroke:#0000FF;stroke-width:2.0px;stroke-linecap:butt;stroke-linejoin:miter;stroke-opacity:1"/>
<path class="bond-5 atom-5 atom-6" d="M 69.1,71.0 L 75.5,76.8" style="fill:none;fill-rule:evenodd;stroke:#0000FF;stroke-width:2.0px;stroke-linecap:butt;stroke-linejoin:miter;stroke-opacity:1"/>
<path class="bond-5 atom-5 atom-6" d="M 75.5,76.8 L 82.0,82.7" style="fill:none;fill-rule:evenodd;stroke:#000000;stroke-width:2.0px;stroke-linecap:butt;stroke-linejoin:miter;stroke-opacity:1"/>
<path class="bond-6 atom-6 atom-7" d="M 82.0,82.7 L 77.5,103.6" style="fill:none;fill-rule:evenodd;stroke:#000000;stroke-width:2.0px;stroke-linecap:butt;stroke-linejoin:miter;stroke-opacity:1"/>
<path class="bond-6 atom-6 atom-7" d="M 78.4,83.8 L 74.7,101.1" style="fill:none;fill-rule:evenodd;stroke:#000000;stroke-width:2.0px;stroke-linecap:butt;stroke-linejoin:miter;stroke-opacity:1"/>
<path class="bond-7 atom-7 atom-8" d="M 77.5,103.6 L 84.0,109.4" style="fill:none;fill-rule:evenodd;stroke:#000000;stroke-width:2.0px;stroke-linecap:butt;stroke-linejoin:miter;stroke-opacity:1"/>
<path class="bond-7 atom-7 atom-8" d="M 84.0,109.4 L 90.4,115.3" style="fill:none;fill-rule:evenodd;stroke:#0000FF;stroke-width:2.0px;stroke-linecap:butt;stroke-linejoin:miter;stroke-opacity:1"/>
<path class="bond-8 atom-8 atom-9" d="M 96.4,117.0 L 105.1,114.2" style="fill:none;fill-rule:evenodd;stroke:#0000FF;stroke-width:2.0px;stroke-linecap:butt;stroke-linejoin:miter;stroke-opacity:1"/>
<path class="bond-8 atom-8 atom-9" d="M 105.1,114.2 L 113.8,111.4" style="fill:none;fill-rule:evenodd;stroke:#000000;stroke-width:2.0px;stroke-linecap:butt;stroke-linejoin:miter;stroke-opacity:1"/>
<path class="bond-9 atom-9 atom-10" d="M 115.2,112.6 L 117.1,103.6" style="fill:none;fill-rule:evenodd;stroke:#000000;stroke-width:2.0px;stroke-linecap:butt;stroke-linejoin:miter;stroke-opacity:1"/>
<path class="bond-9 atom-9 atom-10" d="M 117.1,103.6 L 119.0,94.6" style="fill:none;fill-rule:evenodd;stroke:#FF0000;stroke-width:2.0px;stroke-linecap:butt;stroke-linejoin:miter;stroke-opacity:1"/>
<path class="bond-9 atom-9 atom-10" d="M 112.1,111.9 L 114.0,102.9" style="fill:none;fill-rule:evenodd;stroke:#000000;stroke-width:2.0px;stroke-linecap:butt;stroke-linejoin:miter;stroke-opacity:1"/>
<path class="bond-9 atom-9 atom-10" d="M 114.0,102.9 L 115.9,93.9" style="fill:none;fill-rule:evenodd;stroke:#FF0000;stroke-width:2.0px;stroke-linecap:butt;stroke-linejoin:miter;stroke-opacity:1"/>
<path class="bond-10 atom-9 atom-11" d="M 113.8,111.4 L 129.7,125.7" style="fill:none;fill-rule:evenodd;stroke:#000000;stroke-width:2.0px;stroke-linecap:butt;stroke-linejoin:miter;stroke-opacity:1"/>
<path class="bond-11 atom-11 atom-12" d="M 129.7,125.7 L 150.1,119.1" style="fill:none;fill-rule:evenodd;stroke:#000000;stroke-width:2.0px;stroke-linecap:butt;stroke-linejoin:miter;stroke-opacity:1"/>
<path class="bond-12 atom-12 atom-13" d="M 150.1,119.1 L 166.1,133.4" style="fill:none;fill-rule:evenodd;stroke:#000000;stroke-width:2.0px;stroke-linecap:butt;stroke-linejoin:miter;stroke-opacity:1"/>
<path class="bond-12 atom-12 atom-13" d="M 153.7,117.9 L 166.8,129.8" style="fill:none;fill-rule:evenodd;stroke:#000000;stroke-width:2.0px;stroke-linecap:butt;stroke-linejoin:miter;stroke-opacity:1"/>
<path class="bond-13 atom-13 atom-14" d="M 166.1,133.4 L 186.4,126.8" style="fill:none;fill-rule:evenodd;stroke:#000000;stroke-width:2.0px;stroke-linecap:butt;stroke-linejoin:miter;stroke-opacity:1"/>
<path class="bond-14 atom-14 atom-15" d="M 186.4,126.8 L 190.9,105.9" style="fill:none;fill-rule:evenodd;stroke:#000000;stroke-width:2.0px;stroke-linecap:butt;stroke-linejoin:miter;stroke-opacity:1"/>
<path class="bond-14 atom-14 atom-15" d="M 183.7,124.3 L 187.4,107.0" style="fill:none;fill-rule:evenodd;stroke:#000000;stroke-width:2.0px;stroke-linecap:butt;stroke-linejoin:miter;stroke-opacity:1"/>
<path class="bond-15 atom-15 atom-16" d="M 190.9,105.9 L 175.0,91.5" style="fill:none;fill-rule:evenodd;stroke:#000000;stroke-width:2.0px;stroke-linecap:butt;stroke-linejoin:miter;stroke-opacity:1"/>
<path class="bond-16 atom-16 atom-17" d="M 175.0,91.5 L 179.5,70.6" style="fill:none;fill-rule:evenodd;stroke:#000000;stroke-width:2.0px;stroke-linecap:butt;stroke-linejoin:miter;stroke-opacity:1"/>
<path class="bond-17 atom-17 atom-18" d="M 179.5,70.6 L 181.3,61.9" style="fill:none;fill-rule:evenodd;stroke:#000000;stroke-width:2.0px;stroke-linecap:butt;stroke-linejoin:miter;stroke-opacity:1"/>
<path class="bond-17 atom-17 atom-18" d="M 181.3,61.9 L 183.1,53.3" style="fill:none;fill-rule:evenodd;stroke:#0000FF;stroke-width:2.0px;stroke-linecap:butt;stroke-linejoin:miter;stroke-opacity:1"/>
<path class="bond-17 atom-17 atom-18" d="M 176.3,69.9 L 178.1,61.3" style="fill:none;fill-rule:evenodd;stroke:#000000;stroke-width:2.0px;stroke-linecap:butt;stroke-linejoin:miter;stroke-opacity:1"/>
<path class="bond-17 atom-17 atom-18" d="M 178.1,61.3 L 180.0,52.7" style="fill:none;fill-rule:evenodd;stroke:#0000FF;stroke-width:2.0px;stroke-linecap:butt;stroke-linejoin:miter;stroke-opacity:1"/>
<path class="bond-17 atom-17 atom-18" d="M 182.6,71.2 L 184.4,62.6" style="fill:none;fill-rule:evenodd;stroke:#000000;stroke-width:2.0px;stroke-linecap:butt;stroke-linejoin:miter;stroke-opacity:1"/>
<path class="bond-17 atom-17 atom-18" d="M 184.4,62.6 L 186.3,54.0" style="fill:none;fill-rule:evenodd;stroke:#0000FF;stroke-width:2.0px;stroke-linecap:butt;stroke-linejoin:miter;stroke-opacity:1"/>
<path class="bond-18 atom-16 atom-19" d="M 175.0,91.5 L 154.6,98.1" style="fill:none;fill-rule:evenodd;stroke:#000000;stroke-width:2.0px;stroke-linecap:butt;stroke-linejoin:miter;stroke-opacity:1"/>
<path class="bond-18 atom-16 atom-19" d="M 174.2,95.1 L 157.4,100.6" style="fill:none;fill-rule:evenodd;stroke:#000000;stroke-width:2.0px;stroke-linecap:butt;stroke-linejoin:miter;stroke-opacity:1"/>
<path class="bond-19 atom-7 atom-1" d="M 77.5,103.6 L 57.1,110.2" style="fill:none;fill-rule:evenodd;stroke:#000000;stroke-width:2.0px;stroke-linecap:butt;stroke-linejoin:miter;stroke-opacity:1"/>
<path class="bond-20 atom-19 atom-12" d="M 154.6,98.1 L 150.1,119.1" style="fill:none;fill-rule:evenodd;stroke:#000000;stroke-width:2.0px;stroke-linecap:butt;stroke-linejoin:miter;stroke-opacity:1"/>
<path d="M 45.4,76.0 L 45.7,74.9 L 46.1,74.8" style="fill:none;stroke:#000000;stroke-width:2.0px;stroke-linecap:butt;stroke-linejoin:miter;stroke-opacity:1;"/>
<path d="M 81.7,82.4 L 82.0,82.7 L 81.8,83.7" style="fill:none;stroke:#000000;stroke-width:2.0px;stroke-linecap:butt;stroke-linejoin:miter;stroke-opacity:1;"/>
<path d="M 113.4,111.5 L 113.8,111.4 L 114.6,112.1" style="fill:none;stroke:#000000;stroke-width:2.0px;stroke-linecap:butt;stroke-linejoin:miter;stroke-opacity:1;"/>
<path d="M 128.9,125.0 L 129.7,125.7 L 130.8,125.4" style="fill:none;stroke:#000000;stroke-width:2.0px;stroke-linecap:butt;stroke-linejoin:miter;stroke-opacity:1;"/>
<path d="M 165.3,132.7 L 166.1,133.4 L 167.1,133.1" style="fill:none;stroke:#000000;stroke-width:2.0px;stroke-linecap:butt;stroke-linejoin:miter;stroke-opacity:1;"/>
<path d="M 185.4,127.2 L 186.4,126.8 L 186.7,125.8" style="fill:none;stroke:#000000;stroke-width:2.0px;stroke-linecap:butt;stroke-linejoin:miter;stroke-opacity:1;"/>
<path d="M 190.7,106.9 L 190.9,105.9 L 190.1,105.2" style="fill:none;stroke:#000000;stroke-width:2.0px;stroke-linecap:butt;stroke-linejoin:miter;stroke-opacity:1;"/>
<path d="M 179.2,71.6 L 179.5,70.6 L 179.5,70.1" style="fill:none;stroke:#000000;stroke-width:2.0px;stroke-linecap:butt;stroke-linejoin:miter;stroke-opacity:1;"/>
<path d="M 155.6,97.8 L 154.6,98.1 L 154.4,99.2" style="fill:none;stroke:#000000;stroke-width:2.0px;stroke-linecap:butt;stroke-linejoin:miter;stroke-opacity:1;"/>
<path class="atom-3" d="M 9.1 99.5 L 9.9 99.5 L 9.9 102.0 L 13.0 102.0 L 13.0 99.5 L 13.8 99.5 L 13.8 105.5 L 13.0 105.5 L 13.0 102.7 L 9.9 102.7 L 9.9 105.5 L 9.1 105.5 L 9.1 99.5 " fill="#0000FF"/>
<path class="atom-3" d="M 15.0 105.3 Q 15.2 104.9, 15.5 104.7 Q 15.9 104.5, 16.4 104.5 Q 17.0 104.5, 17.3 104.8 Q 17.6 105.2, 17.6 105.7 Q 17.6 106.3, 17.2 106.9 Q 16.8 107.5, 15.9 108.1 L 17.7 108.1 L 17.7 108.6 L 15.0 108.6 L 15.0 108.2 Q 15.8 107.6, 16.2 107.3 Q 16.7 106.9, 16.9 106.5 Q 17.1 106.1, 17.1 105.8 Q 17.1 105.4, 16.9 105.2 Q 16.7 105.0, 16.4 105.0 Q 16.0 105.0, 15.8 105.1 Q 15.6 105.2, 15.5 105.5 L 15.0 105.3 " fill="#0000FF"/>
<path class="atom-3" d="M 19.5 99.5 L 21.5 102.7 Q 21.7 103.0, 22.0 103.6 Q 22.3 104.1, 22.3 104.2 L 22.3 99.5 L 23.1 99.5 L 23.1 105.5 L 22.3 105.5 L 20.1 102.0 Q 19.9 101.6, 19.6 101.1 Q 19.4 100.7, 19.3 100.5 L 19.3 105.5 L 18.5 105.5 L 18.5 99.5 L 19.5 99.5 " fill="#0000FF"/>
<path class="atom-5" d="M 64.7 65.3 L 66.7 68.5 Q 66.9 68.8, 67.2 69.4 Q 67.5 69.9, 67.6 70.0 L 67.6 65.3 L 68.4 65.3 L 68.4 71.3 L 67.5 71.3 L 65.4 67.8 Q 65.1 67.4, 64.9 66.9 Q 64.6 66.5, 64.5 66.3 L 64.5 71.3 L 63.8 71.3 L 63.8 65.3 L 64.7 65.3 " fill="#0000FF"/>
<path class="atom-8" d="M 92.1 114.9 L 94.1 118.1 Q 94.3 118.5, 94.6 119.0 Q 94.9 119.6, 94.9 119.6 L 94.9 114.9 L 95.7 114.9 L 95.7 121.0 L 94.9 121.0 L 92.8 117.5 Q 92.5 117.1, 92.3 116.6 Q 92.0 116.1, 91.9 116.0 L 91.9 121.0 L 91.1 121.0 L 91.1 114.9 L 92.1 114.9 " fill="#0000FF"/>
<path class="atom-8" d="M 91.1 121.6 L 91.9 121.6 L 91.9 124.2 L 95.0 124.2 L 95.0 121.6 L 95.8 121.6 L 95.8 127.7 L 95.0 127.7 L 95.0 124.9 L 91.9 124.9 L 91.9 127.7 L 91.1 127.7 L 91.1 121.6 " fill="#0000FF"/>
<path class="atom-10" d="M 115.5 90.4 Q 115.5 89.0, 116.2 88.1 Q 116.9 87.3, 118.3 87.3 Q 119.6 87.3, 120.4 88.1 Q 121.1 89.0, 121.1 90.4 Q 121.1 91.9, 120.3 92.7 Q 119.6 93.6, 118.3 93.6 Q 116.9 93.6, 116.2 92.7 Q 115.5 91.9, 115.5 90.4 M 118.3 92.9 Q 119.2 92.9, 119.7 92.3 Q 120.2 91.6, 120.2 90.4 Q 120.2 89.2, 119.7 88.6 Q 119.2 88.0, 118.3 88.0 Q 117.4 88.0, 116.9 88.6 Q 116.4 89.2, 116.4 90.4 Q 116.4 91.6, 116.9 92.3 Q 117.4 92.9, 118.3 92.9 " fill="#FF0000"/>
<path class="atom-18" d="M 182.6 46.6 L 184.6 49.8 Q 184.8 50.1, 185.1 50.7 Q 185.4 51.2, 185.4 51.3 L 185.4 46.6 L 186.2 46.6 L 186.2 52.6 L 185.4 52.6 L 183.3 49.1 Q 183.0 48.7, 182.7 48.2 Q 182.5 47.8, 182.4 47.6 L 182.4 52.6 L 181.6 52.6 L 181.6 46.6 L 182.6 46.6 " fill="#0000FF"/>
<path class="legend" d="M 77.7 190.6 L 74.9 186.6 L 76.6 186.6 L 78.6 189.4 L 80.6 186.6 L 82.2 186.6 L 79.4 190.6 L 82.4 194.8 L 80.7 194.8 L 78.5 191.7 L 76.3 194.8 L 74.7 194.8 L 77.7 190.6 " fill="#000000"/>
<path class="legend" d="M 83.9 193.6 L 86.4 193.6 L 86.4 185.1 L 83.7 185.9 L 83.3 185.0 L 86.8 183.4 L 87.9 183.6 L 87.9 193.6 L 90.2 193.6 L 90.2 194.8 L 83.9 194.8 L 83.9 193.6 " fill="#000000"/>
<path class="legend" d="M 92.2 193.6 L 94.7 193.6 L 94.7 185.1 L 91.9 185.9 L 91.6 185.0 L 95.0 183.4 L 96.2 183.6 L 96.2 193.6 L 98.4 193.6 L 98.4 194.8 L 92.2 194.8 L 92.2 193.6 " fill="#000000"/>
<path class="legend" d="M 105.2 188.9 Q 106.3 189.2, 106.9 189.9 Q 107.4 190.6, 107.4 191.7 Q 107.4 192.7, 106.9 193.4 Q 106.4 194.2, 105.6 194.6 Q 104.7 195.0, 103.5 195.0 Q 102.3 195.0, 101.4 194.6 Q 100.5 194.2, 99.8 193.3 L 100.7 192.4 Q 101.4 193.1, 102.0 193.4 Q 102.6 193.7, 103.5 193.7 Q 104.6 193.7, 105.2 193.2 Q 105.8 192.6, 105.8 191.7 Q 105.8 190.6, 105.1 190.1 Q 104.5 189.5, 103.1 189.5 L 102.3 189.5 L 102.3 188.4 L 103.0 188.4 Q 104.3 188.4, 104.9 187.8 Q 105.6 187.3, 105.6 186.3 Q 105.6 185.5, 105.0 185.1 Q 104.5 184.7, 103.5 184.7 Q 102.6 184.7, 102.0 185.0 Q 101.4 185.3, 101.0 186.2 L 99.9 185.6 Q 100.3 184.6, 101.2 184.0 Q 102.2 183.4, 103.5 183.4 Q 105.2 183.4, 106.2 184.2 Q 107.2 185.0, 107.2 186.3 Q 107.2 187.2, 106.7 187.8 Q 106.2 188.5, 105.2 188.9 " fill="#000000"/>
<path class="legend" d="M 109.7 193.6 L 112.2 193.6 L 112.2 185.1 L 109.4 185.9 L 109.1 185.0 L 112.6 183.4 L 113.7 183.6 L 113.7 193.6 L 115.9 193.6 L 115.9 194.8 L 109.7 194.8 L 109.7 193.6 " fill="#000000"/>
<path class="legend" d="M 123.1 188.8 Q 124.1 189.3, 124.7 190.0 Q 125.3 190.6, 125.3 191.7 Q 125.3 192.7, 124.8 193.4 Q 124.3 194.2, 123.4 194.6 Q 122.5 195.0, 121.4 195.0 Q 119.5 195.0, 118.4 194.1 Q 117.3 193.3, 117.3 191.7 Q 117.3 190.8, 117.8 190.1 Q 118.3 189.4, 119.3 188.9 Q 118.5 188.5, 118.1 187.9 Q 117.7 187.2, 117.7 186.3 Q 117.7 185.0, 118.7 184.2 Q 119.7 183.4, 121.3 183.4 Q 123.0 183.4, 123.9 184.2 Q 124.9 185.0, 124.9 186.3 Q 124.9 187.1, 124.4 187.7 Q 124.0 188.3, 123.1 188.8 M 121.3 184.6 Q 120.4 184.6, 119.8 185.0 Q 119.3 185.5, 119.3 186.3 Q 119.3 186.9, 119.7 187.3 Q 120.0 187.7, 120.5 187.9 Q 121.0 188.1, 122.0 188.4 Q 122.7 188.0, 123.0 187.4 Q 123.3 186.9, 123.3 186.3 Q 123.3 185.5, 122.8 185.0 Q 122.3 184.6, 121.3 184.6 M 121.4 193.8 Q 122.4 193.8, 123.1 193.2 Q 123.7 192.7, 123.7 191.7 Q 123.7 191.1, 123.4 190.7 Q 123.0 190.3, 122.5 190.1 Q 122.0 189.9, 121.1 189.6 L 120.4 189.4 Q 119.6 189.8, 119.3 190.4 Q 118.9 191.0, 118.9 191.7 Q 118.9 192.7, 119.6 193.2 Q 120.3 193.8, 121.4 193.8 " fill="#000000"/>
<path class="bond-0 atom-0 atom-1" d="M 252.2,94.6 L 271.8,85.8" style="fill:none;fill-rule:evenodd;stroke:#000000;stroke-width:2.0px;stroke-linecap:butt;stroke-linejoin:miter;stroke-opacity:1"/>
<path class="bond-1 atom-1 atom-2" d="M 273.3,86.9 L 274.2,77.7" style="fill:none;fill-rule:evenodd;stroke:#000000;stroke-width:2.0px;stroke-linecap:butt;stroke-linejoin:miter;stroke-opacity:1"/>
<path class="bond-1 atom-1 atom-2" d="M 274.2,77.7 L 275.1,68.5" style="fill:none;fill-rule:evenodd;stroke:#FF0000;stroke-width:2.0px;stroke-linecap:butt;stroke-linejoin:miter;stroke-opacity:1"/>
<path class="bond-1 atom-1 atom-2" d="M 270.1,86.6 L 271.0,77.4" style="fill:none;fill-rule:evenodd;stroke:#000000;stroke-width:2.0px;stroke-linecap:butt;stroke-linejoin:miter;stroke-opacity:1"/>
<path class="bond-1 atom-1 atom-2" d="M 271.0,77.4 L 271.9,68.2" style="fill:none;fill-rule:evenodd;stroke:#FF0000;stroke-width:2.0px;stroke-linecap:butt;stroke-linejoin:miter;stroke-opacity:1"/>
<path class="bond-2 atom-1 atom-3" d="M 271.8,85.8 L 278.9,91.0" style="fill:none;fill-rule:evenodd;stroke:#000000;stroke-width:2.0px;stroke-linecap:butt;stroke-linejoin:miter;stroke-opacity:1"/>
<path class="bond-2 atom-1 atom-3" d="M 278.9,91.0 L 286.1,96.2" style="fill:none;fill-rule:evenodd;stroke:#0000FF;stroke-width:2.0px;stroke-linecap:butt;stroke-linejoin:miter;stroke-opacity:1"/>
<path class="bond-3 atom-3 atom-4" d="M 292.1,97.0 L 300.4,93.3" style="fill:none;fill-rule:evenodd;stroke:#0000FF;stroke-width:2.0px;stroke-linecap:butt;stroke-linejoin:miter;stroke-opacity:1"/>
<path class="bond-3 atom-3 atom-4" d="M 300.4,93.3 L 308.7,89.6" style="fill:none;fill-rule:evenodd;stroke:#000000;stroke-width:2.0px;stroke-linecap:butt;stroke-linejoin:miter;stroke-opacity:1"/>
<path class="bond-4 atom-4 atom-5" d="M 308.7,89.6 L 310.9,68.3" style="fill:none;fill-rule:evenodd;stroke:#000000;stroke-width:2.0px;stroke-linecap:butt;stroke-linejoin:miter;stroke-opacity:1"/>
<path class="bond-4 atom-4 atom-5" d="M 312.1,88.1 L 313.9,70.5" style="fill:none;fill-rule:evenodd;stroke:#000000;stroke-width:2.0px;stroke-linecap:butt;stroke-linejoin:miter;stroke-opacity:1"/>
<path class="bond-5 atom-5 atom-6" d="M 310.9,68.3 L 319.2,64.6" style="fill:none;fill-rule:evenodd;stroke:#000000;stroke-width:2.0px;stroke-linecap:butt;stroke-linejoin:miter;stroke-opacity:1"/>
<path class="bond-5 atom-5 atom-6" d="M 319.2,64.6 L 327.4,60.9" style="fill:none;fill-rule:evenodd;stroke:#0000FF;stroke-width:2.0px;stroke-linecap:butt;stroke-linejoin:miter;stroke-opacity:1"/>
<path class="bond-6 atom-6 atom-7" d="M 333.4,61.7 L 340.6,66.9" style="fill:none;fill-rule:evenodd;stroke:#0000FF;stroke-width:2.0px;stroke-linecap:butt;stroke-linejoin:miter;stroke-opacity:1"/>
<path class="bond-6 atom-6 atom-7" d="M 340.6,66.9 L 347.8,72.1" style="fill:none;fill-rule:evenodd;stroke:#000000;stroke-width:2.0px;stroke-linecap:butt;stroke-linejoin:miter;stroke-opacity:1"/>
<path class="bond-6 atom-6 atom-7" d="M 331.6,64.3 L 338.0,69.0" style="fill:none;fill-rule:evenodd;stroke:#0000FF;stroke-width:2.0px;stroke-linecap:butt;stroke-linejoin:miter;stroke-opacity:1"/>
<path class="bond-6 atom-6 atom-7" d="M 338.0,69.0 L 344.4,73.6" style="fill:none;fill-rule:evenodd;stroke:#000000;stroke-width:2.0px;stroke-linecap:butt;stroke-linejoin:miter;stroke-opacity:1"/>
<path class="bond-7 atom-7 atom-8" d="M 347.8,72.1 L 345.6,93.4" style="fill:none;fill-rule:evenodd;stroke:#000000;stroke-width:2.0px;stroke-linecap:butt;stroke-linejoin:miter;stroke-opacity:1"/>
<path class="bond-8 atom-8 atom-9" d="M 345.6,93.4 L 326.1,102.2" style="fill:none;fill-rule:evenodd;stroke:#000000;stroke-width:2.0px;stroke-linecap:butt;stroke-linejoin:miter;stroke-opacity:1"/>
<path class="bond-8 atom-8 atom-9" d="M 342.6,91.2 L 326.4,98.5" style="fill:none;fill-rule:evenodd;stroke:#000000;stroke-width:2.0px;stroke-linecap:butt;stroke-linejoin:miter;stroke-opacity:1"/>
<path class="bond-9 atom-9 atom-10" d="M 326.1,102.2 L 323.9,123.5" style="fill:none;fill-rule:evenodd;stroke:#000000;stroke-width:2.0px;stroke-linecap:butt;stroke-linejoin:miter;stroke-opacity:1"/>
<path class="bond-10 atom-9 atom-4" d="M 326.1,102.2 L 308.7,89.6" style="fill:none;fill-rule:evenodd;stroke:#000000;stroke-width:2.0px;stroke-linecap:butt;stroke-linejoin:miter;stroke-opacity:1"/>
<path d="M 270.8,86.3 L 271.8,85.8 L 272.1,86.1" style="fill:none;stroke:#000000;stroke-width:2.0px;stroke-linecap:butt;stroke-linejoin:miter;stroke-opacity:1;"/>
<path d="M 310.8,69.4 L 310.9,68.3 L 311.3,68.1" style="fill:none;stroke:#000000;stroke-width:2.0px;stroke-linecap:butt;stroke-linejoin:miter;stroke-opacity:1;"/>
<path d="M 347.5,71.8 L 347.8,72.1 L 347.7,73.2" style="fill:none;stroke:#000000;stroke-width:2.0px;stroke-linecap:butt;stroke-linejoin:miter;stroke-opacity:1;"/>
<path d="M 345.7,92.4 L 345.6,93.4 L 344.6,93.9" style="fill:none;stroke:#000000;stroke-width:2.0px;stroke-linecap:butt;stroke-linejoin:miter;stroke-opacity:1;"/>
<path class="atom-2" d="M 271.2 64.5 Q 271.2 63.1, 271.9 62.2 Q 272.6 61.4, 273.9 61.4 Q 275.3 61.4, 276.0 62.2 Q 276.7 63.1, 276.7 64.5 Q 276.7 66.0, 276.0 66.8 Q 275.3 67.7, 273.9 67.7 Q 272.6 67.7, 271.9 66.8 Q 271.2 66.0, 271.2 64.5 M 273.9 67.0 Q 274.9 67.0, 275.4 66.4 Q 275.9 65.7, 275.9 64.5 Q 275.9 63.3, 275.4 62.7 Q 274.9 62.1, 273.9 62.1 Q 273.0 62.1, 272.5 62.7 Q 272.0 63.3, 272.0 64.5 Q 272.0 65.7, 272.5 66.4 Q 273.0 67.0, 273.9 67.0 " fill="#FF0000"/>
<path class="atom-3" d="M 287.8 95.3 L 289.8 98.6 Q 290.0 98.9, 290.3 99.5 Q 290.6 100.0, 290.6 100.1 L 290.6 95.3 L 291.4 95.3 L 291.4 101.4 L 290.6 101.4 L 288.5 97.9 Q 288.2 97.5, 287.9 97.0 Q 287.7 96.5, 287.6 96.4 L 287.6 101.4 L 286.8 101.4 L 286.8 95.3 L 287.8 95.3 " fill="#0000FF"/>
<path class="atom-3" d="M 286.7 102.0 L 287.6 102.0 L 287.6 104.6 L 290.7 104.6 L 290.7 102.0 L 291.5 102.0 L 291.5 108.1 L 290.7 108.1 L 290.7 105.3 L 287.6 105.3 L 287.6 108.1 L 286.7 108.1 L 286.7 102.0 " fill="#0000FF"/>
<path class="atom-6" d="M 329.1 56.5 L 331.1 59.7 Q 331.3 60.0, 331.6 60.6 Q 331.9 61.2, 331.9 61.2 L 331.9 56.5 L 332.7 56.5 L 332.7 62.6 L 331.9 62.6 L 329.8 59.1 Q 329.5 58.6, 329.3 58.2 Q 329.0 57.7, 328.9 57.6 L 328.9 62.6 L 328.1 62.6 L 328.1 56.5 L 329.1 56.5 " fill="#0000FF"/>
<path class="legend" d="M 280.7 190.6 L 277.9 186.6 L 279.6 186.6 L 281.6 189.4 L 283.6 186.6 L 285.2 186.6 L 282.4 190.6 L 285.4 194.9 L 283.7 194.9 L 281.5 191.8 L 279.3 194.9 L 277.7 194.9 L 280.7 190.6 " fill="#000000"/>
<path class="legend" d="M 290.5 195.0 Q 288.4 195.0, 287.4 193.5 Q 286.3 191.9, 286.3 189.2 Q 286.3 186.5, 287.4 184.9 Q 288.4 183.4, 290.5 183.4 Q 292.6 183.4, 293.6 184.9 Q 294.6 186.5, 294.6 189.2 Q 294.6 191.9, 293.6 193.5 Q 292.6 195.0, 290.5 195.0 M 290.5 193.7 Q 291.7 193.7, 292.4 192.6 Q 293.0 191.4, 293.0 189.2 Q 293.0 187.0, 292.4 185.8 Q 291.7 184.7, 290.5 184.7 Q 289.3 184.7, 288.6 185.8 Q 287.9 187.0, 287.9 189.2 Q 287.9 191.4, 288.6 192.6 Q 289.3 193.7, 290.5 193.7 " fill="#000000"/>
<path class="legend" d="M 297.1 193.6 L 299.5 193.6 L 299.5 185.1 L 296.8 186.0 L 296.4 185.0 L 299.9 183.5 L 301.0 183.7 L 301.0 193.6 L 303.3 193.6 L 303.3 194.9 L 297.1 194.9 L 297.1 193.6 " fill="#000000"/>
<path class="legend" d="M 308.9 195.0 Q 306.8 195.0, 305.7 193.5 Q 304.7 191.9, 304.7 189.2 Q 304.7 186.5, 305.7 184.9 Q 306.8 183.4, 308.9 183.4 Q 311.0 183.4, 312.0 184.9 Q 313.0 186.5, 313.0 189.2 Q 313.0 191.9, 312.0 193.5 Q 310.9 195.0, 308.9 195.0 M 308.9 193.7 Q 310.1 193.7, 310.7 192.6 Q 311.4 191.4, 311.4 189.2 Q 311.4 187.0, 310.7 185.8 Q 310.1 184.7, 308.9 184.7 Q 307.6 184.7, 307.0 185.8 Q 306.3 187.0, 306.3 189.2 Q 306.3 191.4, 307.0 192.6 Q 307.6 193.7, 308.9 193.7 " fill="#000000"/>
<path class="legend" d="M 320.8 184.8 L 314.8 184.8 L 314.8 183.5 L 322.3 183.5 L 322.3 184.7 L 317.8 194.9 L 316.2 194.9 L 320.8 184.8 " fill="#000000"/>
<path class="bond-0 atom-0 atom-1" d="M 502.8,78.3 L 502.8,87.5" style="fill:none;fill-rule:evenodd;stroke:#FF0000;stroke-width:2.0px;stroke-linecap:butt;stroke-linejoin:miter;stroke-opacity:1"/>
<path class="bond-0 atom-0 atom-1" d="M 502.8,87.5 L 502.8,96.8" style="fill:none;fill-rule:evenodd;stroke:#000000;stroke-width:2.0px;stroke-linecap:butt;stroke-linejoin:miter;stroke-opacity:1"/>
<path class="bond-0 atom-0 atom-1" d="M 499.5,78.3 L 499.5,87.5" style="fill:none;fill-rule:evenodd;stroke:#FF0000;stroke-width:2.0px;stroke-linecap:butt;stroke-linejoin:miter;stroke-opacity:1"/>
<path class="bond-0 atom-0 atom-1" d="M 499.5,87.5 L 499.5,96.8" style="fill:none;fill-rule:evenodd;stroke:#000000;stroke-width:2.0px;stroke-linecap:butt;stroke-linejoin:miter;stroke-opacity:1"/>
<path class="bond-1 atom-1 atom-2" d="M 501.2,95.9 L 508.9,100.4" style="fill:none;fill-rule:evenodd;stroke:#000000;stroke-width:2.0px;stroke-linecap:butt;stroke-linejoin:miter;stroke-opacity:1"/>
<path class="bond-1 atom-1 atom-2" d="M 508.9,100.4 L 516.7,104.8" style="fill:none;fill-rule:evenodd;stroke:#0000FF;stroke-width:2.0px;stroke-linecap:butt;stroke-linejoin:miter;stroke-opacity:1"/>
<path class="bond-2 atom-2 atom-3" d="M 522.7,104.8 L 530.5,100.4" style="fill:none;fill-rule:evenodd;stroke:#0000FF;stroke-width:2.0px;stroke-linecap:butt;stroke-linejoin:miter;stroke-opacity:1"/>
<path class="bond-2 atom-2 atom-3" d="M 530.5,100.4 L 538.3,95.9" style="fill:none;fill-rule:evenodd;stroke:#000000;stroke-width:2.0px;stroke-linecap:butt;stroke-linejoin:miter;stroke-opacity:1"/>
<path class="bond-3 atom-3 atom-4" d="M 538.3,95.9 L 556.8,106.6" style="fill:none;fill-rule:evenodd;stroke:#000000;stroke-width:2.0px;stroke-linecap:butt;stroke-linejoin:miter;stroke-opacity:1"/>
<path class="bond-3 atom-3 atom-4" d="M 541.5,94.0 L 556.8,102.9" style="fill:none;fill-rule:evenodd;stroke:#000000;stroke-width:2.0px;stroke-linecap:butt;stroke-linejoin:miter;stroke-opacity:1"/>
<path class="bond-4 atom-4 atom-5" d="M 556.8,106.6 L 575.4,95.9" style="fill:none;fill-rule:evenodd;stroke:#000000;stroke-width:2.0px;stroke-linecap:butt;stroke-linejoin:miter;stroke-opacity:1"/>
<path class="bond-5 atom-5 atom-6" d="M 575.4,95.9 L 575.4,74.4" style="fill:none;fill-rule:evenodd;stroke:#000000;stroke-width:2.0px;stroke-linecap:butt;stroke-linejoin:miter;stroke-opacity:1"/>
<path class="bond-5 atom-5 atom-6" d="M 572.2,94.0 L 572.2,76.3" style="fill:none;fill-rule:evenodd;stroke:#000000;stroke-width:2.0px;stroke-linecap:butt;stroke-linejoin:miter;stroke-opacity:1"/>
<path class="bond-6 atom-6 atom-7" d="M 575.4,74.4 L 556.8,63.7" style="fill:none;fill-rule:evenodd;stroke:#000000;stroke-width:2.0px;stroke-linecap:butt;stroke-linejoin:miter;stroke-opacity:1"/>
<path class="bond-7 atom-7 atom-8" d="M 556.8,63.7 L 538.3,74.4" style="fill:none;fill-rule:evenodd;stroke:#000000;stroke-width:2.0px;stroke-linecap:butt;stroke-linejoin:miter;stroke-opacity:1"/>
<path class="bond-7 atom-7 atom-8" d="M 556.8,67.4 L 541.5,76.3" style="fill:none;fill-rule:evenodd;stroke:#000000;stroke-width:2.0px;stroke-linecap:butt;stroke-linejoin:miter;stroke-opacity:1"/>
<path class="bond-8 atom-1 atom-9" d="M 501.2,95.9 L 493.4,100.4" style="fill:none;fill-rule:evenodd;stroke:#000000;stroke-width:2.0px;stroke-linecap:butt;stroke-linejoin:miter;stroke-opacity:1"/>
<path class="bond-8 atom-1 atom-9" d="M 493.4,100.4 L 485.6,104.8" style="fill:none;fill-rule:evenodd;stroke:#0000FF;stroke-width:2.0px;stroke-linecap:butt;stroke-linejoin:miter;stroke-opacity:1"/>
<path class="bond-9 atom-9 atom-10" d="M 479.6,104.8 L 471.8,100.4" style="fill:none;fill-rule:evenodd;stroke:#0000FF;stroke-width:2.0px;stroke-linecap:butt;stroke-linejoin:miter;stroke-opacity:1"/>
<path class="bond-9 atom-9 atom-10" d="M 471.8,100.4 L 464.0,95.9" style="fill:none;fill-rule:evenodd;stroke:#000000;stroke-width:2.0px;stroke-linecap:butt;stroke-linejoin:miter;stroke-opacity:1"/>
<path class="bond-10 atom-10 atom-11" d="M 464.0,95.9 L 464.0,74.4" style="fill:none;fill-rule:evenodd;stroke:#000000;stroke-width:2.0px;stroke-linecap:butt;stroke-linejoin:miter;stroke-opacity:1"/>
<path class="bond-10 atom-10 atom-11" d="M 460.8,94.0 L 460.8,76.3" style="fill:none;fill-rule:evenodd;stroke:#000000;stroke-width:2.0px;stroke-linecap:butt;stroke-linejoin:miter;stroke-opacity:1"/>
<path class="bond-11 atom-11 atom-12" d="M 464.0,74.4 L 445.5,63.7" style="fill:none;fill-rule:evenodd;stroke:#000000;stroke-width:2.0px;stroke-linecap:butt;stroke-linejoin:miter;stroke-opacity:1"/>
<path class="bond-12 atom-12 atom-13" d="M 445.5,63.7 L 426.9,74.4" style="fill:none;fill-rule:evenodd;stroke:#000000;stroke-width:2.0px;stroke-linecap:butt;stroke-linejoin:miter;stroke-opacity:1"/>
<path class="bond-12 atom-12 atom-13" d="M 445.5,67.4 L 430.1,76.3" style="fill:none;fill-rule:evenodd;stroke:#000000;stroke-width:2.0px;stroke-linecap:butt;stroke-linejoin:miter;stroke-opacity:1"/>
<path class="bond-13 atom-13 atom-14" d="M 426.9,74.4 L 426.9,83.3" style="fill:none;fill-rule:evenodd;stroke:#000000;stroke-width:2.0px;stroke-linecap:butt;stroke-linejoin:miter;stroke-opacity:1"/>
<path class="bond-13 atom-13 atom-14" d="M 426.9,83.3 L 426.9,92.1" style="fill:none;fill-rule:evenodd;stroke:#0000FF;stroke-width:2.0px;stroke-linecap:butt;stroke-linejoin:miter;stroke-opacity:1"/>
<path class="bond-14 atom-14 atom-15" d="M 429.9,97.6 L 437.7,102.1" style="fill:none;fill-rule:evenodd;stroke:#0000FF;stroke-width:2.0px;stroke-linecap:butt;stroke-linejoin:miter;stroke-opacity:1"/>
<path class="bond-14 atom-14 atom-15" d="M 437.7,102.1 L 445.5,106.6" style="fill:none;fill-rule:evenodd;stroke:#000000;stroke-width:2.0px;stroke-linecap:butt;stroke-linejoin:miter;stroke-opacity:1"/>
<path class="bond-14 atom-14 atom-15" d="M 431.5,94.8 L 438.5,98.8" style="fill:none;fill-rule:evenodd;stroke:#0000FF;stroke-width:2.0px;stroke-linecap:butt;stroke-linejoin:miter;stroke-opacity:1"/>
<path class="bond-14 atom-14 atom-15" d="M 438.5,98.8 L 445.5,102.9" style="fill:none;fill-rule:evenodd;stroke:#000000;stroke-width:2.0px;stroke-linecap:butt;stroke-linejoin:miter;stroke-opacity:1"/>
<path class="bond-15 atom-8 atom-3" d="M 538.3,74.4 L 538.3,95.9" style="fill:none;fill-rule:evenodd;stroke:#000000;stroke-width:2.0px;stroke-linecap:butt;stroke-linejoin:miter;stroke-opacity:1"/>
<path class="bond-16 atom-15 atom-10" d="M 445.5,106.6 L 464.0,95.9" style="fill:none;fill-rule:evenodd;stroke:#000000;stroke-width:2.0px;stroke-linecap:butt;stroke-linejoin:miter;stroke-opacity:1"/>
<path d="M 501.5,96.1 L 501.2,95.9 L 500.8,96.1" style="fill:none;stroke:#000000;stroke-width:2.0px;stroke-linecap:butt;stroke-linejoin:miter;stroke-opacity:1;"/>
<path d="M 555.9,106.0 L 556.8,106.6 L 557.8,106.0" style="fill:none;stroke:#000000;stroke-width:2.0px;stroke-linecap:butt;stroke-linejoin:miter;stroke-opacity:1;"/>
<path d="M 574.5,96.4 L 575.4,95.9 L 575.4,94.8" style="fill:none;stroke:#000000;stroke-width:2.0px;stroke-linecap:butt;stroke-linejoin:miter;stroke-opacity:1;"/>
<path d="M 575.4,75.5 L 575.4,74.4 L 574.5,73.9" style="fill:none;stroke:#000000;stroke-width:2.0px;stroke-linecap:butt;stroke-linejoin:miter;stroke-opacity:1;"/>
<path d="M 557.8,64.2 L 556.8,63.7 L 555.9,64.2" style="fill:none;stroke:#000000;stroke-width:2.0px;stroke-linecap:butt;stroke-linejoin:miter;stroke-opacity:1;"/>
<path d="M 539.2,73.9 L 538.3,74.4 L 538.3,75.5" style="fill:none;stroke:#000000;stroke-width:2.0px;stroke-linecap:butt;stroke-linejoin:miter;stroke-opacity:1;"/>
<path d="M 464.0,75.5 L 464.0,74.4 L 463.1,73.9" style="fill:none;stroke:#000000;stroke-width:2.0px;stroke-linecap:butt;stroke-linejoin:miter;stroke-opacity:1;"/>
<path d="M 446.4,64.2 L 445.5,63.7 L 444.5,64.2" style="fill:none;stroke:#000000;stroke-width:2.0px;stroke-linecap:butt;stroke-linejoin:miter;stroke-opacity:1;"/>
<path d="M 427.8,73.9 L 426.9,74.4 L 426.9,74.9" style="fill:none;stroke:#000000;stroke-width:2.0px;stroke-linecap:butt;stroke-linejoin:miter;stroke-opacity:1;"/>
<path d="M 445.1,106.4 L 445.5,106.6 L 446.4,106.0" style="fill:none;stroke:#000000;stroke-width:2.0px;stroke-linecap:butt;stroke-linejoin:miter;stroke-opacity:1;"/>
<path class="atom-0" d="M 498.4 74.4 Q 498.4 73.0, 499.1 72.2 Q 499.8 71.4, 501.2 71.4 Q 502.5 71.4, 503.2 72.2 Q 503.9 73.0, 503.9 74.4 Q 503.9 75.9, 503.2 76.8 Q 502.5 77.6, 501.2 77.6 Q 499.8 77.6, 499.1 76.8 Q 498.4 75.9, 498.4 74.4 M 501.2 76.9 Q 502.1 76.9, 502.6 76.3 Q 503.1 75.7, 503.1 74.4 Q 503.1 73.3, 502.6 72.7 Q 502.1 72.0, 501.2 72.0 Q 500.2 72.0, 499.7 72.6 Q 499.2 73.2, 499.2 74.4 Q 499.2 75.7, 499.7 76.3 Q 500.2 76.9, 501.2 76.9 " fill="#FF0000"/>
<path class="atom-2" d="M 518.4 103.5 L 520.4 106.8 Q 520.6 107.1, 520.9 107.7 Q 521.2 108.2, 521.2 108.3 L 521.2 103.5 L 522.0 103.5 L 522.0 109.6 L 521.2 109.6 L 519.0 106.1 Q 518.8 105.7, 518.5 105.2 Q 518.3 104.7, 518.2 104.6 L 518.2 109.6 L 517.4 109.6 L 517.4 103.5 L 518.4 103.5 " fill="#0000FF"/>
<path class="atom-2" d="M 517.3 110.2 L 518.2 110.2 L 518.2 112.8 L 521.3 112.8 L 521.3 110.2 L 522.1 110.2 L 522.1 116.3 L 521.3 116.3 L 521.3 113.5 L 518.2 113.5 L 518.2 116.3 L 517.3 116.3 L 517.3 110.2 " fill="#0000FF"/>
<path class="atom-9" d="M 481.2 103.5 L 483.2 106.8 Q 483.4 107.1, 483.7 107.7 Q 484.1 108.2, 484.1 108.3 L 484.1 103.5 L 484.9 103.5 L 484.9 109.6 L 484.1 109.6 L 481.9 106.1 Q 481.7 105.7, 481.4 105.2 Q 481.2 104.7, 481.1 104.6 L 481.1 109.6 L 480.3 109.6 L 480.3 103.5 L 481.2 103.5 " fill="#0000FF"/>
<path class="atom-9" d="M 480.2 110.2 L 481.0 110.2 L 481.0 112.8 L 484.1 112.8 L 484.1 110.2 L 485.0 110.2 L 485.0 116.3 L 484.1 116.3 L 484.1 113.5 L 481.0 113.5 L 481.0 116.3 L 480.2 116.3 L 480.2 110.2 " fill="#0000FF"/>
<path class="atom-14" d="M 425.6 92.8 L 427.5 96.0 Q 427.7 96.4, 428.1 96.9 Q 428.4 97.5, 428.4 97.5 L 428.4 92.8 L 429.2 92.8 L 429.2 98.9 L 428.4 98.9 L 426.2 95.4 Q 426.0 95.0, 425.7 94.5 Q 425.5 94.0, 425.4 93.9 L 425.4 98.9 L 424.6 98.9 L 424.6 92.8 L 425.6 92.8 " fill="#0000FF"/>
<path class="legend" d="M 479.3 190.6 L 476.6 186.6 L 478.3 186.6 L 480.3 189.4 L 482.3 186.6 L 483.9 186.6 L 481.1 190.6 L 484.1 194.8 L 482.3 194.8 L 480.2 191.7 L 478.0 194.8 L 476.3 194.8 L 479.3 190.6 " fill="#000000"/>
<path class="legend" d="M 489.2 195.0 Q 487.1 195.0, 486.1 193.4 Q 485.1 191.9, 485.1 189.2 Q 485.1 186.4, 486.1 184.9 Q 487.1 183.4, 489.2 183.4 Q 491.3 183.4, 492.3 184.9 Q 493.4 186.4, 493.4 189.2 Q 493.4 191.9, 492.3 193.4 Q 491.3 195.0, 489.2 195.0 M 489.2 193.7 Q 490.4 193.7, 491.1 192.6 Q 491.8 191.4, 491.8 189.2 Q 491.8 186.9, 491.1 185.8 Q 490.4 184.7, 489.2 184.7 Q 488.0 184.7, 487.3 185.8 Q 486.7 186.9, 486.7 189.2 Q 486.7 191.4, 487.3 192.6 Q 488.0 193.7, 489.2 193.7 " fill="#000000"/>
<path class="legend" d="M 502.6 191.0 L 503.9 191.0 L 503.9 192.2 L 502.6 192.2 L 502.6 194.8 L 501.1 194.8 L 501.1 192.2 L 495.2 192.2 L 495.2 191.2 L 500.2 183.5 L 502.6 183.5 L 502.6 191.0 M 497.1 191.0 L 501.1 191.0 L 501.1 184.5 L 497.1 191.0 " fill="#000000"/>
<path class="legend" d="M 511.0 188.9 Q 512.1 189.2, 512.6 189.9 Q 513.2 190.6, 513.2 191.7 Q 513.2 192.7, 512.7 193.4 Q 512.2 194.2, 511.3 194.6 Q 510.4 195.0, 509.3 195.0 Q 508.1 195.0, 507.2 194.6 Q 506.3 194.2, 505.6 193.3 L 506.5 192.4 Q 507.2 193.1, 507.8 193.4 Q 508.4 193.7, 509.3 193.7 Q 510.3 193.7, 510.9 193.2 Q 511.6 192.6, 511.6 191.7 Q 511.6 190.6, 510.9 190.1 Q 510.3 189.5, 508.9 189.5 L 508.1 189.5 L 508.1 188.4 L 508.8 188.4 Q 510.0 188.4, 510.7 187.8 Q 511.3 187.3, 511.3 186.3 Q 511.3 185.5, 510.8 185.1 Q 510.2 184.7, 509.3 184.7 Q 508.4 184.7, 507.8 185.0 Q 507.2 185.3, 506.8 186.2 L 505.6 185.6 Q 506.0 184.6, 507.0 184.0 Q 508.0 183.4, 509.3 183.4 Q 511.0 183.4, 512.0 184.2 Q 512.9 185.0, 512.9 186.3 Q 512.9 187.2, 512.4 187.8 Q 511.9 188.5, 511.0 188.9 " fill="#000000"/>
<path class="legend" d="M 522.3 191.0 L 523.7 191.0 L 523.7 192.2 L 522.3 192.2 L 522.3 194.8 L 520.8 194.8 L 520.8 192.2 L 514.9 192.2 L 514.9 191.2 L 519.9 183.5 L 522.3 183.5 L 522.3 191.0 M 516.8 191.0 L 520.8 191.0 L 520.8 184.5 L 516.8 191.0 " fill="#000000"/>
<path class="bond-0 atom-0 atom-1" d="M 123.1,290.0 L 113.9,290.0" style="fill:none;fill-rule:evenodd;stroke:#0000FF;stroke-width:2.0px;stroke-linecap:butt;stroke-linejoin:miter;stroke-opacity:1"/>
<path class="bond-0 atom-0 atom-1" d="M 113.9,290.0 L 104.7,290.0" style="fill:none;fill-rule:evenodd;stroke:#000000;stroke-width:2.0px;stroke-linecap:butt;stroke-linejoin:miter;stroke-opacity:1"/>
<path class="bond-1 atom-1 atom-2" d="M 104.7,290.0 L 94.0,308.6" style="fill:none;fill-rule:evenodd;stroke:#000000;stroke-width:2.0px;stroke-linecap:butt;stroke-linejoin:miter;stroke-opacity:1"/>
<path class="bond-1 atom-1 atom-2" d="M 101.0,290.0 L 92.1,305.3" style="fill:none;fill-rule:evenodd;stroke:#000000;stroke-width:2.0px;stroke-linecap:butt;stroke-linejoin:miter;stroke-opacity:1"/>
<path class="bond-2 atom-2 atom-3" d="M 94.0,308.6 L 84.7,308.6" style="fill:none;fill-rule:evenodd;stroke:#000000;stroke-width:2.0px;stroke-linecap:butt;stroke-linejoin:miter;stroke-opacity:1"/>
<path class="bond-2 atom-2 atom-3" d="M 84.7,308.6 L 75.5,308.6" style="fill:none;fill-rule:evenodd;stroke:#0000FF;stroke-width:2.0px;stroke-linecap:butt;stroke-linejoin:miter;stroke-opacity:1"/>
<path class="bond-3 atom-3 atom-4" d="M 70.4,304.8 L 66.1,297.4" style="fill:none;fill-rule:evenodd;stroke:#0000FF;stroke-width:2.0px;stroke-linecap:butt;stroke-linejoin:miter;stroke-opacity:1"/>
<path class="bond-3 atom-3 atom-4" d="M 66.1,297.4 L 61.8,290.0" style="fill:none;fill-rule:evenodd;stroke:#000000;stroke-width:2.0px;stroke-linecap:butt;stroke-linejoin:miter;stroke-opacity:1"/>
<path class="bond-3 atom-3 atom-4" d="M 73.1,303.2 L 69.3,296.6" style="fill:none;fill-rule:evenodd;stroke:#0000FF;stroke-width:2.0px;stroke-linecap:butt;stroke-linejoin:miter;stroke-opacity:1"/>
<path class="bond-3 atom-3 atom-4" d="M 69.3,296.6 L 65.5,290.0" style="fill:none;fill-rule:evenodd;stroke:#000000;stroke-width:2.0px;stroke-linecap:butt;stroke-linejoin:miter;stroke-opacity:1"/>
<path class="bond-4 atom-4 atom-5" d="M 61.8,290.0 L 66.1,282.6" style="fill:none;fill-rule:evenodd;stroke:#000000;stroke-width:2.0px;stroke-linecap:butt;stroke-linejoin:miter;stroke-opacity:1"/>
<path class="bond-4 atom-4 atom-5" d="M 66.1,282.6 L 70.4,275.2" style="fill:none;fill-rule:evenodd;stroke:#0000FF;stroke-width:2.0px;stroke-linecap:butt;stroke-linejoin:miter;stroke-opacity:1"/>
<path class="bond-5 atom-5 atom-6" d="M 75.5,271.4 L 84.7,271.4" style="fill:none;fill-rule:evenodd;stroke:#0000FF;stroke-width:2.0px;stroke-linecap:butt;stroke-linejoin:miter;stroke-opacity:1"/>
<path class="bond-5 atom-5 atom-6" d="M 84.7,271.4 L 94.0,271.4" style="fill:none;fill-rule:evenodd;stroke:#000000;stroke-width:2.0px;stroke-linecap:butt;stroke-linejoin:miter;stroke-opacity:1"/>
<path class="bond-5 atom-5 atom-6" d="M 75.5,274.7 L 83.8,274.7" style="fill:none;fill-rule:evenodd;stroke:#0000FF;stroke-width:2.0px;stroke-linecap:butt;stroke-linejoin:miter;stroke-opacity:1"/>
<path class="bond-5 atom-5 atom-6" d="M 83.8,274.7 L 92.1,274.7" style="fill:none;fill-rule:evenodd;stroke:#000000;stroke-width:2.0px;stroke-linecap:butt;stroke-linejoin:miter;stroke-opacity:1"/>
<path class="bond-6 atom-6 atom-1" d="M 94.0,271.4 L 104.7,290.0" style="fill:none;fill-rule:evenodd;stroke:#000000;stroke-width:2.0px;stroke-linecap:butt;stroke-linejoin:miter;stroke-opacity:1"/>
<path d="M 94.5,307.6 L 94.0,308.6 L 93.5,308.6" style="fill:none;stroke:#000000;stroke-width:2.0px;stroke-linecap:butt;stroke-linejoin:miter;stroke-opacity:1;"/>
<path d="M 62.0,290.4 L 61.8,290.0 L 62.0,289.6" style="fill:none;stroke:#000000;stroke-width:2.0px;stroke-linecap:butt;stroke-linejoin:miter;stroke-opacity:1;"/>
<path d="M 93.5,271.4 L 94.0,271.4 L 94.5,272.4" style="fill:none;stroke:#000000;stroke-width:2.0px;stroke-linecap:butt;stroke-linejoin:miter;stroke-opacity:1;"/>
<path class="atom-0" d="M 124.8 287.0 L 126.8 290.2 Q 127.0 290.5, 127.3 291.1 Q 127.6 291.6, 127.6 291.7 L 127.6 287.0 L 128.4 287.0 L 128.4 293.0 L 127.6 293.0 L 125.4 289.5 Q 125.2 289.1, 124.9 288.6 Q 124.7 288.2, 124.6 288.0 L 124.6 293.0 L 123.8 293.0 L 123.8 287.0 L 124.8 287.0 " fill="#0000FF"/>
<path class="atom-0" d="M 129.6 287.0 L 130.4 287.0 L 130.4 289.5 L 133.5 289.5 L 133.5 287.0 L 134.3 287.0 L 134.3 293.0 L 133.5 293.0 L 133.5 290.2 L 130.4 290.2 L 130.4 293.0 L 129.6 293.0 L 129.6 287.0 " fill="#0000FF"/>
<path class="atom-0" d="M 135.5 292.8 Q 135.7 292.4, 136.0 292.2 Q 136.4 292.0, 136.8 292.0 Q 137.4 292.0, 137.8 292.3 Q 138.1 292.7, 138.1 293.3 Q 138.1 293.9, 137.7 294.4 Q 137.3 295.0, 136.3 295.6 L 138.2 295.6 L 138.2 296.1 L 135.5 296.1 L 135.5 295.7 Q 136.2 295.2, 136.7 294.8 Q 137.1 294.4, 137.3 294.0 Q 137.6 293.7, 137.6 293.3 Q 137.6 292.9, 137.4 292.7 Q 137.2 292.5, 136.8 292.5 Q 136.5 292.5, 136.3 292.6 Q 136.1 292.7, 135.9 293.0 L 135.5 292.8 " fill="#0000FF"/>
<path class="atom-3" d="M 71.2 305.5 L 73.2 308.7 Q 73.4 309.1, 73.7 309.6 Q 74.0 310.2, 74.0 310.2 L 74.0 305.5 L 74.8 305.5 L 74.8 311.6 L 74.0 311.6 L 71.9 308.1 Q 71.6 307.7, 71.3 307.2 Q 71.1 306.7, 71.0 306.6 L 71.0 311.6 L 70.2 311.6 L 70.2 305.5 L 71.2 305.5 " fill="#0000FF"/>
<path class="atom-5" d="M 71.2 268.4 L 73.2 271.6 Q 73.4 271.9, 73.7 272.5 Q 74.0 273.1, 74.0 273.1 L 74.0 268.4 L 74.8 268.4 L 74.8 274.5 L 74.0 274.5 L 71.9 271.0 Q 71.6 270.5, 71.3 270.1 Q 71.1 269.6, 71.0 269.5 L 71.0 274.5 L 70.2 274.5 L 70.2 268.4 L 71.2 268.4 " fill="#0000FF"/>
<path class="legend" d="M 80.0 390.6 L 77.2 386.6 L 79.0 386.6 L 81.0 389.4 L 82.9 386.6 L 84.6 386.6 L 81.8 390.6 L 84.8 394.9 L 83.0 394.9 L 80.8 391.8 L 78.7 394.9 L 77.0 394.9 L 80.0 390.6 " fill="#000000"/>
<path class="legend" d="M 89.9 395.0 Q 87.8 395.0, 86.7 393.5 Q 85.7 391.9, 85.7 389.2 Q 85.7 386.5, 86.7 384.9 Q 87.8 383.4, 89.9 383.4 Q 92.0 383.4, 93.0 384.9 Q 94.0 386.5, 94.0 389.2 Q 94.0 391.9, 93.0 393.5 Q 91.9 395.0, 89.9 395.0 M 89.9 393.7 Q 91.1 393.7, 91.8 392.6 Q 92.4 391.4, 92.4 389.2 Q 92.4 387.0, 91.8 385.8 Q 91.1 384.7, 89.9 384.7 Q 88.7 384.7, 88.0 385.8 Q 87.3 387.0, 87.3 389.2 Q 87.3 391.4, 88.0 392.6 Q 88.7 393.7, 89.9 393.7 " fill="#000000"/>
<path class="legend" d="M 99.6 383.4 Q 101.7 383.4, 102.7 384.8 Q 103.7 386.2, 103.7 388.9 Q 103.7 391.9, 102.4 393.4 Q 101.2 395.0, 98.8 395.0 Q 98.1 395.0, 97.5 394.8 Q 96.9 394.7, 96.3 394.3 L 96.9 393.3 Q 97.7 393.7, 98.8 393.7 Q 100.4 393.7, 101.2 392.7 Q 102.0 391.7, 102.1 389.5 Q 101.5 390.1, 100.8 390.3 Q 100.0 390.6, 99.3 390.6 Q 98.3 390.6, 97.5 390.2 Q 96.7 389.8, 96.3 389.0 Q 95.8 388.2, 95.8 387.2 Q 95.8 386.1, 96.3 385.2 Q 96.8 384.4, 97.7 383.9 Q 98.5 383.4, 99.6 383.4 M 97.4 387.2 Q 97.4 388.2, 98.0 388.8 Q 98.6 389.3, 99.6 389.3 Q 100.2 389.3, 100.9 389.1 Q 101.6 388.8, 102.1 388.3 Q 102.0 386.4, 101.4 385.6 Q 100.8 384.7, 99.6 384.7 Q 99.0 384.7, 98.5 385.0 Q 98.0 385.4, 97.7 385.9 Q 97.4 386.5, 97.4 387.2 " fill="#000000"/>
<path class="legend" d="M 109.4 383.4 Q 111.4 383.4, 112.4 384.8 Q 113.4 386.2, 113.4 388.9 Q 113.4 391.9, 112.2 393.4 Q 110.9 395.0, 108.5 395.0 Q 107.8 395.0, 107.2 394.8 Q 106.6 394.7, 106.0 394.3 L 106.6 393.3 Q 107.5 393.7, 108.5 393.7 Q 110.1 393.7, 110.9 392.7 Q 111.7 391.7, 111.8 389.5 Q 111.2 390.1, 110.5 390.3 Q 109.8 390.6, 109.0 390.6 Q 108.0 390.6, 107.2 390.2 Q 106.4 389.8, 106.0 389.0 Q 105.6 388.2, 105.6 387.2 Q 105.6 386.1, 106.1 385.2 Q 106.5 384.4, 107.4 383.9 Q 108.3 383.4, 109.4 383.4 M 107.2 387.2 Q 107.2 388.2, 107.7 388.8 Q 108.3 389.3, 109.3 389.3 Q 110.0 389.3, 110.6 389.1 Q 111.3 388.8, 111.8 388.3 Q 111.7 386.4, 111.2 385.6 Q 110.6 384.7, 109.4 384.7 Q 108.8 384.7, 108.2 385.0 Q 107.7 385.4, 107.5 385.9 Q 107.2 386.5, 107.2 387.2 " fill="#000000"/>
<path class="legend" d="M 119.4 387.8 Q 120.4 387.8, 121.2 388.2 Q 122.0 388.6, 122.5 389.4 Q 123.0 390.2, 123.0 391.3 Q 123.0 392.5, 122.4 393.3 Q 121.8 394.1, 120.9 394.6 Q 120.0 395.0, 118.9 395.0 Q 117.9 395.0, 116.9 394.6 Q 116.0 394.2, 115.3 393.5 L 116.3 392.5 Q 116.8 393.1, 117.5 393.4 Q 118.2 393.7, 119.0 393.7 Q 120.0 393.7, 120.7 393.1 Q 121.4 392.5, 121.4 391.3 Q 121.4 390.1, 120.7 389.6 Q 120.0 389.0, 118.9 389.0 Q 117.9 389.0, 116.8 389.4 L 115.9 389.0 L 116.4 383.5 L 122.3 383.5 L 122.1 384.8 L 117.8 384.8 L 117.4 388.2 Q 118.4 387.8, 119.4 387.8 " fill="#000000"/>
</svg>