<svg xmlns="http://www.w3.org/2000/svg" xmlns:rdkit="http://www.rdkit.org/xml" xmlns:xlink="http://www.w3.org/1999/xlink" version="1.1" baseProfile="full" xml:space="preserve" width="600px" height="400px" viewBox="0 0 600 400">
<!-- END OF HEADER -->
<rect style="opacity:1.0;fill:#FFFFFF;stroke:none" width="600.0" height="400.0" x="0.0" y="0.0"> </rect>
<path class="bond-0 atom-0 atom-1" d="M 27.2,135.3 L 30.3,109.7" style="fill:none;fill-rule:evenodd;stroke:#000000;stroke-width:2.0px;stroke-linecap:butt;stroke-linejoin:miter;stroke-opacity:1"/>
<path class="bond-1 atom-1 atom-2" d="M 30.3,109.7 L 9.6,94.2" style="fill:none;fill-rule:evenodd;stroke:#000000;stroke-width:2.0px;stroke-linecap:butt;stroke-linejoin:miter;stroke-opacity:1"/>
<path class="bond-1 atom-1 atom-2" d="M 30.8,105.2 L 13.7,92.4" style="fill:none;fill-rule:evenodd;stroke:#000000;stroke-width:2.0px;stroke-linecap:butt;stroke-linejoin:miter;stroke-opacity:1"/>
<path class="bond-2 atom-2 atom-3" d="M 9.6,94.2 L 12.6,68.5" style="fill:none;fill-rule:evenodd;stroke:#000000;stroke-width:2.0px;stroke-linecap:butt;stroke-linejoin:miter;stroke-opacity:1"/>
<path class="bond-3 atom-3 atom-4" d="M 12.6,68.5 L 22.7,64.2" style="fill:none;fill-rule:evenodd;stroke:#000000;stroke-width:2.0px;stroke-linecap:butt;stroke-linejoin:miter;stroke-opacity:1"/>
<path class="bond-3 atom-3 atom-4" d="M 22.7,64.2 L 32.8,59.9" style="fill:none;fill-rule:evenodd;stroke:#0000FF;stroke-width:2.0px;stroke-linecap:butt;stroke-linejoin:miter;stroke-opacity:1"/>
<path class="bond-3 atom-3 atom-4" d="M 16.2,71.2 L 25.3,67.3" style="fill:none;fill-rule:evenodd;stroke:#000000;stroke-width:2.0px;stroke-linecap:butt;stroke-linejoin:miter;stroke-opacity:1"/>
<path class="bond-3 atom-3 atom-4" d="M 25.3,67.3 L 34.3,63.5" style="fill:none;fill-rule:evenodd;stroke:#0000FF;stroke-width:2.0px;stroke-linecap:butt;stroke-linejoin:miter;stroke-opacity:1"/>
<path class="bond-4 atom-4 atom-5" d="M 40.0,61.1 L 48.6,67.4" style="fill:none;fill-rule:evenodd;stroke:#0000FF;stroke-width:2.0px;stroke-linecap:butt;stroke-linejoin:miter;stroke-opacity:1"/>
<path class="bond-4 atom-4 atom-5" d="M 48.6,67.4 L 57.1,73.8" style="fill:none;fill-rule:evenodd;stroke:#000000;stroke-width:2.0px;stroke-linecap:butt;stroke-linejoin:miter;stroke-opacity:1"/>
<path class="bond-5 atom-5 atom-6" d="M 57.1,73.8 L 54.0,99.5" style="fill:none;fill-rule:evenodd;stroke:#000000;stroke-width:2.0px;stroke-linecap:butt;stroke-linejoin:miter;stroke-opacity:1"/>
<path class="bond-5 atom-5 atom-6" d="M 53.0,75.6 L 50.4,96.8" style="fill:none;fill-rule:evenodd;stroke:#000000;stroke-width:2.0px;stroke-linecap:butt;stroke-linejoin:miter;stroke-opacity:1"/>
<path class="bond-6 atom-6 atom-7" d="M 54.0,99.5 L 62.6,105.9" style="fill:none;fill-rule:evenodd;stroke:#000000;stroke-width:2.0px;stroke-linecap:butt;stroke-linejoin:miter;stroke-opacity:1"/>
<path class="bond-6 atom-6 atom-7" d="M 62.6,105.9 L 71.1,112.3" style="fill:none;fill-rule:evenodd;stroke:#0000FF;stroke-width:2.0px;stroke-linecap:butt;stroke-linejoin:miter;stroke-opacity:1"/>
<path class="bond-7 atom-7 atom-8" d="M 78.3,113.4 L 88.4,109.1" style="fill:none;fill-rule:evenodd;stroke:#0000FF;stroke-width:2.0px;stroke-linecap:butt;stroke-linejoin:miter;stroke-opacity:1"/>
<path class="bond-7 atom-7 atom-8" d="M 88.4,109.1 L 98.5,104.8" style="fill:none;fill-rule:evenodd;stroke:#000000;stroke-width:2.0px;stroke-linecap:butt;stroke-linejoin:miter;stroke-opacity:1"/>
<path class="bond-8 atom-8 atom-9" d="M 100.3,106.1 L 101.6,95.1" style="fill:none;fill-rule:evenodd;stroke:#000000;stroke-width:2.0px;stroke-linecap:butt;stroke-linejoin:miter;stroke-opacity:1"/>
<path class="bond-8 atom-8 atom-9" d="M 101.6,95.1 L 102.9,84.0" style="fill:none;fill-rule:evenodd;stroke:#FF0000;stroke-width:2.0px;stroke-linecap:butt;stroke-linejoin:miter;stroke-opacity:1"/>
<path class="bond-8 atom-8 atom-9" d="M 96.4,105.7 L 97.7,94.6" style="fill:none;fill-rule:evenodd;stroke:#000000;stroke-width:2.0px;stroke-linecap:butt;stroke-linejoin:miter;stroke-opacity:1"/>
<path class="bond-8 atom-8 atom-9" d="M 97.7,94.6 L 99.1,83.6" style="fill:none;fill-rule:evenodd;stroke:#FF0000;stroke-width:2.0px;stroke-linecap:butt;stroke-linejoin:miter;stroke-opacity:1"/>
<path class="bond-9 atom-8 atom-10" d="M 98.5,104.8 L 119.2,120.3" style="fill:none;fill-rule:evenodd;stroke:#000000;stroke-width:2.0px;stroke-linecap:butt;stroke-linejoin:miter;stroke-opacity:1"/>
<path class="bond-10 atom-10 atom-11" d="M 119.2,120.3 L 142.9,110.1" style="fill:none;fill-rule:evenodd;stroke:#000000;stroke-width:2.0px;stroke-linecap:butt;stroke-linejoin:miter;stroke-opacity:1"/>
<path class="bond-11 atom-11 atom-12" d="M 142.9,110.1 L 163.6,125.6" style="fill:none;fill-rule:evenodd;stroke:#000000;stroke-width:2.0px;stroke-linecap:butt;stroke-linejoin:miter;stroke-opacity:1"/>
<path class="bond-11 atom-11 atom-12" d="M 147.0,108.3 L 164.1,121.1" style="fill:none;fill-rule:evenodd;stroke:#000000;stroke-width:2.0px;stroke-linecap:butt;stroke-linejoin:miter;stroke-opacity:1"/>
<path class="bond-12 atom-12 atom-13" d="M 163.6,125.6 L 187.4,115.4" style="fill:none;fill-rule:evenodd;stroke:#000000;stroke-width:2.0px;stroke-linecap:butt;stroke-linejoin:miter;stroke-opacity:1"/>
<path class="bond-13 atom-13 atom-14" d="M 187.4,115.4 L 190.4,89.8" style="fill:none;fill-rule:evenodd;stroke:#000000;stroke-width:2.0px;stroke-linecap:butt;stroke-linejoin:miter;stroke-opacity:1"/>
<path class="bond-13 atom-13 atom-14" d="M 183.8,112.7 L 186.3,91.5" style="fill:none;fill-rule:evenodd;stroke:#000000;stroke-width:2.0px;stroke-linecap:butt;stroke-linejoin:miter;stroke-opacity:1"/>
<path class="bond-14 atom-14 atom-15" d="M 190.4,89.8 L 169.7,74.3" style="fill:none;fill-rule:evenodd;stroke:#000000;stroke-width:2.0px;stroke-linecap:butt;stroke-linejoin:miter;stroke-opacity:1"/>
<path class="bond-15 atom-15 atom-16" d="M 169.7,74.3 L 171.0,63.9" style="fill:none;fill-rule:evenodd;stroke:#000000;stroke-width:2.0px;stroke-linecap:butt;stroke-linejoin:miter;stroke-opacity:1"/>
<path class="bond-15 atom-15 atom-16" d="M 171.0,63.9 L 172.2,53.5" style="fill:none;fill-rule:evenodd;stroke:#00CC00;stroke-width:2.0px;stroke-linecap:butt;stroke-linejoin:miter;stroke-opacity:1"/>
<path class="bond-16 atom-15 atom-17" d="M 169.7,74.3 L 146.0,84.4" style="fill:none;fill-rule:evenodd;stroke:#000000;stroke-width:2.0px;stroke-linecap:butt;stroke-linejoin:miter;stroke-opacity:1"/>
<path class="bond-16 atom-15 atom-17" d="M 169.2,78.7 L 149.6,87.1" style="fill:none;fill-rule:evenodd;stroke:#000000;stroke-width:2.0px;stroke-linecap:butt;stroke-linejoin:miter;stroke-opacity:1"/>
<path class="bond-17 atom-6 atom-1" d="M 54.0,99.5 L 30.3,109.7" style="fill:none;fill-rule:evenodd;stroke:#000000;stroke-width:2.0px;stroke-linecap:butt;stroke-linejoin:miter;stroke-opacity:1"/>
<path class="bond-18 atom-17 atom-11" d="M 146.0,84.4 L 142.9,110.1" style="fill:none;fill-rule:evenodd;stroke:#000000;stroke-width:2.0px;stroke-linecap:butt;stroke-linejoin:miter;stroke-opacity:1"/>
<path d="M 10.6,94.9 L 9.6,94.2 L 9.7,92.9" style="fill:none;stroke:#000000;stroke-width:2.0px;stroke-linecap:butt;stroke-linejoin:miter;stroke-opacity:1;"/>
<path d="M 12.5,69.8 L 12.6,68.5 L 13.1,68.3" style="fill:none;stroke:#000000;stroke-width:2.0px;stroke-linecap:butt;stroke-linejoin:miter;stroke-opacity:1;"/>
<path d="M 56.7,73.5 L 57.1,73.8 L 56.9,75.1" style="fill:none;stroke:#000000;stroke-width:2.0px;stroke-linecap:butt;stroke-linejoin:miter;stroke-opacity:1;"/>
<path d="M 98.0,105.0 L 98.5,104.8 L 99.5,105.6" style="fill:none;stroke:#000000;stroke-width:2.0px;stroke-linecap:butt;stroke-linejoin:miter;stroke-opacity:1;"/>
<path d="M 118.1,119.5 L 119.2,120.3 L 120.3,119.8" style="fill:none;stroke:#000000;stroke-width:2.0px;stroke-linecap:butt;stroke-linejoin:miter;stroke-opacity:1;"/>
<path d="M 162.6,124.8 L 163.6,125.6 L 164.8,125.1" style="fill:none;stroke:#000000;stroke-width:2.0px;stroke-linecap:butt;stroke-linejoin:miter;stroke-opacity:1;"/>
<path d="M 186.2,115.9 L 187.4,115.4 L 187.5,114.1" style="fill:none;stroke:#000000;stroke-width:2.0px;stroke-linecap:butt;stroke-linejoin:miter;stroke-opacity:1;"/>
<path d="M 190.3,91.0 L 190.4,89.8 L 189.4,89.0" style="fill:none;stroke:#000000;stroke-width:2.0px;stroke-linecap:butt;stroke-linejoin:miter;stroke-opacity:1;"/>
<path d="M 147.2,83.9 L 146.0,84.4 L 145.8,85.7" style="fill:none;stroke:#000000;stroke-width:2.0px;stroke-linecap:butt;stroke-linejoin:miter;stroke-opacity:1;"/>
<path class="atom-4" d="M 34.8 54.7 L 37.2 58.6 Q 37.4 58.9, 37.8 59.6 Q 38.2 60.3, 38.2 60.4 L 38.2 54.7 L 39.2 54.7 L 39.2 62.0 L 38.2 62.0 L 35.6 57.8 Q 35.3 57.3, 35.0 56.7 Q 34.7 56.1, 34.6 55.9 L 34.6 62.0 L 33.6 62.0 L 33.6 54.7 L 34.8 54.7 " fill="#0000FF"/>
<path class="atom-7" d="M 73.1 111.3 L 75.5 115.2 Q 75.7 115.6, 76.1 116.3 Q 76.5 117.0, 76.5 117.0 L 76.5 111.3 L 77.5 111.3 L 77.5 118.6 L 76.5 118.6 L 73.9 114.4 Q 73.6 113.9, 73.3 113.3 Q 73.0 112.8, 72.9 112.6 L 72.9 118.6 L 71.9 118.6 L 71.9 111.3 L 73.1 111.3 " fill="#0000FF"/>
<path class="atom-7" d="M 71.8 119.4 L 72.8 119.4 L 72.8 122.5 L 76.6 122.5 L 76.6 119.4 L 77.6 119.4 L 77.6 126.7 L 76.6 126.7 L 76.6 123.3 L 72.8 123.3 L 72.8 126.7 L 71.8 126.7 L 71.8 119.4 " fill="#0000FF"/>
<path class="atom-9" d="M 98.2 79.2 Q 98.2 77.4, 99.0 76.4 Q 99.9 75.4, 101.5 75.4 Q 103.2 75.4, 104.0 76.4 Q 104.9 77.4, 104.9 79.2 Q 104.9 80.9, 104.0 81.9 Q 103.1 82.9, 101.5 82.9 Q 99.9 82.9, 99.0 81.9 Q 98.2 80.9, 98.2 79.2 M 101.5 82.1 Q 102.6 82.1, 103.2 81.4 Q 103.9 80.6, 103.9 79.2 Q 103.9 77.7, 103.2 77.0 Q 102.6 76.3, 101.5 76.3 Q 100.4 76.3, 99.8 77.0 Q 99.2 77.7, 99.2 79.2 Q 99.2 80.6, 99.8 81.4 Q 100.4 82.1, 101.5 82.1 " fill="#FF0000"/>
<path class="atom-16" d="M 170.0 48.9 Q 170.0 47.0, 170.8 46.1 Q 171.7 45.1, 173.3 45.1 Q 174.8 45.1, 175.6 46.2 L 174.9 46.8 Q 174.4 46.0, 173.3 46.0 Q 172.2 46.0, 171.6 46.7 Q 171.0 47.5, 171.0 48.9 Q 171.0 50.3, 171.6 51.1 Q 172.2 51.8, 173.4 51.8 Q 174.2 51.8, 175.2 51.3 L 175.5 52.1 Q 175.1 52.3, 174.5 52.5 Q 173.9 52.6, 173.3 52.6 Q 171.7 52.6, 170.8 51.7 Q 170.0 50.7, 170.0 48.9 " fill="#00CC00"/>
<path class="atom-16" d="M 176.4 44.7 L 177.3 44.7 L 177.3 52.5 L 176.4 52.5 L 176.4 44.7 " fill="#00CC00"/>
<path class="legend" d="M 80.1 190.6 L 77.3 186.6 L 79.1 186.6 L 81.0 189.4 L 83.0 186.6 L 84.6 186.6 L 81.8 190.6 L 84.9 194.9 L 83.1 194.9 L 80.9 191.8 L 78.7 194.9 L 77.1 194.9 L 80.1 190.6 " fill="#000000"/>
<path class="legend" d="M 85.8 185.7 Q 86.3 184.6, 87.3 184.0 Q 88.2 183.4, 89.6 183.4 Q 91.3 183.4, 92.3 184.3 Q 93.3 185.3, 93.3 186.9 Q 93.3 188.6, 92.0 190.2 Q 90.8 191.7, 88.2 193.6 L 93.4 193.6 L 93.4 194.9 L 85.8 194.9 L 85.8 193.8 Q 87.9 192.3, 89.2 191.2 Q 90.4 190.1, 91.0 189.0 Q 91.7 188.0, 91.7 187.0 Q 91.7 185.9, 91.1 185.3 Q 90.6 184.7, 89.6 184.7 Q 88.7 184.7, 88.1 185.1 Q 87.5 185.4, 87.1 186.2 L 85.8 185.7 " fill="#000000"/>
<path class="legend" d="M 99.6 187.8 Q 100.6 187.8, 101.4 188.2 Q 102.2 188.7, 102.6 189.4 Q 103.1 190.2, 103.1 191.2 Q 103.1 192.3, 102.6 193.2 Q 102.1 194.0, 101.2 194.5 Q 100.4 195.0, 99.2 195.0 Q 97.2 195.0, 96.2 193.6 Q 95.2 192.3, 95.2 189.5 Q 95.2 186.5, 96.4 185.0 Q 97.7 183.4, 100.1 183.4 Q 100.8 183.4, 101.4 183.6 Q 102.0 183.7, 102.6 184.1 L 102.0 185.1 Q 101.2 184.7, 100.1 184.7 Q 98.5 184.7, 97.7 185.7 Q 96.9 186.8, 96.8 188.9 Q 97.4 188.4, 98.1 188.1 Q 98.8 187.8, 99.6 187.8 M 99.3 193.7 Q 99.9 193.7, 100.4 193.4 Q 100.9 193.0, 101.2 192.5 Q 101.5 191.9, 101.5 191.2 Q 101.5 190.2, 100.9 189.7 Q 100.3 189.1, 99.3 189.1 Q 98.7 189.1, 98.0 189.4 Q 97.3 189.6, 96.8 190.1 Q 96.9 192.0, 97.5 192.8 Q 98.1 193.7, 99.3 193.7 " fill="#000000"/>
<path class="legend" d="M 112.1 191.0 L 113.5 191.0 L 113.5 192.3 L 112.1 192.3 L 112.1 194.9 L 110.6 194.9 L 110.6 192.3 L 104.7 192.3 L 104.7 191.3 L 109.7 183.5 L 112.1 183.5 L 112.1 191.0 M 106.6 191.0 L 110.6 191.0 L 110.6 184.6 L 106.6 191.0 " fill="#000000"/>
<path class="legend" d="M 119.5 187.8 Q 120.5 187.8, 121.2 188.2 Q 122.0 188.7, 122.5 189.4 Q 122.9 190.2, 122.9 191.2 Q 122.9 192.3, 122.4 193.2 Q 121.9 194.0, 121.0 194.5 Q 120.2 195.0, 119.1 195.0 Q 117.1 195.0, 116.0 193.6 Q 115.0 192.3, 115.0 189.5 Q 115.0 186.5, 116.3 185.0 Q 117.5 183.4, 120.0 183.4 Q 120.7 183.4, 121.3 183.6 Q 121.9 183.7, 122.4 184.1 L 121.8 185.1 Q 121.0 184.7, 120.0 184.7 Q 118.4 184.7, 117.6 185.7 Q 116.7 186.8, 116.6 188.9 Q 117.2 188.4, 117.9 188.1 Q 118.7 187.8, 119.5 187.8 M 119.1 193.7 Q 119.7 193.7, 120.2 193.4 Q 120.7 193.0, 121.0 192.5 Q 121.3 191.9, 121.3 191.2 Q 121.3 190.2, 120.7 189.7 Q 120.2 189.1, 119.2 189.1 Q 118.5 189.1, 117.8 189.4 Q 117.1 189.6, 116.6 190.1 Q 116.7 192.0, 117.3 192.8 Q 117.9 193.7, 119.1 193.7 " fill="#000000"/>
<path class="bond-0 atom-0 atom-1" d="M 242.4,95.5 L 265.9,85.0" style="fill:none;fill-rule:evenodd;stroke:#000000;stroke-width:2.0px;stroke-linecap:butt;stroke-linejoin:miter;stroke-opacity:1"/>
<path class="bond-1 atom-1 atom-2" d="M 267.8,86.3 L 268.9,75.2" style="fill:none;fill-rule:evenodd;stroke:#000000;stroke-width:2.0px;stroke-linecap:butt;stroke-linejoin:miter;stroke-opacity:1"/>
<path class="bond-1 atom-1 atom-2" d="M 268.9,75.2 L 270.0,64.1" style="fill:none;fill-rule:evenodd;stroke:#FF0000;stroke-width:2.0px;stroke-linecap:butt;stroke-linejoin:miter;stroke-opacity:1"/>
<path class="bond-1 atom-1 atom-2" d="M 263.9,85.9 L 265.0,74.8" style="fill:none;fill-rule:evenodd;stroke:#000000;stroke-width:2.0px;stroke-linecap:butt;stroke-linejoin:miter;stroke-opacity:1"/>
<path class="bond-1 atom-1 atom-2" d="M 265.0,74.8 L 266.2,63.7" style="fill:none;fill-rule:evenodd;stroke:#FF0000;stroke-width:2.0px;stroke-linecap:butt;stroke-linejoin:miter;stroke-opacity:1"/>
<path class="bond-2 atom-1 atom-3" d="M 265.9,85.0 L 274.6,91.2" style="fill:none;fill-rule:evenodd;stroke:#000000;stroke-width:2.0px;stroke-linecap:butt;stroke-linejoin:miter;stroke-opacity:1"/>
<path class="bond-2 atom-1 atom-3" d="M 274.6,91.2 L 283.3,97.5" style="fill:none;fill-rule:evenodd;stroke:#0000FF;stroke-width:2.0px;stroke-linecap:butt;stroke-linejoin:miter;stroke-opacity:1"/>
<path class="bond-3 atom-3 atom-4" d="M 290.5,98.5 L 300.5,94.0" style="fill:none;fill-rule:evenodd;stroke:#0000FF;stroke-width:2.0px;stroke-linecap:butt;stroke-linejoin:miter;stroke-opacity:1"/>
<path class="bond-3 atom-3 atom-4" d="M 300.5,94.0 L 310.5,89.5" style="fill:none;fill-rule:evenodd;stroke:#000000;stroke-width:2.0px;stroke-linecap:butt;stroke-linejoin:miter;stroke-opacity:1"/>
<path class="bond-4 atom-4 atom-5" d="M 310.5,89.5 L 313.1,63.8" style="fill:none;fill-rule:evenodd;stroke:#000000;stroke-width:2.0px;stroke-linecap:butt;stroke-linejoin:miter;stroke-opacity:1"/>
<path class="bond-4 atom-4 atom-5" d="M 314.6,87.7 L 316.7,66.5" style="fill:none;fill-rule:evenodd;stroke:#000000;stroke-width:2.0px;stroke-linecap:butt;stroke-linejoin:miter;stroke-opacity:1"/>
<path class="bond-5 atom-5 atom-6" d="M 313.1,63.8 L 323.1,59.4" style="fill:none;fill-rule:evenodd;stroke:#000000;stroke-width:2.0px;stroke-linecap:butt;stroke-linejoin:miter;stroke-opacity:1"/>
<path class="bond-5 atom-5 atom-6" d="M 323.1,59.4 L 333.1,54.9" style="fill:none;fill-rule:evenodd;stroke:#0000FF;stroke-width:2.0px;stroke-linecap:butt;stroke-linejoin:miter;stroke-opacity:1"/>
<path class="bond-6 atom-6 atom-7" d="M 340.3,55.9 L 349.0,62.2" style="fill:none;fill-rule:evenodd;stroke:#0000FF;stroke-width:2.0px;stroke-linecap:butt;stroke-linejoin:miter;stroke-opacity:1"/>
<path class="bond-6 atom-6 atom-7" d="M 349.0,62.2 L 357.6,68.4" style="fill:none;fill-rule:evenodd;stroke:#000000;stroke-width:2.0px;stroke-linecap:butt;stroke-linejoin:miter;stroke-opacity:1"/>
<path class="bond-6 atom-6 atom-7" d="M 338.1,59.0 L 345.8,64.6" style="fill:none;fill-rule:evenodd;stroke:#0000FF;stroke-width:2.0px;stroke-linecap:butt;stroke-linejoin:miter;stroke-opacity:1"/>
<path class="bond-6 atom-6 atom-7" d="M 345.8,64.6 L 353.6,70.2" style="fill:none;fill-rule:evenodd;stroke:#000000;stroke-width:2.0px;stroke-linecap:butt;stroke-linejoin:miter;stroke-opacity:1"/>
<path class="bond-7 atom-7 atom-8" d="M 357.6,68.4 L 355.0,94.1" style="fill:none;fill-rule:evenodd;stroke:#000000;stroke-width:2.0px;stroke-linecap:butt;stroke-linejoin:miter;stroke-opacity:1"/>
<path class="bond-8 atom-8 atom-9" d="M 355.0,94.1 L 331.4,104.7" style="fill:none;fill-rule:evenodd;stroke:#000000;stroke-width:2.0px;stroke-linecap:butt;stroke-linejoin:miter;stroke-opacity:1"/>
<path class="bond-8 atom-8 atom-9" d="M 351.4,91.5 L 331.9,100.2" style="fill:none;fill-rule:evenodd;stroke:#000000;stroke-width:2.0px;stroke-linecap:butt;stroke-linejoin:miter;stroke-opacity:1"/>
<path class="bond-9 atom-9 atom-10" d="M 331.4,104.7 L 328.8,130.4" style="fill:none;fill-rule:evenodd;stroke:#000000;stroke-width:2.0px;stroke-linecap:butt;stroke-linejoin:miter;stroke-opacity:1"/>
<path class="bond-10 atom-9 atom-4" d="M 331.4,104.7 L 310.5,89.5" style="fill:none;fill-rule:evenodd;stroke:#000000;stroke-width:2.0px;stroke-linecap:butt;stroke-linejoin:miter;stroke-opacity:1"/>
<path d="M 264.8,85.5 L 265.9,85.0 L 266.4,85.3" style="fill:none;stroke:#000000;stroke-width:2.0px;stroke-linecap:butt;stroke-linejoin:miter;stroke-opacity:1;"/>
<path d="M 313.0,65.1 L 313.1,63.8 L 313.6,63.6" style="fill:none;stroke:#000000;stroke-width:2.0px;stroke-linecap:butt;stroke-linejoin:miter;stroke-opacity:1;"/>
<path d="M 357.2,68.1 L 357.6,68.4 L 357.5,69.7" style="fill:none;stroke:#000000;stroke-width:2.0px;stroke-linecap:butt;stroke-linejoin:miter;stroke-opacity:1;"/>
<path d="M 355.1,92.8 L 355.0,94.1 L 353.8,94.6" style="fill:none;stroke:#000000;stroke-width:2.0px;stroke-linecap:butt;stroke-linejoin:miter;stroke-opacity:1;"/>
<path class="atom-2" d="M 265.2 59.3 Q 265.2 57.5, 266.1 56.5 Q 267.0 55.6, 268.6 55.6 Q 270.2 55.6, 271.1 56.5 Q 271.9 57.5, 271.9 59.3 Q 271.9 61.1, 271.1 62.1 Q 270.2 63.1, 268.6 63.1 Q 267.0 63.1, 266.1 62.1 Q 265.2 61.1, 265.2 59.3 M 268.6 62.2 Q 269.7 62.2, 270.3 61.5 Q 270.9 60.7, 270.9 59.3 Q 270.9 57.8, 270.3 57.1 Q 269.7 56.4, 268.6 56.4 Q 267.5 56.4, 266.9 57.1 Q 266.3 57.8, 266.3 59.3 Q 266.3 60.8, 266.9 61.5 Q 267.5 62.2, 268.6 62.2 " fill="#FF0000"/>
<path class="atom-3" d="M 285.3 96.4 L 287.7 100.3 Q 287.9 100.7, 288.3 101.4 Q 288.7 102.1, 288.7 102.1 L 288.7 96.4 L 289.7 96.4 L 289.7 103.8 L 288.7 103.8 L 286.1 99.5 Q 285.8 99.0, 285.5 98.5 Q 285.2 97.9, 285.1 97.7 L 285.1 103.8 L 284.1 103.8 L 284.1 96.4 L 285.3 96.4 " fill="#0000FF"/>
<path class="atom-3" d="M 284.0 104.5 L 285.0 104.5 L 285.0 107.6 L 288.8 107.6 L 288.8 104.5 L 289.7 104.5 L 289.7 111.8 L 288.8 111.8 L 288.8 108.4 L 285.0 108.4 L 285.0 111.8 L 284.0 111.8 L 284.0 104.5 " fill="#0000FF"/>
<path class="atom-6" d="M 335.1 49.6 L 337.5 53.5 Q 337.7 53.9, 338.1 54.6 Q 338.5 55.3, 338.5 55.3 L 338.5 49.6 L 339.5 49.6 L 339.5 56.9 L 338.5 56.9 L 335.9 52.7 Q 335.6 52.2, 335.3 51.6 Q 335.0 51.1, 334.9 50.9 L 334.9 56.9 L 333.9 56.9 L 333.9 49.6 L 335.1 49.6 " fill="#0000FF"/>
<path class="legend" d="M 280.7 190.6 L 277.9 186.6 L 279.6 186.6 L 281.6 189.4 L 283.6 186.6 L 285.2 186.6 L 282.4 190.6 L 285.4 194.9 L 283.7 194.9 L 281.5 191.8 L 279.3 194.9 L 277.7 194.9 L 280.7 190.6 " fill="#000000"/>
<path class="legend" d="M 290.5 195.0 Q 288.4 195.0, 287.4 193.5 Q 286.3 191.9, 286.3 189.2 Q 286.3 186.5, 287.4 184.9 Q 288.4 183.4, 290.5 183.4 Q 292.6 183.4, 293.6 184.9 Q 294.6 186.5, 294.6 189.2 Q 294.6 191.9, 293.6 193.5 Q 292.6 195.0, 290.5 195.0 M 290.5 193.7 Q 291.7 193.7, 292.4 192.6 Q 293.0 191.4, 293.0 189.2 Q 293.0 187.0, 292.4 185.8 Q 291.7 184.7, 290.5 184.7 Q 289.3 184.7, 288.6 185.8 Q 287.9 187.0, 287.9 189.2 Q 287.9 191.4, 288.6 192.6 Q 289.3 193.7, 290.5 193.7 " fill="#000000"/>
<path class="legend" d="M 297.1 193.6 L 299.5 193.6 L 299.5 185.1 L 296.8 186.0 L 296.4 185.0 L 299.9 183.5 L 301.0 183.7 L 301.0 193.6 L 303.3 193.6 L 303.3 194.9 L 297.1 194.9 L 297.1 193.6 " fill="#000000"/>
<path class="legend" d="M 308.9 195.0 Q 306.8 195.0, 305.7 193.5 Q 304.7 191.9, 304.7 189.2 Q 304.7 186.5, 305.7 184.9 Q 306.8 183.4, 308.9 183.4 Q 311.0 183.4, 312.0 184.9 Q 313.0 186.5, 313.0 189.2 Q 313.0 191.9, 312.0 193.5 Q 310.9 195.0, 308.9 195.0 M 308.9 193.7 Q 310.1 193.7, 310.7 192.6 Q 311.4 191.4, 311.4 189.2 Q 311.4 187.0, 310.7 185.8 Q 310.1 184.7, 308.9 184.7 Q 307.6 184.7, 307.0 185.8 Q 306.3 187.0, 306.3 189.2 Q 306.3 191.4, 307.0 192.6 Q 307.6 193.7, 308.9 193.7 " fill="#000000"/>
<path class="legend" d="M 320.8 184.8 L 314.8 184.8 L 314.8 183.5 L 322.3 183.5 L 322.3 184.7 L 317.8 194.9 L 316.2 194.9 L 320.8 184.8 " fill="#000000"/>
<path class="bond-0 atom-0 atom-1" d="M 503.3,75.9 L 503.3,87.0" style="fill:none;fill-rule:evenodd;stroke:#FF0000;stroke-width:2.0px;stroke-linecap:butt;stroke-linejoin:miter;stroke-opacity:1"/>
<path class="bond-0 atom-0 atom-1" d="M 503.3,87.0 L 503.3,98.2" style="fill:none;fill-rule:evenodd;stroke:#000000;stroke-width:2.0px;stroke-linecap:butt;stroke-linejoin:miter;stroke-opacity:1"/>
<path class="bond-0 atom-0 atom-1" d="M 499.4,75.9 L 499.4,87.0" style="fill:none;fill-rule:evenodd;stroke:#FF0000;stroke-width:2.0px;stroke-linecap:butt;stroke-linejoin:miter;stroke-opacity:1"/>
<path class="bond-0 atom-0 atom-1" d="M 499.4,87.0 L 499.4,98.2" style="fill:none;fill-rule:evenodd;stroke:#000000;stroke-width:2.0px;stroke-linecap:butt;stroke-linejoin:miter;stroke-opacity:1"/>
<path class="bond-1 atom-1 atom-2" d="M 501.4,97.1 L 510.8,102.5" style="fill:none;fill-rule:evenodd;stroke:#000000;stroke-width:2.0px;stroke-linecap:butt;stroke-linejoin:miter;stroke-opacity:1"/>
<path class="bond-1 atom-1 atom-2" d="M 510.8,102.5 L 520.1,107.9" style="fill:none;fill-rule:evenodd;stroke:#0000FF;stroke-width:2.0px;stroke-linecap:butt;stroke-linejoin:miter;stroke-opacity:1"/>
<path class="bond-2 atom-2 atom-3" d="M 527.4,107.9 L 536.8,102.5" style="fill:none;fill-rule:evenodd;stroke:#0000FF;stroke-width:2.0px;stroke-linecap:butt;stroke-linejoin:miter;stroke-opacity:1"/>
<path class="bond-2 atom-2 atom-3" d="M 536.8,102.5 L 546.1,97.1" style="fill:none;fill-rule:evenodd;stroke:#000000;stroke-width:2.0px;stroke-linecap:butt;stroke-linejoin:miter;stroke-opacity:1"/>
<path class="bond-3 atom-3 atom-4" d="M 546.1,97.1 L 568.5,110.0" style="fill:none;fill-rule:evenodd;stroke:#000000;stroke-width:2.0px;stroke-linecap:butt;stroke-linejoin:miter;stroke-opacity:1"/>
<path class="bond-3 atom-3 atom-4" d="M 550.0,94.8 L 568.5,105.5" style="fill:none;fill-rule:evenodd;stroke:#000000;stroke-width:2.0px;stroke-linecap:butt;stroke-linejoin:miter;stroke-opacity:1"/>
<path class="bond-4 atom-4 atom-5" d="M 568.5,110.0 L 590.9,97.1" style="fill:none;fill-rule:evenodd;stroke:#000000;stroke-width:2.0px;stroke-linecap:butt;stroke-linejoin:miter;stroke-opacity:1"/>
<path class="bond-5 atom-5 atom-6" d="M 590.9,97.1 L 590.9,71.2" style="fill:none;fill-rule:evenodd;stroke:#000000;stroke-width:2.0px;stroke-linecap:butt;stroke-linejoin:miter;stroke-opacity:1"/>
<path class="bond-5 atom-5 atom-6" d="M 587.0,94.8 L 587.0,73.5" style="fill:none;fill-rule:evenodd;stroke:#000000;stroke-width:2.0px;stroke-linecap:butt;stroke-linejoin:miter;stroke-opacity:1"/>
<path class="bond-6 atom-6 atom-7" d="M 590.9,71.2 L 568.5,58.3" style="fill:none;fill-rule:evenodd;stroke:#000000;stroke-width:2.0px;stroke-linecap:butt;stroke-linejoin:miter;stroke-opacity:1"/>
<path class="bond-7 atom-7 atom-8" d="M 568.5,58.3 L 546.1,71.2" style="fill:none;fill-rule:evenodd;stroke:#000000;stroke-width:2.0px;stroke-linecap:butt;stroke-linejoin:miter;stroke-opacity:1"/>
<path class="bond-7 atom-7 atom-8" d="M 568.5,62.8 L 550.0,73.5" style="fill:none;fill-rule:evenodd;stroke:#000000;stroke-width:2.0px;stroke-linecap:butt;stroke-linejoin:miter;stroke-opacity:1"/>
<path class="bond-8 atom-1 atom-9" d="M 501.4,97.1 L 492.0,102.5" style="fill:none;fill-rule:evenodd;stroke:#000000;stroke-width:2.0px;stroke-linecap:butt;stroke-linejoin:miter;stroke-opacity:1"/>
<path class="bond-8 atom-1 atom-9" d="M 492.0,102.5 L 482.6,107.9" style="fill:none;fill-rule:evenodd;stroke:#0000FF;stroke-width:2.0px;stroke-linecap:butt;stroke-linejoin:miter;stroke-opacity:1"/>
<path class="bond-9 atom-9 atom-10" d="M 475.4,107.9 L 466.0,102.5" style="fill:none;fill-rule:evenodd;stroke:#0000FF;stroke-width:2.0px;stroke-linecap:butt;stroke-linejoin:miter;stroke-opacity:1"/>
<path class="bond-9 atom-9 atom-10" d="M 466.0,102.5 L 456.6,97.1" style="fill:none;fill-rule:evenodd;stroke:#000000;stroke-width:2.0px;stroke-linecap:butt;stroke-linejoin:miter;stroke-opacity:1"/>
<path class="bond-10 atom-10 atom-11" d="M 456.6,97.1 L 456.6,71.2" style="fill:none;fill-rule:evenodd;stroke:#000000;stroke-width:2.0px;stroke-linecap:butt;stroke-linejoin:miter;stroke-opacity:1"/>
<path class="bond-10 atom-10 atom-11" d="M 452.8,94.8 L 452.8,73.5" style="fill:none;fill-rule:evenodd;stroke:#000000;stroke-width:2.0px;stroke-linecap:butt;stroke-linejoin:miter;stroke-opacity:1"/>
<path class="bond-11 atom-11 atom-12" d="M 456.6,71.2 L 434.2,58.3" style="fill:none;fill-rule:evenodd;stroke:#000000;stroke-width:2.0px;stroke-linecap:butt;stroke-linejoin:miter;stroke-opacity:1"/>
<path class="bond-12 atom-12 atom-13" d="M 434.2,58.3 L 411.9,71.2" style="fill:none;fill-rule:evenodd;stroke:#000000;stroke-width:2.0px;stroke-linecap:butt;stroke-linejoin:miter;stroke-opacity:1"/>
<path class="bond-12 atom-12 atom-13" d="M 434.2,62.8 L 415.7,73.5" style="fill:none;fill-rule:evenodd;stroke:#000000;stroke-width:2.0px;stroke-linecap:butt;stroke-linejoin:miter;stroke-opacity:1"/>
<path class="bond-13 atom-13 atom-14" d="M 411.9,71.2 L 411.9,81.9" style="fill:none;fill-rule:evenodd;stroke:#000000;stroke-width:2.0px;stroke-linecap:butt;stroke-linejoin:miter;stroke-opacity:1"/>
<path class="bond-13 atom-13 atom-14" d="M 411.9,81.9 L 411.9,92.6" style="fill:none;fill-rule:evenodd;stroke:#0000FF;stroke-width:2.0px;stroke-linecap:butt;stroke-linejoin:miter;stroke-opacity:1"/>
<path class="bond-14 atom-14 atom-15" d="M 415.5,99.2 L 424.9,104.6" style="fill:none;fill-rule:evenodd;stroke:#0000FF;stroke-width:2.0px;stroke-linecap:butt;stroke-linejoin:miter;stroke-opacity:1"/>
<path class="bond-14 atom-14 atom-15" d="M 424.9,104.6 L 434.2,110.0" style="fill:none;fill-rule:evenodd;stroke:#000000;stroke-width:2.0px;stroke-linecap:butt;stroke-linejoin:miter;stroke-opacity:1"/>
<path class="bond-14 atom-14 atom-15" d="M 417.4,95.8 L 425.8,100.7" style="fill:none;fill-rule:evenodd;stroke:#0000FF;stroke-width:2.0px;stroke-linecap:butt;stroke-linejoin:miter;stroke-opacity:1"/>
<path class="bond-14 atom-14 atom-15" d="M 425.8,100.7 L 434.2,105.5" style="fill:none;fill-rule:evenodd;stroke:#000000;stroke-width:2.0px;stroke-linecap:butt;stroke-linejoin:miter;stroke-opacity:1"/>
<path class="bond-15 atom-8 atom-3" d="M 546.1,71.2 L 546.1,97.1" style="fill:none;fill-rule:evenodd;stroke:#000000;stroke-width:2.0px;stroke-linecap:butt;stroke-linejoin:miter;stroke-opacity:1"/>
<path class="bond-16 atom-15 atom-10" d="M 434.2,110.0 L 456.6,97.1" style="fill:none;fill-rule:evenodd;stroke:#000000;stroke-width:2.0px;stroke-linecap:butt;stroke-linejoin:miter;stroke-opacity:1"/>
<path d="M 501.9,97.3 L 501.4,97.1 L 500.9,97.3" style="fill:none;stroke:#000000;stroke-width:2.0px;stroke-linecap:butt;stroke-linejoin:miter;stroke-opacity:1;"/>
<path d="M 567.4,109.3 L 568.5,110.0 L 569.6,109.3" style="fill:none;stroke:#000000;stroke-width:2.0px;stroke-linecap:butt;stroke-linejoin:miter;stroke-opacity:1;"/>
<path d="M 589.8,97.7 L 590.9,97.1 L 590.9,95.8" style="fill:none;stroke:#000000;stroke-width:2.0px;stroke-linecap:butt;stroke-linejoin:miter;stroke-opacity:1;"/>
<path d="M 590.9,72.5 L 590.9,71.2 L 589.8,70.6" style="fill:none;stroke:#000000;stroke-width:2.0px;stroke-linecap:butt;stroke-linejoin:miter;stroke-opacity:1;"/>
<path d="M 569.6,58.9 L 568.5,58.3 L 567.4,58.9" style="fill:none;stroke:#000000;stroke-width:2.0px;stroke-linecap:butt;stroke-linejoin:miter;stroke-opacity:1;"/>
<path d="M 547.3,70.6 L 546.1,71.2 L 546.1,72.5" style="fill:none;stroke:#000000;stroke-width:2.0px;stroke-linecap:butt;stroke-linejoin:miter;stroke-opacity:1;"/>
<path d="M 456.6,72.5 L 456.6,71.2 L 455.5,70.6" style="fill:none;stroke:#000000;stroke-width:2.0px;stroke-linecap:butt;stroke-linejoin:miter;stroke-opacity:1;"/>
<path d="M 435.4,58.9 L 434.2,58.3 L 433.1,58.9" style="fill:none;stroke:#000000;stroke-width:2.0px;stroke-linecap:butt;stroke-linejoin:miter;stroke-opacity:1;"/>
<path d="M 413.0,70.6 L 411.9,71.2 L 411.9,71.8" style="fill:none;stroke:#000000;stroke-width:2.0px;stroke-linecap:butt;stroke-linejoin:miter;stroke-opacity:1;"/>
<path d="M 433.8,109.7 L 434.2,110.0 L 435.4,109.3" style="fill:none;stroke:#000000;stroke-width:2.0px;stroke-linecap:butt;stroke-linejoin:miter;stroke-opacity:1;"/>
<path class="atom-0" d="M 498.0 71.2 Q 498.0 69.5, 498.9 68.5 Q 499.8 67.5, 501.4 67.5 Q 503.0 67.5, 503.9 68.5 Q 504.7 69.5, 504.7 71.2 Q 504.7 73.0, 503.9 74.0 Q 503.0 75.0, 501.4 75.0 Q 499.8 75.0, 498.9 74.0 Q 498.0 73.0, 498.0 71.2 M 501.4 74.2 Q 502.5 74.2, 503.1 73.5 Q 503.7 72.7, 503.7 71.2 Q 503.7 69.8, 503.1 69.1 Q 502.5 68.4, 501.4 68.4 Q 500.3 68.4, 499.7 69.1 Q 499.1 69.8, 499.1 71.2 Q 499.1 72.7, 499.7 73.5 Q 500.3 74.2, 501.4 74.2 " fill="#FF0000"/>
<path class="atom-2" d="M 522.2 106.3 L 524.5 110.2 Q 524.8 110.6, 525.2 111.3 Q 525.6 112.0, 525.6 112.0 L 525.6 106.3 L 526.5 106.3 L 526.5 113.6 L 525.5 113.6 L 523.0 109.4 Q 522.7 108.9, 522.3 108.3 Q 522.0 107.8, 521.9 107.6 L 521.9 113.6 L 521.0 113.6 L 521.0 106.3 L 522.2 106.3 " fill="#0000FF"/>
<path class="atom-2" d="M 520.9 114.4 L 521.9 114.4 L 521.9 117.5 L 525.6 117.5 L 525.6 114.4 L 526.6 114.4 L 526.6 121.7 L 525.6 121.7 L 525.6 118.3 L 521.9 118.3 L 521.9 121.7 L 520.9 121.7 L 520.9 114.4 " fill="#0000FF"/>
<path class="atom-9" d="M 477.4 106.3 L 479.8 110.2 Q 480.0 110.6, 480.4 111.3 Q 480.8 112.0, 480.8 112.0 L 480.8 106.3 L 481.8 106.3 L 481.8 113.6 L 480.8 113.6 L 478.2 109.4 Q 477.9 108.9, 477.6 108.3 Q 477.3 107.8, 477.2 107.6 L 477.2 113.6 L 476.2 113.6 L 476.2 106.3 L 477.4 106.3 " fill="#0000FF"/>
<path class="atom-9" d="M 476.1 114.4 L 477.1 114.4 L 477.1 117.5 L 480.9 117.5 L 480.9 114.4 L 481.9 114.4 L 481.9 121.7 L 480.9 121.7 L 480.9 118.3 L 477.1 118.3 L 477.1 121.7 L 476.1 121.7 L 476.1 114.4 " fill="#0000FF"/>
<path class="atom-14" d="M 410.2 93.4 L 412.6 97.3 Q 412.9 97.7, 413.3 98.4 Q 413.6 99.1, 413.7 99.1 L 413.7 93.4 L 414.6 93.4 L 414.6 100.7 L 413.6 100.7 L 411.1 96.5 Q 410.8 96.0, 410.4 95.4 Q 410.1 94.9, 410.0 94.7 L 410.0 100.7 L 409.1 100.7 L 409.1 93.4 L 410.2 93.4 " fill="#0000FF"/>
<path class="legend" d="M 479.3 190.6 L 476.6 186.6 L 478.3 186.6 L 480.3 189.4 L 482.3 186.6 L 483.9 186.6 L 481.1 190.6 L 484.1 194.8 L 482.3 194.8 L 480.2 191.7 L 478.0 194.8 L 476.3 194.8 L 479.3 190.6 " fill="#000000"/>
<path class="legend" d="M 489.2 195.0 Q 487.1 195.0, 486.1 193.4 Q 485.1 191.9, 485.1 189.2 Q 485.1 186.4, 486.1 184.9 Q 487.1 183.4, 489.2 183.4 Q 491.3 183.4, 492.3 184.9 Q 493.4 186.4, 493.4 189.2 Q 493.4 191.9, 492.3 193.4 Q 491.3 195.0, 489.2 195.0 M 489.2 193.7 Q 490.4 193.7, 491.1 192.6 Q 491.8 191.4, 491.8 189.2 Q 491.8 186.9, 491.1 185.8 Q 490.4 184.7, 489.2 184.7 Q 488.0 184.7, 487.3 185.8 Q 486.7 186.9, 486.7 189.2 Q 486.7 191.4, 487.3 192.6 Q 488.0 193.7, 489.2 193.7 " fill="#000000"/>
<path class="legend" d="M 502.6 191.0 L 503.9 191.0 L 503.9 192.2 L 502.6 192.2 L 502.6 194.8 L 501.1 194.8 L 501.1 192.2 L 495.2 192.2 L 495.2 191.2 L 500.2 183.5 L 502.6 183.5 L 502.6 191.0 M 497.1 191.0 L 501.1 191.0 L 501.1 184.5 L 497.1 191.0 " fill="#000000"/>
<path class="legend" d="M 511.0 188.9 Q 512.1 189.2, 512.6 189.9 Q 513.2 190.6, 513.2 191.7 Q 513.2 192.7, 512.7 193.4 Q 512.2 194.2, 511.3 194.6 Q 510.4 195.0, 509.3 195.0 Q 508.1 195.0, 507.2 194.6 Q 506.3 194.2, 505.6 193.3 L 506.5 192.4 Q 507.2 193.1, 507.8 193.4 Q 508.4 193.7, 509.3 193.7 Q 510.3 193.7, 510.9 193.2 Q 511.6 192.6, 511.6 191.7 Q 511.6 190.6, 510.9 190.1 Q 510.3 189.5, 508.9 189.5 L 508.1 189.5 L 508.1 188.4 L 508.8 188.4 Q 510.0 188.4, 510.7 187.8 Q 511.3 187.3, 511.3 186.3 Q 511.3 185.5, 510.8 185.1 Q 510.2 184.7, 509.3 184.7 Q 508.4 184.7, 507.8 185.0 Q 507.2 185.3, 506.8 186.2 L 505.6 185.6 Q 506.0 184.6, 507.0 184.0 Q 508.0 183.4, 509.3 183.4 Q 511.0 183.4, 512.0 184.2 Q 512.9 185.0, 512.9 186.3 Q 512.9 187.2, 512.4 187.8 Q 511.9 188.5, 511.0 188.9 " fill="#000000"/>
<path class="legend" d="M 522.3 191.0 L 523.7 191.0 L 523.7 192.2 L 522.3 192.2 L 522.3 194.8 L 520.8 194.8 L 520.8 192.2 L 514.9 192.2 L 514.9 191.2 L 519.9 183.5 L 522.3 183.5 L 522.3 191.0 M 516.8 191.0 L 520.8 191.0 L 520.8 184.5 L 516.8 191.0 " fill="#000000"/>
<path class="bond-0 atom-0 atom-1" d="M 176.7,276.0 L 165.2,274.1" style="fill:none;fill-rule:evenodd;stroke:#191919;stroke-width:2.0px;stroke-linecap:butt;stroke-linejoin:miter;stroke-opacity:1"/>
<path class="bond-0 atom-0 atom-1" d="M 165.2,274.1 L 153.8,272.2" style="fill:none;fill-rule:evenodd;stroke:#000000;stroke-width:2.0px;stroke-linecap:butt;stroke-linejoin:miter;stroke-opacity:1"/>
<path class="bond-1 atom-1 atom-2" d="M 153.8,272.2 L 137.4,292.2" style="fill:none;fill-rule:evenodd;stroke:#000000;stroke-width:2.0px;stroke-linecap:butt;stroke-linejoin:miter;stroke-opacity:1"/>
<path class="bond-2 atom-2 atom-3" d="M 135.2,291.8 L 139.1,302.2" style="fill:none;fill-rule:evenodd;stroke:#000000;stroke-width:2.0px;stroke-linecap:butt;stroke-linejoin:miter;stroke-opacity:1"/>
<path class="bond-2 atom-2 atom-3" d="M 139.1,302.2 L 142.9,312.5" style="fill:none;fill-rule:evenodd;stroke:#FF0000;stroke-width:2.0px;stroke-linecap:butt;stroke-linejoin:miter;stroke-opacity:1"/>
<path class="bond-2 atom-2 atom-3" d="M 138.8,290.5 L 142.7,300.8" style="fill:none;fill-rule:evenodd;stroke:#000000;stroke-width:2.0px;stroke-linecap:butt;stroke-linejoin:miter;stroke-opacity:1"/>
<path class="bond-2 atom-2 atom-3" d="M 142.7,300.8 L 146.6,311.1" style="fill:none;fill-rule:evenodd;stroke:#FF0000;stroke-width:2.0px;stroke-linecap:butt;stroke-linejoin:miter;stroke-opacity:1"/>
<path class="bond-3 atom-2 atom-4" d="M 137.4,292.2 L 126.4,290.4" style="fill:none;fill-rule:evenodd;stroke:#000000;stroke-width:2.0px;stroke-linecap:butt;stroke-linejoin:miter;stroke-opacity:1"/>
<path class="bond-3 atom-2 atom-4" d="M 126.4,290.4 L 115.5,288.6" style="fill:none;fill-rule:evenodd;stroke:#0000FF;stroke-width:2.0px;stroke-linecap:butt;stroke-linejoin:miter;stroke-opacity:1"/>
<path class="bond-4 atom-4 atom-5" d="M 108.2,292.5 L 101.8,300.2" style="fill:none;fill-rule:evenodd;stroke:#0000FF;stroke-width:2.0px;stroke-linecap:butt;stroke-linejoin:miter;stroke-opacity:1"/>
<path class="bond-4 atom-4 atom-5" d="M 101.8,300.2 L 95.5,307.9" style="fill:none;fill-rule:evenodd;stroke:#000000;stroke-width:2.0px;stroke-linecap:butt;stroke-linejoin:miter;stroke-opacity:1"/>
<path class="bond-5 atom-5 atom-6" d="M 97.0,311.3 L 96.5,311.5" style="fill:none;fill-rule:evenodd;stroke:#000000;stroke-width:1.0px;stroke-linecap:butt;stroke-linejoin:miter;stroke-opacity:1"/>
<path class="bond-5 atom-5 atom-6" d="M 98.6,314.7 L 97.6,315.0" style="fill:none;fill-rule:evenodd;stroke:#000000;stroke-width:1.0px;stroke-linecap:butt;stroke-linejoin:miter;stroke-opacity:1"/>
<path class="bond-5 atom-5 atom-6" d="M 100.2,318.0 L 98.6,318.6" style="fill:none;fill-rule:evenodd;stroke:#000000;stroke-width:1.0px;stroke-linecap:butt;stroke-linejoin:miter;stroke-opacity:1"/>
<path class="bond-5 atom-5 atom-6" d="M 101.7,321.4 L 99.6,322.2" style="fill:none;fill-rule:evenodd;stroke:#000000;stroke-width:1.0px;stroke-linecap:butt;stroke-linejoin:miter;stroke-opacity:1"/>
<path class="bond-5 atom-5 atom-6" d="M 103.3,324.7 L 100.7,325.7" style="fill:none;fill-rule:evenodd;stroke:#000000;stroke-width:1.0px;stroke-linecap:butt;stroke-linejoin:miter;stroke-opacity:1"/>
<path class="bond-5 atom-5 atom-6" d="M 104.8,328.1 L 101.7,329.3" style="fill:none;fill-rule:evenodd;stroke:#000000;stroke-width:1.0px;stroke-linecap:butt;stroke-linejoin:miter;stroke-opacity:1"/>
<path class="bond-5 atom-5 atom-6" d="M 106.4,331.4 L 102.8,332.8" style="fill:none;fill-rule:evenodd;stroke:#000000;stroke-width:1.0px;stroke-linecap:butt;stroke-linejoin:miter;stroke-opacity:1"/>
<path class="bond-6 atom-5 atom-7" d="M 95.5,307.9 L 70.0,303.7" style="fill:none;fill-rule:evenodd;stroke:#000000;stroke-width:2.0px;stroke-linecap:butt;stroke-linejoin:miter;stroke-opacity:1"/>
<path class="bond-7 atom-7 atom-8" d="M 70.0,303.7 L 53.6,323.7" style="fill:none;fill-rule:evenodd;stroke:#000000;stroke-width:2.0px;stroke-linecap:butt;stroke-linejoin:miter;stroke-opacity:1"/>
<path class="bond-7 atom-7 atom-8" d="M 65.6,303.0 L 52.0,319.5" style="fill:none;fill-rule:evenodd;stroke:#000000;stroke-width:2.0px;stroke-linecap:butt;stroke-linejoin:miter;stroke-opacity:1"/>
<path class="bond-8 atom-8 atom-9" d="M 53.6,323.7 L 28.1,319.5" style="fill:none;fill-rule:evenodd;stroke:#000000;stroke-width:2.0px;stroke-linecap:butt;stroke-linejoin:miter;stroke-opacity:1"/>
<path class="bond-9 atom-9 atom-10" d="M 28.1,319.5 L 19.0,295.3" style="fill:none;fill-rule:evenodd;stroke:#000000;stroke-width:2.0px;stroke-linecap:butt;stroke-linejoin:miter;stroke-opacity:1"/>
<path class="bond-9 atom-9 atom-10" d="M 30.9,316.0 L 23.4,296.0" style="fill:none;fill-rule:evenodd;stroke:#000000;stroke-width:2.0px;stroke-linecap:butt;stroke-linejoin:miter;stroke-opacity:1"/>
<path class="bond-10 atom-10 atom-11" d="M 19.0,295.3 L 35.4,275.3" style="fill:none;fill-rule:evenodd;stroke:#000000;stroke-width:2.0px;stroke-linecap:butt;stroke-linejoin:miter;stroke-opacity:1"/>
<path class="bond-11 atom-11 atom-12" d="M 35.4,275.3 L 31.5,265.0" style="fill:none;fill-rule:evenodd;stroke:#000000;stroke-width:2.0px;stroke-linecap:butt;stroke-linejoin:miter;stroke-opacity:1"/>
<path class="bond-11 atom-11 atom-12" d="M 31.5,265.0 L 27.6,254.6" style="fill:none;fill-rule:evenodd;stroke:#00CC00;stroke-width:2.0px;stroke-linecap:butt;stroke-linejoin:miter;stroke-opacity:1"/>
<path class="bond-12 atom-11 atom-13" d="M 35.4,275.3 L 60.9,279.5" style="fill:none;fill-rule:evenodd;stroke:#000000;stroke-width:2.0px;stroke-linecap:butt;stroke-linejoin:miter;stroke-opacity:1"/>
<path class="bond-12 atom-11 atom-13" d="M 37.0,279.5 L 58.0,283.0" style="fill:none;fill-rule:evenodd;stroke:#000000;stroke-width:2.0px;stroke-linecap:butt;stroke-linejoin:miter;stroke-opacity:1"/>
<path class="bond-13 atom-13 atom-7" d="M 60.9,279.5 L 70.0,303.7" style="fill:none;fill-rule:evenodd;stroke:#000000;stroke-width:2.0px;stroke-linecap:butt;stroke-linejoin:miter;stroke-opacity:1"/>
<path d="M 154.4,272.3 L 153.8,272.2 L 153.0,273.2" style="fill:none;stroke:#000000;stroke-width:2.0px;stroke-linecap:butt;stroke-linejoin:miter;stroke-opacity:1;"/>
<path d="M 138.2,291.2 L 137.4,292.2 L 136.8,292.1" style="fill:none;stroke:#000000;stroke-width:2.0px;stroke-linecap:butt;stroke-linejoin:miter;stroke-opacity:1;"/>
<path d="M 95.8,307.6 L 95.5,307.9 L 94.2,307.7" style="fill:none;stroke:#000000;stroke-width:2.0px;stroke-linecap:butt;stroke-linejoin:miter;stroke-opacity:1;"/>
<path d="M 54.4,322.7 L 53.6,323.7 L 52.3,323.5" style="fill:none;stroke:#000000;stroke-width:2.0px;stroke-linecap:butt;stroke-linejoin:miter;stroke-opacity:1;"/>
<path d="M 29.4,319.7 L 28.1,319.5 L 27.6,318.3" style="fill:none;stroke:#000000;stroke-width:2.0px;stroke-linecap:butt;stroke-linejoin:miter;stroke-opacity:1;"/>
<path d="M 19.4,296.5 L 19.0,295.3 L 19.8,294.3" style="fill:none;stroke:#000000;stroke-width:2.0px;stroke-linecap:butt;stroke-linejoin:miter;stroke-opacity:1;"/>
<path d="M 59.6,279.3 L 60.9,279.5 L 61.3,280.7" style="fill:none;stroke:#000000;stroke-width:2.0px;stroke-linecap:butt;stroke-linejoin:miter;stroke-opacity:1;"/>
<path class="atom-0" d="M 177.9 275.6 L 179.0 274.5 L 177.5 274.2 L 177.8 273.5 L 179.1 274.2 L 178.9 272.7 L 179.7 272.7 L 179.4 274.2 L 180.8 273.5 L 181.0 274.2 L 179.6 274.5 L 180.6 275.6 L 180.0 276.1 L 179.3 274.7 L 178.5 276.1 L 177.9 275.6 " fill="#191919"/>
<path class="atom-3" d="M 143.1 316.4 Q 143.1 314.6, 144.0 313.7 Q 144.8 312.7, 146.5 312.7 Q 148.1 312.7, 149.0 313.7 Q 149.8 314.6, 149.8 316.4 Q 149.8 318.2, 148.9 319.2 Q 148.1 320.2, 146.5 320.2 Q 144.9 320.2, 144.0 319.2 Q 143.1 318.2, 143.1 316.4 M 146.5 319.4 Q 147.6 319.4, 148.2 318.6 Q 148.8 317.9, 148.8 316.4 Q 148.8 315.0, 148.2 314.2 Q 147.6 313.5, 146.5 313.5 Q 145.4 313.5, 144.7 314.2 Q 144.1 315.0, 144.1 316.4 Q 144.1 317.9, 144.7 318.6 Q 145.4 319.4, 146.5 319.4 " fill="#FF0000"/>
<path class="atom-4" d="M 101.9 284.3 L 102.9 284.3 L 102.9 287.4 L 106.7 287.4 L 106.7 284.3 L 107.7 284.3 L 107.7 291.6 L 106.7 291.6 L 106.7 288.2 L 102.9 288.2 L 102.9 291.6 L 101.9 291.6 L 101.9 284.3 " fill="#0000FF"/>
<path class="atom-4" d="M 110.3 284.3 L 112.7 288.2 Q 112.9 288.6, 113.3 289.3 Q 113.7 290.0, 113.7 290.0 L 113.7 284.3 L 114.7 284.3 L 114.7 291.6 L 113.7 291.6 L 111.1 287.4 Q 110.8 286.9, 110.5 286.3 Q 110.2 285.8, 110.1 285.6 L 110.1 291.6 L 109.1 291.6 L 109.1 284.3 L 110.3 284.3 " fill="#0000FF"/>
<path class="atom-12" d="M 19.4 251.4 Q 19.4 249.5, 20.3 248.6 Q 21.1 247.6, 22.8 247.6 Q 24.3 247.6, 25.1 248.7 L 24.4 249.3 Q 23.8 248.5, 22.8 248.5 Q 21.7 248.5, 21.1 249.2 Q 20.5 250.0, 20.5 251.4 Q 20.5 252.8, 21.1 253.6 Q 21.7 254.3, 22.9 254.3 Q 23.7 254.3, 24.6 253.8 L 24.9 254.6 Q 24.5 254.8, 24.0 255.0 Q 23.4 255.1, 22.7 255.1 Q 21.1 255.1, 20.3 254.2 Q 19.4 253.2, 19.4 251.4 " fill="#00CC00"/>
<path class="atom-12" d="M 25.8 247.2 L 26.8 247.2 L 26.8 255.0 L 25.8 255.0 L 25.8 247.2 " fill="#00CC00"/>
<path class="legend" d="M 81.2 390.6 L 78.4 386.6 L 80.1 386.6 L 82.1 389.4 L 84.1 386.6 L 85.7 386.6 L 82.9 390.6 L 85.9 394.8 L 84.2 394.8 L 82.0 391.7 L 79.8 394.8 L 78.2 394.8 L 81.2 390.6 " fill="#000000"/>
<path class="legend" d="M 87.5 393.6 L 89.9 393.6 L 89.9 385.1 L 87.2 385.9 L 86.8 385.0 L 90.3 383.4 L 91.5 383.6 L 91.5 393.6 L 93.7 393.6 L 93.7 394.8 L 87.5 394.8 L 87.5 393.6 " fill="#000000"/>
<path class="legend" d="M 100.5 388.9 Q 101.6 389.2, 102.2 389.9 Q 102.7 390.6, 102.7 391.7 Q 102.7 392.7, 102.2 393.4 Q 101.8 394.2, 100.9 394.6 Q 100.0 395.0, 98.8 395.0 Q 97.6 395.0, 96.7 394.6 Q 95.8 394.2, 95.1 393.3 L 96.0 392.4 Q 96.7 393.1, 97.3 393.4 Q 97.9 393.7, 98.8 393.7 Q 99.9 393.7, 100.5 393.2 Q 101.1 392.6, 101.1 391.7 Q 101.1 390.6, 100.5 390.1 Q 99.8 389.5, 98.4 389.5 L 97.6 389.5 L 97.6 388.4 L 98.3 388.4 Q 99.6 388.4, 100.2 387.8 Q 100.9 387.3, 100.9 386.3 Q 100.9 385.5, 100.3 385.1 Q 99.8 384.7, 98.9 384.7 Q 97.9 384.7, 97.3 385.0 Q 96.8 385.3, 96.3 386.2 L 95.2 385.6 Q 95.6 384.6, 96.6 384.0 Q 97.5 383.4, 98.9 383.4 Q 100.5 383.4, 101.5 384.2 Q 102.5 385.0, 102.5 386.3 Q 102.5 387.2, 102.0 387.8 Q 101.5 388.5, 100.5 388.9 " fill="#000000"/>
<path class="legend" d="M 110.2 388.8 Q 111.2 389.3, 111.8 390.0 Q 112.4 390.6, 112.4 391.7 Q 112.4 392.7, 111.9 393.4 Q 111.4 394.2, 110.5 394.6 Q 109.7 395.0, 108.5 395.0 Q 106.6 395.0, 105.5 394.1 Q 104.4 393.3, 104.4 391.7 Q 104.4 390.8, 104.9 390.1 Q 105.4 389.4, 106.4 388.9 Q 105.6 388.5, 105.2 387.9 Q 104.8 387.2, 104.8 386.3 Q 104.8 385.0, 105.8 384.2 Q 106.8 383.4, 108.4 383.4 Q 110.1 383.4, 111.0 384.2 Q 112.0 385.0, 112.0 386.3 Q 112.0 387.1, 111.5 387.7 Q 111.1 388.3, 110.2 388.8 M 108.4 384.6 Q 107.5 384.6, 106.9 385.0 Q 106.4 385.5, 106.4 386.3 Q 106.4 386.9, 106.8 387.3 Q 107.1 387.7, 107.6 387.9 Q 108.1 388.1, 109.1 388.4 Q 109.8 388.0, 110.1 387.4 Q 110.4 386.9, 110.4 386.3 Q 110.4 385.5, 109.9 385.0 Q 109.4 384.6, 108.4 384.6 M 108.5 393.8 Q 109.5 393.8, 110.2 393.2 Q 110.8 392.7, 110.8 391.7 Q 110.8 391.1, 110.5 390.7 Q 110.1 390.3, 109.6 390.1 Q 109.1 389.9, 108.2 389.6 L 107.5 389.4 Q 106.7 389.8, 106.4 390.4 Q 106.0 391.0, 106.0 391.7 Q 106.0 392.7, 106.7 393.2 Q 107.4 393.8, 108.5 393.8 " fill="#000000"/>
<path class="legend" d="M 114.2 385.7 Q 114.6 384.6, 115.6 384.0 Q 116.6 383.4, 118.0 383.4 Q 119.7 383.4, 120.7 384.3 Q 121.6 385.2, 121.6 386.9 Q 121.6 388.6, 120.4 390.1 Q 119.1 391.7, 116.6 393.6 L 121.8 393.6 L 121.8 394.8 L 114.2 394.8 L 114.2 393.8 Q 116.3 392.3, 117.5 391.1 Q 118.8 390.0, 119.4 389.0 Q 120.0 388.0, 120.0 387.0 Q 120.0 385.9, 119.5 385.3 Q 118.9 384.7, 118.0 384.7 Q 117.1 384.7, 116.5 385.0 Q 115.9 385.4, 115.4 386.2 L 114.2 385.7 " fill="#000000"/>
</svg>