<?xml version="1.0" standalone="no" ?>
<!DOCTYPE svg PUBLIC "-//W3C//DTD SVG 1.1//EN" "http://www.w3.org/Graphics/SVG/1.1/DTD/svg11.dtd">
<svg width="359px" height="293px" viewBox="0 0 359 293" style="background-color: #ffffff00" xmlns="http://www.w3.org/2000/svg" xmlns:xlink="http://www.w3.org/1999/xlink" version="1.1" >
<text x="0" y="0" stroke="none" fill="#000000" transform="matrix(0.05 0 0 0.05 110.671 39.8419)" font-style="normal" font-weight="normal" font-size="140px" font-family="Helvetica" >
OH</text>
<text x="0" y="0" stroke="none" fill="#000000" transform="matrix(0.05 0 0 0.05 57.8472 58.1408)" font-style="normal" font-weight="normal" font-size="140px" font-family="Helvetica" >
O</text>
<text x="0" y="0" stroke="none" fill="#000000" transform="matrix(0.05 0 0 0.05 47.4772 34.0086)" font-style="normal" font-weight="normal" font-size="140px" font-family="Helvetica" >
H</text>
<text x="0" y="0" stroke="none" fill="#000000" transform="matrix(0.05 0 0 0.05 47.4772 39.8419)" font-style="normal" font-weight="normal" font-size="140px" font-family="Helvetica" >
N</text>
<text x="0" y="0" stroke="none" fill="#000000" transform="matrix(0.05 0 0 0.05 1.91265 39.8419)" font-style="normal" font-weight="normal" font-size="140px" font-family="Helvetica" >
Cl</text>
<path stroke="none" fill="#000000" transform="matrix(0.05 0 0 0.05 -93 -103)" d="M 4058.45,2841.52 L 4062.95,2849.3 L 3920.98,2931.11 L 3916.58,2928.62 L 3916.63,2923.57 L 4058.45,2841.52 Z " />
<path stroke="none" fill="#000000" transform="matrix(0.05 0 0 0.05 -93 -103)" d="M 3912.18,2931.16 L 3916.58,2928.62 L 3920.98,2931.11 L 3921.17,3175.26 L 3912.18,3170.07 L 3912.18,2931.16 Z " />
<path stroke="none" fill="#000000" transform="matrix(0.05 0 0 0.05 -93 -103)" d="M 3912.18,3170.07 L 3921.17,3175.26 L 3705.28,3299.9 L 3705.28,3289.52 L 3912.18,3170.07 Z " />
<path stroke="none" fill="#000000" transform="matrix(0.05 0 0 0.05 -93 -103)" d="M 3705.28,3289.52 L 3705.28,3299.9 L 3489.4,3175.26 L 3498.38,3170.07 L 3705.28,3289.52 Z " />
<path stroke="none" fill="#000000" transform="matrix(0.05 0 0 0.05 -93 -103)" d="M 3498.38,3170.07 L 3489.4,3175.26 L 3489.59,2931.16 L 3493.98,2928.62 L 3498.38,2931.16 L 3498.38,3170.07 Z " />
<path stroke="none" fill="#000000" transform="matrix(0.05 0 0 0.05 -93 -103)" d="M 3493.98,2923.54 L 3493.98,2928.62 L 3489.59,2931.16 L 3282.69,2811.71 L 3282.69,2801.33 L 3493.98,2923.54 Z " />
<path stroke="none" fill="#000000" transform="matrix(0.05 0 0 0.05 -93 -103)" d="M 3282.69,2801.33 L 3282.69,2811.71 L 3071.34,2933.95 L 3071.34,2923.57 L 3282.69,2801.33 Z " />
<path stroke="none" fill="#000000" transform="matrix(0.05 0 0 0.05 -93 -103)" d="M 3091.3,2914.53 L 3100.28,2914.53 L 3100.28,3096.03 L 3091.3,3096.03 L 3091.3,2914.53 Z " />
<path stroke="none" fill="#000000" transform="matrix(0.05 0 0 0.05 -93 -103)" d="M 3042.5,2914.53 L 3051.49,2914.53 L 3051.49,3096.03 L 3042.5,3096.03 L 3042.5,2914.53 Z " />
<path stroke="none" fill="#000000" transform="matrix(0.05 0 0 0.05 -93 -103)" d="M 3071.34,2923.57 L 3071.34,2933.95 L 2930.21,2852.3 L 2934.7,2844.52 L 3071.34,2923.57 Z " />
<path stroke="none" fill="#000000" transform="matrix(0.05 0 0 0.05 -93 -103)" d="M 2784.15,2845.29 L 2788.65,2853.07 L 2653.2,2931.1 L 2648.8,2928.62 L 2648.85,2923.57 L 2784.15,2845.29 Z " />
<path stroke="none" fill="#000000" transform="matrix(0.05 0 0 0.05 -93 -103)" d="M 2644.4,2931.16 L 2648.8,2928.62 L 2653.2,2931.1 L 2653.39,3175.26 L 2644.4,3170.07 L 2644.4,2931.16 Z " />
<path stroke="none" fill="#000000" transform="matrix(0.05 0 0 0.05 -93 -103)" d="M 2644.4,3170.07 L 2653.39,3175.26 L 2437.5,3299.9 L 2437.5,3289.52 L 2644.4,3170.07 Z " />
<path stroke="none" fill="#000000" transform="matrix(0.05 0 0 0.05 -93 -103)" d="M 2437.5,3289.52 L 2437.5,3299.9 L 2221.62,3175.26 L 2230.6,3170.07 L 2437.5,3289.52 Z " />
<path stroke="none" fill="#000000" transform="matrix(0.05 0 0 0.05 -93 -103)" d="M 2230.6,3170.07 L 2221.62,3175.26 L 2221.81,2931.13 L 2226.2,2928.62 L 2230.6,2931.16 L 2230.6,3170.07 Z " />
<path stroke="none" fill="#000000" transform="matrix(0.05 0 0 0.05 -93 -103)" d="M 2226.18,2923.55 L 2226.2,2928.62 L 2221.81,2931.13 L 2054.21,2834.51 L 2058.7,2826.72 L 2226.18,2923.55 Z " />
<path stroke="none" fill="#000000" transform="matrix(0.05 0 0 0.05 -93 -103)" d="M 2230.6,2931.16 L 2226.2,2928.62 L 2226.18,2923.55 L 2437.5,2801.33 L 2437.5,2811.71 L 2230.6,2931.16 Z " />
<path stroke="none" fill="#000000" transform="matrix(0.05 0 0 0.05 -93 -103)" d="M 2648.85,2923.57 L 2648.8,2928.62 L 2644.4,2931.16 L 2437.5,2811.71 L 2437.5,2801.33 L 2648.85,2923.57 Z " />
<path stroke="none" fill="#000000" transform="matrix(0.05 0 0 0.05 -93 -103)" d="M 3498.38,2931.16 L 3493.98,2928.62 L 3493.98,2923.54 L 3705.28,2801.33 L 3705.28,2811.71 L 3498.38,2931.16 Z " />
<path stroke="none" fill="#000000" transform="matrix(0.05 0 0 0.05 -93 -103)" d="M 3916.63,2923.57 L 3916.58,2928.62 L 3912.18,2931.16 L 3705.28,2811.71 L 3705.28,2801.33 L 3916.63,2923.57 Z " />
<path stroke="#000000" stroke-width="9" fill="none" transform="matrix(0.05 0 0 0.05 -93 -103)" d="M 3533.02,3050.61 A 172.259,172.259 0 1 0 3877.54,3050.61A 172.259,172.259 0 1 0 3533.02,3050.61Z " />
<path stroke="#000000" stroke-width="9" fill="none" transform="matrix(0.05 0 0 0.05 -93 -103)" d="M 2265.24,3050.61 A 172.259,172.259 0 1 0 2609.76,3050.61A 172.259,172.259 0 1 0 2265.24,3050.61Z " />
<text x="0" y="0" stroke="none" fill="#000000" transform="matrix(0.05 0 0 0.05 144.803 39.8419)" font-style="normal" font-weight="normal" font-size="140px" font-family="Helvetica" >
O</text>
<text x="0" y="0" stroke="none" fill="#000000" transform="matrix(0.05 0 0 0.05 188.533 27.7095)" font-style="normal" font-weight="normal" font-size="140px" font-family="Helvetica" >
N</text>
<text x="0" y="0" stroke="none" fill="#000000" transform="matrix(0.05 0 0 0.05 159.239 14.6903)" font-style="normal" font-weight="normal" font-size="140px" font-family="Helvetica" >
R</text>
<text x="0" y="0" stroke="none" fill="#000000" transform="matrix(0.05 0 0 0.05 181.808 7.61404)" font-style="normal" font-weight="normal" font-size="140px" font-family="Helvetica" >
O</text>
<path stroke="none" fill="#000000" transform="matrix(0.05 0 0 0.05 -93 -103)" d="M 4601.46,2932.51 L 4596.97,2924.73 L 4740.66,2841.77 L 4745.15,2849.55 L 4601.46,2932.51 Z " />
<path stroke="none" fill="#000000" transform="matrix(0.05 0 0 0.05 -93 -103)" d="M 4875.04,2849.07 L 4879.53,2841.29 L 5021.76,2923.57 L 5021.81,2928.62 L 5017.41,2931.11 L 4875.04,2849.07 Z " />
<path stroke="none" fill="#000000" transform="matrix(0.05 0 0 0.05 -93 -103)" d="M 5017.41,2931.11 L 5021.81,2928.62 L 5026.21,2931.16 L 5026.21,3170.07 L 5017.22,3175.26 L 5017.41,2931.11 Z " />
<path stroke="none" fill="#000000" transform="matrix(0.05 0 0 0.05 -93 -103)" d="M 5017.22,3175.26 L 5026.21,3170.07 L 5233.11,3289.52 L 5233.11,3299.9 L 5017.22,3175.26 Z " />
<path stroke="none" fill="#000000" transform="matrix(0.05 0 0 0.05 -93 -103)" d="M 5233.11,3299.9 L 5233.11,3289.52 L 5440.01,3170.07 L 5448.99,3175.26 L 5233.11,3299.9 Z " />
<path stroke="none" fill="#000000" transform="matrix(0.05 0 0 0.05 -93 -103)" d="M 5448.99,3175.26 L 5440.01,3170.07 L 5440.01,2931.16 L 5448.99,2925.97 L 5448.99,3175.26 Z " />
<path stroke="none" fill="#000000" transform="matrix(0.05 0 0 0.05 -93 -103)" d="M 5448.99,2925.97 L 5440.01,2931.16 L 5233.11,2811.71 L 5233.11,2801.33 L 5448.99,2925.97 Z " />
<path stroke="none" fill="#000000" transform="matrix(0.05 0 0 0.05 -93 -103)" d="M 5026.21,2931.16 L 5021.81,2928.62 L 5021.76,2923.57 L 5233.11,2801.33 L 5233.11,2811.71 L 5026.21,2931.16 Z " />
<path stroke="none" fill="#000000" transform="matrix(0.05 0 0 0.05 -93 -103)" d="M 5486.85,2931.85 L 5462.83,2890.25 L 5471.11,2886.63 L 5494.13,2926.49 L 5486.85,2931.85 Z " />
<path stroke="none" fill="#000000" transform="matrix(0.05 0 0 0.05 -93 -103)" d="M 5520.2,2907.26 L 5500.8,2873.67 L 5509.09,2870.05 L 5527.47,2901.89 L 5520.2,2907.26 Z " />
<path stroke="none" fill="#000000" transform="matrix(0.05 0 0 0.05 -93 -103)" d="M 5553.54,2882.66 L 5538.78,2857.09 L 5547.07,2853.47 L 5560.82,2877.29 L 5553.54,2882.66 Z " />
<path stroke="none" fill="#000000" transform="matrix(0.05 0 0 0.05 -93 -103)" d="M 5586.89,2858.06 L 5576.76,2840.51 L 5585.04,2836.89 L 5594.17,2852.69 L 5586.89,2858.06 Z " />
<path stroke="none" fill="#000000" transform="matrix(0.05 0 0 0.05 -93 -103)" d="M 5620.24,2833.46 L 5614.74,2823.93 L 5623.02,2820.31 L 5627.51,2828.09 L 5620.24,2833.46 Z " />
<path stroke="none" fill="#000000" transform="matrix(0.05 0 0 0.05 -93 -103)" d="M 5650.71,2809.46 L 5660.33,2803.9 L 5877.47,2900.58 L 5879.78,2911.45 L 5650.71,2809.46 Z " />
<path stroke="none" fill="#000000" transform="matrix(0.05 0 0 0.05 -93 -103)" d="M 5879.78,2911.45 L 5877.47,2900.58 L 6036.47,2723.99 L 6047.52,2725.15 L 5879.78,2911.45 Z " />
<path stroke="none" fill="#000000" transform="matrix(0.05 0 0 0.05 -93 -103)" d="M 6047.52,2725.15 L 6036.47,2723.99 L 5917.63,2518.15 L 5922.15,2508 L 6047.52,2725.15 Z " />
<path stroke="none" fill="#000000" transform="matrix(0.05 0 0 0.05 -93 -103)" d="M 5922.15,2508 L 5917.63,2518.15 L 5751.78,2553.57 L 5749.92,2544.78 L 5922.15,2508 Z " />
<path stroke="none" fill="#000000" transform="matrix(0.05 0 0 0.05 -93 -103)" d="M 5660.33,2803.9 L 5650.71,2809.46 L 5668.95,2637.62 L 5677.88,2638.56 L 5660.33,2803.9 Z " />
<path stroke="none" fill="#000000" transform="matrix(0.05 0 0 0.05 -93 -103)" d="M 5617.59,2500.65 L 5611.57,2507.33 L 5498.9,2405.67 L 5501.05,2395.52 L 5617.59,2500.65 Z " />
<path stroke="none" fill="#000000" transform="matrix(0.05 0 0 0.05 -93 -103)" d="M 5501.05,2395.52 L 5498.9,2405.67 L 5266.52,2481.38 L 5268.98,2471.13 L 5501.05,2395.52 Z " />
<path stroke="none" fill="#000000" transform="matrix(0.05 0 0 0.05 -93 -103)" d="M 5268.98,2471.13 L 5266.52,2481.38 L 5156.6,2371.22 L 5162.95,2364.87 L 5268.98,2471.13 Z " />
<path stroke="none" fill="#000000" transform="matrix(0.05 0 0 0.05 -93 -103)" d="M 5477.49,2410.36 L 5468.7,2408.5 L 5505.57,2235.02 L 5514.36,2236.89 L 5477.49,2410.36 Z " />
<path stroke="none" fill="#000000" transform="matrix(0.05 0 0 0.05 -93 -103)" d="M 5525.22,2420.51 L 5516.43,2418.64 L 5553.3,2245.17 L 5562.09,2247.04 L 5525.22,2420.51 Z " />
<path stroke="#000000" stroke-width="9" fill="none" transform="matrix(0.05 0 0 0.05 -93 -103)" d="M 5060.85,3050.61 A 172.259,172.259 0 1 0 5405.37,3050.61A 172.259,172.259 0 1 0 5060.85,3050.61Z " />
<text x="0" y="0" stroke="none" fill="#000000" transform="matrix(0.05 0 0 0.05 306.2 14.6903)" font-style="normal" font-weight="normal" font-size="140px" font-family="Helvetica" >
R</text>
<text x="0" y="0" stroke="none" fill="#000000" transform="matrix(0.05 0 0 0.05 328.77 7.61404)" font-style="normal" font-weight="normal" font-size="140px" font-family="Helvetica" >
O</text>
<text x="0" y="0" stroke="none" fill="#000000" transform="matrix(0.05 0 0 0.05 335.494 27.7095)" font-style="normal" font-weight="normal" font-size="140px" font-family="Helvetica" >
N</text>
<text x="0" y="0" stroke="none" fill="#000000" transform="matrix(0.05 0 0 0.05 281.2 58.1408)" font-style="normal" font-weight="normal" font-size="140px" font-family="Helvetica" >
O</text>
<text x="0" y="0" stroke="none" fill="#000000" transform="matrix(0.05 0 0 0.05 270.83 34.0086)" font-style="normal" font-weight="normal" font-size="140px" font-family="Helvetica" >
H</text>
<text x="0" y="0" stroke="none" fill="#000000" transform="matrix(0.05 0 0 0.05 270.83 39.8419)" font-style="normal" font-weight="normal" font-size="140px" font-family="Helvetica" >
N</text>
<text x="0" y="0" stroke="none" fill="#000000" transform="matrix(0.05 0 0 0.05 225.265 39.8419)" font-style="normal" font-weight="normal" font-size="140px" font-family="Helvetica" >
Cl</text>
<path stroke="none" fill="#000000" transform="matrix(0.05 0 0 0.05 -93 -103)" d="M 8095.82,2371.22 L 8102.18,2364.87 L 8208.21,2471.13 L 8205.75,2481.38 L 8095.82,2371.22 Z " />
<path stroke="none" fill="#000000" transform="matrix(0.05 0 0 0.05 -93 -103)" d="M 8205.75,2481.38 L 8208.21,2471.13 L 8440.28,2395.52 L 8438.12,2405.67 L 8205.75,2481.38 Z " />
<path stroke="none" fill="#000000" transform="matrix(0.05 0 0 0.05 -93 -103)" d="M 8416.72,2410.36 L 8407.93,2408.5 L 8444.8,2235.02 L 8453.59,2236.89 L 8416.72,2410.36 Z " />
<path stroke="none" fill="#000000" transform="matrix(0.05 0 0 0.05 -93 -103)" d="M 8464.45,2420.51 L 8455.66,2418.64 L 8492.53,2245.17 L 8501.32,2247.04 L 8464.45,2420.51 Z " />
<path stroke="none" fill="#000000" transform="matrix(0.05 0 0 0.05 -93 -103)" d="M 8438.12,2405.67 L 8440.28,2395.52 L 8556.81,2500.65 L 8550.8,2507.33 L 8438.12,2405.67 Z " />
<path stroke="none" fill="#000000" transform="matrix(0.05 0 0 0.05 -93 -103)" d="M 8691.01,2553.57 L 8689.14,2544.78 L 8861.38,2508 L 8856.86,2518.15 L 8691.01,2553.57 Z " />
<path stroke="none" fill="#000000" transform="matrix(0.05 0 0 0.05 -93 -103)" d="M 8856.86,2518.15 L 8861.38,2508 L 8986.75,2725.15 L 8975.7,2723.99 L 8856.86,2518.15 Z " />
<path stroke="none" fill="#000000" transform="matrix(0.05 0 0 0.05 -93 -103)" d="M 8975.7,2723.99 L 8986.75,2725.15 L 8819,2911.45 L 8816.69,2900.58 L 8975.7,2723.99 Z " />
<path stroke="none" fill="#000000" transform="matrix(0.05 0 0 0.05 -93 -103)" d="M 8816.69,2900.58 L 8819,2911.45 L 8589.94,2809.46 L 8599.56,2803.9 L 8816.69,2900.58 Z " />
<path stroke="none" fill="#000000" transform="matrix(0.05 0 0 0.05 -93 -103)" d="M 8608.17,2637.62 L 8617.11,2638.56 L 8599.56,2803.9 L 8589.94,2809.46 L 8608.17,2637.62 Z " />
<path stroke="#000000" stroke-width="9" fill="none" transform="matrix(0.05 0 0 0.05 -93 -103)" d="M 8594.93,2806.63 C 8590.51,2798.97 8581.09,2796.13 8573.9,2800.27 C 8566.72,2804.42 8564.48,2814 8568.9,2821.66 C 8573.32,2829.31 8571.07,2838.89 8563.89,2843.04 C 8556.7,2847.19 8547.29,2844.34 8542.87,2836.69 C 8538.45,2829.03 8529.03,2826.18 8521.84,2830.33 C 8514.66,2834.48 8512.41,2844.06 8516.83,2851.72 C 8521.25,2859.37 8519.01,2868.95 8511.83,2873.1 C 8504.64,2877.25 8495.22,2874.4 8490.8,2866.75 C 8486.38,2859.09 8476.96,2856.24 8469.78,2860.39 C 8462.6,2864.54 8460.35,2874.12 8464.77,2881.77 C 8469.19,2889.43 8466.95,2899.01 8459.76,2903.16 C 8452.58,2907.31 8443.16,2904.46 8438.74,2896.8 C 8434.32,2889.15 8424.9,2886.3 8417.72,2890.45 C 8410.53,2894.6 8408.29,2904.18 8412.71,2911.83 C 8417.13,2919.49 8414.89,2929.07 8407.7,2933.22 C 8400.52,2937.36 8391.1,2934.52 8386.68,2926.86 " />
<path stroke="none" fill="#000000" transform="matrix(0.05 0 0 0.05 -93 -103)" d="M 8379.23,2931.16 L 8388.22,2925.97 L 8388.22,3175.26 L 8379.23,3170.07 L 8379.23,2931.16 Z " />
<path stroke="none" fill="#000000" transform="matrix(0.05 0 0 0.05 -93 -103)" d="M 8379.23,3170.07 L 8388.22,3175.26 L 8172.33,3299.9 L 8172.33,3289.52 L 8379.23,3170.07 Z " />
<path stroke="none" fill="#000000" transform="matrix(0.05 0 0 0.05 -93 -103)" d="M 8172.33,3289.52 L 8172.33,3299.9 L 7956.45,3175.26 L 7965.44,3170.07 L 8172.33,3289.52 Z " />
<path stroke="none" fill="#000000" transform="matrix(0.05 0 0 0.05 -93 -103)" d="M 7965.44,3170.07 L 7956.45,3175.26 L 7956.64,2931.16 L 7961.04,2928.62 L 7965.44,2931.16 L 7965.44,3170.07 Z " />
<path stroke="none" fill="#000000" transform="matrix(0.05 0 0 0.05 -93 -103)" d="M 7961.04,2923.54 L 7961.04,2928.62 L 7956.64,2931.16 L 7749.74,2811.71 L 7749.74,2801.33 L 7961.04,2923.54 Z " />
<path stroke="none" fill="#000000" transform="matrix(0.05 0 0 0.05 -93 -103)" d="M 7749.74,2801.33 L 7749.74,2811.71 L 7538.4,2933.95 L 7538.39,2923.57 L 7749.74,2801.33 Z " />
<path stroke="none" fill="#000000" transform="matrix(0.05 0 0 0.05 -93 -103)" d="M 7558.35,2914.53 L 7567.34,2914.53 L 7567.34,3096.03 L 7558.35,3096.03 L 7558.35,2914.53 Z " />
<path stroke="none" fill="#000000" transform="matrix(0.05 0 0 0.05 -93 -103)" d="M 7509.55,2914.53 L 7518.54,2914.53 L 7518.54,3096.03 L 7509.55,3096.03 L 7509.55,2914.53 Z " />
<path stroke="none" fill="#000000" transform="matrix(0.05 0 0 0.05 -93 -103)" d="M 7538.39,2923.57 L 7538.4,2933.95 L 7397.26,2852.3 L 7401.76,2844.52 L 7538.39,2923.57 Z " />
<path stroke="none" fill="#000000" transform="matrix(0.05 0 0 0.05 -93 -103)" d="M 7251.21,2845.29 L 7255.7,2853.07 L 7120.25,2931.1 L 7115.85,2928.62 L 7115.91,2923.57 L 7251.21,2845.29 Z " />
<path stroke="none" fill="#000000" transform="matrix(0.05 0 0 0.05 -93 -103)" d="M 7111.45,2931.16 L 7115.85,2928.62 L 7120.25,2931.1 L 7120.44,3175.26 L 7111.45,3170.07 L 7111.45,2931.16 Z " />
<path stroke="none" fill="#000000" transform="matrix(0.05 0 0 0.05 -93 -103)" d="M 7111.45,3170.07 L 7120.44,3175.26 L 6904.55,3299.9 L 6904.55,3289.52 L 7111.45,3170.07 Z " />
<path stroke="none" fill="#000000" transform="matrix(0.05 0 0 0.05 -93 -103)" d="M 6904.55,3289.52 L 6904.55,3299.9 L 6688.67,3175.26 L 6697.66,3170.07 L 6904.55,3289.52 Z " />
<path stroke="none" fill="#000000" transform="matrix(0.05 0 0 0.05 -93 -103)" d="M 6697.66,3170.07 L 6688.67,3175.26 L 6688.86,2931.13 L 6693.26,2928.62 L 6697.66,2931.16 L 6697.66,3170.07 Z " />
<path stroke="none" fill="#000000" transform="matrix(0.05 0 0 0.05 -93 -103)" d="M 6693.23,2923.55 L 6693.26,2928.62 L 6688.86,2931.13 L 6521.26,2834.51 L 6525.75,2826.72 L 6693.23,2923.55 Z " />
<path stroke="none" fill="#000000" transform="matrix(0.05 0 0 0.05 -93 -103)" d="M 6697.66,2931.16 L 6693.26,2928.62 L 6693.23,2923.55 L 6904.55,2801.33 L 6904.55,2811.71 L 6697.66,2931.16 Z " />
<path stroke="none" fill="#000000" transform="matrix(0.05 0 0 0.05 -93 -103)" d="M 7115.91,2923.57 L 7115.85,2928.62 L 7111.45,2931.16 L 6904.55,2811.71 L 6904.55,2801.33 L 7115.91,2923.57 Z " />
<path stroke="none" fill="#000000" transform="matrix(0.05 0 0 0.05 -93 -103)" d="M 7965.44,2931.16 L 7961.04,2928.62 L 7961.04,2923.54 L 8172.33,2801.33 L 8172.33,2811.71 L 7965.44,2931.16 Z " />
<path stroke="none" fill="#000000" transform="matrix(0.05 0 0 0.05 -93 -103)" d="M 8388.22,2925.97 L 8379.23,2931.16 L 8172.33,2811.71 L 8172.33,2801.33 L 8388.22,2925.97 Z " />
<path stroke="#000000" stroke-width="9" fill="none" transform="matrix(0.05 0 0 0.05 -93 -103)" d="M 8000.08,3050.61 A 172.259,172.259 0 1 0 8344.59,3050.61A 172.259,172.259 0 1 0 8000.08,3050.61Z " />
<path stroke="#000000" stroke-width="9" fill="none" transform="matrix(0.05 0 0 0.05 -93 -103)" d="M 6732.3,3050.61 A 172.259,172.259 0 1 0 7076.81,3050.61A 172.259,172.259 0 1 0 6732.3,3050.61Z " />
<text x="0" y="0" stroke="none" fill="#000000" transform="matrix(0.05 0 0 0.05 102.7 150.19)" font-style="normal" font-weight="normal" font-size="140px" font-family="Helvetica" >
R</text>
<text x="0" y="0" stroke="none" fill="#000000" transform="matrix(0.05 0 0 0.05 125.27 143.114)" font-style="normal" font-weight="normal" font-size="140px" font-family="Helvetica" >
O</text>
<text x="0" y="0" stroke="none" fill="#000000" transform="matrix(0.05 0 0 0.05 131.994 163.21)" font-style="normal" font-weight="normal" font-size="140px" font-family="Helvetica" >
N</text>
<text x="0" y="0" stroke="none" fill="#000000" transform="matrix(0.05 0 0 0.05 77.6998 193.641)" font-style="normal" font-weight="normal" font-size="140px" font-family="Helvetica" >
O</text>
<text x="0" y="0" stroke="none" fill="#000000" transform="matrix(0.05 0 0 0.05 67.3298 169.509)" font-style="normal" font-weight="normal" font-size="140px" font-family="Helvetica" >
H</text>
<text x="0" y="0" stroke="none" fill="#000000" transform="matrix(0.05 0 0 0.05 67.3298 175.342)" font-style="normal" font-weight="normal" font-size="140px" font-family="Helvetica" >
N</text>
<text x="0" y="0" stroke="none" fill="#000000" transform="matrix(0.05 0 0 0.05 21.7653 175.342)" font-style="normal" font-weight="normal" font-size="140px" font-family="Helvetica" >
Cl</text>
<path stroke="none" fill="#000000" transform="matrix(0.05 0 0 0.05 -93 -103)" d="M 4025.82,5081.22 L 4032.18,5074.87 L 4138.21,5181.13 L 4135.75,5191.38 L 4025.82,5081.22 Z " />
<path stroke="none" fill="#000000" transform="matrix(0.05 0 0 0.05 -93 -103)" d="M 4135.75,5191.38 L 4138.21,5181.13 L 4370.28,5105.52 L 4368.12,5115.67 L 4135.75,5191.38 Z " />
<path stroke="none" fill="#000000" transform="matrix(0.05 0 0 0.05 -93 -103)" d="M 4346.72,5120.36 L 4337.93,5118.5 L 4374.8,4945.02 L 4383.59,4946.89 L 4346.72,5120.36 Z " />
<path stroke="none" fill="#000000" transform="matrix(0.05 0 0 0.05 -93 -103)" d="M 4394.45,5130.51 L 4385.66,5128.64 L 4422.53,4955.17 L 4431.32,4957.04 L 4394.45,5130.51 Z " />
<path stroke="none" fill="#000000" transform="matrix(0.05 0 0 0.05 -93 -103)" d="M 4368.12,5115.67 L 4370.28,5105.52 L 4486.81,5210.65 L 4480.8,5217.33 L 4368.12,5115.67 Z " />
<path stroke="none" fill="#000000" transform="matrix(0.05 0 0 0.05 -93 -103)" d="M 4621.01,5263.57 L 4619.14,5254.78 L 4791.38,5218 L 4786.86,5228.15 L 4621.01,5263.57 Z " />
<path stroke="none" fill="#000000" transform="matrix(0.05 0 0 0.05 -93 -103)" d="M 4786.86,5228.15 L 4791.38,5218 L 4916.75,5435.15 L 4905.7,5433.98 L 4786.86,5228.15 Z " />
<path stroke="none" fill="#000000" transform="matrix(0.05 0 0 0.05 -93 -103)" d="M 4905.7,5433.98 L 4916.75,5435.15 L 4749,5621.45 L 4746.69,5610.58 L 4905.7,5433.98 Z " />
<path stroke="none" fill="#000000" transform="matrix(0.05 0 0 0.05 -93 -103)" d="M 4746.69,5610.58 L 4749,5621.45 L 4519.94,5519.46 L 4529.56,5513.9 L 4746.69,5610.58 Z " />
<path stroke="none" fill="#000000" transform="matrix(0.05 0 0 0.05 -93 -103)" d="M 4538.17,5347.62 L 4547.11,5348.56 L 4529.56,5513.9 L 4519.94,5519.46 L 4538.17,5347.62 Z " />
<path stroke="none" fill="#000000" transform="matrix(0.05 0 0 0.05 -93 -103)" d="M 4492.25,5530.31 L 4496.74,5538.09 L 4489.46,5543.46 L 4483.96,5533.93 L 4492.25,5530.31 Z " />
<path stroke="none" fill="#000000" transform="matrix(0.05 0 0 0.05 -93 -103)" d="M 4454.27,5546.89 L 4463.39,5562.69 L 4456.12,5568.06 L 4445.98,5550.51 L 4454.27,5546.89 Z " />
<path stroke="none" fill="#000000" transform="matrix(0.05 0 0 0.05 -93 -103)" d="M 4416.29,5563.47 L 4430.05,5587.29 L 4422.77,5592.66 L 4408.01,5567.09 L 4416.29,5563.47 Z " />
<path stroke="none" fill="#000000" transform="matrix(0.05 0 0 0.05 -93 -103)" d="M 4378.32,5580.05 L 4396.7,5611.89 L 4389.42,5617.26 L 4370.03,5583.67 L 4378.32,5580.05 Z " />
<path stroke="none" fill="#000000" transform="matrix(0.05 0 0 0.05 -93 -103)" d="M 4340.34,5596.63 L 4363.35,5636.49 L 4356.08,5641.85 L 4332.05,5600.24 L 4340.34,5596.63 Z " />
<path stroke="none" fill="#000000" transform="matrix(0.05 0 0 0.05 -93 -103)" d="M 4309.23,5641.16 L 4318.22,5635.97 L 4318.22,5885.25 L 4309.23,5880.07 L 4309.23,5641.16 Z " />
<path stroke="none" fill="#000000" transform="matrix(0.05 0 0 0.05 -93 -103)" d="M 4309.23,5880.07 L 4318.22,5885.25 L 4102.33,6009.9 L 4102.33,5999.52 L 4309.23,5880.07 Z " />
<path stroke="none" fill="#000000" transform="matrix(0.05 0 0 0.05 -93 -103)" d="M 4102.33,5999.52 L 4102.33,6009.9 L 3886.45,5885.25 L 3895.44,5880.07 L 4102.33,5999.52 Z " />
<path stroke="none" fill="#000000" transform="matrix(0.05 0 0 0.05 -93 -103)" d="M 3895.44,5880.07 L 3886.45,5885.25 L 3886.64,5641.16 L 3891.04,5638.62 L 3895.44,5641.16 L 3895.44,5880.07 Z " />
<path stroke="none" fill="#000000" transform="matrix(0.05 0 0 0.05 -93 -103)" d="M 3891.04,5633.54 L 3891.04,5638.62 L 3886.64,5641.16 L 3679.74,5521.71 L 3679.74,5511.33 L 3891.04,5633.54 Z " />
<path stroke="none" fill="#000000" transform="matrix(0.05 0 0 0.05 -93 -103)" d="M 3679.74,5511.33 L 3679.74,5521.71 L 3468.4,5643.95 L 3468.39,5633.57 L 3679.74,5511.33 Z " />
<path stroke="none" fill="#000000" transform="matrix(0.05 0 0 0.05 -93 -103)" d="M 3488.35,5624.53 L 3497.34,5624.53 L 3497.34,5806.03 L 3488.35,5806.03 L 3488.35,5624.53 Z " />
<path stroke="none" fill="#000000" transform="matrix(0.05 0 0 0.05 -93 -103)" d="M 3439.55,5624.53 L 3448.54,5624.53 L 3448.54,5806.03 L 3439.55,5806.03 L 3439.55,5624.53 Z " />
<path stroke="none" fill="#000000" transform="matrix(0.05 0 0 0.05 -93 -103)" d="M 3468.39,5633.57 L 3468.4,5643.95 L 3327.26,5562.3 L 3331.76,5554.52 L 3468.39,5633.57 Z " />
<path stroke="none" fill="#000000" transform="matrix(0.05 0 0 0.05 -93 -103)" d="M 3181.21,5555.29 L 3185.7,5563.07 L 3050.25,5641.1 L 3045.85,5638.62 L 3045.91,5633.57 L 3181.21,5555.29 Z " />
<path stroke="none" fill="#000000" transform="matrix(0.05 0 0 0.05 -93 -103)" d="M 3041.45,5641.16 L 3045.85,5638.62 L 3050.25,5641.1 L 3050.44,5885.25 L 3041.45,5880.07 L 3041.45,5641.16 Z " />
<path stroke="none" fill="#000000" transform="matrix(0.05 0 0 0.05 -93 -103)" d="M 3041.45,5880.07 L 3050.44,5885.25 L 2834.55,6009.9 L 2834.55,5999.52 L 3041.45,5880.07 Z " />
<path stroke="none" fill="#000000" transform="matrix(0.05 0 0 0.05 -93 -103)" d="M 2834.55,5999.52 L 2834.55,6009.9 L 2618.67,5885.25 L 2627.66,5880.07 L 2834.55,5999.52 Z " />
<path stroke="none" fill="#000000" transform="matrix(0.05 0 0 0.05 -93 -103)" d="M 2627.66,5880.07 L 2618.67,5885.25 L 2618.86,5641.13 L 2623.26,5638.62 L 2627.66,5641.16 L 2627.66,5880.07 Z " />
<path stroke="none" fill="#000000" transform="matrix(0.05 0 0 0.05 -93 -103)" d="M 2623.23,5633.55 L 2623.26,5638.62 L 2618.86,5641.13 L 2451.26,5544.5 L 2455.75,5536.72 L 2623.23,5633.55 Z " />
<path stroke="none" fill="#000000" transform="matrix(0.05 0 0 0.05 -93 -103)" d="M 2627.66,5641.16 L 2623.26,5638.62 L 2623.23,5633.55 L 2834.55,5511.33 L 2834.55,5521.71 L 2627.66,5641.16 Z " />
<path stroke="none" fill="#000000" transform="matrix(0.05 0 0 0.05 -93 -103)" d="M 3045.91,5633.57 L 3045.85,5638.62 L 3041.45,5641.16 L 2834.55,5521.71 L 2834.55,5511.33 L 3045.91,5633.57 Z " />
<path stroke="none" fill="#000000" transform="matrix(0.05 0 0 0.05 -93 -103)" d="M 3895.44,5641.16 L 3891.04,5638.62 L 3891.04,5633.54 L 4102.33,5511.33 L 4102.33,5521.71 L 3895.44,5641.16 Z " />
<path stroke="none" fill="#000000" transform="matrix(0.05 0 0 0.05 -93 -103)" d="M 4318.22,5635.97 L 4309.23,5641.16 L 4102.33,5521.71 L 4102.33,5511.33 L 4318.22,5635.97 Z " />
<path stroke="#000000" stroke-width="9" fill="none" transform="matrix(0.05 0 0 0.05 -93 -103)" d="M 3930.08,5760.61 A 172.259,172.259 0 1 0 4274.59,5760.61A 172.259,172.259 0 1 0 3930.08,5760.61Z " />
<path stroke="#000000" stroke-width="9" fill="none" transform="matrix(0.05 0 0 0.05 -93 -103)" d="M 2662.3,5760.61 A 172.259,172.259 0 1 0 3006.81,5760.61A 172.259,172.259 0 1 0 2662.3,5760.61Z " />
<text x="0" y="0" stroke="none" fill="#000000" transform="matrix(0.05 0 0 0.05 258.2 150.19)" font-style="normal" font-weight="normal" font-size="140px" font-family="Helvetica" >
R</text>
<text x="0" y="0" stroke="none" fill="#000000" transform="matrix(0.05 0 0 0.05 280.77 143.114)" font-style="normal" font-weight="normal" font-size="140px" font-family="Helvetica" >
O</text>
<text x="0" y="0" stroke="none" fill="#000000" transform="matrix(0.05 0 0 0.05 287.494 163.21)" font-style="normal" font-weight="normal" font-size="140px" font-family="Helvetica" >
N</text>
<text x="0" y="0" stroke="none" fill="#000000" transform="matrix(0.05 0 0 0.05 233.2 193.641)" font-style="normal" font-weight="normal" font-size="140px" font-family="Helvetica" >
O</text>
<text x="0" y="0" stroke="none" fill="#000000" transform="matrix(0.05 0 0 0.05 222.83 169.509)" font-style="normal" font-weight="normal" font-size="140px" font-family="Helvetica" >
H</text>
<text x="0" y="0" stroke="none" fill="#000000" transform="matrix(0.05 0 0 0.05 222.83 175.342)" font-style="normal" font-weight="normal" font-size="140px" font-family="Helvetica" >
N</text>
<text x="0" y="0" stroke="none" fill="#000000" transform="matrix(0.05 0 0 0.05 177.265 175.342)" font-style="normal" font-weight="normal" font-size="140px" font-family="Helvetica" >
Cl</text>
<path stroke="none" fill="#000000" transform="matrix(0.05 0 0 0.05 -93 -103)" d="M 7135.82,5081.22 L 7142.18,5074.87 L 7248.21,5181.13 L 7245.75,5191.38 L 7135.82,5081.22 Z " />
<path stroke="none" fill="#000000" transform="matrix(0.05 0 0 0.05 -93 -103)" d="M 7245.75,5191.38 L 7248.21,5181.13 L 7480.28,5105.52 L 7478.12,5115.67 L 7245.75,5191.38 Z " />
<path stroke="none" fill="#000000" transform="matrix(0.05 0 0 0.05 -93 -103)" d="M 7456.72,5120.36 L 7447.93,5118.5 L 7484.8,4945.02 L 7493.59,4946.89 L 7456.72,5120.36 Z " />
<path stroke="none" fill="#000000" transform="matrix(0.05 0 0 0.05 -93 -103)" d="M 7504.45,5130.51 L 7495.66,5128.64 L 7532.53,4955.17 L 7541.32,4957.04 L 7504.45,5130.51 Z " />
<path stroke="none" fill="#000000" transform="matrix(0.05 0 0 0.05 -93 -103)" d="M 7478.12,5115.67 L 7480.28,5105.52 L 7596.81,5210.65 L 7590.8,5217.33 L 7478.12,5115.67 Z " />
<path stroke="none" fill="#000000" transform="matrix(0.05 0 0 0.05 -93 -103)" d="M 7731.01,5263.57 L 7729.14,5254.78 L 7901.38,5218 L 7896.86,5228.15 L 7731.01,5263.57 Z " />
<path stroke="none" fill="#000000" transform="matrix(0.05 0 0 0.05 -93 -103)" d="M 7896.86,5228.15 L 7901.38,5218 L 8026.75,5435.15 L 8015.7,5433.98 L 7896.86,5228.15 Z " />
<path stroke="none" fill="#000000" transform="matrix(0.05 0 0 0.05 -93 -103)" d="M 8015.7,5433.98 L 8026.75,5435.15 L 7859,5621.45 L 7856.69,5610.58 L 8015.7,5433.98 Z " />
<path stroke="none" fill="#000000" transform="matrix(0.05 0 0 0.05 -93 -103)" d="M 7856.69,5610.58 L 7859,5621.45 L 7660.31,5531.67 L 7634.93,5516.63 L 7639.56,5513.9 L 7856.69,5610.58 Z " />
<path stroke="none" fill="#000000" transform="matrix(0.05 0 0 0.05 -93 -103)" d="M 7648.17,5347.62 L 7657.11,5348.56 L 7639.56,5513.9 L 7634.93,5516.63 L 7635.14,5486.72 L 7648.17,5347.62 Z " />
<path stroke="none" fill="#000000" transform="matrix(0.05 0 0 0.05 -93 -103)" d="M 7635.14,5486.72 L 7634.93,5516.63 L 7660.31,5531.67 L 7428.04,5640.9 L 7423.63,5638.62 L 7423.86,5633.66 L 7635.14,5486.72 Z " />
<path stroke="none" fill="#000000" transform="matrix(0.05 0 0 0.05 -93 -103)" d="M 7419.23,5641.16 L 7423.63,5638.62 L 7428.04,5640.9 L 7428.22,5885.25 L 7419.23,5880.07 L 7419.23,5641.16 Z " />
<path stroke="none" fill="#000000" transform="matrix(0.05 0 0 0.05 -93 -103)" d="M 7419.23,5880.07 L 7428.22,5885.25 L 7212.33,6009.9 L 7212.33,5999.52 L 7419.23,5880.07 Z " />
<path stroke="none" fill="#000000" transform="matrix(0.05 0 0 0.05 -93 -103)" d="M 7212.33,5999.52 L 7212.33,6009.9 L 6996.45,5885.25 L 7005.44,5880.07 L 7212.33,5999.52 Z " />
<path stroke="none" fill="#000000" transform="matrix(0.05 0 0 0.05 -93 -103)" d="M 7005.44,5880.07 L 6996.45,5885.25 L 6996.64,5641.16 L 7001.04,5638.62 L 7005.44,5641.16 L 7005.44,5880.07 Z " />
<path stroke="none" fill="#000000" transform="matrix(0.05 0 0 0.05 -93 -103)" d="M 7001.04,5633.54 L 7001.04,5638.62 L 6996.64,5641.16 L 6789.74,5521.71 L 6789.74,5511.33 L 7001.04,5633.54 Z " />
<path stroke="none" fill="#000000" transform="matrix(0.05 0 0 0.05 -93 -103)" d="M 6789.74,5511.33 L 6789.74,5521.71 L 6578.4,5643.95 L 6578.39,5633.57 L 6789.74,5511.33 Z " />
<path stroke="none" fill="#000000" transform="matrix(0.05 0 0 0.05 -93 -103)" d="M 6598.35,5624.53 L 6607.34,5624.53 L 6607.34,5806.03 L 6598.35,5806.03 L 6598.35,5624.53 Z " />
<path stroke="none" fill="#000000" transform="matrix(0.05 0 0 0.05 -93 -103)" d="M 6549.55,5624.53 L 6558.54,5624.53 L 6558.54,5806.03 L 6549.55,5806.03 L 6549.55,5624.53 Z " />
<path stroke="none" fill="#000000" transform="matrix(0.05 0 0 0.05 -93 -103)" d="M 6578.39,5633.57 L 6578.4,5643.95 L 6437.26,5562.3 L 6441.76,5554.52 L 6578.39,5633.57 Z " />
<path stroke="none" fill="#000000" transform="matrix(0.05 0 0 0.05 -93 -103)" d="M 6291.21,5555.29 L 6295.7,5563.07 L 6160.25,5641.1 L 6155.85,5638.62 L 6155.91,5633.57 L 6291.21,5555.29 Z " />
<path stroke="none" fill="#000000" transform="matrix(0.05 0 0 0.05 -93 -103)" d="M 6151.45,5641.16 L 6155.85,5638.62 L 6160.25,5641.1 L 6160.44,5885.25 L 6151.45,5880.07 L 6151.45,5641.16 Z " />
<path stroke="none" fill="#000000" transform="matrix(0.05 0 0 0.05 -93 -103)" d="M 6151.45,5880.07 L 6160.44,5885.25 L 5944.55,6009.9 L 5944.55,5999.52 L 6151.45,5880.07 Z " />
<path stroke="none" fill="#000000" transform="matrix(0.05 0 0 0.05 -93 -103)" d="M 5944.55,5999.52 L 5944.55,6009.9 L 5728.67,5885.25 L 5737.66,5880.07 L 5944.55,5999.52 Z " />
<path stroke="none" fill="#000000" transform="matrix(0.05 0 0 0.05 -93 -103)" d="M 5737.66,5880.07 L 5728.67,5885.25 L 5728.86,5641.13 L 5733.26,5638.62 L 5737.66,5641.16 L 5737.66,5880.07 Z " />
<path stroke="none" fill="#000000" transform="matrix(0.05 0 0 0.05 -93 -103)" d="M 5733.23,5633.55 L 5733.26,5638.62 L 5728.86,5641.13 L 5561.26,5544.5 L 5565.75,5536.72 L 5733.23,5633.55 Z " />
<path stroke="none" fill="#000000" transform="matrix(0.05 0 0 0.05 -93 -103)" d="M 5737.66,5641.16 L 5733.26,5638.62 L 5733.23,5633.55 L 5944.55,5511.33 L 5944.55,5521.71 L 5737.66,5641.16 Z " />
<path stroke="none" fill="#000000" transform="matrix(0.05 0 0 0.05 -93 -103)" d="M 6155.91,5633.57 L 6155.85,5638.62 L 6151.45,5641.16 L 5944.55,5521.71 L 5944.55,5511.33 L 6155.91,5633.57 Z " />
<path stroke="none" fill="#000000" transform="matrix(0.05 0 0 0.05 -93 -103)" d="M 7005.44,5641.16 L 7001.04,5638.62 L 7001.04,5633.54 L 7212.33,5511.33 L 7212.33,5521.71 L 7005.44,5641.16 Z " />
<path stroke="none" fill="#000000" transform="matrix(0.05 0 0 0.05 -93 -103)" d="M 7423.86,5633.66 L 7423.63,5638.62 L 7419.23,5641.16 L 7212.33,5521.71 L 7212.33,5511.33 L 7423.86,5633.66 Z " />
<path stroke="#000000" stroke-width="9" fill="none" transform="matrix(0.05 0 0 0.05 -93 -103)" d="M 7040.08,5760.61 A 172.259,172.259 0 1 0 7384.59,5760.61A 172.259,172.259 0 1 0 7040.08,5760.61Z " />
<path stroke="#000000" stroke-width="9" fill="none" transform="matrix(0.05 0 0 0.05 -93 -103)" d="M 5772.3,5760.61 A 172.259,172.259 0 1 0 6116.81,5760.61A 172.259,172.259 0 1 0 5772.3,5760.61Z " />
<text x="0" y="0" stroke="none" fill="#000000" transform="matrix(0.05 0 0 0.05 178.27 236.614)" font-style="normal" font-weight="normal" font-size="140px" font-family="Helvetica" >
O</text>
<text x="0" y="0" stroke="none" fill="#000000" transform="matrix(0.05 0 0 0.05 184.994 256.71)" font-style="normal" font-weight="normal" font-size="140px" font-family="Helvetica" >
N</text>
<text x="0" y="0" stroke="none" fill="#000000" transform="matrix(0.05 0 0 0.05 130.7 287.141)" font-style="normal" font-weight="normal" font-size="140px" font-family="Helvetica" >
O</text>
<text x="0" y="0" stroke="none" fill="#000000" transform="matrix(0.05 0 0 0.05 120.33 263.009)" font-style="normal" font-weight="normal" font-size="140px" font-family="Helvetica" >
H</text>
<text x="0" y="0" stroke="none" fill="#000000" transform="matrix(0.05 0 0 0.05 120.33 268.842)" font-style="normal" font-weight="normal" font-size="140px" font-family="Helvetica" >
N</text>
<text x="0" y="0" stroke="none" fill="#000000" transform="matrix(0.05 0 0 0.05 74.7653 268.842)" font-style="normal" font-weight="normal" font-size="140px" font-family="Helvetica" >
Cl</text>
<path stroke="none" fill="#000000" transform="matrix(0.05 0 0 0.05 -93 -103)" d="M 5021.37,6886.77 L 5027.73,6880.42 L 5198.28,7051.11 L 5195.81,7061.36 L 5021.37,6886.77 Z " />
<path stroke="none" fill="#000000" transform="matrix(0.05 0 0 0.05 -93 -103)" d="M 5055.88,6852.27 L 5062.23,6845.91 L 5213.61,6997.29 L 5207.26,7003.65 L 5055.88,6852.27 Z " />
<path stroke="none" fill="#000000" transform="matrix(0.05 0 0 0.05 -93 -103)" d="M 5195.81,7061.36 L 5198.28,7051.11 L 5430.28,6975.52 L 5428.12,6985.67 L 5195.81,7061.36 Z " />
<path stroke="none" fill="#000000" transform="matrix(0.05 0 0 0.05 -93 -103)" d="M 5406.72,6990.36 L 5397.93,6988.5 L 5434.8,6815.02 L 5443.59,6816.89 L 5406.72,6990.36 Z " />
<path stroke="none" fill="#000000" transform="matrix(0.05 0 0 0.05 -93 -103)" d="M 5454.45,7000.51 L 5445.66,6998.64 L 5482.53,6825.17 L 5491.32,6827.04 L 5454.45,7000.51 Z " />
<path stroke="none" fill="#000000" transform="matrix(0.05 0 0 0.05 -93 -103)" d="M 5428.12,6985.67 L 5430.28,6975.52 L 5546.81,7080.65 L 5540.8,7087.33 L 5428.12,6985.67 Z " />
<path stroke="none" fill="#000000" transform="matrix(0.05 0 0 0.05 -93 -103)" d="M 5681.01,7133.57 L 5679.14,7124.78 L 5851.38,7088 L 5846.86,7098.15 L 5681.01,7133.57 Z " />
<path stroke="none" fill="#000000" transform="matrix(0.05 0 0 0.05 -93 -103)" d="M 5846.86,7098.15 L 5851.38,7088 L 5976.75,7305.15 L 5965.7,7303.98 L 5846.86,7098.15 Z " />
<path stroke="none" fill="#000000" transform="matrix(0.05 0 0 0.05 -93 -103)" d="M 5965.7,7303.98 L 5976.75,7305.15 L 5809,7491.45 L 5806.69,7480.58 L 5965.7,7303.98 Z " />
<path stroke="none" fill="#000000" transform="matrix(0.05 0 0 0.05 -93 -103)" d="M 5806.69,7480.58 L 5809,7491.45 L 5579.94,7389.46 L 5589.56,7383.9 L 5806.69,7480.58 Z " />
<path stroke="none" fill="#000000" transform="matrix(0.05 0 0 0.05 -93 -103)" d="M 5598.17,7217.62 L 5607.11,7218.56 L 5589.56,7383.9 L 5579.94,7389.46 L 5598.17,7217.62 Z " />
<path stroke="#000000" stroke-width="9" fill="none" transform="matrix(0.05 0 0 0.05 -93 -103)" d="M 5584.93,7386.63 C 5580.51,7378.97 5571.09,7376.13 5563.9,7380.27 C 5556.72,7384.42 5554.48,7394 5558.9,7401.66 C 5563.32,7409.31 5561.07,7418.89 5553.89,7423.04 C 5546.7,7427.19 5537.29,7424.34 5532.87,7416.69 C 5528.45,7409.03 5519.03,7406.18 5511.84,7410.33 C 5504.66,7414.48 5502.41,7424.06 5506.83,7431.72 C 5511.25,7439.37 5509.01,7448.95 5501.83,7453.1 C 5494.64,7457.25 5485.22,7454.4 5480.8,7446.74 C 5476.38,7439.09 5466.96,7436.24 5459.78,7440.39 C 5452.6,7444.54 5450.35,7454.12 5454.77,7461.77 C 5459.19,7469.43 5456.95,7479.01 5449.76,7483.16 C 5442.58,7487.31 5433.16,7484.46 5428.74,7476.8 C 5424.32,7469.15 5414.9,7466.3 5407.72,7470.45 C 5400.53,7474.6 5398.29,7484.18 5402.71,7491.83 C 5407.13,7499.49 5404.89,7509.07 5397.7,7513.22 C 5390.52,7517.36 5381.1,7514.52 5376.68,7506.86 " />
<path stroke="none" fill="#000000" transform="matrix(0.05 0 0 0.05 -93 -103)" d="M 5369.23,7511.16 L 5378.22,7505.97 L 5378.22,7755.25 L 5369.23,7750.07 L 5369.23,7511.16 Z " />
<path stroke="none" fill="#000000" transform="matrix(0.05 0 0 0.05 -93 -103)" d="M 5369.23,7750.07 L 5378.22,7755.25 L 5162.33,7879.9 L 5162.33,7869.52 L 5369.23,7750.07 Z " />
<path stroke="none" fill="#000000" transform="matrix(0.05 0 0 0.05 -93 -103)" d="M 5162.33,7869.52 L 5162.33,7879.9 L 4946.45,7755.25 L 4955.44,7750.07 L 5162.33,7869.52 Z " />
<path stroke="none" fill="#000000" transform="matrix(0.05 0 0 0.05 -93 -103)" d="M 4955.44,7750.07 L 4946.45,7755.25 L 4946.64,7511.16 L 4951.04,7508.62 L 4955.44,7511.16 L 4955.44,7750.07 Z " />
<path stroke="none" fill="#000000" transform="matrix(0.05 0 0 0.05 -93 -103)" d="M 4951.04,7503.54 L 4951.04,7508.62 L 4946.64,7511.16 L 4739.74,7391.71 L 4739.74,7381.33 L 4951.04,7503.54 Z " />
<path stroke="none" fill="#000000" transform="matrix(0.05 0 0 0.05 -93 -103)" d="M 4739.74,7381.33 L 4739.74,7391.71 L 4528.4,7513.95 L 4528.39,7503.57 L 4739.74,7381.33 Z " />
<path stroke="none" fill="#000000" transform="matrix(0.05 0 0 0.05 -93 -103)" d="M 4548.35,7494.53 L 4557.34,7494.53 L 4557.34,7676.03 L 4548.35,7676.03 L 4548.35,7494.53 Z " />
<path stroke="none" fill="#000000" transform="matrix(0.05 0 0 0.05 -93 -103)" d="M 4499.55,7494.53 L 4508.54,7494.53 L 4508.54,7676.03 L 4499.55,7676.03 L 4499.55,7494.53 Z " />
<path stroke="none" fill="#000000" transform="matrix(0.05 0 0 0.05 -93 -103)" d="M 4528.39,7503.57 L 4528.4,7513.95 L 4387.26,7432.3 L 4391.76,7424.52 L 4528.39,7503.57 Z " />
<path stroke="none" fill="#000000" transform="matrix(0.05 0 0 0.05 -93 -103)" d="M 4241.21,7425.29 L 4245.7,7433.07 L 4110.25,7511.1 L 4105.85,7508.62 L 4105.91,7503.57 L 4241.21,7425.29 Z " />
<path stroke="none" fill="#000000" transform="matrix(0.05 0 0 0.05 -93 -103)" d="M 4101.45,7511.16 L 4105.85,7508.62 L 4110.25,7511.1 L 4110.44,7755.25 L 4101.45,7750.07 L 4101.45,7511.16 Z " />
<path stroke="none" fill="#000000" transform="matrix(0.05 0 0 0.05 -93 -103)" d="M 4101.45,7750.07 L 4110.44,7755.25 L 3894.55,7879.9 L 3894.55,7869.52 L 4101.45,7750.07 Z " />
<path stroke="none" fill="#000000" transform="matrix(0.05 0 0 0.05 -93 -103)" d="M 3894.55,7869.52 L 3894.55,7879.9 L 3678.67,7755.25 L 3687.66,7750.07 L 3894.55,7869.52 Z " />
<path stroke="none" fill="#000000" transform="matrix(0.05 0 0 0.05 -93 -103)" d="M 3687.66,7750.07 L 3678.67,7755.25 L 3678.86,7511.13 L 3683.26,7508.62 L 3687.66,7511.16 L 3687.66,7750.07 Z " />
<path stroke="none" fill="#000000" transform="matrix(0.05 0 0 0.05 -93 -103)" d="M 3683.23,7503.55 L 3683.26,7508.62 L 3678.86,7511.13 L 3511.26,7414.5 L 3515.75,7406.72 L 3683.23,7503.55 Z " />
<path stroke="none" fill="#000000" transform="matrix(0.05 0 0 0.05 -93 -103)" d="M 3687.66,7511.16 L 3683.26,7508.62 L 3683.23,7503.55 L 3894.55,7381.33 L 3894.55,7391.71 L 3687.66,7511.16 Z " />
<path stroke="none" fill="#000000" transform="matrix(0.05 0 0 0.05 -93 -103)" d="M 4105.91,7503.57 L 4105.85,7508.62 L 4101.45,7511.16 L 3894.55,7391.71 L 3894.55,7381.33 L 4105.91,7503.57 Z " />
<path stroke="none" fill="#000000" transform="matrix(0.05 0 0 0.05 -93 -103)" d="M 4955.44,7511.16 L 4951.04,7508.62 L 4951.04,7503.54 L 5162.33,7381.33 L 5162.33,7391.71 L 4955.44,7511.16 Z " />
<path stroke="none" fill="#000000" transform="matrix(0.05 0 0 0.05 -93 -103)" d="M 5378.22,7505.97 L 5369.23,7511.16 L 5162.33,7391.71 L 5162.33,7381.33 L 5378.22,7505.97 Z " />
<path stroke="#000000" stroke-width="9" fill="none" transform="matrix(0.05 0 0 0.05 -93 -103)" d="M 4990.08,7630.61 A 172.259,172.259 0 1 0 5334.59,7630.61A 172.259,172.259 0 1 0 4990.08,7630.61Z " />
<path stroke="#000000" stroke-width="9" fill="none" transform="matrix(0.05 0 0 0.05 -93 -103)" d="M 3722.3,7630.61 A 172.259,172.259 0 1 0 4066.81,7630.61A 172.259,172.259 0 1 0 3722.3,7630.61Z " />
</svg>
