<?xml version="1.0" standalone="no" ?>
<!DOCTYPE svg PUBLIC "-//W3C//DTD SVG 1.1//EN" "http://www.w3.org/Graphics/SVG/1.1/DTD/svg11.dtd">
<svg width="481px" height="1497px" viewBox="0 0 481 1497" style="background-color: #ffffff00" xmlns="http://www.w3.org/2000/svg" xmlns:xlink="http://www.w3.org/1999/xlink" version="1.1" >
<path stroke="none" fill="#000000" transform="matrix(0.05 0 0 0.05 -19 -46)" d="M 1130.19,2382.82 L 1112.87,2392.82 L 901.801,2027.23 L 919.121,2017.23 L 1130.19,2382.82 Z " />
<path stroke="none" fill="#000000" transform="matrix(0.05 0 0 0.05 -19 -46)" d="M 1184.23,2351.62 L 1166.91,2361.62 L 955.841,1996.03 L 973.161,1986.03 L 1184.23,2351.62 Z " />
<path stroke="none" fill="#000000" transform="matrix(0.05 0 0 0.05 -19 -46)" d="M 426.488,2032.23 L 426.488,2012.23 L 940.948,2012.44 L 952.494,2032.46 L 426.488,2032.23 Z " />
<path stroke="none" fill="#000000" transform="matrix(0.05 0 0 0.05 -19 -46)" d="M 1122.48,1697.39 L 1139.8,1707.39 L 952.494,2032.46 L 940.948,2012.44 L 1122.48,1697.39 Z " />
<path stroke="none" fill="#000000" transform="matrix(0.05 0 0 0.05 -19 -46)" d="M 4096.44,1826.93 L 4086.69,1831.89 L 4077.03,1824.88 L 4076.69,1430.21 L 4096.69,1430.21 L 4096.44,1826.93 Z " />
<path stroke="none" fill="#000000" transform="matrix(0.05 0 0 0.05 -19 -46)" d="M 3595.9,1162.58 L 3588.25,1139.05 L 3991.86,1270.57 L 3985.68,1289.59 L 3595.9,1162.58 Z " />
<path stroke="none" fill="#000000" transform="matrix(0.05 0 0 0.05 -19 -46)" d="M 3705.63,1966.22 L 3699.45,1947.2 L 4077.03,1824.88 L 4086.69,1831.89 L 4084.98,1842.7 L 3705.63,1966.22 Z " />
<path stroke="none" fill="#000000" transform="matrix(0.05 0 0 0.05 -19 -46)" d="M 3686.35,1906.87 L 3680.16,1887.85 L 4021.2,1777.05 L 4027.38,1796.07 L 3686.35,1906.87 Z " />
<path stroke="none" fill="#000000" transform="matrix(0.05 0 0 0.05 -19 -46)" d="M 4408.83,2053.59 L 4397.08,2069.77 L 4084.98,1842.7 L 4086.69,1831.89 L 4096.44,1826.93 L 4408.83,2053.59 Z " />
<path stroke="none" fill="#000000" transform="matrix(0.05 0 0 0.05 -19 -46)" d="M 3298.46,1571.98 L 3286.49,1571.89 L 3281.49,1562.09 L 3588.25,1139.05 L 3595.9,1162.58 L 3298.46,1571.98 Z " />
<path stroke="none" fill="#000000" transform="matrix(0.05 0 0 0.05 -19 -46)" d="M 3371.71,1577.77 L 3355.53,1566.02 L 3607.88,1218.68 L 3624.06,1230.44 L 3371.71,1577.77 Z " />
<path stroke="none" fill="#000000" transform="matrix(0.05 0 0 0.05 -19 -46)" d="M 3522.44,1879.65 L 3506.26,1891.4 L 3281.58,1581.7 L 3286.49,1571.89 L 3298.46,1571.98 L 3522.44,1879.65 Z " />
<text x="0" y="0" stroke="none" fill="#000000" transform="matrix(0.05 0 0 0.05 37.4352 81.2144)" font-style="normal" font-weight="normal" font-size="200px" font-family="Helvetica" >
O</text>
<text x="0" y="0" stroke="none" fill="#000000" transform="matrix(0.05 0 0 0.05 30.4919 36.1811)" font-style="normal" font-weight="normal" font-size="200px" font-family="Helvetica" >
HN</text>
<path stroke="none" fill="#000000" transform="matrix(0.05 0 0 0.05 -19 -46)" d="M 1303.56,1581.89 L 1303.56,1561.89 L 1720.81,1562.16 L 1726.49,1571.89 L 1720.81,1581.62 L 1303.56,1581.89 Z " />
<path stroke="none" fill="#000000" transform="matrix(0.05 0 0 0.05 -19 -46)" d="M 1737.78,1571.89 L 1726.49,1571.89 L 1720.81,1562.16 L 1980.58,1111.33 L 1992.14,1131.34 L 1737.78,1571.89 Z " />
<path stroke="none" fill="#000000" transform="matrix(0.05 0 0 0.05 -19 -46)" d="M 1807.2,1576.89 L 1789.88,1566.89 L 2013.85,1178.96 L 2031.17,1188.96 L 1807.2,1576.89 Z " />
<path stroke="none" fill="#000000" transform="matrix(0.05 0 0 0.05 -19 -46)" d="M 1992.14,1131.34 L 1980.58,1111.33 L 2512.39,1111.33 L 2500.84,1131.34 L 1992.14,1131.34 Z " />
<path stroke="none" fill="#000000" transform="matrix(0.05 0 0 0.05 -19 -46)" d="M 2500.84,1131.34 L 2512.39,1111.33 L 2772.14,1562.11 L 2766.49,1571.89 L 2755.19,1571.89 L 2500.84,1131.34 Z " />
<path stroke="none" fill="#000000" transform="matrix(0.05 0 0 0.05 -19 -46)" d="M 2461.8,1188.96 L 2479.12,1178.96 L 2703.09,1566.89 L 2685.77,1576.89 L 2461.8,1188.96 Z " />
<path stroke="none" fill="#000000" transform="matrix(0.05 0 0 0.05 -19 -46)" d="M 2755.19,1571.89 L 2766.49,1571.89 L 2772.14,1581.68 L 2512.39,2032.45 L 2500.84,2012.44 L 2755.19,1571.89 Z " />
<path stroke="none" fill="#000000" transform="matrix(0.05 0 0 0.05 -19 -46)" d="M 1720.81,1581.62 L 1726.49,1571.89 L 1737.78,1571.89 L 1992.14,2012.44 L 1980.58,2032.45 L 1720.81,1581.62 Z " />
<path stroke="none" fill="#000000" transform="matrix(0.05 0 0 0.05 -19 -46)" d="M 2500.84,2012.44 L 2512.39,2032.45 L 1980.58,2032.45 L 1992.14,2012.44 L 2500.84,2012.44 Z " />
<path stroke="none" fill="#000000" transform="matrix(0.05 0 0 0.05 -19 -46)" d="M 2470.46,1949.83 L 2470.46,1969.83 L 2022.51,1969.83 L 2022.51,1949.83 L 2470.46,1949.83 Z " />
<text x="0" y="0" stroke="none" fill="#000000" transform="matrix(0.05 0 0 0.05 181.999 23.1811)" font-style="normal" font-weight="normal" font-size="200px" font-family="Helvetica" >
S</text>
<path stroke="none" fill="#000000" transform="matrix(0.05 0 0 0.05 -19 -46)" d="M 2772.14,1581.68 L 2766.49,1571.89 L 2772.14,1562.11 L 3281.49,1562.09 L 3286.49,1571.89 L 3281.58,1581.7 L 2772.14,1581.68 Z " />
<text x="0" y="0" stroke="none" fill="#000000" transform="matrix(0.05 0 0 0.05 156.996 57.2155)" font-style="normal" font-weight="normal" font-size="200px" font-family="Helvetica" >
N</text>
<text x="0" y="0" stroke="none" fill="#000000" transform="matrix(0.05 0 0 0.05 202.758 64.4635)" font-style="normal" font-weight="normal" font-size="200px" font-family="Helvetica" >
NH</text>
<text x="0" y="0" stroke="none" fill="#000000" transform="matrix(0.05 0 0 0.05 217.201 66.7633)" font-style="normal" font-weight="normal" font-size="150px" font-family="Helvetica" >
2</text>
<text x="0" y="0" stroke="none" fill="#000000" transform="matrix(0.05 0 0 0.05 399.284 9.24624)" font-style="normal" font-weight="normal" font-size="200px" font-family="Helvetica" >
H</text>
<text x="0" y="0" stroke="none" fill="#000000" transform="matrix(0.05 0 0 0.05 399.284 17.5879)" font-style="normal" font-weight="normal" font-size="200px" font-family="Helvetica" >
N</text>
<text x="0" y="0" stroke="none" fill="#000000" transform="matrix(0.05 0 0 0.05 376.457 56.6422)" font-style="normal" font-weight="normal" font-size="200px" font-family="Helvetica" >
O</text>
<text x="0" y="0" stroke="none" fill="#000000" transform="matrix(0.05 0 0 0.05 354.188 9.24624)" font-style="normal" font-weight="normal" font-size="200px" font-family="Helvetica" >
H</text>
<text x="0" y="0" stroke="none" fill="#000000" transform="matrix(0.05 0 0 0.05 354.188 17.5879)" font-style="normal" font-weight="normal" font-size="200px" font-family="Helvetica" >
N</text>
<text x="0" y="0" stroke="none" fill="#000000" transform="matrix(0.05 0 0 0.05 302.892 73.9212)" font-style="normal" font-weight="normal" font-size="200px" font-family="Helvetica" >
O</text>
<text x="0" y="0" stroke="none" fill="#000000" transform="matrix(0.05 0 0 0.05 286.544 30.606)" font-style="normal" font-weight="normal" font-size="200px" font-family="Helvetica" >
N</text>
<path stroke="none" fill="#000000" transform="matrix(0.05 0 0 0.05 -19 -46)" d="M 9801,1987.02 L 9780.99,1975.47 L 9780.99,1466.04 L 9801,1454.49 L 9801,1987.02 Z " />
<path stroke="none" fill="#000000" transform="matrix(0.05 0 0 0.05 -19 -46)" d="M 9738.29,1945.04 L 9718.29,1945.04 L 9718.29,1496.47 L 9738.29,1496.47 L 9738.29,1945.04 Z " />
<path stroke="none" fill="#000000" transform="matrix(0.05 0 0 0.05 -19 -46)" d="M 9801,1454.49 L 9780.99,1466.04 L 9339.81,1211.33 L 9339.81,1188.22 L 9801,1454.49 Z " />
<path stroke="none" fill="#000000" transform="matrix(0.05 0 0 0.05 -19 -46)" d="M 8541.43,1271.36 L 8551.43,1254.03 L 8888.78,1449.13 L 8888.85,1460.39 L 8879.07,1465.96 L 8541.43,1271.36 Z " />
<path stroke="none" fill="#000000" transform="matrix(0.05 0 0 0.05 -19 -46)" d="M 9339.81,1188.22 L 9339.81,1211.33 L 8898.64,1466.04 L 8888.85,1460.39 L 8888.78,1449.13 L 9339.81,1188.22 Z " />
<path stroke="none" fill="#000000" transform="matrix(0.05 0 0 0.05 -19 -46)" d="M 9334.81,1263.52 L 9344.81,1280.84 L 8956.34,1505.13 L 8946.34,1487.81 L 9334.81,1263.52 Z " />
<path stroke="none" fill="#000000" transform="matrix(0.05 0 0 0.05 -19 -46)" d="M 8879.07,1465.96 L 8888.85,1460.39 L 8898.64,1466.04 L 8898.64,1975.47 L 8878.63,1987.02 L 8879.07,1465.96 Z " />
<path stroke="none" fill="#000000" transform="matrix(0.05 0 0 0.05 -19 -46)" d="M 9780.99,1975.47 L 9801,1987.02 L 9339.81,2253.29 L 9339.81,2230.18 L 9780.99,1975.47 Z " />
<path stroke="none" fill="#000000" transform="matrix(0.05 0 0 0.05 -19 -46)" d="M 8878.63,1987.02 L 8898.64,1975.47 L 9339.81,2230.18 L 9339.81,2253.29 L 8878.63,1987.02 Z " />
<path stroke="none" fill="#000000" transform="matrix(0.05 0 0 0.05 -19 -46)" d="M 8946.34,1953.7 L 8956.34,1936.38 L 9344.81,2160.66 L 9334.81,2177.98 L 8946.34,1953.7 Z " />
<path stroke="none" fill="#000000" transform="matrix(0.05 0 0 0.05 -19 -46)" d="M 8323.63,1254.45 L 8333.63,1271.77 L 7986.93,1472.29 L 7986.93,1449.17 L 8323.63,1254.45 Z " />
<path stroke="none" fill="#000000" transform="matrix(0.05 0 0 0.05 -19 -46)" d="M 7965.69,1867.43 L 7945.69,1867.43 L 7945.69,1442.35 L 7965.69,1442.35 L 7965.69,1867.43 Z " />
<path stroke="none" fill="#000000" transform="matrix(0.05 0 0 0.05 -19 -46)" d="M 8028.18,1867.43 L 8008.18,1867.43 L 8008.18,1442.35 L 8028.18,1442.35 L 8028.18,1867.43 Z " />
<path stroke="none" fill="#000000" transform="matrix(0.05 0 0 0.05 -19 -46)" d="M 7639.51,1271.36 L 7649.51,1254.03 L 7986.93,1449.17 L 7986.93,1472.29 L 7639.51,1271.36 Z " />
<path stroke="none" fill="#000000" transform="matrix(0.05 0 0 0.05 -19 -46)" d="M 7421.71,1254.45 L 7431.71,1271.77 L 7085.08,1472.24 L 7085.09,1449.13 L 7421.71,1254.45 Z " />
<path stroke="none" fill="#000000" transform="matrix(0.05 0 0 0.05 -19 -46)" d="M 6296.99,1406.18 L 6286.99,1388.86 L 6633.98,1188.18 L 6633.98,1211.29 L 6296.99,1406.18 Z " />
<path stroke="none" fill="#000000" transform="matrix(0.05 0 0 0.05 -19 -46)" d="M 7085.09,1449.13 L 7085.08,1472.24 L 6633.98,1211.29 L 6633.98,1188.18 L 7085.09,1449.13 Z " />
<path stroke="none" fill="#000000" transform="matrix(0.05 0 0 0.05 -19 -46)" d="M 6075.57,1401.58 L 6067.44,1419.85 L 5709.95,1260.29 L 5704.8,1236.09 L 6075.57,1401.58 Z " />
<path stroke="none" fill="#000000" transform="matrix(0.05 0 0 0.05 -19 -46)" d="M 5704.8,1236.09 L 5709.95,1260.29 L 5370.91,1636.82 L 5346.31,1634.24 L 5704.8,1236.09 Z " />
<path stroke="none" fill="#000000" transform="matrix(0.05 0 0 0.05 -19 -46)" d="M 5346.31,1634.24 L 5370.91,1636.82 L 5624.21,2075.54 L 5614.14,2098.14 L 5346.31,1634.24 Z " />
<path stroke="none" fill="#000000" transform="matrix(0.05 0 0 0.05 -19 -46)" d="M 6416.19,2265.74 L 6402.8,2280.6 L 6084.19,1993.72 L 6097.58,1978.86 L 6416.19,2265.74 Z " />
<path stroke="none" fill="#000000" transform="matrix(0.05 0 0 0.05 -19 -46)" d="M 6458,2219.3 L 6444.62,2234.17 L 6126.01,1947.29 L 6139.39,1932.42 L 6458,2219.3 Z " />
<path stroke="none" fill="#000000" transform="matrix(0.05 0 0 0.05 -19 -46)" d="M 6161.55,1569.62 L 6181.45,1571.71 L 6138.19,1986.76 L 6119.8,1970.2 L 6161.55,1569.62 Z " />
<path stroke="none" fill="#000000" transform="matrix(0.05 0 0 0.05 -19 -46)" d="M 5614.14,2098.14 L 5624.21,2075.54 L 6119.8,1970.2 L 6138.19,1986.76 L 5614.14,2098.14 Z " />
<text x="0" y="0" stroke="none" fill="#000000" transform="matrix(0.05 0 0 0.05 134.848 176.503)" font-style="normal" font-weight="normal" font-size="200px" font-family="Helvetica" >
HN</text>
<text x="0" y="0" stroke="none" fill="#000000" transform="matrix(0.05 0 0 0.05 141.791 221.536)" font-style="normal" font-weight="normal" font-size="200px" font-family="Helvetica" >
O</text>
<text x="0" y="0" stroke="none" fill="#000000" transform="matrix(0.05 0 0 0.05 286.355 189.503)" font-style="normal" font-weight="normal" font-size="200px" font-family="Helvetica" >
S</text>
<text x="0" y="0" stroke="none" fill="#000000" transform="matrix(0.05 0 0 0.05 261.352 155.468)" font-style="normal" font-weight="normal" font-size="200px" font-family="Helvetica" >
N</text>
<text x="0" y="0" stroke="none" fill="#000000" transform="matrix(0.05 0 0 0.05 307.114 139.879)" font-style="normal" font-weight="normal" font-size="200px" font-family="Helvetica" >
H</text>
<text x="0" y="0" stroke="none" fill="#000000" transform="matrix(0.05 0 0 0.05 307.114 148.22)" font-style="normal" font-weight="normal" font-size="200px" font-family="Helvetica" >
N</text>
<path stroke="none" fill="#000000" transform="matrix(0.05 0 0 0.05 -19 -46)" d="M 4067.7,4838.89 L 4079.26,4818.88 L 4587.96,4818.88 L 4599.51,4838.89 L 4067.7,4838.89 Z " />
<path stroke="none" fill="#000000" transform="matrix(0.05 0 0 0.05 -19 -46)" d="M 4109.63,4776.26 L 4109.63,4756.26 L 4557.58,4756.26 L 4557.58,4776.26 L 4109.63,4776.26 Z " />
<path stroke="none" fill="#000000" transform="matrix(0.05 0 0 0.05 -19 -46)" d="M 4599.51,4838.89 L 4587.96,4818.88 L 4842.31,4378.33 L 4853.61,4378.33 L 4859.26,4388.11 L 4599.51,4838.89 Z " />
<path stroke="none" fill="#000000" transform="matrix(0.05 0 0 0.05 -19 -46)" d="M 4859.26,4368.54 L 4853.61,4378.33 L 4842.31,4378.33 L 4587.96,3937.78 L 4599.51,3917.77 L 4859.26,4368.54 Z " />
<path stroke="none" fill="#000000" transform="matrix(0.05 0 0 0.05 -19 -46)" d="M 4790.21,4373.33 L 4772.89,4383.33 L 4548.92,3995.39 L 4566.24,3985.39 L 4790.21,4373.33 Z " />
<path stroke="none" fill="#000000" transform="matrix(0.05 0 0 0.05 -19 -46)" d="M 4599.51,3917.77 L 4587.96,3937.78 L 4079.26,3937.78 L 4067.7,3917.77 L 4599.51,3917.77 Z " />
<path stroke="none" fill="#000000" transform="matrix(0.05 0 0 0.05 -19 -46)" d="M 4079.26,4818.88 L 4067.7,4838.89 L 3807.93,4388.06 L 3813.61,4378.33 L 3824.9,4378.33 L 4079.26,4818.88 Z " />
<path stroke="none" fill="#000000" transform="matrix(0.05 0 0 0.05 -19 -46)" d="M 3390.68,4388.33 L 3390.68,4368.33 L 3807.93,4368.6 L 3813.61,4378.33 L 3807.93,4388.06 L 3390.68,4388.33 Z " />
<path stroke="none" fill="#000000" transform="matrix(0.05 0 0 0.05 -19 -46)" d="M 4067.7,3917.77 L 4079.26,3937.78 L 3824.9,4378.33 L 3813.61,4378.33 L 3807.93,4368.6 L 4067.7,3917.77 Z " />
<path stroke="none" fill="#000000" transform="matrix(0.05 0 0 0.05 -19 -46)" d="M 4100.97,3985.39 L 4118.29,3995.39 L 3894.32,4383.33 L 3877,4373.33 L 4100.97,3985.39 Z " />
<path stroke="none" fill="#000000" transform="matrix(0.05 0 0 0.05 -19 -46)" d="M 3209.6,4503.83 L 3226.92,4513.83 L 3039.61,4838.89 L 3028.07,4818.87 L 3209.6,4503.83 Z " />
<path stroke="none" fill="#000000" transform="matrix(0.05 0 0 0.05 -19 -46)" d="M 3217.31,5189.25 L 3199.99,5199.25 L 2988.92,4833.66 L 3006.24,4823.66 L 3217.31,5189.25 Z " />
<path stroke="none" fill="#000000" transform="matrix(0.05 0 0 0.05 -19 -46)" d="M 3271.35,5158.05 L 3254.03,5168.05 L 3042.96,4802.46 L 3060.28,4792.46 L 3271.35,5158.05 Z " />
<path stroke="none" fill="#000000" transform="matrix(0.05 0 0 0.05 -19 -46)" d="M 3028.07,4818.87 L 3039.61,4838.89 L 2513.61,4838.66 L 2513.61,4818.66 L 3028.07,4818.87 Z " />
<path stroke="none" fill="#000000" transform="matrix(0.05 0 0 0.05 -19 -46)" d="M 5593.73,4058.34 L 5609.91,4070.1 L 5385.58,4378.24 L 5373.61,4378.33 L 5368.7,4368.52 L 5593.73,4058.34 Z " />
<path stroke="none" fill="#000000" transform="matrix(0.05 0 0 0.05 -19 -46)" d="M 4859.26,4388.11 L 4853.61,4378.33 L 4859.26,4368.54 L 5368.7,4368.52 L 5373.61,4378.33 L 5368.61,4388.14 L 4859.26,4388.11 Z " />
<path stroke="none" fill="#000000" transform="matrix(0.05 0 0 0.05 -19 -46)" d="M 6068.39,4662.07 L 6074.57,4681.09 L 5675.37,4811.17 L 5683.02,4787.64 L 6068.39,4662.07 Z " />
<path stroke="none" fill="#000000" transform="matrix(0.05 0 0 0.05 -19 -46)" d="M 5368.61,4388.14 L 5373.61,4378.33 L 5385.58,4378.24 L 5683.02,4787.64 L 5675.37,4811.17 L 5368.61,4388.14 Z " />
<path stroke="none" fill="#000000" transform="matrix(0.05 0 0 0.05 -19 -46)" d="M 5442.65,4384.21 L 5458.83,4372.45 L 5711.18,4719.78 L 5695,4731.54 L 5442.65,4384.21 Z " />
<path stroke="none" fill="#000000" transform="matrix(0.05 0 0 0.05 -19 -46)" d="M 6183.81,4524.65 L 6163.81,4524.65 L 6164.15,4125.34 L 6173.81,4118.33 L 6183.56,4123.29 L 6183.81,4524.65 Z " />
<path stroke="none" fill="#000000" transform="matrix(0.05 0 0 0.05 -19 -46)" d="M 5786.43,4002.98 L 5792.61,3983.96 L 6172.1,4107.52 L 6173.81,4118.33 L 6164.15,4125.34 L 5786.43,4002.98 Z " />
<path stroke="none" fill="#000000" transform="matrix(0.05 0 0 0.05 -19 -46)" d="M 5767.15,4062.32 L 5773.33,4043.3 L 6114.5,4154.15 L 6108.32,4173.17 L 5767.15,4062.32 Z " />
<path stroke="none" fill="#000000" transform="matrix(0.05 0 0 0.05 -19 -46)" d="M 6484.59,3880.17 L 6496.34,3896.35 L 6183.56,4123.29 L 6173.81,4118.33 L 6172.1,4107.52 L 6484.59,3880.17 Z " />
<path stroke="none" fill="#000000" transform="matrix(0.05 0 0 0.05 -19 -46)" d="M 6700.9,3871 L 6709.03,3852.73 L 7068.29,4012.99 L 7069.54,4024.18 L 7060.39,4030.74 L 6700.9,3871 Z " />
<path stroke="none" fill="#000000" transform="matrix(0.05 0 0 0.05 -19 -46)" d="M 7060.39,4030.74 L 7069.54,4024.18 L 7079.86,4028.78 L 7133.03,4534.69 L 7114.34,4548.27 L 7060.39,4030.74 Z " />
<path stroke="none" fill="#000000" transform="matrix(0.05 0 0 0.05 -19 -46)" d="M 7125.42,4054.53 L 7145.31,4052.44 L 7192.13,4497.94 L 7172.24,4500.03 L 7125.42,4054.53 Z " />
<path stroke="none" fill="#000000" transform="matrix(0.05 0 0 0.05 -19 -46)" d="M 7114.34,4548.27 L 7133.03,4534.69 L 7597.76,4741.6 L 7600.17,4764.58 L 7114.34,4548.27 Z " />
<path stroke="none" fill="#000000" transform="matrix(0.05 0 0 0.05 -19 -46)" d="M 7600.17,4764.58 L 7597.76,4741.6 L 8009.31,4442.59 L 8030.41,4451.99 L 7600.17,4764.58 Z " />
<path stroke="none" fill="#000000" transform="matrix(0.05 0 0 0.05 -19 -46)" d="M 7597.28,4689.27 L 7585.53,4673.09 L 7947.92,4409.79 L 7959.68,4425.97 L 7597.28,4689.27 Z " />
<path stroke="none" fill="#000000" transform="matrix(0.05 0 0 0.05 -19 -46)" d="M 8030.41,4451.99 L 8009.31,4442.59 L 7956.13,3936.68 L 7974.82,3923.1 L 8030.41,4451.99 Z " />
<path stroke="none" fill="#000000" transform="matrix(0.05 0 0 0.05 -19 -46)" d="M 7079.86,4028.78 L 7069.54,4024.18 L 7068.29,4012.99 L 7488.99,3706.79 L 7491.41,3729.77 L 7079.86,4028.78 Z " />
<path stroke="none" fill="#000000" transform="matrix(0.05 0 0 0.05 -19 -46)" d="M 7974.82,3923.1 L 7956.13,3936.68 L 7491.41,3729.77 L 7488.99,3706.79 L 7974.82,3923.1 Z " />
<path stroke="none" fill="#000000" transform="matrix(0.05 0 0 0.05 -19 -46)" d="M 7911.05,3963.25 L 7902.91,3981.52 L 7493.69,3799.33 L 7501.83,3781.06 L 7911.05,3963.25 Z " />
<text x="0" y="0" stroke="none" fill="#000000" transform="matrix(0.05 0 0 0.05 37.5154 1066.58)" font-style="normal" font-weight="normal" font-size="200px" font-family="Helvetica" >
HN</text>
<text x="0" y="0" stroke="none" fill="#000000" transform="matrix(0.05 0 0 0.05 67.0068 1105.63)" font-style="normal" font-weight="normal" font-size="200px" font-family="Helvetica" >
O</text>
<text x="0" y="0" stroke="none" fill="#000000" transform="matrix(0.05 0 0 0.05 176.412 1005.74)" font-style="normal" font-weight="normal" font-size="200px" font-family="Helvetica" >
S</text>
<text x="0" y="0" stroke="none" fill="#000000" transform="matrix(0.05 0 0 0.05 137.651 988.61)" font-style="normal" font-weight="normal" font-size="200px" font-family="Helvetica" >
N</text>
<text x="0" y="0" stroke="none" fill="#000000" transform="matrix(0.05 0 0 0.05 166.486 959.411)" font-style="normal" font-weight="normal" font-size="200px" font-family="Helvetica" >
HN</text>
<text x="0" y="0" stroke="none" fill="#000000" transform="matrix(0.05 0 0 0.05 277.839 948.525)" font-style="normal" font-weight="normal" font-size="200px" font-family="Helvetica" >
F</text>
<path stroke="none" fill="#000000" transform="matrix(0.05 0 0 0.05 -19 -46)" d="M 2248.88,22191.6 L 2248.88,22168.5 L 2690.06,21913.8 L 2710.07,21925.3 L 2248.88,22191.6 Z " />
<path stroke="none" fill="#000000" transform="matrix(0.05 0 0 0.05 -19 -46)" d="M 2253.88,22116.3 L 2243.88,22099 L 2632.35,21874.7 L 2642.35,21892 L 2253.88,22116.3 Z " />
<path stroke="none" fill="#000000" transform="matrix(0.05 0 0 0.05 -19 -46)" d="M 2710.07,21925.3 L 2690.06,21913.8 L 2690.06,21404.3 L 2699.84,21398.7 L 2709.62,21404.3 L 2710.07,21925.3 Z " />
<path stroke="none" fill="#000000" transform="matrix(0.05 0 0 0.05 -19 -46)" d="M 2699.84,21387.4 L 2699.84,21398.7 L 2690.06,21404.3 L 2248.88,21149.6 L 2248.88,21126.5 L 2699.84,21387.4 Z " />
<path stroke="none" fill="#000000" transform="matrix(0.05 0 0 0.05 -19 -46)" d="M 2642.35,21426.1 L 2632.35,21443.4 L 2243.88,21219.1 L 2253.88,21201.8 L 2642.35,21426.1 Z " />
<path stroke="none" fill="#000000" transform="matrix(0.05 0 0 0.05 -19 -46)" d="M 2248.88,21126.5 L 2248.88,21149.6 L 1807.7,21404.3 L 1787.69,21392.8 L 2248.88,21126.5 Z " />
<path stroke="none" fill="#000000" transform="matrix(0.05 0 0 0.05 -19 -46)" d="M 2248.88,22168.5 L 2248.88,22191.6 L 1797.84,21930.7 L 1797.92,21919.4 L 1807.7,21913.8 L 2248.88,22168.5 Z " />
<path stroke="none" fill="#000000" transform="matrix(0.05 0 0 0.05 -19 -46)" d="M 1460.15,22126 L 1450.15,22108.7 L 1788.13,21913.9 L 1797.92,21919.4 L 1797.84,21930.7 L 1460.15,22126 Z " />
<path stroke="none" fill="#000000" transform="matrix(0.05 0 0 0.05 -19 -46)" d="M 1787.69,21392.8 L 1807.7,21404.3 L 1807.7,21913.8 L 1797.92,21919.4 L 1788.13,21913.9 L 1787.69,21392.8 Z " />
<path stroke="none" fill="#000000" transform="matrix(0.05 0 0 0.05 -19 -46)" d="M 1850.41,21434.8 L 1870.41,21434.8 L 1870.41,21883.3 L 1850.41,21883.3 L 1850.41,21434.8 Z " />
<path stroke="none" fill="#000000" transform="matrix(0.05 0 0 0.05 -19 -46)" d="M 1336.96,22291.1 L 1356.96,22291.1 L 1357.24,22706.4 L 1337.24,22694.8 L 1336.96,22291.1 Z " />
<path stroke="none" fill="#000000" transform="matrix(0.05 0 0 0.05 -19 -46)" d="M 1689.08,22922.6 L 1679.08,22939.9 L 1310.71,22727.2 L 1320.71,22709.9 L 1689.08,22922.6 Z " />
<path stroke="none" fill="#000000" transform="matrix(0.05 0 0 0.05 -19 -46)" d="M 1720.32,22868.4 L 1710.32,22885.8 L 1341.96,22673.1 L 1351.96,22655.8 L 1720.32,22868.4 Z " />
<path stroke="none" fill="#000000" transform="matrix(0.05 0 0 0.05 -19 -46)" d="M 1337.24,22694.8 L 1357.24,22706.4 L 900.998,22969.5 L 890.998,22952.2 L 1337.24,22694.8 Z " />
<path stroke="none" fill="#000000" transform="matrix(0.05 0 0 0.05 -19 -46)" d="M 3183.69,20729.7 L 3203.59,20731.8 L 3161.14,21132.3 L 3150.8,21138.3 L 3141.63,21132.3 L 3183.69,20729.7 Z " />
<path stroke="none" fill="#000000" transform="matrix(0.05 0 0 0.05 -19 -46)" d="M 2709.62,21404.3 L 2699.84,21398.7 L 2699.84,21387.4 L 3141.63,21132.3 L 3150.8,21138.3 L 3151.38,21149.3 L 2709.62,21404.3 Z " />
<path stroke="none" fill="#000000" transform="matrix(0.05 0 0 0.05 -19 -46)" d="M 3888.86,21043.8 L 3903.73,21057.2 L 3629.23,21362.6 L 3624.08,21338.4 L 3888.86,21043.8 Z " />
<path stroke="none" fill="#000000" transform="matrix(0.05 0 0 0.05 -19 -46)" d="M 3151.38,21149.3 L 3150.8,21138.3 L 3161.14,21132.3 L 3624.08,21338.4 L 3629.23,21362.6 L 3151.38,21149.3 Z " />
<path stroke="none" fill="#000000" transform="matrix(0.05 0 0 0.05 -19 -46)" d="M 3213.62,21108.9 L 3221.76,21090.6 L 3614.51,21265.4 L 3606.38,21283.7 L 3213.62,21108.9 Z " />
<path stroke="none" fill="#000000" transform="matrix(0.05 0 0 0.05 -19 -46)" d="M 3926.21,20858.8 L 3908.89,20868.8 L 3709.72,20523.1 L 3714.58,20512.2 L 3725.5,20511.6 L 3926.21,20858.8 Z " />
<path stroke="none" fill="#000000" transform="matrix(0.05 0 0 0.05 -19 -46)" d="M 3313.75,20607.6 L 3309.59,20588.1 L 3707.7,20503.7 L 3714.58,20512.2 L 3709.72,20523.1 L 3313.75,20607.6 Z " />
<path stroke="none" fill="#000000" transform="matrix(0.05 0 0 0.05 -19 -46)" d="M 3326.74,20668.7 L 3322.58,20649.2 L 3681.08,20573 L 3685.24,20592.5 L 3326.74,20668.7 Z " />
<path stroke="none" fill="#000000" transform="matrix(0.05 0 0 0.05 -19 -46)" d="M 3864.9,20150 L 3883.17,20158.1 L 3725.5,20511.6 L 3714.58,20512.2 L 3707.7,20503.7 L 3864.9,20150 Z " />
<path stroke="none" fill="#000000" transform="matrix(0.05 0 0 0.05 -19 -46)" d="M 4023.65,20036.3 L 4021.56,20016.4 L 4437.58,19973 L 4444.24,19982.1 L 4439.61,19992.3 L 4023.65,20036.3 Z " />
<path stroke="none" fill="#000000" transform="matrix(0.05 0 0 0.05 -19 -46)" d="M 4455.48,19980.9 L 4444.24,19982.1 L 4437.58,19973 L 4649.1,19496.8 L 4662.68,19515.5 L 4455.48,19980.9 Z " />
<path stroke="none" fill="#000000" transform="matrix(0.05 0 0 0.05 -19 -46)" d="M 4525.14,19978.6 L 4506.87,19970.5 L 4689.32,19560.7 L 4707.59,19568.8 L 4525.14,19978.6 Z " />
<path stroke="none" fill="#000000" transform="matrix(0.05 0 0 0.05 -19 -46)" d="M 4662.68,19515.5 L 4649.1,19496.8 L 5178.72,19441.1 L 5169.32,19462.2 L 4662.68,19515.5 Z " />
<path stroke="none" fill="#000000" transform="matrix(0.05 0 0 0.05 -19 -46)" d="M 5169.32,19462.2 L 5178.72,19441.1 L 5484.61,19862.9 L 5479.99,19873.2 L 5468.75,19874.4 L 5169.32,19462.2 Z " />
<path stroke="none" fill="#000000" transform="matrix(0.05 0 0 0.05 -19 -46)" d="M 5136.48,19523.7 L 5152.66,19512 L 5416.32,19874.9 L 5400.14,19886.6 L 5136.48,19523.7 Z " />
<path stroke="none" fill="#000000" transform="matrix(0.05 0 0 0.05 -19 -46)" d="M 5468.75,19874.4 L 5479.99,19873.2 L 5486.65,19882.3 L 5275.13,20358.5 L 5261.55,20339.8 L 5468.75,19874.4 Z " />
<path stroke="none" fill="#000000" transform="matrix(0.05 0 0 0.05 -19 -46)" d="M 4439.61,19992.3 L 4444.24,19982.1 L 4455.48,19980.9 L 4754.91,20393 L 4745.52,20414.1 L 4439.61,19992.3 Z " />
<path stroke="none" fill="#000000" transform="matrix(0.05 0 0 0.05 -19 -46)" d="M 5261.55,20339.8 L 5275.13,20358.5 L 4745.52,20414.1 L 4754.91,20393 L 5261.55,20339.8 Z " />
<path stroke="none" fill="#000000" transform="matrix(0.05 0 0 0.05 -19 -46)" d="M 5224.73,20280.6 L 5226.82,20300.5 L 4780.71,20347.4 L 4778.62,20327.5 L 5224.73,20280.6 Z " />
<path stroke="none" fill="#000000" transform="matrix(0.05 0 0 0.05 -19 -46)" d="M 5486.65,19882.3 L 5479.99,19873.2 L 5484.61,19862.9 L 5912.53,19817.7 L 5914.62,19837.6 L 5486.65,19882.3 Z " />
<text x="0" y="0" stroke="none" fill="#000000" transform="matrix(0.05 0 0 0.05 253.317 1117.69)" font-style="normal" font-weight="normal" font-size="200px" font-family="Helvetica" >
HN</text>
<text x="0" y="0" stroke="none" fill="#000000" transform="matrix(0.05 0 0 0.05 282.808 1156.74)" font-style="normal" font-weight="normal" font-size="200px" font-family="Helvetica" >
O</text>
<text x="0" y="0" stroke="none" fill="#000000" transform="matrix(0.05 0 0 0.05 392.213 1056.86)" font-style="normal" font-weight="normal" font-size="200px" font-family="Helvetica" >
S</text>
<text x="0" y="0" stroke="none" fill="#000000" transform="matrix(0.05 0 0 0.05 353.452 1039.72)" font-style="normal" font-weight="normal" font-size="200px" font-family="Helvetica" >
N</text>
<text x="0" y="0" stroke="none" fill="#000000" transform="matrix(0.05 0 0 0.05 382.287 1010.52)" font-style="normal" font-weight="normal" font-size="200px" font-family="Helvetica" >
HN</text>
<text x="0" y="0" stroke="none" fill="#000000" transform="matrix(0.05 0 0 0.05 472.46 1047.21)" font-style="normal" font-weight="normal" font-size="200px" font-family="Helvetica" >
F</text>
<path stroke="none" fill="#000000" transform="matrix(0.05 0 0 0.05 -19 -46)" d="M 6564.9,23213.8 L 6564.9,23190.7 L 7006.08,22936 L 7026.09,22947.6 L 6564.9,23213.8 Z " />
<path stroke="none" fill="#000000" transform="matrix(0.05 0 0 0.05 -19 -46)" d="M 6569.9,23138.5 L 6559.9,23121.2 L 6948.38,22896.9 L 6958.38,22914.3 L 6569.9,23138.5 Z " />
<path stroke="none" fill="#000000" transform="matrix(0.05 0 0 0.05 -19 -46)" d="M 7026.09,22947.6 L 7006.08,22936 L 7006.08,22426.6 L 7015.86,22420.9 L 7025.65,22426.6 L 7026.09,22947.6 Z " />
<path stroke="none" fill="#000000" transform="matrix(0.05 0 0 0.05 -19 -46)" d="M 7015.86,22409.7 L 7015.86,22420.9 L 7006.08,22426.6 L 6564.9,22171.9 L 6564.9,22148.8 L 7015.86,22409.7 Z " />
<path stroke="none" fill="#000000" transform="matrix(0.05 0 0 0.05 -19 -46)" d="M 6958.38,22448.4 L 6948.38,22465.7 L 6559.9,22241.4 L 6569.9,22224.1 L 6958.38,22448.4 Z " />
<path stroke="none" fill="#000000" transform="matrix(0.05 0 0 0.05 -19 -46)" d="M 6564.9,22148.8 L 6564.9,22171.9 L 6123.73,22426.6 L 6103.72,22415 L 6564.9,22148.8 Z " />
<path stroke="none" fill="#000000" transform="matrix(0.05 0 0 0.05 -19 -46)" d="M 6564.9,23190.7 L 6564.9,23213.8 L 6113.87,22952.9 L 6113.94,22941.7 L 6123.73,22936 L 6564.9,23190.7 Z " />
<path stroke="none" fill="#000000" transform="matrix(0.05 0 0 0.05 -19 -46)" d="M 5776.17,23148.2 L 5766.17,23130.9 L 6104.16,22936.1 L 6113.94,22941.7 L 6113.87,22952.9 L 5776.17,23148.2 Z " />
<path stroke="none" fill="#000000" transform="matrix(0.05 0 0 0.05 -19 -46)" d="M 6103.72,22415 L 6123.73,22426.6 L 6123.73,22936 L 6113.94,22941.7 L 6104.16,22936.1 L 6103.72,22415 Z " />
<path stroke="none" fill="#000000" transform="matrix(0.05 0 0 0.05 -19 -46)" d="M 6166.43,22457 L 6186.43,22457 L 6186.43,22905.6 L 6166.43,22905.6 L 6166.43,22457 Z " />
<path stroke="none" fill="#000000" transform="matrix(0.05 0 0 0.05 -19 -46)" d="M 5652.98,23313.3 L 5672.98,23313.3 L 5673.27,23728.6 L 5653.26,23717.1 L 5652.98,23313.3 Z " />
<path stroke="none" fill="#000000" transform="matrix(0.05 0 0 0.05 -19 -46)" d="M 6005.1,23944.8 L 5995.1,23962.1 L 5626.74,23749.5 L 5636.74,23732.1 L 6005.1,23944.8 Z " />
<path stroke="none" fill="#000000" transform="matrix(0.05 0 0 0.05 -19 -46)" d="M 6036.35,23890.7 L 6026.35,23908 L 5657.98,23695.3 L 5667.98,23678 L 6036.35,23890.7 Z " />
<path stroke="none" fill="#000000" transform="matrix(0.05 0 0 0.05 -19 -46)" d="M 5653.26,23717.1 L 5673.27,23728.6 L 5217.02,23991.8 L 5207.02,23974.5 L 5653.26,23717.1 Z " />
<path stroke="none" fill="#000000" transform="matrix(0.05 0 0 0.05 -19 -46)" d="M 7499.72,21751.9 L 7519.61,21754 L 7477.17,22154.5 L 7466.82,22160.6 L 7457.65,22154.6 L 7499.72,21751.9 Z " />
<path stroke="none" fill="#000000" transform="matrix(0.05 0 0 0.05 -19 -46)" d="M 7025.65,22426.6 L 7015.86,22420.9 L 7015.86,22409.7 L 7457.65,22154.6 L 7466.82,22160.6 L 7467.4,22171.6 L 7025.65,22426.6 Z " />
<path stroke="none" fill="#000000" transform="matrix(0.05 0 0 0.05 -19 -46)" d="M 8204.89,22066.1 L 8219.75,22079.4 L 7945.25,22384.9 L 7940.11,22360.7 L 8204.89,22066.1 Z " />
<path stroke="none" fill="#000000" transform="matrix(0.05 0 0 0.05 -19 -46)" d="M 7467.4,22171.6 L 7466.82,22160.6 L 7477.17,22154.5 L 7940.11,22360.7 L 7945.25,22384.9 L 7467.4,22171.6 Z " />
<path stroke="none" fill="#000000" transform="matrix(0.05 0 0 0.05 -19 -46)" d="M 7529.65,22131.1 L 7537.78,22112.8 L 7930.54,22287.7 L 7922.4,22306 L 7529.65,22131.1 Z " />
<path stroke="none" fill="#000000" transform="matrix(0.05 0 0 0.05 -19 -46)" d="M 8242.23,21881 L 8224.91,21891 L 8025.75,21545.4 L 8030.6,21534.4 L 8041.53,21533.9 L 8242.23,21881 Z " />
<path stroke="none" fill="#000000" transform="matrix(0.05 0 0 0.05 -19 -46)" d="M 7629.77,21629.9 L 7625.61,21610.3 L 8023.72,21525.9 L 8030.6,21534.4 L 8025.75,21545.4 L 7629.77,21629.9 Z " />
<path stroke="none" fill="#000000" transform="matrix(0.05 0 0 0.05 -19 -46)" d="M 7642.76,21691 L 7638.6,21671.4 L 7997.11,21595.2 L 8001.26,21614.8 L 7642.76,21691 Z " />
<path stroke="none" fill="#000000" transform="matrix(0.05 0 0 0.05 -19 -46)" d="M 8181.3,21171.4 L 8199.57,21179.5 L 8041.53,21533.9 L 8030.6,21534.4 L 8023.72,21525.9 L 8181.3,21171.4 Z " />
<path stroke="none" fill="#000000" transform="matrix(0.05 0 0 0.05 -19 -46)" d="M 8339.67,21058.6 L 8337.58,21038.7 L 8753.6,20995.2 L 8760.27,21004.3 L 8755.64,21014.6 L 8339.67,21058.6 Z " />
<path stroke="none" fill="#000000" transform="matrix(0.05 0 0 0.05 -19 -46)" d="M 8771.5,21003.1 L 8760.27,21004.3 L 8753.6,20995.2 L 8965.13,20519.1 L 8978.71,20537.7 L 8771.5,21003.1 Z " />
<path stroke="none" fill="#000000" transform="matrix(0.05 0 0 0.05 -19 -46)" d="M 8841.16,21000.8 L 8822.89,20992.7 L 9005.34,20582.9 L 9023.61,20591 L 8841.16,21000.8 Z " />
<path stroke="none" fill="#000000" transform="matrix(0.05 0 0 0.05 -19 -46)" d="M 8978.71,20537.7 L 8965.13,20519.1 L 9494.74,20463.4 L 9485.34,20484.5 L 8978.71,20537.7 Z " />
<path stroke="none" fill="#000000" transform="matrix(0.05 0 0 0.05 -19 -46)" d="M 9485.34,20484.5 L 9494.74,20463.4 L 9807.76,20894.2 L 9784.78,20896.6 L 9485.34,20484.5 Z " />
<path stroke="none" fill="#000000" transform="matrix(0.05 0 0 0.05 -19 -46)" d="M 9452.5,20546 L 9468.68,20534.2 L 9732.34,20897.1 L 9716.16,20908.9 L 9452.5,20546 Z " />
<path stroke="none" fill="#000000" transform="matrix(0.05 0 0 0.05 -19 -46)" d="M 9784.78,20896.6 L 9807.76,20894.2 L 9595.42,21370.1 L 9584.22,21371.2 L 9577.58,21362 L 9784.78,20896.6 Z " />
<path stroke="none" fill="#000000" transform="matrix(0.05 0 0 0.05 -19 -46)" d="M 8755.64,21014.6 L 8760.27,21004.3 L 8771.5,21003.1 L 9070.94,21415.3 L 9061.54,21436.4 L 8755.64,21014.6 Z " />
<path stroke="none" fill="#000000" transform="matrix(0.05 0 0 0.05 -19 -46)" d="M 9577.58,21362 L 9584.22,21371.2 L 9579.7,21381.5 L 9061.54,21436.4 L 9070.94,21415.3 L 9577.58,21362 Z " />
<path stroke="none" fill="#000000" transform="matrix(0.05 0 0 0.05 -19 -46)" d="M 9540.76,21302.8 L 9542.85,21322.7 L 9096.74,21369.6 L 9094.65,21349.7 L 9540.76,21302.8 Z " />
<path stroke="none" fill="#000000" transform="matrix(0.05 0 0 0.05 -19 -46)" d="M 9579.7,21381.5 L 9584.22,21371.2 L 9595.42,21370.1 L 9825.08,21685.7 L 9808.9,21697.4 L 9579.7,21381.5 Z " />
<text x="0" y="0" stroke="none" fill="#000000" transform="matrix(0.05 0 0 0.05 196.934 1367.42)" font-style="normal" font-weight="normal" font-size="200px" font-family="Helvetica" >
HN</text>
<text x="0" y="0" stroke="none" fill="#000000" transform="matrix(0.05 0 0 0.05 242.931 1344.87)" font-style="normal" font-weight="normal" font-size="200px" font-family="Helvetica" >
O</text>
<text x="0" y="0" stroke="none" fill="#000000" transform="matrix(0.05 0 0 0.05 143.6 1236.02)" font-style="normal" font-weight="normal" font-size="200px" font-family="Helvetica" >
S</text>
<text x="0" y="0" stroke="none" fill="#000000" transform="matrix(0.05 0 0 0.05 126.189 1274.51)" font-style="normal" font-weight="normal" font-size="200px" font-family="Helvetica" >
N</text>
<text x="0" y="0" stroke="none" fill="#000000" transform="matrix(0.05 0 0 0.05 89.769 1238.45)" font-style="normal" font-weight="normal" font-size="200px" font-family="Helvetica" >
HN</text>
<text x="0" y="0" stroke="none" fill="#000000" transform="matrix(0.05 0 0 0.05 139.675 1207.84)" font-style="normal" font-weight="normal" font-size="200px" font-family="Helvetica" >
F</text>
<path stroke="none" fill="#000000" transform="matrix(0.05 0 0 0.05 -19 -46)" d="M 4547.13,27294.8 L 4524.02,27294.8 L 4269.31,26853.6 L 4280.86,26833.6 L 4547.13,27294.8 Z " />
<path stroke="none" fill="#000000" transform="matrix(0.05 0 0 0.05 -19 -46)" d="M 4471.83,27289.8 L 4454.51,27299.8 L 4230.22,26911.3 L 4247.54,26901.3 L 4471.83,27289.8 Z " />
<path stroke="none" fill="#000000" transform="matrix(0.05 0 0 0.05 -19 -46)" d="M 4280.86,26833.6 L 4269.31,26853.6 L 3759.88,26853.6 L 3754.23,26843.8 L 3759.88,26834 L 4280.86,26833.6 Z " />
<path stroke="none" fill="#000000" transform="matrix(0.05 0 0 0.05 -19 -46)" d="M 3742.94,26843.8 L 3754.23,26843.8 L 3759.88,26853.6 L 3505.17,27294.8 L 3482.06,27294.8 L 3742.94,26843.8 Z " />
<path stroke="none" fill="#000000" transform="matrix(0.05 0 0 0.05 -19 -46)" d="M 3781.65,26901.3 L 3798.97,26911.3 L 3574.69,27299.8 L 3557.37,27289.8 L 3781.65,26901.3 Z " />
<path stroke="none" fill="#000000" transform="matrix(0.05 0 0 0.05 -19 -46)" d="M 3482.06,27294.8 L 3505.17,27294.8 L 3759.88,27735.9 L 3748.33,27755.9 L 3482.06,27294.8 Z " />
<path stroke="none" fill="#000000" transform="matrix(0.05 0 0 0.05 -19 -46)" d="M 4524.02,27294.8 L 4547.13,27294.8 L 4286.2,27745.8 L 4274.96,27745.7 L 4269.31,27735.9 L 4524.02,27294.8 Z " />
<path stroke="none" fill="#000000" transform="matrix(0.05 0 0 0.05 -19 -46)" d="M 4467.76,28059.7 L 4450.44,28069.7 L 4269.42,27755.5 L 4274.96,27745.7 L 4286.2,27745.8 L 4467.76,28059.7 Z " />
<path stroke="none" fill="#000000" transform="matrix(0.05 0 0 0.05 -19 -46)" d="M 3748.33,27755.9 L 3759.88,27735.9 L 4269.31,27735.9 L 4274.96,27745.7 L 4269.42,27755.5 L 3748.33,27755.9 Z " />
<path stroke="none" fill="#000000" transform="matrix(0.05 0 0 0.05 -19 -46)" d="M 3790.31,27693.2 L 3790.31,27673.2 L 4238.88,27673.2 L 4238.88,27693.2 L 3790.31,27693.2 Z " />
<path stroke="none" fill="#000000" transform="matrix(0.05 0 0 0.05 -19 -46)" d="M 4632.39,28206.7 L 4632.39,28186.7 L 5061.92,28186.4 L 5050.36,28206.4 L 4632.39,28206.7 Z " />
<path stroke="none" fill="#000000" transform="matrix(0.05 0 0 0.05 -19 -46)" d="M 5275.05,27859.8 L 5292.37,27869.8 L 5082.74,28232.9 L 5065.42,28222.9 L 5275.05,27859.8 Z " />
<path stroke="none" fill="#000000" transform="matrix(0.05 0 0 0.05 -19 -46)" d="M 5220.93,27828.6 L 5238.25,27838.6 L 5028.63,28201.7 L 5011.31,28191.7 L 5220.93,27828.6 Z " />
<path stroke="none" fill="#000000" transform="matrix(0.05 0 0 0.05 -19 -46)" d="M 5050.36,28206.4 L 5061.92,28186.4 L 5325.07,28642.6 L 5307.75,28652.6 L 5050.36,28206.4 Z " />
<path stroke="none" fill="#000000" transform="matrix(0.05 0 0 0.05 -19 -46)" d="M 3071.13,26358.5 L 3073.22,26338.6 L 3487.83,26382.5 L 3493.87,26392.8 L 3487.85,26402 L 3071.13,26358.5 Z " />
<path stroke="none" fill="#000000" transform="matrix(0.05 0 0 0.05 -19 -46)" d="M 3759.88,26834 L 3754.23,26843.8 L 3742.94,26843.8 L 3487.85,26402 L 3493.87,26392.8 L 3504.86,26392.3 L 3759.88,26834 Z " />
<path stroke="none" fill="#000000" transform="matrix(0.05 0 0 0.05 -19 -46)" d="M 3398.61,25654.1 L 3411.99,25639.2 L 3718.14,25914.4 L 3693.94,25919.6 L 3398.61,25654.1 Z " />
<path stroke="none" fill="#000000" transform="matrix(0.05 0 0 0.05 -19 -46)" d="M 3504.86,26392.3 L 3493.87,26392.8 L 3487.83,26382.5 L 3693.94,25919.6 L 3718.14,25914.4 L 3504.86,26392.3 Z " />
<path stroke="none" fill="#000000" transform="matrix(0.05 0 0 0.05 -19 -46)" d="M 3464.39,26330 L 3446.12,26321.9 L 3620.98,25929.1 L 3639.25,25937.3 L 3464.39,26330 Z " />
<path stroke="none" fill="#000000" transform="matrix(0.05 0 0 0.05 -19 -46)" d="M 3216.18,25616.3 L 3226.18,25633.7 L 2878.63,25833.9 L 2867.74,25829.1 L 2867.16,25818.1 L 3216.18,25616.3 Z " />
<path stroke="none" fill="#000000" transform="matrix(0.05 0 0 0.05 -19 -46)" d="M 2960.21,26216 L 2940.65,26220.2 L 2859.23,25836 L 2867.74,25829.1 L 2878.63,25833.9 L 2960.21,26216 Z " />
<path stroke="none" fill="#000000" transform="matrix(0.05 0 0 0.05 -19 -46)" d="M 3021.33,26203 L 3001.77,26207.2 L 2928.51,25862.6 L 2948.08,25858.4 L 3021.33,26203 Z " />
<path stroke="none" fill="#000000" transform="matrix(0.05 0 0 0.05 -19 -46)" d="M 2497.78,25675.3 L 2505.92,25657 L 2867.16,25818.1 L 2867.74,25829.1 L 2859.23,25836 L 2497.78,25675.3 Z " />
<path stroke="none" fill="#000000" transform="matrix(0.05 0 0 0.05 -19 -46)" d="M 2390.23,25504.5 L 2370.34,25506.6 L 2328.53,25106.1 L 2337.6,25099.4 L 2347.86,25104 L 2390.23,25504.5 Z " />
<path stroke="none" fill="#000000" transform="matrix(0.05 0 0 0.05 -19 -46)" d="M 2336.42,25088.2 L 2337.6,25099.4 L 2328.53,25106.1 L 1852.34,24894.5 L 1871.03,24881 L 2336.42,25088.2 Z " />
<path stroke="none" fill="#000000" transform="matrix(0.05 0 0 0.05 -19 -46)" d="M 2334.13,25018.5 L 2325.99,25036.8 L 1916.2,24854.3 L 1924.34,24836.1 L 2334.13,25018.5 Z " />
<path stroke="none" fill="#000000" transform="matrix(0.05 0 0 0.05 -19 -46)" d="M 1871.03,24881 L 1852.34,24894.5 L 1796.68,24364.9 L 1817.78,24374.3 L 1871.03,24881 Z " />
<path stroke="none" fill="#000000" transform="matrix(0.05 0 0 0.05 -19 -46)" d="M 1817.78,24374.3 L 1796.68,24364.9 L 2227.5,24051.9 L 2229.92,24074.9 L 1817.78,24374.3 Z " />
<path stroke="none" fill="#000000" transform="matrix(0.05 0 0 0.05 -19 -46)" d="M 1879.26,24407.2 L 1867.5,24391 L 2230.4,24127.3 L 2242.16,24143.5 L 1879.26,24407.2 Z " />
<path stroke="none" fill="#000000" transform="matrix(0.05 0 0 0.05 -19 -46)" d="M 2229.92,24074.9 L 2227.5,24051.9 L 2714,24268.5 L 2695.31,24282.1 L 2229.92,24074.9 Z " />
<path stroke="none" fill="#000000" transform="matrix(0.05 0 0 0.05 -19 -46)" d="M 2347.86,25104 L 2337.6,25099.4 L 2336.42,25088.2 L 2748.55,24788.7 L 2758.87,24793.3 L 2760.11,24804.5 L 2347.86,25104 Z " />
<path stroke="none" fill="#000000" transform="matrix(0.05 0 0 0.05 -19 -46)" d="M 2695.31,24282.1 L 2714,24268.5 L 2768.02,24786.8 L 2758.87,24793.3 L 2748.55,24788.7 L 2695.31,24282.1 Z " />
<path stroke="none" fill="#000000" transform="matrix(0.05 0 0 0.05 -19 -46)" d="M 2636.13,24318.9 L 2656.02,24316.8 L 2702.9,24762.9 L 2683.01,24765 L 2636.13,24318.9 Z " />
<path stroke="none" fill="#000000" transform="matrix(0.05 0 0 0.05 -19 -46)" d="M 2760.11,24804.5 L 2758.87,24793.3 L 2768.02,24786.8 L 3137.9,24951.1 L 3129.77,24969.4 L 2760.11,24804.5 Z " />
<text x="0" y="0" stroke="none" fill="#000000" transform="matrix(0.05 0 0 0.05 353.571 1359.45)" font-style="normal" font-weight="normal" font-size="200px" font-family="Helvetica" >
HN</text>
<text x="0" y="0" stroke="none" fill="#000000" transform="matrix(0.05 0 0 0.05 214.105 1452.55)" font-style="normal" font-weight="normal" font-size="200px" font-family="Helvetica" >
HN</text>
<text x="0" y="0" stroke="none" fill="#000000" transform="matrix(0.05 0 0 0.05 429.529 1312.42)" font-style="normal" font-weight="normal" font-size="150px" font-family="Helvetica" >
&amp;1</text>
<text x="0" y="0" stroke="none" fill="#000000" transform="matrix(0.05 0 0 0.05 426.44 1291.8)" font-style="normal" font-weight="normal" font-size="200px" font-family="Helvetica" >
F</text>
<text x="0" y="0" stroke="none" fill="#000000" transform="matrix(0.05 0 0 0.05 452.476 1291.8)" font-style="normal" font-weight="normal" font-size="200px" font-family="Helvetica" >
F</text>
<text x="0" y="0" stroke="none" fill="#000000" transform="matrix(0.05 0 0 0.05 465.494 1314.35)" font-style="normal" font-weight="normal" font-size="200px" font-family="Helvetica" >
F</text>
<text x="0" y="0" stroke="none" fill="#000000" transform="matrix(0.05 0 0 0.05 321.881 1384.72)" font-style="normal" font-weight="normal" font-size="200px" font-family="Helvetica" >
N</text>
<text x="0" y="0" stroke="none" fill="#000000" transform="matrix(0.05 0 0 0.05 239.391 1493.74)" font-style="normal" font-weight="normal" font-size="200px" font-family="Helvetica" >
O</text>
<text x="0" y="0" stroke="none" fill="#000000" transform="matrix(0.05 0 0 0.05 358.64 1405.78)" font-style="normal" font-weight="normal" font-size="200px" font-family="Helvetica" >
S</text>
<path stroke="none" fill="#000000" transform="matrix(0.05 0 0 0.05 -19 -46)" d="M 8964.24,27576.5 L 8969.88,27586.3 L 8964.24,27596.1 L 8454.81,27596.1 L 8443.25,27576.1 L 8964.24,27576.5 Z " />
<path stroke="none" fill="#000000" transform="matrix(0.05 0 0 0.05 -19 -46)" d="M 8933.81,27638.8 L 8933.81,27658.8 L 8485.24,27658.8 L 8485.24,27638.8 L 8933.81,27638.8 Z " />
<path stroke="none" fill="#000000" transform="matrix(0.05 0 0 0.05 -19 -46)" d="M 7764.15,28047.2 L 7764.15,28027.2 L 8183.12,28027.5 L 8188.8,28037.2 L 8183.12,28047 L 7764.15,28047.2 Z " />
<path stroke="none" fill="#000000" transform="matrix(0.05 0 0 0.05 -19 -46)" d="M 8443.25,27576.1 L 8454.81,27596.1 L 8200.09,28037.2 L 8188.8,28037.2 L 8183.12,28027.5 L 8443.25,27576.1 Z " />
<path stroke="none" fill="#000000" transform="matrix(0.05 0 0 0.05 -19 -46)" d="M 8981.18,27586.3 L 8969.88,27586.3 L 8964.24,27576.5 L 9218.97,27135.3 L 9230.25,27135.3 L 9235.92,27145.1 L 8981.18,27586.3 Z " />
<path stroke="none" fill="#000000" transform="matrix(0.05 0 0 0.05 -19 -46)" d="M 7584.07,28162.7 L 7601.39,28172.7 L 7418.63,28488.8 L 7407.71,28488.2 L 7401.79,28479 L 7584.07,28162.7 Z " />
<path stroke="none" fill="#000000" transform="matrix(0.05 0 0 0.05 -19 -46)" d="M 4857.22,30008.4 L 4877.11,30010.5 L 4833.94,30424 L 4815.25,30410.4 L 4857.22,30008.4 Z " />
<path stroke="none" fill="#000000" transform="matrix(0.05 0 0 0.05 -19 -46)" d="M 8183.12,28047 L 8188.8,28037.2 L 8200.09,28037.2 L 8454.81,28478.4 L 8443.25,28498.4 L 8183.12,28047 Z " />
<path stroke="none" fill="#000000" transform="matrix(0.05 0 0 0.05 -19 -46)" d="M 8252.29,28042.2 L 8269.61,28032.2 L 8493.9,28420.7 L 8476.58,28430.7 L 8252.29,28042.2 Z " />
<path stroke="none" fill="#000000" transform="matrix(0.05 0 0 0.05 -19 -46)" d="M 5774.5,30005.2 L 5776.91,29982.2 L 6242.3,29775 L 6260.99,29788.6 L 5774.5,30005.2 Z " />
<path stroke="none" fill="#000000" transform="matrix(0.05 0 0 0.05 -19 -46)" d="M 5787.34,29930.8 L 5779.21,29912.6 L 6189,29730.1 L 6197.13,29748.4 L 5787.34,29930.8 Z " />
<path stroke="none" fill="#000000" transform="matrix(0.05 0 0 0.05 -19 -46)" d="M 6295.55,29268.4 L 6305.87,29263.8 L 6315.01,29270.4 L 6260.99,29788.6 L 6242.3,29775 L 6295.55,29268.4 Z " />
<path stroke="none" fill="#000000" transform="matrix(0.05 0 0 0.05 -19 -46)" d="M 4994.02,29858.8 L 4985.88,29840.5 L 5345.31,29680.8 L 5354.46,29687.4 L 5353.21,29698.6 L 4994.02,29858.8 Z " />
<path stroke="none" fill="#000000" transform="matrix(0.05 0 0 0.05 -19 -46)" d="M 5776.91,29982.2 L 5774.5,30005.2 L 5353.21,29698.6 L 5354.46,29687.4 L 5364.78,29682.8 L 5776.91,29982.2 Z " />
<path stroke="none" fill="#000000" transform="matrix(0.05 0 0 0.05 -19 -46)" d="M 5399.34,29162.6 L 5418.03,29176.1 L 5364.78,29682.8 L 5354.46,29687.4 L 5345.31,29680.8 L 5399.34,29162.6 Z " />
<path stroke="none" fill="#000000" transform="matrix(0.05 0 0 0.05 -19 -46)" d="M 5457.32,29210.9 L 5477.21,29213 L 5430.32,29659.1 L 5410.43,29657 L 5457.32,29210.9 Z " />
<path stroke="none" fill="#000000" transform="matrix(0.05 0 0 0.05 -19 -46)" d="M 5418.03,29176.1 L 5399.34,29162.6 L 5885.83,28946 L 5883.41,28968.9 L 5418.03,29176.1 Z " />
<path stroke="none" fill="#000000" transform="matrix(0.05 0 0 0.05 -19 -46)" d="M 6307.05,29252.5 L 6305.87,29263.8 L 6295.55,29268.4 L 5883.41,28968.9 L 5885.83,28946 L 6307.05,29252.5 Z " />
<path stroke="none" fill="#000000" transform="matrix(0.05 0 0 0.05 -19 -46)" d="M 6245.83,29285 L 6234.08,29301.2 L 5871.17,29037.6 L 5882.93,29021.4 L 6245.83,29285 Z " />
<path stroke="none" fill="#000000" transform="matrix(0.05 0 0 0.05 -19 -46)" d="M 4815.25,30410.4 L 4833.94,30424 L 4352.69,30638 L 4344.55,30619.7 L 4815.25,30410.4 Z " />
<path stroke="none" fill="#000000" transform="matrix(0.05 0 0 0.05 -19 -46)" d="M 8443.25,28498.4 L 8454.81,28478.4 L 8964.24,28478.4 L 8975.79,28498.4 L 8443.25,28498.4 Z " />
<path stroke="none" fill="#000000" transform="matrix(0.05 0 0 0.05 -19 -46)" d="M 8964.24,27596.1 L 8969.88,27586.3 L 8981.18,27586.3 L 9242.05,28037.2 L 9218.95,28037.2 L 8964.24,27596.1 Z " />
<path stroke="none" fill="#000000" transform="matrix(0.05 0 0 0.05 -19 -46)" d="M 8975.79,28498.4 L 8964.24,28478.4 L 9218.95,28037.2 L 9242.05,28037.2 L 8975.79,28498.4 Z " />
<path stroke="none" fill="#000000" transform="matrix(0.05 0 0 0.05 -19 -46)" d="M 8942.47,28430.7 L 8925.15,28420.7 L 9149.43,28032.2 L 9166.75,28042.2 L 8942.47,28430.7 Z " />
<path stroke="none" fill="#000000" transform="matrix(0.05 0 0 0.05 -19 -46)" d="M 7231.35,29300.4 L 7233.94,29325 L 6781,29063 L 6781.57,29052 L 6792.48,29047 L 7231.35,29300.4 Z " />
<path stroke="none" fill="#000000" transform="matrix(0.05 0 0 0.05 -19 -46)" d="M 7229.46,29226.9 L 7219.46,29244.2 L 6847.13,29029.2 L 6857.13,29011.9 L 7229.46,29226.9 Z " />
<path stroke="none" fill="#000000" transform="matrix(0.05 0 0 0.05 -19 -46)" d="M 6315.01,29270.4 L 6305.87,29263.8 L 6307.05,29252.5 L 6773.09,29045 L 6781.57,29052 L 6781,29063 L 6315.01,29270.4 Z " />
<path stroke="none" fill="#000000" transform="matrix(0.05 0 0 0.05 -19 -46)" d="M 9230.3,27116.9 L 9230.25,27135.3 L 9218.97,27135.3 L 8999.34,26755.4 L 9016.66,26745.4 L 9230.3,27116.9 Z " />
<path stroke="none" fill="#000000" transform="matrix(0.05 0 0 0.05 -19 -46)" d="M 9246.21,27126.1 L 9230.25,27135.3 L 9230.3,27116.9 L 9419.84,26786.9 L 9437.16,26796.9 L 9246.21,27126.1 Z " />
<path stroke="none" fill="#000000" transform="matrix(0.05 0 0 0.05 -19 -46)" d="M 9235.92,27145.1 L 9230.25,27135.3 L 9246.21,27126.1 L 9665.98,27125.3 L 9665.98,27145.3 L 9235.92,27145.1 Z " />
<path stroke="none" fill="#000000" transform="matrix(0.05 0 0 0.05 -19 -46)" d="M 7401.79,28479 L 7407.71,28488.2 L 7401.75,28498.6 L 6987.06,28542.5 L 6984.97,28522.6 L 7401.79,28479 Z " />
<path stroke="none" fill="#000000" transform="matrix(0.05 0 0 0.05 -19 -46)" d="M 7368.05,28545.2 L 7370.14,28565 L 6993.59,28604.6 L 6991.5,28584.7 L 7368.05,28545.2 Z " />
<path stroke="none" fill="#000000" transform="matrix(0.05 0 0 0.05 -19 -46)" d="M 6792.48,29047 L 6781.57,29052 L 6773.09,29045 L 6854.74,28659.7 L 6874.3,28663.8 L 6792.48,29047 Z " />
<path stroke="none" fill="#000000" transform="matrix(0.05 0 0 0.05 -19 -46)" d="M 4822.22,30389.3 L 4833.97,30373.1 L 5177.52,30622.7 L 5165.76,30638.9 L 4822.22,30389.3 Z " />
<path stroke="none" fill="#000000" transform="matrix(0.05 0 0 0.05 -19 -46)" d="M 4785.49,30439.8 L 4797.24,30423.6 L 5140.79,30673.2 L 5129.03,30689.4 L 4785.49,30439.8 Z " />
<path stroke="none" fill="#000000" transform="matrix(0.05 0 0 0.05 -19 -46)" d="M 7401.75,28498.6 L 7407.71,28488.2 L 7418.63,28488.8 L 7581.88,28854.8 L 7563.61,28862.9 L 7401.75,28498.6 Z " />
<path stroke="none" fill="#000000" transform="matrix(0.05 0 0 0.05 -19 -46)" d="M 7233.94,29325 L 7231.35,29300.4 L 7526.41,29034.3 L 7539.79,29049.1 L 7233.94,29325 Z " />
</svg>
